<?xml version="1.0" encoding="utf-8"?>
<!-- Generator: Adobe Illustrator 21.0.0, SVG Export Plug-In . SVG Version: 6.00 Build 0)  -->
<svg version="1.1" id="Слой_1" xmlns="http://www.w3.org/2000/svg" xmlns:xlink="http://www.w3.org/1999/xlink" x="0px" y="0px"
	 viewBox="0 0 346 211" style="enable-background:new 0 0 346 211;" xml:space="preserve">
<style type="text/css">
	.st0{fill:#666666;}
</style>
<g>
	<g>
		<path d="M18.7,19c-0.2,0.6-0.5,1.2-0.9,1.8c-1,1.2-2.4,1.8-4,1.8c-1.6,0-3-0.6-4-1.8c-0.9-1.2-1.3-2.6-1.2-4.1
			c0-1.5,0.3-2.9,1.2-4.1c0.9-1.2,2.4-1.8,4-1.8s3.1,0.6,4,1.8c0.5,0.6,0.8,1.3,1,2.1l-1.3,0.2c-0.1-0.5-0.3-1.1-0.7-1.5
			c-0.7-0.9-1.8-1.3-3-1.4c-1.1,0-2.3,0.5-3,1.4c-0.7,0.9-0.9,2.1-0.9,3.3s0.2,2.4,0.9,3.3c0.7,0.9,1.8,1.3,3,1.3
			c1.2,0,2.3-0.5,3-1.3c0.3-0.4,0.5-0.9,0.6-1.4L18.7,19z"/>
		<path d="M20.4,15.5c0.1-0.1,0.2-0.3,0.2-0.4c0.7-1,1.8-1.4,3.1-1.4c1.5,0,2.8,0.6,3.4,1.9c0.2,0.5,0.3,1,0.3,1.5v5.3h-1.1v-1.7
			c-0.3,0.6-0.9,1.1-1.5,1.4c-0.7,0.3-1.4,0.5-2.2,0.5c-0.8,0-1.7-0.5-2.2-1.1c-0.3-0.5-0.5-1-0.5-1.5c0-0.9,0.5-1.7,1.2-2.1
			c0.9-0.5,1.8-0.6,3.2-0.8l1.8-0.2c-0.1-0.5-0.3-1-0.7-1.3c-0.5-0.4-1.1-0.5-1.7-0.5c-0.8,0-1.5,0.3-2,0.9
			c-0.1,0.1-0.1,0.2-0.2,0.3L20.4,15.5z M24.2,18.1c-1.4,0.2-2.8,0.5-2.9,1.7c0,0.8,0.7,1.5,1.6,1.6c1.1,0.1,2.5-0.5,3-1.6
			c0.3-0.7,0.3-1.2,0.3-1.9C25.6,17.9,25.1,18,24.2,18.1z"/>
		<path d="M36.3,13.9v8.4H35v-7.3h-3.2l-0.5,4.3c-0.2,1.8-0.7,3.1-2.6,3v-1.2c1.1,0,1.2-0.8,1.4-2.1l0.6-5.2H36.3z"/>
		<path d="M49.2,18.1c0,1.1-0.2,2.2-1,3.1c-0.8,0.9-1.8,1.4-3.1,1.4c-1.2,0-2.3-0.5-3.1-1.4c-0.6-0.7-0.8-1.6-0.9-2.4h-1.5v3.6h-1.3
			v-8.4h1.3v3.6h1.5c0.1-0.9,0.4-1.7,0.9-2.4c0.7-0.9,1.8-1.4,3.1-1.4c1.2,0,2.3,0.5,3.1,1.4C49,15.9,49.2,17,49.2,18.1z M47.9,18.1
			c0-0.8-0.2-1.7-0.6-2.3s-1.2-0.9-2.1-0.9s-1.6,0.3-2,0.9c-0.5,0.6-0.6,1.5-0.6,2.3c0,0.8,0.1,1.7,0.6,2.3c0.5,0.6,1.2,1,2,1
			s1.6-0.3,2.1-1S47.9,18.9,47.9,18.1z"/>
		<path d="M57.4,15.1h-3v7.3h-1.3v-7.3h-3v-1.2h7.2V15.1z"/>
		<path d="M60.2,13.9V17h2.3c0.7,0,1.4,0.3,1.9,0.8c0.5,0.5,0.8,1.2,0.8,1.9c0,0.7-0.3,1.4-0.8,1.9c-0.5,0.5-1.2,0.8-1.9,0.8h-3.6
			l0-8.4H60.2z M60.2,21.1h2.2c0.4,0,0.7-0.2,1-0.5c0.3-0.3,0.4-0.6,0.4-1c0-0.4-0.1-0.7-0.4-1c-0.2-0.3-0.6-0.5-1-0.5h-2.2V21.1z
			 M67.4,13.9v8.4h-1.3v-8.4H67.4z"/>
		<path d="M17.5,36.6c0,0.8-0.3,1.6-0.8,2.2c-0.6,0.8-1.7,1.3-2.7,1.3h-3.5v4.2H9.2V33.1H14c0.4,0,0.8,0.1,1.2,0.2
			c0.5,0.2,1,0.5,1.4,1C17.2,34.9,17.5,35.7,17.5,36.6z M16.2,36.6c0-0.6-0.2-1.2-0.7-1.6c-0.4-0.4-1-0.7-1.6-0.7h-3.5v4.6H14
			c0.6,0,1.3-0.3,1.7-0.8C16,37.6,16.2,37.1,16.2,36.6z"/>
		<path d="M26,44.3h-1.3V38l-4.5,6.4h-1.1v-8.4h1.3v6.3l4.5-6.3H26V44.3z"/>
		<path d="M36.9,35.9l0,8.4h-1.3v-5.6L33,43.3h-0.9l-2.6-4.6v5.6h-1.3v-8.4h1.2l3.2,5.5l3.2-5.5H36.9z"/>
		<path d="M45,38.3c-0.1-0.2-0.2-0.3-0.3-0.5c-0.5-0.6-1.2-1-2.1-1c-0.8,0-1.6,0.3-2,1c-0.5,0.6-0.6,1.5-0.6,2.3
			c0,0.8,0.2,1.7,0.6,2.3c0.5,0.6,1.2,0.9,2,0.9c0.8,0,1.6-0.3,2.1-0.9c0.1-0.1,0.2-0.3,0.3-0.5l1.2,0.5c-0.1,0.2-0.3,0.5-0.5,0.7
			c-0.7,0.9-1.9,1.4-3.1,1.4c-1.2,0-2.3-0.5-3.1-1.4c-0.7-0.9-0.9-2-1-3.1c0-1.1,0.2-2.2,1-3.1c0.8-1,1.9-1.4,3.1-1.4
			c1.2,0,2.3,0.5,3.1,1.4c0.2,0.2,0.3,0.5,0.5,0.7L45,38.3z"/>
		<path d="M52,40.1l2.8,4.2l-1.4,0L51,40.6h-1.9v3.7h-1.3v-8.4h1.3v3.7H51l2.3-3.7h1.4L52,40.1z"/>
		<path d="M62.8,44.3h-1.3V38L57,44.3h-1.1v-8.4h1.3v6.3l4.5-6.3h1.1V44.3z"/>
		<path d="M66.5,42.4c0.5,0.6,1.2,1,2,1s1.6-0.3,2-1c0.1-0.2,0.2-0.3,0.3-0.5l1.2,0.5c-0.1,0.2-0.3,0.5-0.5,0.7
			c-0.7,0.9-1.9,1.4-3.1,1.4c-1.2,0-2.3-0.5-3.1-1.4c-0.7-0.9-1-2-1-3.1c0-1.1,0.2-2.2,1-3.1c0.8-0.9,1.9-1.4,3.1-1.4
			s2.3,0.5,3.1,1.4c0.7,0.9,1,2,1,3.1c0,0.1,0,0.2,0,0.3h-6.7C66,41.2,66.1,41.9,66.5,42.4z M66.5,37.8c-0.3,0.4-0.5,1-0.6,1.6h5.2
			c-0.1-0.6-0.2-1.1-0.6-1.6c-0.5-0.6-1.2-1-2-1S67,37.2,66.5,37.8z"/>
		<path d="M83.7,38.3c-0.1-0.2-0.2-0.3-0.3-0.5c-0.5-0.6-1.2-1-2.1-1c-0.8,0-1.6,0.3-2,1c-0.5,0.6-0.6,1.5-0.6,2.3
			c0,0.8,0.2,1.7,0.6,2.3c0.5,0.6,1.2,0.9,2,0.9c0.8,0,1.6-0.3,2.1-0.9c0.1-0.1,0.2-0.3,0.3-0.5l1.2,0.5c-0.1,0.2-0.3,0.5-0.5,0.7
			c-0.7,0.9-1.9,1.4-3.1,1.4c-1.2,0-2.3-0.5-3.1-1.4c-0.7-0.9-0.9-2-1-3.1c0-1.1,0.2-2.2,1-3.1c0.8-1,1.9-1.4,3.1-1.4
			c1.2,0,2.3,0.5,3.1,1.4c0.2,0.2,0.3,0.5,0.5,0.7L83.7,38.3z"/>
		<path d="M90.6,35.9c0.7,0,1.3,0.2,1.8,0.7c0.5,0.4,0.8,1,0.8,1.7c0,0.5-0.2,1-0.5,1.4c-0.1,0.1-0.2,0.2-0.3,0.3
			c0.2,0.2,0.5,0.3,0.6,0.6c0.3,0.4,0.5,0.9,0.5,1.4c0,0.7-0.3,1.4-0.8,1.8c-0.5,0.4-1.1,0.6-1.6,0.6h-4.6v-8.4L90.6,35.9z
			 M87.8,39.6h2.8c0.4,0,0.7-0.2,1-0.5c0.2-0.2,0.3-0.6,0.3-0.9c0-0.3-0.1-0.6-0.3-0.8c-0.2-0.3-0.5-0.5-1-0.5h-2.8V39.6z
			 M87.8,43.3H91c0.4,0,0.7-0.1,1-0.4c0.2-0.2,0.3-0.6,0.3-0.9s-0.1-0.7-0.3-0.9c-0.3-0.4-0.7-0.4-1.2-0.4h-3V43.3z"/>
		<path d="M96.8,42.4c0.5,0.6,1.2,1,2,1s1.6-0.3,2-1c0.1-0.2,0.2-0.3,0.3-0.5l1.2,0.5c-0.1,0.2-0.3,0.5-0.5,0.7
			c-0.7,0.9-1.9,1.4-3.1,1.4c-1.2,0-2.3-0.5-3.1-1.4c-0.7-0.9-1-2-1-3.1c0-1.1,0.2-2.2,1-3.1c0.8-0.9,1.9-1.4,3.1-1.4
			s2.3,0.5,3.1,1.4c0.7,0.9,1,2,1,3.1c0,0.1,0,0.2,0,0.3h-6.7C96.2,41.2,96.4,41.9,96.8,42.4z M96.8,37.8c-0.3,0.4-0.5,1-0.6,1.6
			h5.2c-0.1-0.6-0.2-1.1-0.6-1.6c-0.5-0.6-1.2-1-2-1S97.3,37.2,96.8,37.8z"/>
		<path d="M111.5,35.9v8.4h-1.3v-2.9l-0.1,0.1c-0.6,0.6-1.4,0.8-2.2,0.9c-0.8,0.1-1.7-0.2-2.4-0.7c-1.2-0.9-1.4-2.2-1.3-3.8v-2.1
			h1.3V38c0,1.2,0.1,2.2,0.9,2.8c0.4,0.3,1,0.5,1.6,0.5c0.5,0,1-0.2,1.4-0.5c0.4-0.3,0.7-0.8,0.8-1.4c0.1-0.5,0.1-1.1,0.1-1.8v0
			v-1.6H111.5z"/>
		<path d="M120.6,44.3h-1.3V38l-4.5,6.4h-1.1v-8.4h1.3v6.3l4.5-6.3h1.1V44.3z"/>
		<path d="M19.3,60.4c0,1.4-0.5,2.7-1.7,3.5c-0.9,0.7-2,1-3.1,1v1.4h-1.3v-1.4c-1.1-0.1-2.1-0.4-3-1c-1.1-0.8-1.7-2.1-1.7-3.5
			c0-1.4,0.5-2.7,1.6-3.5c0.9-0.7,2-1,3.1-1v-0.7h1.3v0.7c1.1,0.1,2.1,0.4,3.1,1.1C18.8,57.7,19.3,59,19.3,60.4z M13.3,63.6v-6.5
			c-0.9,0.1-1.7,0.4-2.3,0.8c-0.8,0.6-1.1,1.4-1.1,2.4c0,1,0.3,1.8,1,2.4C11.7,63.3,12.5,63.5,13.3,63.6z M18,60.4
			c0-1-0.3-1.8-1-2.4c-0.6-0.5-1.4-0.7-2.3-0.8v6.5c0.9-0.1,1.7-0.3,2.3-0.8C17.7,62.2,18,61.3,18,60.4z"/>
		<path d="M22.5,64.4c0.5,0.6,1.2,1,2,1s1.6-0.3,2-1c0.1-0.2,0.2-0.3,0.3-0.5l1.2,0.5c-0.1,0.2-0.3,0.5-0.5,0.7
			c-0.7,0.9-1.9,1.4-3.1,1.4c-1.2,0-2.3-0.5-3.1-1.4c-0.7-0.9-1-2-1-3.1c0-1.1,0.2-2.2,1-3.1c0.8-0.9,1.9-1.4,3.1-1.4
			s2.3,0.5,3.1,1.4c0.7,0.9,1,2,1,3.1c0,0.1,0,0.2,0,0.3h-6.7C22,63.2,22.1,63.9,22.5,64.4z M22.5,59.8c-0.3,0.4-0.5,1-0.6,1.6h5.2
			c-0.1-0.6-0.2-1.1-0.6-1.6c-0.5-0.6-1.2-1-2-1S23,59.2,22.5,59.8z"/>
		<path d="M36.2,60.3c-0.1-0.2-0.2-0.3-0.3-0.5c-0.5-0.6-1.2-1-2.1-1c-0.8,0-1.6,0.3-2,1c-0.5,0.6-0.6,1.5-0.6,2.3
			c0,0.8,0.2,1.7,0.6,2.3c0.5,0.6,1.2,0.9,2,0.9c0.8,0,1.6-0.3,2.1-0.9c0.1-0.1,0.2-0.3,0.3-0.5l1.2,0.5c-0.1,0.2-0.3,0.5-0.5,0.7
			c-0.7,0.9-1.9,1.4-3.1,1.4c-1.2,0-2.3-0.5-3.1-1.4c-0.7-0.9-0.9-2-1-3.1c0-1.1,0.2-2.2,1-3.1c0.8-1,1.9-1.4,3.1-1.4
			c1.2,0,2.3,0.5,3.1,1.4c0.2,0.2,0.3,0.5,0.5,0.7L36.2,60.3z"/>
		<path d="M45.5,59.1h-3v7.3h-1.3v-7.3h-3v-1.2h7.2V59.1z"/>
		<path d="M54,66.3h-1.3V60l-4.5,6.4H47v-8.4h1.3v6.3l4.5-6.3H54V66.3z"/>
		<path d="M60.2,57.9c0.7,0,1.3,0.2,1.8,0.7c0.5,0.4,0.8,1,0.8,1.7c0,0.5-0.2,1-0.5,1.4c-0.1,0.1-0.2,0.2-0.3,0.3
			c0.2,0.2,0.5,0.3,0.6,0.6c0.3,0.4,0.5,0.9,0.5,1.4c0,0.7-0.3,1.4-0.8,1.8c-0.5,0.4-1.1,0.6-1.6,0.6h-4.6v-8.4L60.2,57.9z
			 M57.4,61.6h2.8c0.4,0,0.7-0.2,1-0.5c0.2-0.2,0.3-0.6,0.3-0.9c0-0.3-0.1-0.6-0.3-0.8c-0.2-0.3-0.5-0.5-1-0.5h-2.8V61.6z
			 M57.4,65.3h3.2c0.4,0,0.7-0.1,1-0.4c0.2-0.2,0.3-0.6,0.3-0.9s-0.1-0.7-0.3-0.9c-0.3-0.4-0.7-0.4-1.2-0.4h-3V65.3z"/>
		<path d="M64.8,59.5c0.1-0.1,0.2-0.3,0.2-0.4c0.7-1,1.8-1.4,3.1-1.4c1.5,0,2.8,0.6,3.4,1.9c0.2,0.5,0.3,1,0.3,1.5v5.3h-1.1v-1.7
			c-0.3,0.6-0.9,1.1-1.5,1.4c-0.7,0.3-1.4,0.5-2.2,0.5c-0.8,0-1.7-0.5-2.2-1.1c-0.3-0.5-0.5-1-0.5-1.5c0-0.9,0.5-1.7,1.2-2.1
			c0.9-0.5,1.8-0.6,3.2-0.8l1.8-0.2c-0.1-0.5-0.3-1-0.7-1.3c-0.5-0.4-1.1-0.5-1.7-0.5c-0.8,0-1.5,0.3-2,0.9
			c-0.1,0.1-0.1,0.2-0.2,0.3L64.8,59.5z M68.6,62.1c-1.4,0.2-2.8,0.5-2.9,1.7c0,0.8,0.7,1.5,1.6,1.6c1.1,0.1,2.5-0.5,3-1.6
			c0.3-0.7,0.3-1.2,0.3-1.9C70,61.9,69.5,62,68.6,62.1z"/>
		<path d="M80.7,57.9v8.4h-1.2v-7.3h-3.2l-0.5,4.3c-0.2,1.8-0.7,3.1-2.6,3v-1.2c1.1,0,1.2-0.8,1.4-2.1l0.6-5.2H80.7z"/>
		<path d="M84.2,57.9V61h2.6c0.7,0,1.4,0.3,1.8,0.8c0.5,0.5,0.8,1.2,0.8,1.9c0,0.7-0.3,1.4-0.8,1.9c-0.5,0.5-1.2,0.8-1.8,0.8h-3.9
			l0-8.4H84.2z M84.2,65.1h2.6c0.4,0,0.7-0.2,1-0.5s0.4-0.6,0.4-1c0-0.4-0.1-0.7-0.4-1c-0.2-0.3-0.6-0.5-1-0.5h-2.6V65.1z"/>
		<path d="M98,57.9v8.4h-1.3v-3.9h-4.6v3.9h-1.3v-8.4h1.3v3.3h4.6v-3.3H98z"/>
		<path d="M101.5,57.9V61h2.3c0.7,0,1.4,0.3,1.9,0.8c0.5,0.5,0.8,1.2,0.8,1.9c0,0.7-0.3,1.4-0.8,1.9c-0.5,0.5-1.2,0.8-1.9,0.8h-3.6
			l0-8.4H101.5z M101.5,65.1h2.2c0.4,0,0.7-0.2,1-0.5c0.3-0.3,0.4-0.6,0.4-1c0-0.4-0.1-0.7-0.4-1c-0.2-0.3-0.6-0.5-1-0.5h-2.2V65.1z
			 M108.7,57.9v8.4h-1.3v-8.4H108.7z"/>
		<path d="M112.4,64.4c0.5,0.6,1.2,1,2,1s1.6-0.3,2-1c0.1-0.2,0.2-0.3,0.3-0.5l1.2,0.5c-0.1,0.2-0.3,0.5-0.5,0.7
			c-0.7,0.9-1.9,1.4-3.1,1.4c-1.2,0-2.3-0.5-3.1-1.4c-0.7-0.9-1-2-1-3.1c0-1.1,0.2-2.2,1-3.1c0.8-0.9,1.9-1.4,3.1-1.4
			s2.3,0.5,3.1,1.4c0.7,0.9,1,2,1,3.1c0,0.1,0,0.2,0,0.3h-6.7C111.8,63.2,112,63.9,112.4,64.4z M112.4,59.8c-0.3,0.4-0.5,1-0.6,1.6
			h5.2c-0.1-0.6-0.2-1.1-0.6-1.6c-0.5-0.6-1.2-1-2-1S112.8,59.2,112.4,59.8z"/>
		<path d="M123.7,57.9h1.2v7.2h3v-7.2h1.2v7.2h3v-7.2h1.2v8.4h-9.5V57.9z"/>
		<path d="M135.2,59.5c0.1-0.1,0.2-0.3,0.2-0.4c0.7-1,1.8-1.4,3.1-1.4c1.5,0,2.8,0.6,3.4,1.9c0.2,0.5,0.3,1,0.3,1.5v5.3h-1.1v-1.7
			c-0.3,0.6-0.9,1.1-1.5,1.4c-0.7,0.3-1.4,0.5-2.2,0.5c-0.8,0-1.7-0.5-2.2-1.1c-0.3-0.5-0.5-1-0.5-1.5c0-0.9,0.5-1.7,1.2-2.1
			c0.9-0.5,1.8-0.6,3.2-0.8l1.8-0.2c-0.1-0.5-0.3-1-0.7-1.3c-0.5-0.4-1.1-0.5-1.7-0.5c-0.8,0-1.5,0.3-2,0.9
			c-0.1,0.1-0.1,0.2-0.2,0.3L135.2,59.5z M139,62.1c-1.4,0.2-2.8,0.5-2.9,1.7c0,0.8,0.7,1.5,1.6,1.6c1.1,0.1,2.5-0.5,3-1.6
			c0.3-0.7,0.3-1.2,0.3-1.9C140.4,61.9,139.8,62,139,62.1z"/>
		<path d="M152.2,62.1c0,1.1-0.2,2.2-0.9,3.1s-1.8,1.4-2.9,1.4c-1.1,0-2-0.4-2.7-1.1v4.6h-1.3V57.9h1.1V59c0.7-0.8,1.8-1.3,2.9-1.3
			c1.2,0,2.2,0.5,2.9,1.4C151.9,59.9,152.2,61,152.2,62.1z M150.8,62.1c0-0.9-0.2-1.7-0.6-2.3c-0.5-0.7-1.2-1-2.1-1
			c-0.8,0-1.5,0.3-2,0.9c-0.5,0.6-0.7,1.5-0.7,2.4c0,0.9,0.2,1.8,0.7,2.4c0.5,0.6,1.2,0.9,2,0.9s1.6-0.3,2-1
			C150.7,63.8,150.8,63,150.8,62.1z"/>
		<path d="M155.2,57.9V61h2.3c0.7,0,1.4,0.3,1.9,0.8c0.5,0.5,0.8,1.2,0.8,1.9c0,0.7-0.3,1.4-0.8,1.9c-0.5,0.5-1.2,0.8-1.9,0.8h-3.6
			l0-8.4H155.2z M155.2,65.1h2.2c0.4,0,0.7-0.2,1-0.5c0.3-0.3,0.4-0.6,0.4-1c0-0.4-0.1-0.7-0.4-1c-0.2-0.3-0.6-0.5-1-0.5h-2.2V65.1z
			 M162.3,57.9v8.4h-1.3v-8.4H162.3z"/>
		<path d="M19.3,82.4c0,1.4-0.5,2.7-1.7,3.5c-0.9,0.7-2,1-3.1,1v1.4h-1.3v-1.4c-1.1-0.1-2.1-0.4-3-1c-1.1-0.8-1.7-2.1-1.7-3.5
			c0-1.4,0.5-2.7,1.6-3.5c0.9-0.7,2-1,3.1-1v-0.7h1.3v0.7c1.1,0.1,2.1,0.4,3.1,1.1C18.8,79.7,19.3,81,19.3,82.4z M13.3,85.6v-6.5
			c-0.9,0.1-1.7,0.4-2.3,0.8c-0.8,0.6-1.1,1.4-1.1,2.4c0,1,0.3,1.8,1,2.4C11.7,85.3,12.5,85.5,13.3,85.6z M18,82.4
			c0-1-0.3-1.8-1-2.4c-0.6-0.5-1.4-0.7-2.3-0.8v6.5c0.9-0.1,1.7-0.3,2.3-0.8C17.7,84.2,18,83.3,18,82.4z"/>
		<path d="M21.5,87.2c-0.7-0.9-1-2-1-3.1c0-1.1,0.3-2.2,1-3.1c0.7-0.9,1.9-1.4,3.1-1.4c1.2,0,2.3,0.5,3.1,1.4c0.7,0.9,1,2,1,3.1
			c0,1.1-0.2,2.2-1,3.1c-0.7,0.9-1.8,1.4-3.1,1.4C23.4,88.6,22.2,88.1,21.5,87.2z M27.3,84.1c0-0.8-0.2-1.7-0.6-2.3
			s-1.2-0.9-2.1-0.9s-1.6,0.3-2,0.9c-0.5,0.6-0.6,1.5-0.6,2.3c0,0.8,0.2,1.7,0.6,2.3c0.5,0.6,1.2,1,2,1s1.6-0.3,2.1-1
			S27.3,84.9,27.3,84.1z"/>
		<path d="M37.5,79.9v8.4h-1.3v-3.9h-4.6v3.9h-1.3v-8.4h1.3v3.3h4.6v-3.3H37.5z"/>
		<path d="M46.2,81.1h-3v7.3h-1.3v-7.3h-3v-1.2h7.2V81.1z"/>
		<path d="M47.2,81.5c0.1-0.1,0.2-0.3,0.2-0.4c0.7-1,1.8-1.4,3.1-1.4c1.5,0,2.8,0.6,3.4,1.9c0.2,0.5,0.3,1,0.3,1.5v5.3h-1.1v-1.7
			c-0.3,0.6-0.9,1.1-1.5,1.4c-0.7,0.3-1.4,0.5-2.2,0.5c-0.8,0-1.7-0.5-2.2-1.1c-0.3-0.5-0.5-1-0.5-1.5c0-0.9,0.5-1.7,1.2-2.1
			c0.9-0.5,1.8-0.6,3.2-0.8l1.8-0.2c-0.1-0.5-0.3-1-0.7-1.3c-0.5-0.4-1.1-0.5-1.7-0.5c-0.8,0-1.5,0.3-2,0.9
			c-0.1,0.1-0.1,0.2-0.2,0.3L47.2,81.5z M51,84.1c-1.4,0.2-2.8,0.5-2.9,1.7c0,0.8,0.7,1.5,1.6,1.6c1.1,0.1,2.5-0.5,3-1.6
			c0.3-0.7,0.3-1.2,0.3-1.9C52.4,83.9,51.9,84,51,84.1z"/>
		<path d="M63.5,79.9v8.4h-1.3v-3.9h-4.6v3.9h-1.3v-8.4h1.3v3.3h4.6v-3.3H63.5z"/>
		<path d="M67,79.9V83h2.3c0.7,0,1.4,0.3,1.9,0.8c0.5,0.5,0.8,1.2,0.8,1.9c0,0.7-0.3,1.4-0.8,1.9c-0.5,0.5-1.2,0.8-1.9,0.8h-3.6
			l0-8.4H67z M67,87.1h2.2c0.4,0,0.7-0.2,1-0.5c0.3-0.3,0.4-0.6,0.4-1c0-0.4-0.1-0.7-0.4-1c-0.2-0.3-0.6-0.5-1-0.5H67V87.1z
			 M74.2,79.9v8.4h-1.3v-8.4H74.2z"/>
		<path d="M18,110.3h-1.3v-10h-4.6l-0.8,6.3c-0.2,2.1-0.9,3.8-3.1,3.7v-1.2c1.4,0,1.7-1,1.9-2.8l0.9-7.3H18V110.3z"/>
		<path d="M21.8,108.4c0.5,0.6,1.2,1,2,1s1.6-0.3,2-1c0.1-0.2,0.2-0.3,0.3-0.5l1.2,0.5c-0.1,0.2-0.3,0.5-0.5,0.7
			c-0.7,0.9-1.9,1.4-3.1,1.4c-1.2,0-2.3-0.5-3.1-1.4c-0.7-0.9-1-2-1-3.1c0-1.1,0.2-2.2,1-3.1c0.8-0.9,1.9-1.4,3.1-1.4
			s2.3,0.5,3.1,1.4c0.7,0.9,1,2,1,3.1c0,0.1,0,0.2,0,0.3h-6.7C21.2,107.2,21.4,107.9,21.8,108.4z M21.8,103.8
			c-0.3,0.4-0.5,1-0.6,1.6h5.2c-0.1-0.6-0.2-1.1-0.6-1.6c-0.5-0.6-1.2-1-2-1S22.3,103.2,21.8,103.8z"/>
		<path d="M36.1,103.1h-3v7.3h-1.3v-7.3h-3v-1.2h7.2V103.1z"/>
		<path d="M37.2,103.5c0.1-0.1,0.2-0.3,0.2-0.4c0.7-1,1.8-1.4,3.1-1.4c1.5,0,2.8,0.6,3.4,1.9c0.2,0.5,0.3,1,0.3,1.5v5.3h-1.1v-1.7
			c-0.3,0.6-0.9,1.1-1.5,1.4c-0.7,0.3-1.4,0.5-2.2,0.5c-0.8,0-1.7-0.5-2.2-1.1c-0.3-0.5-0.5-1-0.5-1.5c0-0.9,0.5-1.7,1.2-2.1
			c0.9-0.5,1.8-0.6,3.2-0.8l1.8-0.2c-0.1-0.5-0.3-1-0.7-1.3c-0.5-0.4-1.1-0.5-1.7-0.5c-0.8,0-1.5,0.3-2,0.9
			c-0.1,0.1-0.1,0.2-0.2,0.3L37.2,103.5z M40.9,106.1c-1.4,0.2-2.8,0.5-2.9,1.7c0,0.8,0.7,1.5,1.6,1.6c1.1,0.1,2.5-0.5,3-1.6
			c0.3-0.7,0.3-1.2,0.3-1.9C42.4,105.9,41.8,106,40.9,106.1z"/>
		<path d="M57,106.1c0,1.1-0.2,2.2-1,3.1c-0.8,0.9-1.8,1.4-3.1,1.4c-1.2,0-2.3-0.5-3.1-1.4c-0.6-0.7-0.8-1.6-0.9-2.4h-1.5v3.6h-1.3
			v-8.4h1.3v3.6H49c0.1-0.9,0.4-1.7,0.9-2.4c0.7-0.9,1.8-1.4,3.1-1.4c1.2,0,2.3,0.5,3.1,1.4C56.8,103.9,57,105,57,106.1z
			 M55.7,106.1c0-0.8-0.2-1.7-0.6-2.3s-1.2-0.9-2.1-0.9s-1.6,0.3-2,0.9c-0.5,0.6-0.6,1.5-0.6,2.3c0,0.8,0.1,1.7,0.6,2.3
			c0.5,0.6,1.2,1,2,1s1.6-0.3,2.1-1S55.7,106.9,55.7,106.1z"/>
		<path d="M69.6,109.1v2.6h-1.3v-1.3h-9.5v-8.4h1.2v7.2h3v-7.2h1.2v7.2h3v-7.2h1.2v7.2H69.6z"/>
		<path d="M78.2,110.3h-1.3V104l-4.5,6.4h-1.1v-8.4h1.3v6.3l4.5-6.3h1.1V110.3z"/>
		<path d="M81.9,108.4c0.5,0.6,1.2,1,2,1s1.6-0.3,2-1c0.1-0.2,0.2-0.3,0.3-0.5l1.2,0.5c-0.1,0.2-0.3,0.5-0.5,0.7
			c-0.7,0.9-1.9,1.4-3.1,1.4c-1.2,0-2.3-0.5-3.1-1.4c-0.7-0.9-1-2-1-3.1c0-1.1,0.2-2.2,1-3.1c0.8-0.9,1.9-1.4,3.1-1.4
			s2.3,0.5,3.1,1.4c0.7,0.9,1,2,1,3.1c0,0.1,0,0.2,0,0.3h-6.7C81.3,107.2,81.5,107.9,81.9,108.4z M81.9,103.8
			c-0.3,0.4-0.5,1-0.6,1.6h5.2c-0.1-0.6-0.2-1.1-0.6-1.6c-0.5-0.6-1.2-1-2-1S82.4,103.2,81.9,103.8z"/>
		<path d="M102.7,106.1c0,1.3-0.5,2.6-1.6,3.5c-0.8,0.6-1.8,0.9-2.9,1v3.3h-1.2v-3.3c-1-0.1-2.1-0.4-2.9-1c-1-0.8-1.5-2-1.6-3.5
			c0-1.4,0.5-2.6,1.6-3.5c0.7-0.6,1.8-0.9,2.9-1v-2.5h1.2v2.5c1,0.1,2.1,0.4,2.9,1C102.2,103.5,102.7,104.7,102.7,106.1z
			 M97.1,109.3v-6.5c-0.7,0.1-1.5,0.3-2,0.7c-0.8,0.6-1.1,1.5-1.1,2.5c0,1,0.3,1.9,1.1,2.5C95.7,109.1,96.4,109.3,97.1,109.3z
			 M101.4,106.1c0-1-0.3-1.9-1.1-2.5c-0.5-0.4-1.2-0.6-2-0.7v6.5c0.7-0.1,1.5-0.3,2-0.7C101.1,108,101.4,107.2,101.4,106.1z"/>
		<path d="M106,108.4c0.5,0.6,1.2,1,2,1s1.6-0.3,2-1c0.1-0.2,0.2-0.3,0.3-0.5l1.2,0.5c-0.1,0.2-0.3,0.5-0.5,0.7
			c-0.7,0.9-1.9,1.4-3.1,1.4c-1.2,0-2.3-0.5-3.1-1.4c-0.7-0.9-1-2-1-3.1c0-1.1,0.2-2.2,1-3.1c0.8-0.9,1.9-1.4,3.1-1.4
			s2.3,0.5,3.1,1.4c0.7,0.9,1,2,1,3.1c0,0.1,0,0.2,0,0.3h-6.7C105.4,107.2,105.6,107.9,106,108.4z M106,103.8
			c-0.3,0.4-0.5,1-0.6,1.6h5.2c-0.1-0.6-0.2-1.1-0.6-1.6c-0.5-0.6-1.2-1-2-1S106.4,103.2,106,103.8z"/>
		<path d="M120.7,110.3h-1.3V104l-4.5,6.4h-1.1v-8.4h1.3v6.3l4.5-6.3h1.1V110.3z M119.4,98.9c0,1.2-0.9,2.1-2.1,2.1
			c-1.2,0-2.1-0.9-2.1-2.1h1c0,0.6,0.5,1,1,1s1-0.5,1-1H119.4z"/>
		<path d="M124.4,108.4c0.5,0.6,1.2,1,2,1s1.6-0.3,2-1c0.1-0.2,0.2-0.3,0.3-0.5l1.2,0.5c-0.1,0.2-0.3,0.5-0.5,0.7
			c-0.7,0.9-1.9,1.4-3.1,1.4c-1.2,0-2.3-0.5-3.1-1.4c-0.7-0.9-1-2-1-3.1c0-1.1,0.2-2.2,1-3.1c0.8-0.9,1.9-1.4,3.1-1.4
			s2.3,0.5,3.1,1.4c0.7,0.9,1,2,1,3.1c0,0.1,0,0.2,0,0.3h-6.7C123.8,107.2,124,107.9,124.4,108.4z M124.4,103.8
			c-0.3,0.4-0.5,1-0.6,1.6h5.2c-0.1-0.6-0.2-1.1-0.6-1.6c-0.5-0.6-1.2-1-2-1S124.8,103.2,124.4,103.8z"/>
		<path d="M140,106.1c0,1.1-0.2,2.2-0.9,3.1s-1.8,1.4-2.9,1.4c-1.1,0-2-0.4-2.7-1.1v4.6h-1.3v-12.2h1.1v1.1c0.7-0.8,1.8-1.3,2.9-1.3
			c1.2,0,2.2,0.5,2.9,1.4C139.7,103.9,140,105,140,106.1z M138.7,106.1c0-0.9-0.2-1.7-0.6-2.3c-0.5-0.7-1.2-1-2.1-1
			c-0.8,0-1.5,0.3-2,0.9c-0.5,0.6-0.7,1.5-0.7,2.4c0,0.9,0.2,1.8,0.7,2.4c0.5,0.6,1.2,0.9,2,0.9s1.6-0.3,2-1
			C138.5,107.8,138.7,107,138.7,106.1z"/>
		<path d="M145.8,101.9c0.7,0,1.3,0.2,1.8,0.7c0.5,0.4,0.8,1,0.8,1.7c0,0.5-0.2,1-0.5,1.4c-0.1,0.1-0.2,0.2-0.3,0.3
			c0.2,0.2,0.5,0.3,0.6,0.6c0.3,0.4,0.5,0.9,0.5,1.4c0,0.7-0.3,1.4-0.8,1.8c-0.5,0.4-1.1,0.6-1.6,0.6h-4.6v-8.4L145.8,101.9z
			 M143,105.6h2.8c0.4,0,0.7-0.2,1-0.5c0.2-0.2,0.3-0.6,0.3-0.9c0-0.3-0.1-0.6-0.3-0.8c-0.2-0.3-0.5-0.5-1-0.5H143V105.6z
			 M143,109.3h3.2c0.4,0,0.7-0.1,1-0.4c0.2-0.2,0.3-0.6,0.3-0.9s-0.1-0.7-0.3-0.9c-0.3-0.4-0.7-0.4-1.2-0.4h-3V109.3z"/>
		<path d="M152,108.4c0.5,0.6,1.2,1,2,1s1.6-0.3,2-1c0.1-0.2,0.2-0.3,0.3-0.5l1.2,0.5c-0.1,0.2-0.3,0.5-0.5,0.7
			c-0.7,0.9-1.9,1.4-3.1,1.4c-1.2,0-2.3-0.5-3.1-1.4c-0.7-0.9-1-2-1-3.1c0-1.1,0.2-2.2,1-3.1c0.8-0.9,1.9-1.4,3.1-1.4
			s2.3,0.5,3.1,1.4c0.7,0.9,1,2,1,3.1c0,0.1,0,0.2,0,0.3h-6.7C151.5,107.2,151.6,107.9,152,108.4z M152,103.8
			c-0.3,0.4-0.5,1-0.6,1.6h5.2c-0.1-0.6-0.2-1.1-0.6-1.6c-0.5-0.6-1.2-1-2-1S152.5,103.2,152,103.8z"/>
		<path d="M167.7,106.1c0,1.1-0.2,2.2-0.9,3.1s-1.8,1.4-2.9,1.4c-1.1,0-2-0.4-2.7-1.1v4.6h-1.3v-12.2h1.1v1.1
			c0.7-0.8,1.8-1.3,2.9-1.3c1.2,0,2.2,0.5,2.9,1.4C167.4,103.9,167.7,105,167.7,106.1z M166.3,106.1c0-0.9-0.2-1.7-0.6-2.3
			c-0.5-0.7-1.2-1-2.1-1c-0.8,0-1.5,0.3-2,0.9c-0.5,0.6-0.7,1.5-0.7,2.4c0,0.9,0.2,1.8,0.7,2.4c0.5,0.6,1.2,0.9,2,0.9s1.6-0.3,2-1
			C166.2,107.8,166.3,107,166.3,106.1z"/>
		<path d="M173.6,106.1l2.8,4.2l-1.4,0l-2.4-3.7h-1.9v3.7h-1.3v-8.4h1.3v3.7h1.9l2.3-3.7h1.4L173.6,106.1z"/>
		<path d="M184.4,110.3h-1.3V104l-4.5,6.4h-1.1v-8.4h1.3v6.3l4.5-6.3h1.1V110.3z"/>
		<path d="M18.3,132.3H17v-10h-6.5v10H9.2v-11.2h9V132.3z"/>
		<path d="M22.2,130.4c0.5,0.6,1.2,1,2,1s1.6-0.3,2-1c0.1-0.2,0.2-0.3,0.3-0.5l1.2,0.5c-0.1,0.2-0.3,0.5-0.5,0.7
			c-0.7,0.9-1.9,1.4-3.1,1.4c-1.2,0-2.3-0.5-3.1-1.4c-0.7-0.9-1-2-1-3.1c0-1.1,0.2-2.2,1-3.1c0.8-0.9,1.9-1.4,3.1-1.4
			s2.3,0.5,3.1,1.4c0.7,0.9,1,2,1,3.1c0,0.1,0,0.2,0,0.3h-6.7C21.6,129.2,21.8,129.9,22.2,130.4z M22.2,125.8
			c-0.3,0.4-0.5,1-0.6,1.6h5.2c-0.1-0.6-0.2-1.1-0.6-1.6c-0.5-0.6-1.2-1-2-1S22.6,125.2,22.2,125.8z"/>
		<path d="M36.4,125.1h-3v7.3h-1.3v-7.3h-3v-1.2h7.2V125.1z"/>
		<path d="M37.5,125.5c0.1-0.1,0.2-0.3,0.2-0.4c0.7-1,1.8-1.4,3.1-1.4c1.5,0,2.8,0.6,3.4,1.9c0.2,0.5,0.3,1,0.3,1.5v5.3h-1.1v-1.7
			c-0.3,0.6-0.9,1.1-1.5,1.4c-0.7,0.3-1.4,0.5-2.2,0.5c-0.8,0-1.7-0.5-2.2-1.1c-0.3-0.5-0.5-1-0.5-1.5c0-0.9,0.5-1.7,1.2-2.1
			c0.9-0.5,1.8-0.6,3.2-0.8l1.8-0.2c-0.1-0.5-0.3-1-0.7-1.3c-0.5-0.4-1.1-0.5-1.7-0.5c-0.8,0-1.5,0.3-2,0.9
			c-0.1,0.1-0.1,0.2-0.2,0.3L37.5,125.5z M41.3,128.1c-1.4,0.2-2.8,0.5-2.9,1.7c0,0.8,0.7,1.5,1.6,1.6c1.1,0.1,2.5-0.5,3-1.6
			c0.3-0.7,0.3-1.2,0.3-1.9C42.7,127.9,42.1,128,41.3,128.1z"/>
		<path d="M54.5,128.1c0,1.1-0.2,2.2-0.9,3.1s-1.8,1.4-2.9,1.4c-1.1,0-2-0.4-2.7-1.1v4.6h-1.3v-12.2h1.1v1.1
			c0.7-0.8,1.8-1.3,2.9-1.3c1.2,0,2.2,0.5,2.9,1.4C54.2,125.9,54.5,127,54.5,128.1z M53.1,128.1c0-0.9-0.2-1.7-0.6-2.3
			c-0.5-0.7-1.2-1-2.1-1c-0.8,0-1.5,0.3-2,0.9c-0.5,0.6-0.7,1.5-0.7,2.4c0,0.9,0.2,1.8,0.7,2.4c0.5,0.6,1.2,0.9,2,0.9s1.6-0.3,2-1
			C53,129.8,53.1,129,53.1,128.1z"/>
		<path d="M63.3,131.1H64v2.4h-1.2v-1.1h-6.2v1.1h-1.2v-2.4c0.6,0,1.5-0.4,1.7-2.8l0.5-4.4h5.6V131.1z M62.1,125.1h-3.4l-0.4,3.4
			c-0.1,1.2-0.4,2.1-0.9,2.6h4.7V125.1z"/>
		<path d="M67.3,123.9v3.1h2.3c0.7,0,1.4,0.3,1.9,0.8c0.5,0.5,0.8,1.2,0.8,1.9c0,0.7-0.3,1.4-0.8,1.9c-0.5,0.5-1.2,0.8-1.9,0.8H66
			l0-8.4H67.3z M67.3,131.1h2.2c0.4,0,0.7-0.2,1-0.5c0.3-0.3,0.4-0.6,0.4-1c0-0.4-0.1-0.7-0.4-1c-0.2-0.3-0.6-0.5-1-0.5h-2.2V131.1z
			 M74.5,123.9v8.4h-1.3v-8.4H74.5z"/>
		<path d="M17.5,146.6c0,0.8-0.3,1.6-0.8,2.2c-0.6,0.8-1.7,1.3-2.7,1.3h-3.5v4.2H9.2v-11.2H14c0.4,0,0.8,0.1,1.2,0.2
			c0.5,0.2,1,0.5,1.4,1C17.2,144.9,17.5,145.7,17.5,146.6z M16.2,146.6c0-0.6-0.2-1.2-0.7-1.6c-0.4-0.4-1-0.7-1.6-0.7h-3.5v4.6H14
			c0.6,0,1.3-0.3,1.7-0.8C16,147.6,16.2,147.1,16.2,146.6z"/>
		<path d="M19,147.5c0.1-0.1,0.2-0.3,0.2-0.4c0.7-1,1.8-1.4,3.1-1.4c1.5,0,2.8,0.6,3.4,1.9c0.2,0.5,0.3,1,0.3,1.5v5.3H25v-1.7
			c-0.3,0.6-0.9,1.1-1.5,1.4c-0.7,0.3-1.4,0.5-2.2,0.5c-0.8,0-1.7-0.5-2.2-1.1c-0.3-0.5-0.5-1-0.5-1.5c0-0.9,0.5-1.7,1.2-2.1
			c0.9-0.5,1.8-0.6,3.2-0.8l1.8-0.2c-0.1-0.5-0.3-1-0.7-1.3c-0.5-0.4-1.1-0.5-1.7-0.5c-0.8,0-1.5,0.3-2,0.9
			c-0.1,0.1-0.1,0.2-0.2,0.3L19,147.5z M22.8,150.1c-1.4,0.2-2.8,0.5-2.9,1.7c0,0.8,0.7,1.5,1.6,1.6c1.1,0.1,2.5-0.5,3-1.6
			c0.3-0.7,0.3-1.2,0.3-1.9C24.2,149.9,23.6,150,22.8,150.1z"/>
		<path d="M32.4,150.1l2.8,4.2l-1.4,0l-2.4-3.7h-1.9v3.7h-1.3v-8.4h1.3v3.7h1.9l2.3-3.7H35L32.4,150.1z"/>
		<path d="M37.4,152.4c0.5,0.6,1.2,1,2,1s1.6-0.3,2-1c0.1-0.2,0.2-0.3,0.3-0.5l1.2,0.5c-0.1,0.2-0.3,0.5-0.5,0.7
			c-0.7,0.9-1.9,1.4-3.1,1.4c-1.2,0-2.3-0.5-3.1-1.4c-0.7-0.9-1-2-1-3.1c0-1.1,0.2-2.2,1-3.1c0.8-0.9,1.9-1.4,3.1-1.4
			s2.3,0.5,3.1,1.4c0.7,0.9,1,2,1,3.1c0,0.1,0,0.2,0,0.3h-6.7C36.8,151.2,37,151.9,37.4,152.4z M37.4,147.8c-0.3,0.4-0.5,1-0.6,1.6
			h5.2c-0.1-0.6-0.2-1.1-0.6-1.6c-0.5-0.6-1.2-1-2-1S37.9,147.2,37.4,147.8z"/>
		<path d="M51.7,147.1h-3v7.3h-1.3v-7.3h-3v-1.2h7.2V147.1z"/>
		<path d="M54.5,145.9v3.1h2.3c0.7,0,1.4,0.3,1.9,0.8c0.5,0.5,0.8,1.2,0.8,1.9c0,0.7-0.3,1.4-0.8,1.9c-0.5,0.5-1.2,0.8-1.9,0.8h-3.6
			l0-8.4H54.5z M54.5,153.1h2.2c0.4,0,0.7-0.2,1-0.5c0.3-0.3,0.4-0.6,0.4-1c0-0.4-0.1-0.7-0.4-1c-0.2-0.3-0.6-0.5-1-0.5h-2.2V153.1z
			 M61.7,145.9v8.4h-1.3v-8.4H61.7z"/>
		<path d="M17.5,172.8c0,0.8-0.3,1.7-0.9,2.3c-0.4,0.4-0.9,0.8-1.4,1c-0.4,0.1-0.8,0.2-1.2,0.2H9.2v-11.2h7.2v1.3h-5.9v3H14
			c1.1,0,2.1,0.5,2.7,1.3C17.2,171.2,17.5,172,17.5,172.8z M15.7,171.4c-0.4-0.5-1.1-0.9-1.7-0.9h-3.5v4.6H14c0.6,0,1.2-0.3,1.6-0.7
			c0.4-0.4,0.6-1,0.7-1.6C16.2,172.3,16,171.8,15.7,171.4z"/>
		<path d="M20.6,174.4c0.5,0.6,1.2,1,2,1s1.6-0.3,2-1c0.1-0.2,0.2-0.3,0.3-0.5l1.2,0.5c-0.1,0.2-0.3,0.5-0.5,0.7
			c-0.7,0.9-1.9,1.4-3.1,1.4c-1.2,0-2.3-0.5-3.1-1.4c-0.7-0.9-1-2-1-3.1c0-1.1,0.2-2.2,1-3.1c0.8-0.9,1.9-1.4,3.1-1.4
			s2.3,0.5,3.1,1.4c0.7,0.9,1,2,1,3.1c0,0.1,0,0.2,0,0.3H20C20,173.2,20.2,173.9,20.6,174.4z M20.6,169.8c-0.3,0.4-0.5,1-0.6,1.6
			h5.2c-0.1-0.6-0.2-1.1-0.6-1.6c-0.5-0.6-1.2-1-2-1S21.1,169.2,20.6,169.8z"/>
		<path d="M35.5,167.9v8.4h-1.3v-3.9h-4.6v3.9h-1.3v-8.4h1.3v3.3h4.6v-3.3H35.5z"/>
		<path d="M43.6,169.2H39v7.2h-1.3v-8.4h5.8V169.2z"/>
		<path d="M44.6,169.5c0.1-0.1,0.2-0.3,0.2-0.4c0.7-1,1.8-1.4,3.1-1.4c1.5,0,2.8,0.6,3.4,1.9c0.2,0.5,0.3,1,0.3,1.5v5.3h-1.1v-1.7
			c-0.3,0.6-0.9,1.1-1.5,1.4c-0.7,0.3-1.4,0.5-2.2,0.5c-0.8,0-1.7-0.5-2.2-1.1c-0.3-0.5-0.5-1-0.5-1.5c0-0.9,0.5-1.7,1.2-2.1
			c0.9-0.5,1.8-0.6,3.2-0.8l1.8-0.2c-0.1-0.5-0.3-1-0.7-1.3c-0.5-0.4-1.1-0.5-1.7-0.5c-0.8,0-1.5,0.3-2,0.9
			c-0.1,0.1-0.1,0.2-0.2,0.3L44.6,169.5z M48.4,172.1c-1.4,0.2-2.8,0.5-2.9,1.7c0,0.8,0.7,1.5,1.6,1.6c1.1,0.1,2.5-0.5,3-1.6
			c0.3-0.7,0.3-1.2,0.3-1.9C49.8,171.9,49.3,172,48.4,172.1z"/>
		<path d="M60.5,167.9v8.4h-1.2v-7.3h-3.2l-0.5,4.3c-0.2,1.8-0.7,3.1-2.6,3v-1.2c1.1,0,1.2-0.8,1.4-2.1l0.6-5.2H60.5z"/>
		<path d="M64,167.9v3.1h2.6c0.7,0,1.4,0.3,1.8,0.8c0.5,0.5,0.8,1.2,0.8,1.9c0,0.7-0.3,1.4-0.8,1.9c-0.5,0.5-1.2,0.8-1.8,0.8h-3.9
			l0-8.4H64z M64,175.1h2.6c0.4,0,0.7-0.2,1-0.5s0.4-0.6,0.4-1c0-0.4-0.1-0.7-0.4-1c-0.2-0.3-0.6-0.5-1-0.5H64V175.1z"/>
		<path d="M76.8,170.3c-0.1-0.2-0.2-0.3-0.3-0.5c-0.5-0.6-1.2-1-2.1-1c-0.8,0-1.6,0.3-2,1c-0.5,0.6-0.6,1.5-0.6,2.3
			c0,0.8,0.2,1.7,0.6,2.3c0.5,0.6,1.2,0.9,2,0.9c0.8,0,1.6-0.3,2.1-0.9c0.1-0.1,0.2-0.3,0.3-0.5l1.2,0.5c-0.1,0.2-0.3,0.5-0.5,0.7
			c-0.7,0.9-1.9,1.4-3.1,1.4c-1.2,0-2.3-0.5-3.1-1.4c-0.7-0.9-0.9-2-1-3.1c0-1.1,0.2-2.2,1-3.1c0.8-1,1.9-1.4,3.1-1.4
			c1.2,0,2.3,0.5,3.1,1.4c0.2,0.2,0.3,0.5,0.5,0.7L76.8,170.3z"/>
		<path d="M83.9,172.1l2.8,4.2l-1.4,0l-2.4-3.7h-1.9v3.7h-1.3v-8.4h1.3v3.7h1.9l2.3-3.7h1.4L83.9,172.1z"/>
		<path d="M94.7,176.3h-1.3V170l-4.5,6.4h-1.1v-8.4H89v6.3l4.5-6.3h1.1V176.3z"/>
		<path d="M98.4,174.4c0.5,0.6,1.2,1,2,1s1.6-0.3,2-1c0.1-0.2,0.2-0.3,0.3-0.5l1.2,0.5c-0.1,0.2-0.3,0.5-0.5,0.7
			c-0.7,0.9-1.9,1.4-3.1,1.4c-1.2,0-2.3-0.5-3.1-1.4c-0.7-0.9-1-2-1-3.1c0-1.1,0.2-2.2,1-3.1c0.8-0.9,1.9-1.4,3.1-1.4
			s2.3,0.5,3.1,1.4c0.7,0.9,1,2,1,3.1c0,0.1,0,0.2,0,0.3h-6.7C97.8,173.2,98,173.9,98.4,174.4z M98.4,169.8c-0.3,0.4-0.5,1-0.6,1.6
			h5.2c-0.1-0.6-0.2-1.1-0.6-1.6c-0.5-0.6-1.2-1-2-1S98.8,169.2,98.4,169.8z"/>
		<path d="M110.1,175.2c-0.7-0.9-1-2-1-3.1c0-1.1,0.3-2.2,1-3.1c0.7-0.9,1.9-1.4,3.1-1.4c1.2,0,2.3,0.5,3.1,1.4c0.7,0.9,1,2,1,3.1
			c0,1.1-0.2,2.2-1,3.1c-0.7,0.9-1.8,1.4-3.1,1.4C112,176.6,110.8,176.1,110.1,175.2z M115.9,172.1c0-0.8-0.2-1.7-0.6-2.3
			s-1.2-0.9-2.1-0.9s-1.6,0.3-2,0.9c-0.5,0.6-0.6,1.5-0.6,2.3c0,0.8,0.2,1.7,0.6,2.3c0.5,0.6,1.2,1,2,1s1.6-0.3,2.1-1
			S115.9,172.9,115.9,172.1z"/>
		<path d="M124.8,169.2h-4.6v7.2h-1.3v-8.4h5.8V169.2z"/>
		<path d="M133.4,167.9v8.4h-1.3v-3.9h-4.6v3.9h-1.3v-8.4h1.3v3.3h4.6v-3.3H133.4z"/>
		<path d="M142.5,176.3h-1.3V170l-4.5,6.4h-1.1v-8.4h1.3v6.3l4.5-6.3h1.1V176.3z"/>
		<path d="M17.5,198.3h-1.6l-3.2-4.6l-3.2,4.6H8.1l4-5.7l-3.9-5.5h1.5l3.1,4.5l3.1-4.5h1.5l-3.9,5.5L17.5,198.3z"/>
		<path d="M25.4,189.9v8.4h-1.2v-7.3H21l-0.5,4.3c-0.2,1.8-0.7,3.1-2.6,3v-1.2c1.1,0,1.2-0.8,1.4-2.1l0.6-5.2H25.4z"/>
		<path d="M28.1,197.2c-0.7-0.9-1-2-1-3.1c0-1.1,0.3-2.2,1-3.1c0.7-0.9,1.9-1.4,3.1-1.4c1.2,0,2.3,0.5,3.1,1.4c0.7,0.9,1,2,1,3.1
			c0,1.1-0.2,2.2-1,3.1c-0.7,0.9-1.8,1.4-3.1,1.4C29.9,198.6,28.8,198.1,28.1,197.2z M33.8,194.1c0-0.8-0.2-1.7-0.6-2.3
			s-1.2-0.9-2.1-0.9s-1.6,0.3-2,0.9c-0.5,0.6-0.6,1.5-0.6,2.3c0,0.8,0.2,1.7,0.6,2.3c0.5,0.6,1.2,1,2,1s1.6-0.3,2.1-1
			S33.8,194.9,33.8,194.1z"/>
		<path d="M44,198.3h-1.3v-7.2h-4.6v7.2h-1.3v-8.4H44V198.3z"/>
		<path d="M53.6,189.9l-3.8,10c-0.3,0.8-0.7,1.4-1.2,1.8c-0.5,0.3-1,0.4-1.5,0.4l-0.2,0v-1.2l0.3,0c0.3,0,0.6,0,0.9-0.2
			c0.3-0.2,0.5-0.7,1.1-2.1l-3.6-8.7h1.3l2.9,7l2.7-7H53.6z"/>
		<path d="M54.8,189.9H56v7.2h3v-7.2h1.2v7.2h3v-7.2h1.2v8.4h-9.5V189.9z"/>
		<path d="M70.7,194.1l2.8,4.2l-1.4,0l-2.4-3.7h-1.9v3.7h-1.3v-8.4h1.3v3.7h1.9l2.3-3.7h1.4L70.7,194.1z"/>
		<path d="M81.5,198.3h-1.3V192l-4.5,6.4h-1.1v-8.4h1.3v6.3l4.5-6.3h1.1V198.3z"/>
	</g>
	<g>
		<path d="M253.4,20c0.4,0.4,0.9,0.6,1.4,0.6c0.8,0,1.6-0.5,1.8-1.2c0.2-0.4,0.2-0.8,0.2-1.2v-0.5c-0.6,0.5-1.3,0.7-2.1,0.7
			c-0.9,0-1.8-0.3-2.5-0.9c-0.8-0.8-1.2-1.7-1.1-2.8c0-1,0.5-2,1.2-2.7c0.7-0.7,1.7-1.1,2.7-1c1,0,2,0.3,2.7,1c1,1,1.2,2,1.2,3.4
			v2.8c0,1.2-0.2,2.2-1,3.1c-0.8,1-2,1.4-3.2,1.4c-1.1,0-2.1-0.3-2.9-1.1L253.4,20z M253.3,14.6c0,0.5,0.2,0.9,0.5,1.2
			s0.8,0.5,1.2,0.5c0.5,0,0.9-0.2,1.2-0.5s0.5-0.8,0.5-1.2c0-0.5-0.2-0.9-0.5-1.2c-0.3-0.3-0.8-0.5-1.2-0.5c-0.5,0-0.9,0.2-1.2,0.5
			C253.5,13.7,253.3,14.2,253.3,14.6z"/>
		<path d="M267.2,11.1v2h-4l-0.1,2.5c0.5-0.3,1.1-0.4,1.6-0.4c0.9,0,1.8,0.3,2.5,0.9c0.8,0.8,1.2,1.7,1.1,2.8c0,1-0.5,2-1.2,2.7
			c-0.7,0.7-1.7,1.1-2.7,1c-1,0-2-0.4-2.7-1c-0.5-0.5-0.8-1-1-1.7l2-0.5c0.1,0.3,0.2,0.6,0.5,0.8c0.3,0.3,0.8,0.5,1.2,0.5
			c0.5,0,0.9-0.2,1.2-0.5c0.3-0.3,0.5-0.8,0.5-1.2c0-0.5-0.2-0.9-0.5-1.2s-0.8-0.5-1.2-0.5c-0.5,0-0.9,0.2-1.2,0.5
			c-0.1,0.1-0.2,0.2-0.3,0.4l-1.8-1l0.3-5.8H267.2z"/>
		<path d="M249.1,33.7c0.8-0.7,1.8-0.9,2.8-0.9c1.2,0,2.2,0.4,3,1.3c0.6,0.7,0.9,1.6,0.9,2.5c0,1.6-0.7,2.4-2.1,3.5l-2.5,2.1h4.3v2
			h-7.7v-2l4.8-4c0.7-0.6,1-1.2,1-1.7c0-0.4-0.1-0.8-0.4-1.1c-0.3-0.4-0.8-0.6-1.4-0.6c-0.4,0-0.9,0.2-1.2,0.5
			c-0.3,0.3-0.6,0.8-0.5,1.3h-2.2C247.8,35.5,248.3,34.4,249.1,33.7z"/>
		<path d="M258.5,33.7c0.8-0.7,1.8-0.9,2.8-0.9c1.2,0,2.2,0.4,3,1.3c0.6,0.7,0.9,1.6,0.9,2.5c0,1.6-0.7,2.4-2.1,3.5l-2.5,2.1h4.3v2
			h-7.7v-2l4.8-4c0.7-0.6,1-1.2,1-1.7c0-0.4-0.1-0.8-0.4-1.1c-0.3-0.4-0.8-0.6-1.4-0.6c-0.4,0-0.9,0.2-1.2,0.5
			c-0.3,0.3-0.6,0.8-0.5,1.3h-2.2C257.2,35.5,257.7,34.4,258.5,33.7z"/>
		<path d="M243.9,57.4c-0.4-0.4-0.9-0.6-1.4-0.6c-0.8,0-1.6,0.5-1.8,1.2c-0.2,0.4-0.2,0.8-0.2,1.2v0.5c0.6-0.5,1.3-0.7,2.1-0.7
			c0.9,0,1.8,0.3,2.5,0.9c0.8,0.8,1.2,1.7,1.1,2.8c0,1-0.5,2-1.2,2.7c-0.7,0.7-1.7,1.1-2.7,1c-1,0-2-0.3-2.7-1c-1-1-1.2-2-1.2-3.4
			v-2.8c0-1.2,0.2-2.2,1-3.1c0.8-1,2-1.4,3.2-1.4c1.1,0,2.1,0.3,2.9,1.1L243.9,57.4z M244,62.8c0-0.5-0.2-0.9-0.5-1.2
			s-0.8-0.5-1.2-0.5c-0.5,0-0.9,0.2-1.2,0.5s-0.5,0.8-0.5,1.2c0,0.5,0.2,0.9,0.5,1.2c0.3,0.3,0.8,0.5,1.2,0.5c0.5,0,0.9-0.2,1.2-0.5
			C243.8,63.7,244,63.3,244,62.8z"/>
		<path d="M255.7,62.6v2h-1v1.8h-2.2v-1.8h-4.8v-2l3.5-7.5h2.2l-3.5,7.5h2.6v-2.8h2.2v2.8H255.7z"/>
		<path d="M261.1,66.6c-1.2,0-2.4-0.4-3.2-1.4c-0.8-1-1-1.8-1-3.1v-2.8c0-1.2,0.1-2.1,1-3.1c0.7-0.9,2-1.4,3.2-1.4
			c1.2,0,2.4,0.4,3.2,1.4s1,1.8,1,3.1v2.8c0,1.2-0.1,2.1-1,3.1C263.5,66.1,262.3,66.6,261.1,66.6z M261.1,56.8c-0.7,0-1.4,0.4-1.7,1
			c-0.2,0.4-0.3,0.9-0.3,1.5v2.8c0,0.5,0,1.1,0.3,1.5c0.4,0.6,1,0.9,1.7,0.9c0.7,0,1.3-0.4,1.7-0.9c0.3-0.5,0.3-0.9,0.3-1.5v-2.8
			c0-0.6,0-0.9-0.2-1.4C262.5,57.3,261.8,56.8,261.1,56.8z"/>
		<path d="M252.2,77.7c0.8-0.7,1.8-0.9,2.8-0.9c1.2,0,2.2,0.4,3,1.3c0.6,0.7,0.9,1.6,0.9,2.5c0,1.6-0.7,2.4-2.1,3.5l-2.5,2.1h4.3v2
			h-7.7v-2l4.8-4c0.7-0.6,1-1.2,1-1.7c0-0.4-0.1-0.8-0.4-1.1c-0.3-0.4-0.8-0.6-1.4-0.6c-0.4,0-0.9,0.2-1.2,0.5
			c-0.3,0.3-0.6,0.8-0.5,1.3H251C250.9,79.5,251.4,78.4,252.2,77.7z"/>
		<path d="M261.9,77.6c0.7-0.5,1.5-0.7,2.4-0.7c0.9,0,1.8,0.2,2.4,0.7c0.8,0.6,1.2,1.5,1.2,2.5c0,0.4-0.1,0.9-0.3,1.3
			c-0.1,0.3-0.3,0.6-0.6,0.9c0.4,0.3,0.7,0.8,0.9,1.2c0.2,0.5,0.3,1,0.3,1.4c0,1.1-0.4,2.1-1.2,2.7c-0.8,0.6-1.8,0.9-2.7,0.9
			c-1,0-2-0.3-2.7-0.9c-0.8-0.7-1.2-1.7-1.2-2.7c0-0.5,0.1-0.9,0.3-1.4c0.2-0.5,0.5-0.9,0.9-1.2c-0.2-0.3-0.5-0.5-0.6-0.9
			c-0.2-0.5-0.3-0.9-0.3-1.3C260.7,79,261.1,78.1,261.9,77.6z M266,85c0-0.5-0.1-0.9-0.5-1.2c-0.3-0.3-0.8-0.4-1.2-0.4
			s-0.9,0.1-1.2,0.4c-0.3,0.3-0.4,0.7-0.4,1.2c0,0.5,0.1,0.9,0.4,1.2c0.3,0.3,0.8,0.4,1.2,0.4s0.9-0.1,1.2-0.4
			C265.8,85.8,266,85.4,266,85z M263.3,81c0.2,0.2,0.6,0.3,1,0.3c0.4,0,0.8-0.1,1-0.3s0.4-0.5,0.4-0.9c0-0.4-0.1-0.7-0.4-0.9
			s-0.6-0.3-1-0.3c-0.4,0-0.8,0.1-1,0.3c-0.3,0.2-0.4,0.5-0.4,0.9S263,80.8,263.3,81z"/>
		<path d="M254.7,99.1v2h-4l-0.1,2.5c0.5-0.3,1.1-0.4,1.6-0.4c0.9,0,1.8,0.3,2.5,0.9c0.8,0.8,1.2,1.7,1.1,2.8c0,1-0.5,2-1.2,2.7
			c-0.7,0.7-1.7,1.1-2.7,1c-1,0-2-0.4-2.7-1c-0.5-0.5-0.8-1-1-1.7l2-0.5c0.1,0.3,0.2,0.6,0.5,0.8c0.3,0.3,0.8,0.5,1.2,0.5
			c0.5,0,0.9-0.2,1.2-0.5c0.3-0.3,0.5-0.8,0.5-1.2c0-0.5-0.2-0.9-0.5-1.2s-0.8-0.5-1.2-0.5c-0.5,0-0.9,0.2-1.2,0.5
			c-0.1,0.1-0.2,0.2-0.3,0.4l-1.8-1l0.3-5.8H254.7z"/>
		<path d="M265.2,106.6v2h-1v1.8h-2.2v-1.8h-4.8v-2l3.5-7.5h2.2l-3.5,7.5h2.6v-2.8h2.2v2.8H265.2z"/>
		<path d="M265.9,123.1h-5v-2h7.1v2l-3.8,9.2h-2.2L265.9,123.1z"/>
		<path d="M244.6,150.6v2h-1v1.8h-2.2v-1.8h-4.8v-2l3.5-7.5h2.2l-3.5,7.5h2.6v-2.8h2.2v2.8H244.6z"/>
		<path d="M251.6,145.4c-0.4-0.4-0.9-0.6-1.4-0.6c-0.8,0-1.6,0.5-1.8,1.2c-0.2,0.4-0.2,0.8-0.2,1.2v0.5c0.6-0.5,1.3-0.7,2.1-0.7
			c0.9,0,1.8,0.3,2.5,0.9c0.8,0.8,1.2,1.7,1.1,2.8c0,1-0.5,2-1.2,2.7c-0.7,0.7-1.7,1.1-2.7,1c-1,0-2-0.3-2.7-1c-1-1-1.2-2-1.2-3.4
			v-2.8c0-1.2,0.2-2.2,1-3.1c0.8-1,2-1.4,3.2-1.4c1.1,0,2.1,0.3,2.9,1.1L251.6,145.4z M251.7,150.8c0-0.5-0.2-0.9-0.5-1.2
			s-0.8-0.5-1.2-0.5c-0.5,0-0.9,0.2-1.2,0.5s-0.5,0.8-0.5,1.2c0,0.5,0.2,0.9,0.5,1.2c0.3,0.3,0.8,0.5,1.2,0.5c0.5,0,0.9-0.2,1.2-0.5
			C251.5,151.7,251.7,151.3,251.7,150.8z"/>
		<path d="M255.6,156.4l0.1-0.9c0.8,0.1,1.1-0.5,1-1.2h-1.1v-2.1h2.1v2.1C257.7,155.8,257,156.7,255.6,156.4z"/>
		<path d="M261.9,143.6c0.7-0.5,1.5-0.7,2.4-0.7c0.9,0,1.8,0.2,2.4,0.7c0.8,0.6,1.2,1.5,1.2,2.5c0,0.4-0.1,0.9-0.3,1.3
			c-0.1,0.3-0.3,0.6-0.6,0.9c0.4,0.3,0.7,0.8,0.9,1.2c0.2,0.5,0.3,1,0.3,1.4c0,1.1-0.4,2.1-1.2,2.7c-0.8,0.6-1.8,0.9-2.7,0.9
			c-1,0-2-0.3-2.7-0.9c-0.8-0.7-1.2-1.7-1.2-2.7c0-0.5,0.1-0.9,0.3-1.4c0.2-0.5,0.5-0.9,0.9-1.2c-0.2-0.3-0.5-0.5-0.6-0.9
			c-0.2-0.5-0.3-0.9-0.3-1.3C260.7,145,261.1,144.1,261.9,143.6z M266,151c0-0.5-0.1-0.9-0.5-1.2c-0.3-0.3-0.8-0.4-1.2-0.4
			s-0.9,0.1-1.2,0.4c-0.3,0.3-0.4,0.7-0.4,1.2c0,0.5,0.1,0.9,0.4,1.2c0.3,0.3,0.8,0.4,1.2,0.4s0.9-0.1,1.2-0.4
			C265.8,151.8,266,151.4,266,151z M263.3,147c0.2,0.2,0.6,0.3,1,0.3c0.4,0,0.8-0.1,1-0.3s0.4-0.5,0.4-0.9c0-0.4-0.1-0.7-0.4-0.9
			s-0.6-0.3-1-0.3c-0.4,0-0.8,0.1-1,0.3c-0.3,0.2-0.4,0.5-0.4,0.9S263,146.8,263.3,147z"/>
		<path d="M234.2,165.1v11.2H232v-8.9l-2.1,1.3v-2.3l2.1-1.3H234.2z"/>
		<path d="M243.5,165.1v2h-4l-0.1,2.5c0.5-0.3,1.1-0.4,1.6-0.4c0.9,0,1.8,0.3,2.5,0.9c0.8,0.8,1.2,1.7,1.1,2.8c0,1-0.5,2-1.2,2.7
			c-0.7,0.7-1.7,1.1-2.7,1c-1,0-2-0.4-2.7-1c-0.5-0.5-0.8-1-1-1.7l2-0.5c0.1,0.3,0.2,0.6,0.5,0.8c0.3,0.3,0.8,0.5,1.2,0.5
			c0.5,0,0.9-0.2,1.2-0.5c0.3-0.3,0.5-0.8,0.5-1.2c0-0.5-0.2-0.9-0.5-1.2s-0.8-0.5-1.2-0.5c-0.5,0-0.9,0.2-1.2,0.5
			c-0.1,0.1-0.2,0.2-0.3,0.4l-1.8-1l0.3-5.8H243.5z"/>
		<path d="M246.2,178.4l0.1-0.9c0.8,0.1,1.1-0.5,1-1.2h-1.1v-2.1h2.1v2.1C248.3,177.8,247.6,178.7,246.2,178.4z"/>
		<path d="M252.5,165.6c0.7-0.5,1.5-0.7,2.4-0.7c0.9,0,1.8,0.2,2.4,0.7c0.8,0.6,1.2,1.5,1.2,2.5c0,0.4-0.1,0.9-0.3,1.3
			c-0.1,0.3-0.3,0.6-0.6,0.9c0.4,0.3,0.7,0.8,0.9,1.2c0.2,0.5,0.3,1,0.3,1.4c0,1.1-0.4,2.1-1.2,2.7c-0.8,0.6-1.8,0.9-2.7,0.9
			c-1,0-2-0.3-2.7-0.9c-0.8-0.7-1.2-1.7-1.2-2.7c0-0.5,0.1-0.9,0.3-1.4c0.2-0.5,0.5-0.9,0.9-1.2c-0.2-0.3-0.5-0.5-0.6-0.9
			c-0.2-0.5-0.3-0.9-0.3-1.3C251.3,167,251.7,166.1,252.5,165.6z M256.6,173c0-0.5-0.1-0.9-0.5-1.2c-0.3-0.3-0.8-0.4-1.2-0.4
			s-0.9,0.1-1.2,0.4c-0.3,0.3-0.4,0.7-0.4,1.2c0,0.5,0.1,0.9,0.4,1.2c0.3,0.3,0.8,0.4,1.2,0.4s0.9-0.1,1.2-0.4
			C256.4,173.8,256.6,173.4,256.6,173z M253.9,169c0.2,0.2,0.6,0.3,1,0.3c0.4,0,0.8-0.1,1-0.3s0.4-0.5,0.4-0.9
			c0-0.4-0.1-0.7-0.4-0.9s-0.6-0.3-1-0.3c-0.4,0-0.8,0.1-1,0.3c-0.3,0.2-0.4,0.5-0.4,0.9S253.6,168.8,253.9,169z"/>
		<path d="M266,167.4c-0.4-0.4-0.9-0.6-1.4-0.6c-0.8,0-1.6,0.5-1.8,1.2c-0.2,0.4-0.2,0.8-0.2,1.2v0.5c0.6-0.5,1.3-0.7,2.1-0.7
			c0.9,0,1.8,0.3,2.5,0.9c0.8,0.8,1.2,1.7,1.1,2.8c0,1-0.5,2-1.2,2.7c-0.7,0.7-1.7,1.1-2.7,1c-1,0-2-0.3-2.7-1c-1-1-1.2-2-1.2-3.4
			v-2.8c0-1.2,0.2-2.2,1-3.1c0.8-1,2-1.4,3.2-1.4c1.1,0,2.1,0.3,2.9,1.1L266,167.4z M266.1,172.8c0-0.5-0.2-0.9-0.5-1.2
			s-0.8-0.5-1.2-0.5c-0.5,0-0.9,0.2-1.2,0.5s-0.5,0.8-0.5,1.2c0,0.5,0.2,0.9,0.5,1.2c0.3,0.3,0.8,0.5,1.2,0.5c0.5,0,0.9-0.2,1.2-0.5
			C265.9,173.7,266.1,173.3,266.1,172.8z"/>
		<path d="M252.2,187.7c0.8-0.7,1.8-0.9,2.8-0.9c1.2,0,2.2,0.4,3,1.3c0.6,0.7,0.9,1.6,0.9,2.5c0,1.6-0.7,2.4-2.1,3.5l-2.5,2.1h4.3v2
			h-7.7v-2l4.8-4c0.7-0.6,1-1.2,1-1.7c0-0.4-0.1-0.8-0.4-1.1c-0.3-0.4-0.8-0.6-1.4-0.6c-0.4,0-0.9,0.2-1.2,0.5
			c-0.3,0.3-0.6,0.8-0.5,1.3H251C250.9,189.5,251.4,188.4,252.2,187.7z"/>
		<path d="M261.9,187.6c0.7-0.5,1.5-0.7,2.4-0.7c0.9,0,1.8,0.2,2.4,0.7c0.8,0.6,1.2,1.5,1.2,2.5c0,0.4-0.1,0.9-0.3,1.3
			c-0.1,0.3-0.3,0.6-0.6,0.9c0.4,0.3,0.7,0.8,0.9,1.2c0.2,0.5,0.3,1,0.3,1.4c0,1.1-0.4,2.1-1.2,2.7c-0.8,0.6-1.8,0.9-2.7,0.9
			c-1,0-2-0.3-2.7-0.9c-0.8-0.7-1.2-1.7-1.2-2.7c0-0.5,0.1-0.9,0.3-1.4c0.2-0.5,0.5-0.9,0.9-1.2c-0.2-0.3-0.5-0.5-0.6-0.9
			c-0.2-0.5-0.3-0.9-0.3-1.3C260.7,189,261.1,188.1,261.9,187.6z M266,195c0-0.5-0.1-0.9-0.5-1.2c-0.3-0.3-0.8-0.4-1.2-0.4
			s-0.9,0.1-1.2,0.4c-0.3,0.3-0.4,0.7-0.4,1.2c0,0.5,0.1,0.9,0.4,1.2c0.3,0.3,0.8,0.4,1.2,0.4s0.9-0.1,1.2-0.4
			C265.8,195.8,266,195.4,266,195z M263.3,191c0.2,0.2,0.6,0.3,1,0.3c0.4,0,0.8-0.1,1-0.3s0.4-0.5,0.4-0.9c0-0.4-0.1-0.7-0.4-0.9
			s-0.6-0.3-1-0.3c-0.4,0-0.8,0.1-1,0.3c-0.3,0.2-0.4,0.5-0.4,0.9S263,190.8,263.3,191z"/>
	</g>
	<g>
		<path d="M284.9,18.1c0,1.1-0.2,2.2-0.9,3.1s-1.8,1.4-2.9,1.4c-1.1,0-2-0.4-2.7-1.1v4.6h-1.3V13.9h1.1V15c0.7-0.8,1.8-1.3,2.9-1.3
			c1.2,0,2.2,0.5,2.9,1.4C284.7,15.9,284.9,17,284.9,18.1z M283.6,18.1c0-0.9-0.2-1.7-0.6-2.3c-0.5-0.7-1.2-1-2.1-1
			c-0.8,0-1.5,0.3-2,0.9c-0.5,0.6-0.7,1.5-0.7,2.4c0,0.9,0.2,1.8,0.7,2.4c0.5,0.6,1.2,0.9,2,0.9s1.6-0.3,2-1
			C283.4,19.8,283.6,19,283.6,18.1z"/>
		<path d="M293.7,13.9l-3.8,10c-0.3,0.8-0.7,1.4-1.2,1.8c-0.5,0.3-1,0.4-1.5,0.4l-0.2,0v-1.2l0.3,0c0.3,0,0.6,0,0.9-0.2
			c0.3-0.2,0.5-0.7,1.1-2.1l-3.6-8.7h1.3l2.9,7l2.7-7H293.7z"/>
		<path d="M301.4,15.6c0.7,0.8,1,1.9,1,2.9c0,1-0.3,2.1-1,2.9c-0.8,0.8-1.9,1.2-2.9,1.2c-1.1,0-2.2-0.4-2.9-1.2
			c-0.7-0.8-1-1.8-1-2.9c0-1.5,0-2.4,0.1-3.3c0.2-1.3,0.7-2.4,1.7-3.1c1-0.8,2.3-0.9,3.6-0.9c0.7,0,1.2,0.1,1.8,0.2v1.2
			c-0.6-0.1-1.2-0.2-1.8-0.2c-1,0-2.1,0.1-2.9,0.6c-0.8,0.5-1.1,1.5-1.2,2.6c0.7-0.8,1.6-1.2,2.7-1.2
			C299.6,14.3,300.7,14.7,301.4,15.6z M296.5,16.3c-0.5,0.5-0.6,1.3-0.6,2.1c0,0.8,0.2,1.6,0.6,2.1c0.5,0.6,1.2,0.8,2,0.8
			c0.8,0,1.5-0.3,2-0.8c0.5-0.5,0.7-1.3,0.7-2.1c0-0.8-0.2-1.5-0.7-2.1c-0.5-0.5-1.2-0.8-2-0.8C297.7,15.5,297,15.8,296.5,16.3z"/>
		<path d="M311.8,11.1l-3,11.2h-1.3l3-11.2H311.8z"/>
		<path d="M317.3,13.9h1.2v7.2h3v-7.2h1.2v7.2h3v-7.2h1.2v8.4h-9.5V13.9z"/>
		<path d="M335.4,15.1h-3v7.3h-1.3v-7.3h-3v-1.2h7.2V15.1z"/>
		<path d="M284.9,40.1c0,1.1-0.2,2.2-0.9,3.1s-1.8,1.4-2.9,1.4c-1.1,0-2-0.4-2.7-1.1v4.6h-1.3V35.9h1.1V37c0.7-0.8,1.8-1.3,2.9-1.3
			c1.2,0,2.2,0.5,2.9,1.4C284.7,37.9,284.9,39,284.9,40.1z M283.6,40.1c0-0.9-0.2-1.7-0.6-2.3c-0.5-0.7-1.2-1-2.1-1
			c-0.8,0-1.5,0.3-2,0.9c-0.5,0.6-0.7,1.5-0.7,2.4c0,0.9,0.2,1.8,0.7,2.4c0.5,0.6,1.2,0.9,2,0.9s1.6-0.3,2-1
			C283.4,41.8,283.6,41,283.6,40.1z"/>
		<path d="M293.7,35.9l-3.8,10c-0.3,0.8-0.7,1.4-1.2,1.8c-0.5,0.3-1,0.4-1.5,0.4l-0.2,0v-1.2l0.3,0c0.3,0,0.6,0,0.9-0.2
			c0.3-0.2,0.5-0.7,1.1-2.1l-3.6-8.7h1.3l2.9,7l2.7-7H293.7z"/>
		<path d="M301.4,37.6c0.7,0.8,1,1.9,1,2.9c0,1-0.3,2.1-1,2.9c-0.8,0.8-1.9,1.2-2.9,1.2c-1.1,0-2.2-0.4-2.9-1.2
			c-0.7-0.8-1-1.8-1-2.9c0-1.5,0-2.4,0.1-3.3c0.2-1.3,0.7-2.4,1.7-3.1c1-0.8,2.3-0.9,3.6-0.9c0.7,0,1.2,0.1,1.8,0.2v1.2
			c-0.6-0.1-1.2-0.2-1.8-0.2c-1,0-2.1,0.1-2.9,0.6c-0.8,0.5-1.1,1.5-1.2,2.6c0.7-0.8,1.6-1.2,2.7-1.2
			C299.6,36.3,300.7,36.7,301.4,37.6z M296.5,38.3c-0.5,0.5-0.6,1.3-0.6,2.1c0,0.8,0.2,1.6,0.6,2.1c0.5,0.6,1.2,0.8,2,0.8
			c0.8,0,1.5-0.3,2-0.8c0.5-0.5,0.7-1.3,0.7-2.1c0-0.8-0.2-1.5-0.7-2.1c-0.5-0.5-1.2-0.8-2-0.8C297.7,37.5,297,37.8,296.5,38.3z"/>
		<path d="M311.8,33.1l-3,11.2h-1.3l3-11.2H311.8z"/>
		<path d="M317.3,35.9h1.2v7.2h3v-7.2h1.2v7.2h3v-7.2h1.2v8.4h-9.5V35.9z"/>
		<path d="M335.4,37.1h-3v7.3h-1.3v-7.3h-3v-1.2h7.2V37.1z"/>
		<path d="M284.9,62.1c0,1.1-0.2,2.2-0.9,3.1s-1.8,1.4-2.9,1.4c-1.1,0-2-0.4-2.7-1.1v4.6h-1.3V57.9h1.1V59c0.7-0.8,1.8-1.3,2.9-1.3
			c1.2,0,2.2,0.5,2.9,1.4C284.7,59.9,284.9,61,284.9,62.1z M283.6,62.1c0-0.9-0.2-1.7-0.6-2.3c-0.5-0.7-1.2-1-2.1-1
			c-0.8,0-1.5,0.3-2,0.9c-0.5,0.6-0.7,1.5-0.7,2.4c0,0.9,0.2,1.8,0.7,2.4c0.5,0.6,1.2,0.9,2,0.9s1.6-0.3,2-1
			C283.4,63.8,283.6,63,283.6,62.1z"/>
		<path d="M293.7,57.9l-3.8,10c-0.3,0.8-0.7,1.4-1.2,1.8c-0.5,0.3-1,0.4-1.5,0.4l-0.2,0v-1.2l0.3,0c0.3,0,0.6,0,0.9-0.2
			c0.3-0.2,0.5-0.7,1.1-2.1l-3.6-8.7h1.3l2.9,7l2.7-7H293.7z"/>
		<path d="M301.4,59.6c0.7,0.8,1,1.9,1,2.9c0,1-0.3,2.1-1,2.9c-0.8,0.8-1.9,1.2-2.9,1.2c-1.1,0-2.2-0.4-2.9-1.2
			c-0.7-0.8-1-1.8-1-2.9c0-1.5,0-2.4,0.1-3.3c0.2-1.3,0.7-2.4,1.7-3.1c1-0.8,2.3-0.9,3.6-0.9c0.7,0,1.2,0.1,1.8,0.2v1.2
			c-0.6-0.1-1.2-0.2-1.8-0.2c-1,0-2.1,0.1-2.9,0.6c-0.8,0.5-1.1,1.5-1.2,2.6c0.7-0.8,1.6-1.2,2.7-1.2
			C299.6,58.3,300.7,58.7,301.4,59.6z M296.5,60.3c-0.5,0.5-0.6,1.3-0.6,2.1c0,0.8,0.2,1.6,0.6,2.1c0.5,0.6,1.2,0.8,2,0.8
			c0.8,0,1.5-0.3,2-0.8c0.5-0.5,0.7-1.3,0.7-2.1c0-0.8-0.2-1.5-0.7-2.1c-0.5-0.5-1.2-0.8-2-0.8C297.7,59.5,297,59.8,296.5,60.3z"/>
		<path d="M311.8,55.1l-3,11.2h-1.3l3-11.2H311.8z"/>
		<path d="M317.3,57.9h1.2v7.2h3v-7.2h1.2v7.2h3v-7.2h1.2v8.4h-9.5V57.9z"/>
		<path d="M335.4,59.1h-3v7.3h-1.3v-7.3h-3v-1.2h7.2V59.1z"/>
		<path d="M284.9,84.1c0,1.1-0.2,2.2-0.9,3.1s-1.8,1.4-2.9,1.4c-1.1,0-2-0.4-2.7-1.1v4.6h-1.3V79.9h1.1V81c0.7-0.8,1.8-1.3,2.9-1.3
			c1.2,0,2.2,0.5,2.9,1.4C284.7,81.9,284.9,83,284.9,84.1z M283.6,84.1c0-0.9-0.2-1.7-0.6-2.3c-0.5-0.7-1.2-1-2.1-1
			c-0.8,0-1.5,0.3-2,0.9c-0.5,0.6-0.7,1.5-0.7,2.4c0,0.9,0.2,1.8,0.7,2.4c0.5,0.6,1.2,0.9,2,0.9s1.6-0.3,2-1
			C283.4,85.8,283.6,85,283.6,84.1z"/>
		<path d="M293.7,79.9l-3.8,10c-0.3,0.8-0.7,1.4-1.2,1.8c-0.5,0.3-1,0.4-1.5,0.4l-0.2,0v-1.2l0.3,0c0.3,0,0.6,0,0.9-0.2
			c0.3-0.2,0.5-0.7,1.1-2.1l-3.6-8.7h1.3l2.9,7l2.7-7H293.7z"/>
		<path d="M301.4,81.6c0.7,0.8,1,1.9,1,2.9c0,1-0.3,2.1-1,2.9c-0.8,0.8-1.9,1.2-2.9,1.2c-1.1,0-2.2-0.4-2.9-1.2
			c-0.7-0.8-1-1.8-1-2.9c0-1.5,0-2.4,0.1-3.3c0.2-1.3,0.7-2.4,1.7-3.1c1-0.8,2.3-0.9,3.6-0.9c0.7,0,1.2,0.1,1.8,0.2v1.2
			c-0.6-0.1-1.2-0.2-1.8-0.2c-1,0-2.1,0.1-2.9,0.6c-0.8,0.5-1.1,1.5-1.2,2.6c0.7-0.8,1.6-1.2,2.7-1.2
			C299.6,80.3,300.7,80.7,301.4,81.6z M296.5,82.3c-0.5,0.5-0.6,1.3-0.6,2.1c0,0.8,0.2,1.6,0.6,2.1c0.5,0.6,1.2,0.8,2,0.8
			c0.8,0,1.5-0.3,2-0.8c0.5-0.5,0.7-1.3,0.7-2.1c0-0.8-0.2-1.5-0.7-2.1c-0.5-0.5-1.2-0.8-2-0.8C297.7,81.5,297,81.8,296.5,82.3z"/>
		<path d="M311.8,77.1l-3,11.2h-1.3l3-11.2H311.8z"/>
		<path d="M317.3,79.9h1.2v7.2h3v-7.2h1.2v7.2h3v-7.2h1.2v8.4h-9.5V79.9z"/>
		<path d="M335.4,81.1h-3v7.3h-1.3v-7.3h-3v-1.2h7.2V81.1z"/>
		<path d="M284.9,106.1c0,1.1-0.2,2.2-0.9,3.1s-1.8,1.4-2.9,1.4c-1.1,0-2-0.4-2.7-1.1v4.6h-1.3v-12.2h1.1v1.1
			c0.7-0.8,1.8-1.3,2.9-1.3c1.2,0,2.2,0.5,2.9,1.4C284.7,103.9,284.9,105,284.9,106.1z M283.6,106.1c0-0.9-0.2-1.7-0.6-2.3
			c-0.5-0.7-1.2-1-2.1-1c-0.8,0-1.5,0.3-2,0.9c-0.5,0.6-0.7,1.5-0.7,2.4c0,0.9,0.2,1.8,0.7,2.4c0.5,0.6,1.2,0.9,2,0.9s1.6-0.3,2-1
			C283.4,107.8,283.6,107,283.6,106.1z"/>
		<path d="M293.7,101.9l-3.8,10c-0.3,0.8-0.7,1.4-1.2,1.8c-0.5,0.3-1,0.4-1.5,0.4l-0.2,0v-1.2l0.3,0c0.3,0,0.6,0,0.9-0.2
			c0.3-0.2,0.5-0.7,1.1-2.1l-3.6-8.7h1.3l2.9,7l2.7-7H293.7z"/>
		<path d="M301.4,103.6c0.7,0.8,1,1.9,1,2.9c0,1-0.3,2.1-1,2.9c-0.8,0.8-1.9,1.2-2.9,1.2c-1.1,0-2.2-0.4-2.9-1.2
			c-0.7-0.8-1-1.8-1-2.9c0-1.5,0-2.4,0.1-3.3c0.2-1.3,0.7-2.4,1.7-3.1c1-0.8,2.3-0.9,3.6-0.9c0.7,0,1.2,0.1,1.8,0.2v1.2
			c-0.6-0.1-1.2-0.2-1.8-0.2c-1,0-2.1,0.1-2.9,0.6c-0.8,0.5-1.1,1.5-1.2,2.6c0.7-0.8,1.6-1.2,2.7-1.2
			C299.6,102.3,300.7,102.7,301.4,103.6z M296.5,104.3c-0.5,0.5-0.6,1.3-0.6,2.1c0,0.8,0.2,1.6,0.6,2.1c0.5,0.6,1.2,0.8,2,0.8
			c0.8,0,1.5-0.3,2-0.8c0.5-0.5,0.7-1.3,0.7-2.1c0-0.8-0.2-1.5-0.7-2.1c-0.5-0.5-1.2-0.8-2-0.8C297.7,103.5,297,103.8,296.5,104.3z"
			/>
		<path d="M311.8,99.1l-3,11.2h-1.3l3-11.2H311.8z"/>
		<path d="M324.6,101.9l-3.8,10c-0.3,0.8-0.7,1.4-1.2,1.8c-0.5,0.3-1,0.4-1.5,0.4l-0.2,0v-1.2l0.3,0c0.3,0,0.6,0,0.9-0.2
			c0.3-0.2,0.5-0.7,1.1-2.1l-3.6-8.7h1.3l2.9,7l2.7-7H324.6z"/>
		<path d="M333,110.3h-1.3v-7.2h-4.6v7.2h-1.3v-8.4h7.1V110.3z"/>
		<path d="M284.9,128.1c0,1.1-0.2,2.2-0.9,3.1s-1.8,1.4-2.9,1.4c-1.1,0-2-0.4-2.7-1.1v4.6h-1.3v-12.2h1.1v1.1
			c0.7-0.8,1.8-1.3,2.9-1.3c1.2,0,2.2,0.5,2.9,1.4C284.7,125.9,284.9,127,284.9,128.1z M283.6,128.1c0-0.9-0.2-1.7-0.6-2.3
			c-0.5-0.7-1.2-1-2.1-1c-0.8,0-1.5,0.3-2,0.9c-0.5,0.6-0.7,1.5-0.7,2.4c0,0.9,0.2,1.8,0.7,2.4c0.5,0.6,1.2,0.9,2,0.9s1.6-0.3,2-1
			C283.4,129.8,283.6,129,283.6,128.1z"/>
		<path d="M293.7,123.9l-3.8,10c-0.3,0.8-0.7,1.4-1.2,1.8c-0.5,0.3-1,0.4-1.5,0.4l-0.2,0v-1.2l0.3,0c0.3,0,0.6,0,0.9-0.2
			c0.3-0.2,0.5-0.7,1.1-2.1l-3.6-8.7h1.3l2.9,7l2.7-7H293.7z"/>
		<path d="M301.4,125.6c0.7,0.8,1,1.9,1,2.9c0,1-0.3,2.1-1,2.9c-0.8,0.8-1.9,1.2-2.9,1.2c-1.1,0-2.2-0.4-2.9-1.2
			c-0.7-0.8-1-1.8-1-2.9c0-1.5,0-2.4,0.1-3.3c0.2-1.3,0.7-2.4,1.7-3.1c1-0.8,2.3-0.9,3.6-0.9c0.7,0,1.2,0.1,1.8,0.2v1.2
			c-0.6-0.1-1.2-0.2-1.8-0.2c-1,0-2.1,0.1-2.9,0.6c-0.8,0.5-1.1,1.5-1.2,2.6c0.7-0.8,1.6-1.2,2.7-1.2
			C299.6,124.3,300.7,124.7,301.4,125.6z M296.5,126.3c-0.5,0.5-0.6,1.3-0.6,2.1c0,0.8,0.2,1.6,0.6,2.1c0.5,0.6,1.2,0.8,2,0.8
			c0.8,0,1.5-0.3,2-0.8c0.5-0.5,0.7-1.3,0.7-2.1c0-0.8-0.2-1.5-0.7-2.1c-0.5-0.5-1.2-0.8-2-0.8C297.7,125.5,297,125.8,296.5,126.3z"
			/>
		<path d="M311.8,121.1l-3,11.2h-1.3l3-11.2H311.8z"/>
		<path d="M324.6,123.9l-3.8,10c-0.3,0.8-0.7,1.4-1.2,1.8c-0.5,0.3-1,0.4-1.5,0.4l-0.2,0v-1.2l0.3,0c0.3,0,0.6,0,0.9-0.2
			c0.3-0.2,0.5-0.7,1.1-2.1l-3.6-8.7h1.3l2.9,7l2.7-7H324.6z"/>
		<path d="M333,132.3h-1.3v-7.2h-4.6v7.2h-1.3v-8.4h7.1V132.3z"/>
		<path d="M284.9,150.1c0,1.1-0.2,2.2-0.9,3.1s-1.8,1.4-2.9,1.4c-1.1,0-2-0.4-2.7-1.1v4.6h-1.3v-12.2h1.1v1.1
			c0.7-0.8,1.8-1.3,2.9-1.3c1.2,0,2.2,0.5,2.9,1.4C284.7,147.9,284.9,149,284.9,150.1z M283.6,150.1c0-0.9-0.2-1.7-0.6-2.3
			c-0.5-0.7-1.2-1-2.1-1c-0.8,0-1.5,0.3-2,0.9c-0.5,0.6-0.7,1.5-0.7,2.4c0,0.9,0.2,1.8,0.7,2.4c0.5,0.6,1.2,0.9,2,0.9s1.6-0.3,2-1
			C283.4,151.8,283.6,151,283.6,150.1z"/>
		<path d="M293.7,145.9l-3.8,10c-0.3,0.8-0.7,1.4-1.2,1.8c-0.5,0.3-1,0.4-1.5,0.4l-0.2,0v-1.2l0.3,0c0.3,0,0.6,0,0.9-0.2
			c0.3-0.2,0.5-0.7,1.1-2.1l-3.6-8.7h1.3l2.9,7l2.7-7H293.7z"/>
		<path d="M301.4,147.6c0.7,0.8,1,1.9,1,2.9c0,1-0.3,2.1-1,2.9c-0.8,0.8-1.9,1.2-2.9,1.2c-1.1,0-2.2-0.4-2.9-1.2
			c-0.7-0.8-1-1.8-1-2.9c0-1.5,0-2.4,0.1-3.3c0.2-1.3,0.7-2.4,1.7-3.1c1-0.8,2.3-0.9,3.6-0.9c0.7,0,1.2,0.1,1.8,0.2v1.2
			c-0.6-0.1-1.2-0.2-1.8-0.2c-1,0-2.1,0.1-2.9,0.6c-0.8,0.5-1.1,1.5-1.2,2.6c0.7-0.8,1.6-1.2,2.7-1.2
			C299.6,146.3,300.7,146.7,301.4,147.6z M296.5,148.3c-0.5,0.5-0.6,1.3-0.6,2.1c0,0.8,0.2,1.6,0.6,2.1c0.5,0.6,1.2,0.8,2,0.8
			c0.8,0,1.5-0.3,2-0.8c0.5-0.5,0.7-1.3,0.7-2.1c0-0.8-0.2-1.5-0.7-2.1c-0.5-0.5-1.2-0.8-2-0.8C297.7,147.5,297,147.8,296.5,148.3z"
			/>
		<path d="M311.8,143.1l-3,11.2h-1.3l3-11.2H311.8z"/>
		<path d="M324.6,145.9l-3.8,10c-0.3,0.8-0.7,1.4-1.2,1.8c-0.5,0.3-1,0.4-1.5,0.4l-0.2,0v-1.2l0.3,0c0.3,0,0.6,0,0.9-0.2
			c0.3-0.2,0.5-0.7,1.1-2.1l-3.6-8.7h1.3l2.9,7l2.7-7H324.6z"/>
		<path d="M333,154.3h-1.3v-7.2h-4.6v7.2h-1.3v-8.4h7.1V154.3z"/>
		<path d="M284.9,172.1c0,1.1-0.2,2.2-0.9,3.1s-1.8,1.4-2.9,1.4c-1.1,0-2-0.4-2.7-1.1v4.6h-1.3v-12.2h1.1v1.1
			c0.7-0.8,1.8-1.3,2.9-1.3c1.2,0,2.2,0.5,2.9,1.4C284.7,169.9,284.9,171,284.9,172.1z M283.6,172.1c0-0.9-0.2-1.7-0.6-2.3
			c-0.5-0.7-1.2-1-2.1-1c-0.8,0-1.5,0.3-2,0.9c-0.5,0.6-0.7,1.5-0.7,2.4c0,0.9,0.2,1.8,0.7,2.4c0.5,0.6,1.2,0.9,2,0.9s1.6-0.3,2-1
			C283.4,173.8,283.6,173,283.6,172.1z"/>
		<path d="M293.7,167.9l-3.8,10c-0.3,0.8-0.7,1.4-1.2,1.8c-0.5,0.3-1,0.4-1.5,0.4l-0.2,0v-1.2l0.3,0c0.3,0,0.6,0,0.9-0.2
			c0.3-0.2,0.5-0.7,1.1-2.1l-3.6-8.7h1.3l2.9,7l2.7-7H293.7z"/>
		<path d="M301.4,169.6c0.7,0.8,1,1.9,1,2.9c0,1-0.3,2.1-1,2.9c-0.8,0.8-1.9,1.2-2.9,1.2c-1.1,0-2.2-0.4-2.9-1.2
			c-0.7-0.8-1-1.8-1-2.9c0-1.5,0-2.4,0.1-3.3c0.2-1.3,0.7-2.4,1.7-3.1c1-0.8,2.3-0.9,3.6-0.9c0.7,0,1.2,0.1,1.8,0.2v1.2
			c-0.6-0.1-1.2-0.2-1.8-0.2c-1,0-2.1,0.1-2.9,0.6c-0.8,0.5-1.1,1.5-1.2,2.6c0.7-0.8,1.6-1.2,2.7-1.2
			C299.6,168.3,300.7,168.7,301.4,169.6z M296.5,170.3c-0.5,0.5-0.6,1.3-0.6,2.1c0,0.8,0.2,1.6,0.6,2.1c0.5,0.6,1.2,0.8,2,0.8
			c0.8,0,1.5-0.3,2-0.8c0.5-0.5,0.7-1.3,0.7-2.1c0-0.8-0.2-1.5-0.7-2.1c-0.5-0.5-1.2-0.8-2-0.8C297.7,169.5,297,169.8,296.5,170.3z"
			/>
		<path d="M311.8,165.1l-3,11.2h-1.3l3-11.2H311.8z"/>
		<path d="M317.3,167.9h1.2v7.2h3v-7.2h1.2v7.2h3v-7.2h1.2v8.4h-9.5V167.9z"/>
		<path d="M335.4,169.1h-3v7.3h-1.3v-7.3h-3v-1.2h7.2V169.1z"/>
		<path d="M284.9,194.1c0,1.1-0.2,2.2-0.9,3.1s-1.8,1.4-2.9,1.4c-1.1,0-2-0.4-2.7-1.1v4.6h-1.3v-12.2h1.1v1.1
			c0.7-0.8,1.8-1.3,2.9-1.3c1.2,0,2.2,0.5,2.9,1.4C284.7,191.9,284.9,193,284.9,194.1z M283.6,194.1c0-0.9-0.2-1.7-0.6-2.3
			c-0.5-0.7-1.2-1-2.1-1c-0.8,0-1.5,0.3-2,0.9c-0.5,0.6-0.7,1.5-0.7,2.4c0,0.9,0.2,1.8,0.7,2.4c0.5,0.6,1.2,0.9,2,0.9s1.6-0.3,2-1
			C283.4,195.8,283.6,195,283.6,194.1z"/>
		<path d="M293.7,189.9l-3.8,10c-0.3,0.8-0.7,1.4-1.2,1.8c-0.5,0.3-1,0.4-1.5,0.4l-0.2,0v-1.2l0.3,0c0.3,0,0.6,0,0.9-0.2
			c0.3-0.2,0.5-0.7,1.1-2.1l-3.6-8.7h1.3l2.9,7l2.7-7H293.7z"/>
		<path d="M301.4,191.6c0.7,0.8,1,1.9,1,2.9c0,1-0.3,2.1-1,2.9c-0.8,0.8-1.9,1.2-2.9,1.2c-1.1,0-2.2-0.4-2.9-1.2
			c-0.7-0.8-1-1.8-1-2.9c0-1.5,0-2.4,0.1-3.3c0.2-1.3,0.7-2.4,1.7-3.1c1-0.8,2.3-0.9,3.6-0.9c0.7,0,1.2,0.1,1.8,0.2v1.2
			c-0.6-0.1-1.2-0.2-1.8-0.2c-1,0-2.1,0.1-2.9,0.6c-0.8,0.5-1.1,1.5-1.2,2.6c0.7-0.8,1.6-1.2,2.7-1.2
			C299.6,190.3,300.7,190.7,301.4,191.6z M296.5,192.3c-0.5,0.5-0.6,1.3-0.6,2.1c0,0.8,0.2,1.6,0.6,2.1c0.5,0.6,1.2,0.8,2,0.8
			c0.8,0,1.5-0.3,2-0.8c0.5-0.5,0.7-1.3,0.7-2.1c0-0.8-0.2-1.5-0.7-2.1c-0.5-0.5-1.2-0.8-2-0.8C297.7,191.5,297,191.8,296.5,192.3z"
			/>
		<path d="M311.8,187.1l-3,11.2h-1.3l3-11.2H311.8z"/>
		<path d="M317.3,189.9h1.2v7.2h3v-7.2h1.2v7.2h3v-7.2h1.2v8.4h-9.5V189.9z"/>
		<path d="M335.4,191.1h-3v7.3h-1.3v-7.3h-3v-1.2h7.2V191.1z"/>
	</g>
	<g>
		<path class="st0" d="M209.3,21.4c-0.6-0.7-0.8-1.6-0.8-2.5c0-0.9,0.2-1.8,0.8-2.4c0.6-0.7,1.5-1.1,2.5-1.1c1,0,1.9,0.4,2.4,1.1
			c0.6,0.7,0.8,1.6,0.8,2.4c0,0.9-0.2,1.7-0.8,2.5c-0.6,0.7-1.5,1.1-2.4,1.1C210.8,22.5,209.8,22.2,209.3,21.4z M213.9,18.9
			c0-0.6-0.1-1.3-0.5-1.8c-0.4-0.5-1-0.8-1.6-0.8c-0.7,0-1.3,0.2-1.6,0.8c-0.4,0.5-0.5,1.2-0.5,1.8c0,0.7,0.1,1.3,0.5,1.8
			c0.4,0.5,1,0.8,1.6,0.8c0.6,0,1.3-0.3,1.6-0.8C213.7,20.3,213.9,19.6,213.9,18.9z"/>
		<path class="st0" d="M221.5,16.5h-2.4v5.8h-1v-5.8h-2.4v-0.9h5.8V16.5z"/>
		<path class="st0" d="M209.3,43.4c-0.6-0.7-0.8-1.6-0.8-2.5c0-0.9,0.2-1.8,0.8-2.4c0.6-0.7,1.5-1.1,2.5-1.1c1,0,1.9,0.4,2.4,1.1
			c0.6,0.7,0.8,1.6,0.8,2.4c0,0.9-0.2,1.7-0.8,2.5c-0.6,0.7-1.5,1.1-2.4,1.1C210.8,44.5,209.8,44.2,209.3,43.4z M213.9,40.9
			c0-0.6-0.1-1.3-0.5-1.8c-0.4-0.5-1-0.8-1.6-0.8c-0.7,0-1.3,0.2-1.6,0.8c-0.4,0.5-0.5,1.2-0.5,1.8c0,0.7,0.1,1.3,0.5,1.8
			c0.4,0.5,1,0.8,1.6,0.8c0.6,0,1.3-0.3,1.6-0.8C213.7,42.3,213.9,41.6,213.9,40.9z"/>
		<path class="st0" d="M221.5,38.5h-2.4v5.8h-1v-5.8h-2.4v-0.9h5.8V38.5z"/>
		<path class="st0" d="M209.3,65.4c-0.6-0.7-0.8-1.6-0.8-2.5c0-0.9,0.2-1.8,0.8-2.4c0.6-0.7,1.5-1.1,2.5-1.1c1,0,1.9,0.4,2.4,1.1
			c0.6,0.7,0.8,1.6,0.8,2.4c0,0.9-0.2,1.7-0.8,2.5c-0.6,0.7-1.5,1.1-2.4,1.1C210.8,66.5,209.8,66.2,209.3,65.4z M213.9,62.9
			c0-0.6-0.1-1.3-0.5-1.8c-0.4-0.5-1-0.8-1.6-0.8c-0.7,0-1.3,0.2-1.6,0.8c-0.4,0.5-0.5,1.2-0.5,1.8c0,0.7,0.1,1.3,0.5,1.8
			c0.4,0.5,1,0.8,1.6,0.8c0.6,0,1.3-0.3,1.6-0.8C213.7,64.3,213.9,63.6,213.9,62.9z"/>
		<path class="st0" d="M221.5,60.5h-2.4v5.8h-1v-5.8h-2.4v-0.9h5.8V60.5z"/>
		<path class="st0" d="M209.3,87.4c-0.6-0.7-0.8-1.6-0.8-2.5c0-0.9,0.2-1.8,0.8-2.4c0.6-0.7,1.5-1.1,2.5-1.1c1,0,1.9,0.4,2.4,1.1
			c0.6,0.7,0.8,1.6,0.8,2.4c0,0.9-0.2,1.7-0.8,2.5c-0.6,0.7-1.5,1.1-2.4,1.1C210.8,88.5,209.8,88.2,209.3,87.4z M213.9,84.9
			c0-0.6-0.1-1.3-0.5-1.8c-0.4-0.5-1-0.8-1.6-0.8c-0.7,0-1.3,0.2-1.6,0.8c-0.4,0.5-0.5,1.2-0.5,1.8c0,0.7,0.1,1.3,0.5,1.8
			c0.4,0.5,1,0.8,1.6,0.8c0.6,0,1.3-0.3,1.6-0.8C213.7,86.3,213.9,85.6,213.9,84.9z"/>
		<path class="st0" d="M221.5,82.5h-2.4v5.8h-1v-5.8h-2.4v-0.9h5.8V82.5z"/>
		<path class="st0" d="M209.3,109.4c-0.6-0.7-0.8-1.6-0.8-2.5c0-0.9,0.2-1.8,0.8-2.4c0.6-0.7,1.5-1.1,2.5-1.1c1,0,1.9,0.4,2.4,1.1
			c0.6,0.7,0.8,1.6,0.8,2.4c0,0.9-0.2,1.7-0.8,2.5c-0.6,0.7-1.5,1.1-2.4,1.1C210.8,110.5,209.8,110.2,209.3,109.4z M213.9,106.9
			c0-0.6-0.1-1.3-0.5-1.8c-0.4-0.5-1-0.8-1.6-0.8c-0.7,0-1.3,0.2-1.6,0.8c-0.4,0.5-0.5,1.2-0.5,1.8c0,0.7,0.1,1.3,0.5,1.8
			c0.4,0.5,1,0.8,1.6,0.8c0.6,0,1.3-0.3,1.6-0.8C213.7,108.3,213.9,107.6,213.9,106.9z"/>
		<path class="st0" d="M221.5,104.5h-2.4v5.8h-1v-5.8h-2.4v-0.9h5.8V104.5z"/>
		<path class="st0" d="M209.3,131.4c-0.6-0.7-0.8-1.6-0.8-2.5c0-0.9,0.2-1.8,0.8-2.4c0.6-0.7,1.5-1.1,2.5-1.1c1,0,1.9,0.4,2.4,1.1
			c0.6,0.7,0.8,1.6,0.8,2.4c0,0.9-0.2,1.7-0.8,2.5c-0.6,0.7-1.5,1.1-2.4,1.1C210.8,132.5,209.8,132.2,209.3,131.4z M213.9,128.9
			c0-0.6-0.1-1.3-0.5-1.8c-0.4-0.5-1-0.8-1.6-0.8c-0.7,0-1.3,0.2-1.6,0.8c-0.4,0.5-0.5,1.2-0.5,1.8c0,0.7,0.1,1.3,0.5,1.8
			c0.4,0.5,1,0.8,1.6,0.8c0.6,0,1.3-0.3,1.6-0.8C213.7,130.3,213.9,129.6,213.9,128.9z"/>
		<path class="st0" d="M221.5,126.5h-2.4v5.8h-1v-5.8h-2.4v-0.9h5.8V126.5z"/>
		<path class="st0" d="M209.3,153.4c-0.6-0.7-0.8-1.6-0.8-2.5c0-0.9,0.2-1.8,0.8-2.4c0.6-0.7,1.5-1.1,2.5-1.1c1,0,1.9,0.4,2.4,1.1
			c0.6,0.7,0.8,1.6,0.8,2.4c0,0.9-0.2,1.7-0.8,2.5c-0.6,0.7-1.5,1.1-2.4,1.1C210.8,154.5,209.8,154.2,209.3,153.4z M213.9,150.9
			c0-0.6-0.1-1.3-0.5-1.8c-0.4-0.5-1-0.8-1.6-0.8c-0.7,0-1.3,0.2-1.6,0.8c-0.4,0.5-0.5,1.2-0.5,1.8c0,0.7,0.1,1.3,0.5,1.8
			c0.4,0.5,1,0.8,1.6,0.8c0.6,0,1.3-0.3,1.6-0.8C213.7,152.3,213.9,151.6,213.9,150.9z"/>
		<path class="st0" d="M221.5,148.5h-2.4v5.8h-1v-5.8h-2.4v-0.9h5.8V148.5z"/>
		<path class="st0" d="M209.3,175.4c-0.6-0.7-0.8-1.6-0.8-2.5c0-0.9,0.2-1.8,0.8-2.4c0.6-0.7,1.5-1.1,2.5-1.1c1,0,1.9,0.4,2.4,1.1
			c0.6,0.7,0.8,1.6,0.8,2.4c0,0.9-0.2,1.8-0.8,2.5c-0.6,0.8-1.5,1.1-2.4,1.1C210.8,176.5,209.8,176.2,209.3,175.4z M213.9,172.9
			c0-0.6-0.1-1.3-0.5-1.8c-0.4-0.5-1-0.8-1.6-0.8c-0.7,0-1.3,0.2-1.6,0.8c-0.4,0.5-0.5,1.2-0.5,1.8c0,0.7,0.1,1.3,0.5,1.8
			c0.4,0.5,1,0.8,1.6,0.8c0.6,0,1.3-0.3,1.6-0.8C213.7,174.3,213.9,173.6,213.9,172.9z"/>
		<path class="st0" d="M221.5,170.5h-2.4v5.8h-1v-5.8h-2.4v-0.9h5.8V170.5z"/>
		<path class="st0" d="M209.3,197.4c-0.6-0.7-0.8-1.6-0.8-2.5c0-0.9,0.2-1.8,0.8-2.4c0.6-0.7,1.5-1.1,2.5-1.1c1,0,1.9,0.4,2.4,1.1
			c0.6,0.7,0.8,1.6,0.8,2.4c0,0.9-0.2,1.8-0.8,2.5c-0.6,0.8-1.5,1.1-2.4,1.1C210.8,198.5,209.8,198.2,209.3,197.4z M213.9,194.9
			c0-0.6-0.1-1.3-0.5-1.8c-0.4-0.5-1-0.8-1.6-0.8c-0.7,0-1.3,0.2-1.6,0.8c-0.4,0.5-0.5,1.2-0.5,1.8c0,0.7,0.1,1.3,0.5,1.8
			c0.4,0.5,1,0.8,1.6,0.8c0.6,0,1.3-0.3,1.6-0.8C213.7,196.3,213.9,195.6,213.9,194.9z"/>
		<path class="st0" d="M221.5,192.5h-2.4v5.8h-1v-5.8h-2.4v-0.9h5.8V192.5z"/>
	</g>
</g>
</svg>
