<?xml version="1.0" encoding="utf-8"?>
<!-- Generator: Adobe Illustrator 21.0.0, SVG Export Plug-In . SVG Version: 6.00 Build 0)  -->
<svg version="1.1" id="Слой_1" xmlns="http://www.w3.org/2000/svg" xmlns:xlink="http://www.w3.org/1999/xlink" x="0px" y="0px"
	 viewBox="0 0 250 74" style="enable-background:new 0 0 250 74;" xml:space="preserve">
<g>
	<path d="M6.6,7.3c1.3-1.1,3-1.4,4.6-1.4c1.7,0,3.3,0.4,4.6,1.4c1.4,1.1,2.1,2.9,2.1,4.7c0,1.3-0.4,2.7-1.3,3.7
		c-0.3,0.4-0.8,0.8-1.2,1.2c0.7,0.5,1.2,1,1.7,1.7c1,1.2,1.4,2.7,1.4,4c-0.1,1.9-0.7,3.8-2.2,5.1c-1.4,1.2-3.3,1.7-5.1,1.7
		s-3.7-0.5-5.1-1.7c-1.5-1.3-2.2-3.2-2.2-5.1c0-1.4,0.4-2.9,1.4-4c0.4-0.6,1-1.2,1.7-1.7c-0.4-0.3-0.8-0.7-1.2-1.2
		c-0.9-1-1.3-2.3-1.3-3.7C4.5,10.1,5.1,8.4,6.6,7.3z M15.7,22.5c0-1.2-0.3-2.4-1.2-3.2c-0.8-0.8-2.1-1.2-3.4-1.2
		c-1.2,0-2.5,0.3-3.3,1.2c-0.9,0.8-1.2,2-1.2,3.2s0.3,2.4,1.2,3.2c0.8,0.8,2.1,1.2,3.3,1.2c1.3,0,2.5-0.4,3.4-1.2
		C15.4,24.9,15.7,23.7,15.7,22.5z M8.2,14.7c0.8,0.7,1.8,0.9,2.9,0.9c1.1,0,2.2-0.3,3-0.9c0.8-0.7,1.1-1.7,1.1-2.7
		c0-1.1-0.3-2.1-1.1-2.7c-0.8-0.7-1.8-0.9-2.9-0.9c-1.1,0-2.2,0.3-2.9,0.9C7.5,9.9,7.1,10.9,7.1,12C7.1,13,7.5,14,8.2,14.7z"/>
	<path d="M33.7,30.5c-2-3.4-3-7.8-3-12.9c0-5.2,1-9.5,3-13l2.1,1.2c-1.8,3.1-2.6,7-2.6,11.8c0,4.7,0.9,8.7,2.6,11.7L33.7,30.5z"/>
	<path d="M55.1,22.2v2.4h-2.4v4.2h-2.6v-4.2h-10v-2.4l7.5-15.8h2.7l-7.5,15.8h7.3v-6.5h2.6v6.5H55.1z"/>
	<path d="M61.4,24.6c0.9,1.4,2.5,2.3,4.3,2.3c1.7,0,3.2-0.8,4.1-2.1c0.8-1,1.2-2.2,1.2-3.6v-2.9c-1.3,1.5-3.2,2.5-5.3,2.5
		c-1.9,0-3.8-0.8-5.2-2c-1.4-1.4-2.2-3.3-2.2-5.4c0-2,0.8-3.9,2.2-5.2c1.4-1.4,3.3-2.3,5.4-2.2c2.1,0,4.1,0.9,5.5,2.3
		c1.6,1.6,2.1,3.5,2.1,5.8v7.2c0,2.3-0.7,4.2-2.1,5.8c-1.5,1.6-3.5,2.4-5.7,2.3c-2.5,0-4.8-1.1-6.2-3.1L61.4,24.6z M61.7,11
		c-0.6,1-0.8,2.2-0.5,3.5c0.3,1.3,1.1,2.3,2.1,3c1,0.7,2.3,0.9,3.6,0.6c1.3-0.3,2.4-1.1,3-2.2c0.6-1,0.8-2.3,0.6-3.5
		c-0.3-1.2-1-2.2-2-2.9c-1.1-0.7-2.4-1-3.7-0.7C63.5,9,62.4,9.9,61.7,11z"/>
	<path d="M80.1,24.6c0.9,1.4,2.5,2.3,4.3,2.3c1.7,0,3.2-0.8,4.1-2.1c0.8-1,1.2-2.2,1.2-3.6v-2.9c-1.3,1.5-3.2,2.5-5.3,2.5
		c-1.9,0-3.8-0.8-5.2-2c-1.4-1.4-2.2-3.3-2.2-5.4c0-2,0.8-3.9,2.2-5.2c1.4-1.4,3.3-2.3,5.4-2.2c2.1,0,4.1,0.9,5.5,2.3
		c1.6,1.6,2.1,3.5,2.1,5.8v7.2c0,2.3-0.7,4.2-2.1,5.8c-1.5,1.6-3.5,2.4-5.7,2.3c-2.5,0-4.8-1.1-6.2-3.1L80.1,24.6z M80.4,11
		c-0.6,1-0.8,2.2-0.5,3.5c0.3,1.3,1.1,2.3,2.1,3c1,0.7,2.3,0.9,3.6,0.6c1.3-0.3,2.4-1.1,3-2.2c0.6-1,0.8-2.3,0.6-3.5
		c-0.3-1.2-1-2.2-2-2.9c-1.1-0.7-2.4-1-3.7-0.7C82.2,9,81.1,9.9,80.4,11z"/>
	<path d="M98.7,30.5l-2.1-1.2c1.8-3.1,2.7-7,2.7-11.7c0-4.7-0.9-8.7-2.7-11.8l2.1-1.2c1.9,3.4,2.9,7.8,2.9,13
		C101.6,22.7,100.6,27.1,98.7,30.5z"/>
	<path d="M116.6,7.3c1.3-1.1,3-1.4,4.6-1.4c1.7,0,3.3,0.4,4.6,1.4c1.4,1.1,2.1,2.9,2.1,4.7c0,1.3-0.4,2.7-1.3,3.7
		c-0.3,0.4-0.8,0.8-1.2,1.2c0.7,0.5,1.2,1,1.7,1.7c1,1.2,1.4,2.7,1.4,4c-0.1,1.9-0.7,3.8-2.2,5.1c-1.4,1.2-3.3,1.7-5.1,1.7
		s-3.7-0.5-5.1-1.7c-1.5-1.3-2.2-3.2-2.2-5.1c0-1.4,0.4-2.9,1.4-4c0.4-0.6,1-1.2,1.7-1.7c-0.4-0.3-0.8-0.7-1.2-1.2
		c-0.9-1-1.3-2.3-1.3-3.7C114.5,10.1,115.2,8.4,116.6,7.3z M125.8,22.5c0-1.2-0.3-2.4-1.2-3.2c-0.8-0.8-2.1-1.2-3.4-1.2
		c-1.2,0-2.5,0.3-3.3,1.2c-0.9,0.8-1.2,2-1.2,3.2s0.3,2.4,1.2,3.2c0.8,0.8,2.1,1.2,3.3,1.2c1.3,0,2.5-0.4,3.4-1.2
		C125.4,24.9,125.8,23.7,125.8,22.5z M118.3,14.7c0.8,0.7,1.8,0.9,2.9,0.9c1.1,0,2.2-0.3,3-0.9c0.8-0.7,1.1-1.7,1.1-2.7
		c0-1.1-0.3-2.1-1.1-2.7c-0.8-0.7-1.8-0.9-2.9-0.9c-1.1,0-2.2,0.3-2.9,0.9c-0.8,0.6-1.1,1.6-1.1,2.7C117.1,13,117.5,14,118.3,14.7z"
		/>
	<path d="M138.8,29.3c-2.1,0-4.2-0.8-5.6-2.4c-1.3-1.5-1.9-3.2-1.9-5.3v-8c0-2.1,0.5-3.8,1.9-5.3c1.3-1.5,3.4-2.4,5.5-2.3
		c2.1,0,4.1,0.8,5.5,2.3c1.4,1.5,1.9,3.2,1.9,5.3v8c0,2-0.5,3.8-1.8,5.3C143,28.4,141,29.3,138.8,29.3z M138.8,8.3
		c-1.7,0-3.2,0.9-4.1,2.2c-0.6,0.9-0.8,1.9-0.8,3v8c0,1.1,0.2,2.2,0.8,3.1c0.9,1.3,2.4,2.2,4.1,2.2c1.7,0,3.2-0.9,4.1-2.2
		c0.6-0.9,0.8-1.8,0.8-3.1v-8c0-1.2-0.2-2.1-0.8-3C142,9.2,140.5,8.3,138.8,8.3z"/>
	<path d="M156.2,29.3c-2.1,0-4.2-0.8-5.6-2.4c-1.3-1.5-1.9-3.2-1.9-5.3v-8c0-2.1,0.5-3.8,1.9-5.3c1.3-1.5,3.4-2.4,5.5-2.3
		c2.1,0,4.1,0.8,5.5,2.3c1.4,1.5,1.9,3.2,1.9,5.3v8c0,2-0.5,3.8-1.8,5.3C160.4,28.4,158.4,29.3,156.2,29.3z M156.2,8.3
		c-1.7,0-3.2,0.9-4.1,2.2c-0.6,0.9-0.8,1.9-0.8,3v8c0,1.1,0.2,2.2,0.8,3.1c0.9,1.3,2.4,2.2,4.1,2.2c1.7,0,3.2-0.9,4.1-2.2
		c0.6-0.9,0.8-1.8,0.8-3.1v-8c0-1.2-0.2-2.1-0.8-3C159.4,9.2,157.9,8.3,156.2,8.3z"/>
	<path d="M176.2,19v2.1h-9.4V19H176.2z"/>
	<path d="M182.3,7.3c1.3-1.1,3-1.4,4.6-1.4c1.7,0,3.3,0.4,4.6,1.4c1.4,1.1,2.1,2.9,2.1,4.7c0,1.3-0.4,2.7-1.3,3.7
		c-0.3,0.4-0.8,0.8-1.2,1.2c0.7,0.5,1.2,1,1.7,1.7c1,1.2,1.4,2.7,1.4,4c-0.1,1.9-0.7,3.8-2.2,5.1c-1.4,1.2-3.3,1.7-5.1,1.7
		s-3.7-0.5-5.1-1.7c-1.5-1.3-2.2-3.2-2.2-5.1c0-1.4,0.4-2.9,1.4-4c0.4-0.6,1-1.2,1.7-1.7c-0.4-0.3-0.8-0.7-1.2-1.2
		c-0.9-1-1.3-2.3-1.3-3.7C180.2,10.1,180.9,8.4,182.3,7.3z M191.5,22.5c0-1.2-0.3-2.4-1.2-3.2c-0.8-0.8-2.1-1.2-3.4-1.2
		c-1.2,0-2.5,0.3-3.3,1.2c-0.9,0.8-1.2,2-1.2,3.2s0.3,2.4,1.2,3.2c0.8,0.8,2.1,1.2,3.3,1.2c1.3,0,2.5-0.4,3.4-1.2
		C191.1,24.9,191.5,23.7,191.5,22.5z M184,14.7c0.8,0.7,1.8,0.9,2.9,0.9c1.1,0,2.2-0.3,3-0.9c0.8-0.7,1.1-1.7,1.1-2.7
		c0-1.1-0.3-2.1-1.1-2.7c-0.8-0.7-1.8-0.9-2.9-0.9c-1.1,0-2.2,0.3-2.9,0.9c-0.8,0.6-1.1,1.6-1.1,2.7C182.8,13,183.2,14,184,14.7z"/>
	<path d="M203.4,6.3v22.5h-2.6V9.1l-4.2,2.6V8.9l4.2-2.5H203.4z"/>
	<path d="M218.1,19v2.1h-9.4V19H218.1z"/>
	<path d="M225,24.6c0.9,1.4,2.5,2.3,4.3,2.3c1.7,0,3.2-0.8,4.1-2.1c0.8-1,1.2-2.2,1.2-3.6v-2.9c-1.3,1.5-3.2,2.5-5.3,2.5
		c-1.9,0-3.8-0.8-5.2-2c-1.4-1.4-2.2-3.3-2.2-5.4c0-2,0.8-3.9,2.2-5.2c1.4-1.4,3.3-2.3,5.4-2.2c2.1,0,4.1,0.9,5.5,2.3
		c1.6,1.6,2.1,3.5,2.1,5.8v7.2c0,2.3-0.7,4.2-2.1,5.8c-1.5,1.6-3.5,2.4-5.7,2.3c-2.5,0-4.8-1.1-6.2-3.1L225,24.6z M225.3,11
		c-0.6,1-0.8,2.2-0.5,3.5c0.3,1.3,1.1,2.3,2.1,3c1,0.7,2.3,0.9,3.6,0.6c1.3-0.3,2.4-1.1,3-2.2c0.6-1,0.8-2.3,0.6-3.5
		c-0.3-1.2-1-2.2-2-2.9c-1.1-0.7-2.4-1-3.7-0.7C227.1,9,226,9.9,225.3,11z"/>
	<path d="M246.3,6.3v22.5h-2.6V9.1l-4.2,2.6V8.9l4.2-2.5H246.3z"/>
	<path d="M6.6,47.3c1.3-1.1,3-1.4,4.6-1.4c1.7,0,3.3,0.4,4.6,1.4c1.4,1.1,2.1,2.9,2.1,4.7c0,1.3-0.4,2.7-1.3,3.7
		c-0.3,0.4-0.8,0.8-1.2,1.2c0.7,0.5,1.2,1,1.7,1.7c1,1.2,1.4,2.7,1.4,4c-0.1,1.9-0.7,3.8-2.2,5.1c-1.4,1.2-3.3,1.7-5.1,1.7
		s-3.7-0.5-5.1-1.7c-1.5-1.3-2.2-3.2-2.2-5.1c0-1.4,0.4-2.9,1.4-4c0.4-0.6,1-1.2,1.7-1.7c-0.4-0.3-0.8-0.7-1.2-1.2
		c-0.9-1-1.3-2.3-1.3-3.7C4.5,50.1,5.1,48.4,6.6,47.3z M15.7,62.5c0-1.2-0.3-2.4-1.2-3.2c-0.8-0.8-2.1-1.2-3.4-1.2
		c-1.2,0-2.5,0.3-3.3,1.2c-0.9,0.8-1.2,2-1.2,3.2s0.3,2.4,1.2,3.2c0.8,0.8,2.1,1.2,3.3,1.2c1.3,0,2.5-0.4,3.4-1.2
		C15.4,64.9,15.7,63.7,15.7,62.5z M8.2,54.7c0.8,0.7,1.8,0.9,2.9,0.9c1.1,0,2.2-0.3,3-0.9c0.8-0.7,1.1-1.7,1.1-2.7
		c0-1.1-0.3-2.1-1.1-2.7c-0.8-0.7-1.8-0.9-2.9-0.9c-1.1,0-2.2,0.3-2.9,0.9c-0.8,0.6-1.1,1.6-1.1,2.7C7.1,53,7.5,54,8.2,54.7z"/>
	<path d="M33.7,70.5c-2-3.4-3-7.8-3-12.9c0-5.2,1-9.5,3-13l2.1,1.2c-1.8,3.1-2.6,7-2.6,11.8c0,4.7,0.9,8.7,2.6,11.7L33.7,70.5z"/>
	<path d="M55.1,62.2v2.4h-2.4v4.2h-2.6v-4.2h-10v-2.4l7.5-15.8h2.7l-7.5,15.8h7.3v-6.5h2.6v6.5H55.1z"/>
	<path d="M61.4,64.6c0.9,1.4,2.5,2.3,4.3,2.3c1.7,0,3.2-0.8,4.1-2.1c0.8-1,1.2-2.2,1.2-3.6v-2.9c-1.3,1.5-3.2,2.5-5.3,2.5
		c-1.9,0-3.8-0.8-5.2-2c-1.4-1.4-2.2-3.3-2.2-5.4c0-2,0.8-3.9,2.2-5.2c1.4-1.4,3.3-2.3,5.4-2.2c2.1,0,4.1,0.9,5.5,2.3
		c1.6,1.6,2.1,3.5,2.1,5.8v7.2c0,2.3-0.7,4.2-2.1,5.8c-1.5,1.6-3.5,2.4-5.7,2.3c-2.5,0-4.8-1.1-6.2-3.1L61.4,64.6z M61.7,51
		c-0.6,1-0.8,2.2-0.5,3.5c0.3,1.3,1.1,2.3,2.1,3c1,0.7,2.3,0.9,3.6,0.6c1.3-0.3,2.4-1.1,3-2.2c0.6-1,0.8-2.3,0.6-3.5
		c-0.3-1.2-1-2.2-2-2.9c-1.1-0.7-2.4-1-3.7-0.7C63.5,49,62.4,49.9,61.7,51z"/>
	<path d="M89.9,46.3v2.4h-9.6l-0.4,7.2c1.2-1,2.8-1.6,4.4-1.6c1.8,0,3.6,0.7,5,1.9c1.6,1.4,2.4,3.4,2.4,5.6c0,2-0.9,4-2.2,5.3
		C88,68.5,86,69.3,84,69.3c-2,0-3.8-0.7-5.2-2c-1-0.9-1.8-2.2-2.1-3.5l2.4-0.7c0.2,0.9,0.8,1.8,1.5,2.4c0.9,0.8,2.1,1.3,3.4,1.3
		c1.4,0,2.7-0.6,3.6-1.5c0.9-0.9,1.5-2.2,1.5-3.6c0-1.5-0.7-2.8-1.7-3.8c-0.9-0.8-2.1-1.3-3.4-1.3c-1.2,0-2.4,0.5-3.2,1.2
		c-0.4,0.4-0.8,0.8-1.1,1.3l-2.3-1.3L78,46.3H89.9z"/>
	<path d="M98.1,70.5L96,69.3c1.8-3.1,2.7-7,2.7-11.7c0-4.7-0.9-8.7-2.7-11.8l2.1-1.2c1.9,3.4,2.9,7.8,2.9,13
		C101.1,62.7,100.1,67.1,98.1,70.5z"/>
	<path d="M124.1,48.8h-10.4v-2.4h13v2.4l-8.2,20.1h-2.6L124.1,48.8z"/>
	<path d="M144.7,61.9c0,2.3-0.9,4.4-2.6,5.8c-1.3,1.1-3,1.6-4.7,1.6c-1.7,0-3.3-0.5-4.7-1.5c-1.1-0.9-1.9-2.1-2.3-3.5l2.4-0.7
		c0.3,0.9,0.8,1.7,1.6,2.3c0.8,0.7,1.9,1,3,1s2.2-0.3,3-1c1.2-0.9,1.7-2.4,1.7-3.9c0-1.4-0.4-2.8-1.5-3.8c-0.9-0.8-2-1.1-3.2-1.1
		c-0.8,0-1.7,0.2-2.4,0.6l-1.2-2l7.2-6.9h-9.7v-2.4h13.1v2.5l-6.3,6c1.8,0.1,3.5,0.7,4.7,1.9C144.2,58.1,144.8,60.1,144.7,61.9z"/>
	<path d="M158.6,48.8h-10.4v-2.4h13v2.4l-8.2,20.1h-2.6L158.6,48.8z"/>
	<path d="M173.7,59v2.1h-9.4V59H173.7z"/>
	<path d="M179.8,47.3c1.3-1.1,3-1.4,4.6-1.4c1.7,0,3.3,0.4,4.6,1.4c1.4,1.1,2.1,2.9,2.1,4.7c0,1.3-0.4,2.7-1.3,3.7
		c-0.3,0.4-0.8,0.8-1.2,1.2c0.7,0.5,1.2,1,1.7,1.7c1,1.2,1.4,2.7,1.4,4c-0.1,1.9-0.7,3.8-2.2,5.1c-1.4,1.2-3.3,1.7-5.1,1.7
		s-3.7-0.5-5.1-1.7c-1.5-1.3-2.2-3.2-2.2-5.1c0-1.4,0.4-2.9,1.4-4c0.4-0.6,1-1.2,1.7-1.7c-0.4-0.3-0.8-0.7-1.2-1.2
		c-0.9-1-1.3-2.3-1.3-3.7C177.7,50.1,178.4,48.4,179.8,47.3z M189,62.5c0-1.2-0.3-2.4-1.2-3.2c-0.8-0.8-2.1-1.2-3.4-1.2
		c-1.2,0-2.5,0.3-3.3,1.2c-0.9,0.8-1.2,2-1.2,3.2s0.3,2.4,1.2,3.2c0.8,0.8,2.1,1.2,3.3,1.2c1.3,0,2.5-0.4,3.4-1.2
		C188.6,64.9,189,63.7,189,62.5z M181.5,54.7c0.8,0.7,1.8,0.9,2.9,0.9c1.1,0,2.2-0.3,3-0.9c0.8-0.7,1.1-1.7,1.1-2.7
		c0-1.1-0.3-2.1-1.1-2.7c-0.8-0.7-1.8-0.9-2.9-0.9c-1.1,0-2.2,0.3-2.9,0.9c-0.8,0.6-1.1,1.6-1.1,2.7C180.4,53,180.7,54,181.5,54.7z"
		/>
	<path d="M201,46.3v22.5h-2.6V49.1l-4.2,2.6v-2.8l4.2-2.5H201z"/>
	<path d="M215.6,59v2.1h-9.4V59H215.6z"/>
	<path d="M222.5,64.6c0.9,1.4,2.5,2.3,4.3,2.3c1.7,0,3.2-0.8,4.1-2.1c0.8-1,1.2-2.2,1.2-3.6v-2.9c-1.3,1.5-3.2,2.5-5.3,2.5
		c-1.9,0-3.8-0.8-5.2-2c-1.4-1.4-2.2-3.3-2.2-5.4c0-2,0.8-3.9,2.2-5.2c1.4-1.4,3.3-2.3,5.4-2.2c2.1,0,4.1,0.9,5.5,2.3
		c1.6,1.6,2.1,3.5,2.1,5.8v7.2c0,2.3-0.7,4.2-2.1,5.8c-1.5,1.6-3.5,2.4-5.7,2.3c-2.5,0-4.8-1.1-6.2-3.1L222.5,64.6z M222.8,51
		c-0.6,1-0.8,2.2-0.5,3.5c0.3,1.3,1.1,2.3,2.1,3c1,0.7,2.3,0.9,3.6,0.6c1.3-0.3,2.4-1.1,3-2.2c0.6-1,0.8-2.3,0.6-3.5
		c-0.3-1.2-1-2.2-2-2.9c-1.1-0.7-2.4-1-3.7-0.7C224.6,49,223.5,49.9,222.8,51z"/>
	<path d="M243.9,46.3v22.5h-2.6V49.1l-4.2,2.6v-2.8l4.2-2.5H243.9z"/>
</g>
</svg>
