<?xml version="1.0" encoding="utf-8"?>
<!-- Generator: Adobe Illustrator 21.0.0, SVG Export Plug-In . SVG Version: 6.00 Build 0)  -->
<svg version="1.1" id="Слой_1" xmlns="http://www.w3.org/2000/svg" xmlns:xlink="http://www.w3.org/1999/xlink" x="0px" y="0px"
	 viewBox="0 0 61 61" style="enable-background:new 0 0 61 61;" xml:space="preserve">
<style type="text/css">
	.st0{fill:#3862F7;}
</style>
<path class="st0" d="M12.8,60.4h10.7c0.5,0,0.9-0.4,0.9-0.9v-3c2.6,0.7,5.3,1.1,8,1.1c2,0,4-0.2,6-0.6v2.5c0,0.5,0.4,0.9,0.9,0.9
	h11.7c0.5,0,0.9-0.4,0.9-0.9v-9.7c3.7-3.8,5.7-8.6,5.7-13.6c0-0.2,0-0.4,0-0.6c1-0.4,2.8-1.3,3.5-3.4c0.2-0.5-0.1-0.9-0.5-1.1
	c-0.5-0.2-0.9,0.1-1.1,0.5c-0.4,1.2-1.3,1.8-2,2.2c-1.4-10.7-12-19-24.9-19c-5.7,0-10.6,1.3-14.8,4l-4.7-2.5
	c-0.3-0.2-0.7-0.1-0.9,0.1c-0.3,0.2-0.4,0.6-0.3,0.9l1.3,5.4c-3,2.8-4.6,5.7-5.3,10.2h-4c-0.1,0-0.3,0-0.4,0c-0.1,0-0.1,0-0.2,0H2.9
	c-0.2,0-0.3,0-0.4,0.1c-1.6,0.5-2.6,2.7-2.5,5.2c0.1,1.3,0.4,2.5,1,3.4c0.7,1,1.6,1.6,2.6,1.6c0,0,0.1,0,0.1,0c0,0,0.1,0,0.2,0h2.9
	c0,0,0,0,0,0h1.8c0.8,2,1.9,3.8,3.3,5.5v10.8C12,60,12.3,60.4,12.8,60.4z M15.5,58.7h-1.8v-8.1c0.6,0.5,1.1,1,1.8,1.5V58.7z
	 M17.3,58.7h-0.1v-7c0-0.3-0.1-0.5-0.3-0.7c-2.8-2.1-5-4.8-6.3-7.7c1,0,2.2,0,3.3,0c3.3,0,4.5-2.4,4.6-3.6c0.1-0.5-0.3-0.9-0.7-1
	c-0.5-0.1-0.9,0.3-1,0.7c0,0.2-0.4,2.1-2.9,2.1c-3.4,0-7,0-7,0H6.1c0.5-1,0.8-2.2,0.7-3.6c-0.1-1.3-0.4-2.4-0.9-3.2h2.4
	c0.4,0,0.8-0.3,0.9-0.7c0.7-4.6,2.1-7.4,5.2-10.2l3.7-3.1c3.9-2.6,8.7-3.9,14.2-3.9c12.4,0,22.5,8.2,23.3,18.4c0,0,0,0.1,0,0.1
	c0,0.4,0,0.7,0,1.1c0,4.6-1.9,9.1-5.5,12.6c-0.2,0.2-0.3,0.4-0.3,0.6v9.2h-5.4v-4.3c0-0.3-0.1-0.6-0.4-0.7c-0.2-0.2-0.6-0.2-0.8-0.1
	c-3.4,1.5-7.2,2.3-11,2.3c-3,0-5.8-0.5-8.6-1.4c-0.3-0.1-0.6,0-0.8,0.1c-0.2,0.2-0.4,0.4-0.4,0.7v3.3H17.3z M42.8,58.7h-2.8v-2
	c0.9-0.3,1.9-0.6,2.8-0.9V58.7z M3.7,41.5c0,0-0.1,0-0.1,0c-0.4,0-0.7-0.3-1.1-0.8c-0.4-0.7-0.7-1.6-0.7-2.6
	c-0.1-1.8,0.6-3.3,1.3-3.5c0,0,0,0,0.1,0c0,0,0,0,0.1,0c0,0,0,0,0.1,0c0,0,0.1,0,0.1,0c0,0,0,0,0,0c0,0,0.1,0,0.1,0
	c0.3,0.1,0.6,0.3,0.9,0.8c0.3,0.4,0.5,0.9,0.6,1.5c-0.6,0.1-1,0.6-1,1.2c0,0.6,0.5,1.1,1.1,1.2c-0.1,0.5-0.2,1-0.4,1.4
	C4.3,41.1,4.1,41.4,3.7,41.5C3.7,41.5,3.7,41.5,3.7,41.5C3.7,41.5,3.7,41.5,3.7,41.5z M5,37.5c0,0.2,0,0.3,0,0.5c0,0.2,0,0.4,0,0.6
	c-0.3,0-0.5-0.3-0.5-0.6C4.5,37.8,4.8,37.6,5,37.5z M16.1,20.1l-1.7,1.4l-0.6-2.6L16.1,20.1z M15.5,31.6c0.5,0,0.9-0.4,0.9-0.9v-0.2
	c0-0.5-0.4-0.9-0.9-0.9c-0.5,0-0.9,0.4-0.9,0.9v0.2C14.6,31.2,15,31.6,15.5,31.6z M26.4,29.2c0.5,0,0.9-0.4,0.9-0.9
	c0-0.1,0-3.3-0.7-6.2c-0.6-2.6-1.1-3.4-1.2-3.6c-0.2-0.3-0.5-0.4-0.8-0.3c-0.1,0-2.6,0.4-4.3,2.1c-1.2,1.1-1.8,2.6-1.8,2.6
	c-0.2,0.4,0,1,0.4,1.2c0.4,0.2,1,0,1.2-0.4c0,0,0.6-1.2,1.5-2.1c0.9-0.9,2-1.3,2.7-1.5c0.2,0.4,0.4,1.2,0.7,2.4
	c0.6,2.7,0.6,5.8,0.6,5.8C25.5,28.8,25.9,29.2,26.4,29.2z M39.8,21.4c0.4,0,0.7-0.2,0.8-0.6c0.2-0.5-0.1-0.9-0.5-1.1
	c-0.1,0-2.2-0.8-5.3-1.1c-3.1-0.3-5.6,0-5.8,0c-0.5,0.1-0.8,0.5-0.8,1c0.1,0.5,0.5,0.8,1,0.8c0,0,2.5-0.3,5.4,0c2.9,0.3,4.9,1,4.9,1
	C39.6,21.3,39.7,21.4,39.8,21.4z M35.3,12.5c3.3,0,6-2.7,6-6c0-3.3-2.7-6-6-6c-3.3,0-6,2.7-6,6C29.4,9.8,32,12.5,35.3,12.5z
	 M35.3,2.3c2.3,0,4.2,1.9,4.2,4.2s-1.9,4.2-4.2,4.2c-2.3,0-4.2-1.9-4.2-4.2S33,2.3,35.3,2.3z"/>
<path class="st0" d="M1.4,39.3c0.6,0,1.2-0.5,1.2-1.2c0-0.6-0.5-1.2-1.2-1.2c-0.6,0-1.2,0.5-1.2,1.2C0.2,38.7,0.7,39.3,1.4,39.3z
	 M1.4,37.5c0.3,0,0.6,0.3,0.6,0.6c0,0.3-0.3,0.6-0.6,0.6s-0.6-0.3-0.6-0.6C0.8,37.8,1,37.5,1.4,37.5z"/>
</svg>
