<?xml version="1.0" encoding="utf-8"?>
<!-- Generator: Adobe Illustrator 21.0.0, SVG Export Plug-In . SVG Version: 6.00 Build 0)  -->
<svg version="1.1" id="Слой_1" xmlns="http://www.w3.org/2000/svg" xmlns:xlink="http://www.w3.org/1999/xlink" x="0px" y="0px"
	 viewBox="0 0 55 47" style="enable-background:new 0 0 55 47;" xml:space="preserve">
<style type="text/css">
	.st0{fill:#3862F7;}
	.st1{fill:#FFFFFF;}
</style>
<path class="st0" d="M26.8,43.6c-0.4,0-0.8-0.2-0.9-0.6L11.1,5.3l-8.7,3c-0.5,0.2-1-0.1-1.2-0.6L0.1,4.8C0,4.5,0,4.3,0.1,4
	c0.1-0.2,0.3-0.4,0.6-0.5l9.7-3.3h0.1c3.4-0.7,5,1.1,5.4,2.1L29.6,37l23-8.5c0.5-0.2,1.1,0.1,1.3,0.6L55,32c0.2,0.5-0.1,1.1-0.6,1.3
	L27.1,43.5C27,43.6,26.9,43.6,26.8,43.6z M11.7,3.1c0.4,0,0.8,0.2,0.9,0.6l14.7,37.6l25.4-9.6l-0.4-1.1l-23,8.5
	c-0.5,0.2-1.1-0.1-1.3-0.6L14,3c-0.2-0.4-1-1.3-3-0.9l-8.7,3l0.4,1.1l8.7-3C11.5,3.1,11.6,3.1,11.7,3.1z M29.6,12.1
	c-0.4,0-0.8-0.2-0.9-0.6l-1.8-4.6c-0.1-0.2-0.1-0.5,0-0.8s0.3-0.4,0.6-0.5l4.6-1.7c0.5-0.2,1.1,0.1,1.3,0.6l1.8,4.6
	c0.1,0.2,0.1,0.5,0,0.8c-0.1,0.2-0.3,0.4-0.6,0.5L30,12.1C29.9,12.1,29.8,12.1,29.6,12.1z M29.2,7.1l1,2.7l2.8-1l-1-2.7L29.2,7.1z
	 M34.7,24.4c-0.4,0-0.8-0.2-0.9-0.6L32,19.2c-0.1-0.2-0.1-0.5,0-0.8c0.1-0.2,0.3-0.4,0.6-0.5l4.6-1.7c0.5-0.2,1.1,0.1,1.3,0.6
	l1.8,4.6c0.1,0.2,0.1,0.5,0,0.8c-0.1,0.2-0.3,0.4-0.6,0.5L35,24.4C34.9,24.4,34.8,24.4,34.7,24.4z M34.2,19.4l1,2.7l2.8-1l-1-2.7
	L34.2,19.4z M31.7,38.1c-0.4,0-0.8-0.2-0.9-0.6l-6-15.7l0,0L20,9.4c-0.1-0.2-0.1-0.5,0-0.8c0.1-0.2,0.3-0.4,0.6-0.5l18-6.7
	c0.5-0.2,1.1,0.1,1.3,0.6l4.8,12.4l0,0l6,15.7c0.1,0.2,0.1,0.5,0,0.8c-0.1,0.2-0.3,0.4-0.6,0.5l-18,6.7C32,38.1,31.8,38.1,31.7,38.1
	z M27,22l5.3,13.8l16.1-6L43.1,16L27,22z M22.2,9.7l4.1,10.5l16.1-6L38.3,3.7L22.2,9.7z"/>
<g>
	<path class="st1" d="M33.1,40.4c0,3.1-2.5,5.6-5.6,5.6s-5.6-2.5-5.6-5.6s2.5-5.6,5.6-5.6S33.1,37.3,33.1,40.4z"/>
	<path class="st0" d="M27.5,47c-3.7,0-6.6-3-6.6-6.6s3-6.6,6.6-6.6c3.7,0,6.6,3,6.6,6.6S31.2,47,27.5,47z M27.5,35.8
		c-2.6,0-4.6,2.1-4.6,4.6S25,45,27.5,45s4.6-2.1,4.6-4.6S30,35.8,27.5,35.8z"/>
</g>
<path class="st0" d="M27.5,42.3c-1.1,0-2-0.9-2-2s0.9-2,2-2s2,0.9,2,2C29.5,41.5,28.6,42.3,27.5,42.3z M27.5,39.9
	c-0.3,0-0.5,0.2-0.5,0.5c0,0.2,0.2,0.5,0.5,0.5s0.5-0.2,0.5-0.5C28,40.1,27.8,39.9,27.5,39.9z"/>
</svg>
