<?xml version="1.0" encoding="utf-8"?>
<!-- Generator: Adobe Illustrator 21.0.0, SVG Export Plug-In . SVG Version: 6.00 Build 0)  -->
<svg version="1.1" id="Слой_1" xmlns="http://www.w3.org/2000/svg" xmlns:xlink="http://www.w3.org/1999/xlink" x="0px" y="0px"
	 viewBox="0 0 50 50" style="enable-background:new 0 0 50 50;" xml:space="preserve">
<style type="text/css">
	.st0{fill:#3862F7;}
</style>
<path class="st0" d="M49.2,14.1H0.8c-0.5,0-0.8-0.3-0.8-0.8c0-0.4,0.4-0.8,0.8-0.8h48.3c0.5,0,0.8,0.3,0.8,0.8
	C50,13.7,49.6,14.1,49.2,14.1z M44.3,47.7H5.7c-3.1,0-5.7-2.6-5.7-5.7V8.9c0-3.2,2.5-5.7,5.7-5.7h38.6c3.1,0,5.7,2.6,5.7,5.7v33.1
	C50,45.1,47.5,47.7,44.3,47.7z M5.7,4.8c-2.2,0-4,1.8-4,4v33.1c0,2.2,1.8,4,4,4h38.6c2.2,0,4-1.8,4-4V8.9c0-2.2-1.8-4-4-4H5.7z
	 M37.6,11.2c-1.5,0-2.6-1.2-2.6-2.6c0-1.5,1.2-2.6,2.6-2.6c1.5,0,2.6,1.2,2.6,2.6C40.3,10,39.1,11.2,37.6,11.2z M37.6,7.6
	c-0.5,0-0.9,0.4-0.9,0.9c0,0.5,0.4,0.9,0.9,0.9c0.5,0,0.9-0.4,0.9-0.9C38.6,8.1,38.1,7.6,37.6,7.6z M31.5,11.2
	c-1.5,0-2.6-1.2-2.6-2.6c0-1.5,1.2-2.6,2.6-2.6c1.5,0,2.6,1.2,2.6,2.6C34.2,10,33,11.2,31.5,11.2z M31.5,7.6c-0.5,0-0.9,0.4-0.9,0.9
	c0,0.5,0.4,0.9,0.9,0.9c0.5,0,0.9-0.4,0.9-0.9C32.5,8.1,32.1,7.6,31.5,7.6z M43.7,11.2c-1.5,0-2.6-1.2-2.6-2.6
	c0-1.5,1.2-2.6,2.6-2.6c1.5,0,2.6,1.2,2.6,2.6C46.4,10,45.2,11.2,43.7,11.2z M43.7,7.6c-0.5,0-0.9,0.4-0.9,0.9
	c0,0.5,0.4,0.9,0.9,0.9c0.5,0,0.9-0.4,0.9-0.9C44.7,8.1,44.2,7.6,43.7,7.6z M18.7,24.2h-4.6c-0.4,0-0.8-0.3-0.8-0.8v-4.6
	c0-0.4,0.3-0.8,0.8-0.8h4.6c0.4,0,0.8,0.3,0.8,0.8v4.6C19.5,23.8,19.1,24.2,18.7,24.2z M14.8,22.7H18v-3.1h-3.1V22.7z M18.7,33.5
	h-4.6c-0.4,0-0.8-0.3-0.8-0.8v-4.6c0-0.4,0.3-0.8,0.8-0.8h4.6c0.4,0,0.8,0.3,0.8,0.8v4.6C19.5,33.2,19.1,33.5,18.7,33.5z M14.8,32
	H18v-3.1h-3.1V32z M35.9,19.5c0-0.4-0.3-0.8-0.8-0.8H23.4c-0.4,0-0.8,0.3-0.8,0.8s0.3,0.8,0.8,0.8h11.7
	C35.6,20.3,35.9,19.9,35.9,19.5z M29.7,22.7c0-0.4-0.3-0.8-0.8-0.8h-5.5c-0.4,0-0.8,0.3-0.8,0.8s0.3,0.8,0.8,0.8h5.5
	C29.3,23.4,29.7,23.1,29.7,22.7z M29.7,22.7c0-0.4-0.3-0.8-0.8-0.8h-5.5c-0.4,0-0.8,0.3-0.8,0.8s0.3,0.8,0.8,0.8h5.5
	C29.3,23.4,29.7,23.1,29.7,22.7z M29.7,32c0-0.4-0.3-0.8-0.8-0.8h-5.5c-0.4,0-0.8,0.3-0.8,0.8s0.3,0.8,0.8,0.8h5.5
	C29.3,32.8,29.7,32.4,29.7,32z M29.7,41.4c0-0.4-0.3-0.8-0.8-0.8h-5.5c-0.4,0-0.8,0.3-0.8,0.8s0.3,0.8,0.8,0.8h5.5
	C29.3,42.2,29.7,41.8,29.7,41.4z M35.9,28.9c0-0.4-0.3-0.8-0.8-0.8H23.4c-0.4,0-0.8,0.3-0.8,0.8s0.3,0.8,0.8,0.8h11.7
	C35.6,29.7,35.9,29.3,35.9,28.9z M35.9,38.3c0-0.4-0.3-0.8-0.8-0.8H23.4c-0.4,0-0.8,0.3-0.8,0.8S23,39,23.4,39h11.7
	C35.6,39,35.9,38.7,35.9,38.3z M18.7,42.9h-4.6c-0.4,0-0.8-0.3-0.8-0.8v-4.6c0-0.4,0.3-0.8,0.8-0.8h4.6c0.4,0,0.8,0.3,0.8,0.8v4.6
	C19.5,42.6,19.1,42.9,18.7,42.9z M14.8,41.4H18v-3.1h-3.1V41.4z"/>
</svg>
