<?xml version="1.0" encoding="utf-8"?>
<!-- Generator: Adobe Illustrator 21.0.0, SVG Export Plug-In . SVG Version: 6.00 Build 0)  -->
<svg version="1.1" id="Слой_1" xmlns="http://www.w3.org/2000/svg" xmlns:xlink="http://www.w3.org/1999/xlink" x="0px" y="0px"
	 viewBox="0 0 18 18" style="enable-background:new 0 0 18 18;" xml:space="preserve">
<style type="text/css">
	.st0{fill:#08D04C;}
</style>
<path class="st0" d="M14,18H4c-2.2,0-4-1.8-4-4V4c0-2.2,1.8-4,4-4h10c2.2,0,4,1.8,4,4v10C18,16.2,16.2,18,14,18z M4,2
	C2.9,2,2,2.9,2,4v10c0,1.1,0.9,2,2,2h10c1.1,0,2-0.9,2-2V4c0-1.1-0.9-2-2-2H4z M13.6,7.5L12.2,6L8.4,9.8L6.3,7.7L4.9,9.1l3.5,3.5
	L13.6,7.5z"/>
</svg>
