<svg xmlns="http://www.w3.org/2000/svg" viewBox="0 0 399.09 142.73"><defs><style>.cls-1{fill:#80cff4;}.cls-1,.cls-10,.cls-11,.cls-12,.cls-13,.cls-14,.cls-15,.cls-16,.cls-17,.cls-18,.cls-19,.cls-2,.cls-20,.cls-21,.cls-22,.cls-23,.cls-24,.cls-25,.cls-26,.cls-3,.cls-4,.cls-5,.cls-6,.cls-7,.cls-8,.cls-9{fill-rule:evenodd;}.cls-2{fill:#68c0ea;}.cls-3{fill:#f29229;}.cls-4{fill:#4fa6d3;}.cls-5{fill:#3c8dbb;}.cls-6{fill:#3472a1;}.cls-7{fill:#2e598a;}.cls-8{fill:#28436f;}.cls-9{fill:#cbe9f9;}.cls-10{fill:#b7e1f7;}.cls-11{fill:#a5dbf7;}.cls-12{fill:#93d5f6;}.cls-13{fill:#dbeffa;}.cls-14{fill:#ef7f26;}.cls-15{fill:#f6a31b;}.cls-16{fill:#e64123;}.cls-17{fill:#e84d22;}.cls-18{fill:#ea5e22;}.cls-19{fill:#ed6e24;}.cls-20{fill:#e53524;}.cls-21{fill:#f9b311;}.cls-22{fill:#fcc30d;}.cls-23,.cls-27{fill:#e53824;}.cls-24{fill:#fde002;}.cls-25{fill:#fbea09;}.cls-26{fill:#fdd205;}</style></defs><title>Ресурс 1</title><g id="Слой_2" data-name="Слой 2"><g id="Слой_1-2" data-name="Слой 1"><g id="_2" data-name="2"><path class="cls-1" d="M71.44,0a2,2,0,0,1,1.93,2s0,0,0,.44c-.06,1.19-2,21.32-2,21.32s-1.94-20.12-2-21.32c0-.4,0-.42,0-.44a2,2,0,0,1,1.93-2Z"/><path class="cls-2" d="M89.84,2.41a2,2,0,0,1,1.42,2.45l-.11.42c-.42,1.32-8.32,23.32-8.32,23.32S87,5.6,87.28,4.25l.11-.42a2,2,0,0,1,2.45-1.41Z"/><path class="cls-3" d="M107.05,9.55a2,2,0,0,1,.73,2.73l-.22.38C106.72,14,91.8,36,91.8,36s11.57-23.91,12.3-25.3l.22-.38a2,2,0,0,1,2.73-.73Z"/><path class="cls-4" d="M121.82,20.9a2,2,0,0,1,0,2.83l-.37.34-1,.92-3.27,3-9.44,8.47-13.4,12,12-13.4,8.47-9.44,3-3.27.92-1,.34-.37a2,2,0,0,1,2.83,0Z"/><path class="cls-5" d="M133.18,35.67a2,2,0,0,1-.73,2.73l-6.75,3.54-13.85,7.2L92.18,59.34l18.65-11.92L124,39l6.44-4.08a2,2,0,0,1,2.73.73Z"/><path class="cls-6" d="M140.31,52.89a2,2,0,0,1-1.42,2.45l-7.74,1.75-15.89,3.55-22.53,5,22-6.93,15.53-4.87,7.57-2.35a2,2,0,0,1,2.45,1.42Z"/><path class="cls-7" d="M120.75,71.36a2,2,0,0,1-2,2h-.44c-1.76-.06-31.42-2-31.42-2s29.66-1.94,31.42-2h.44a2,2,0,0,1,2,2Z"/><path class="cls-8" d="M102.1,79.6A2,2,0,0,1,99.65,81l-.42-.11c-.77-.27-13.43-5.67-13.43-5.67S99.46,76.88,100.26,77l.42.11a2,2,0,0,1,1.42,2.45Z"/><path class="cls-9" d="M9.55,35.67a2,2,0,0,1,2.73-.73l.38.22c.31.25,5,5.2,5,5.2s-6.64-1.59-7-1.73l-.38-.22a2,2,0,0,1-.73-2.73Z"/><path class="cls-10" d="M20.9,20.9a2,2,0,0,1,2.83,0l.31.31c.4.49,6.47,9.29,6.47,9.29S21.7,24.44,21.21,24l-.31-.31a2,2,0,0,1,0-2.83Z"/><path class="cls-11" d="M35.68,9.55a2,2,0,0,1,2.73.73l.22.38c.36.75,5.72,13.91,5.72,13.91s-8.72-11.22-9.19-11.91l-.22-.38a2,2,0,0,1,.73-2.73Z"/><path class="cls-12" d="M52.89,2.41a2,2,0,0,1,2.45,1.41l.11.42c.2,1,2.78,18.09,2.78,18.09S51.91,6.26,51.59,5.29l-.11-.42a2,2,0,0,1,1.42-2.45Z"/><path class="cls-13" d="M2.37,53.41a2,2,0,1,1,2,2,2,2,0,0,1-2-2Z"/><path class="cls-14" d="M108.16,24.69a2,2,0,0,1,0,2.83l-.31.31c-.64.55-12,9.19-12,9.19s8.64-11.38,9.19-12l.31-.31a2,2,0,0,1,2.83,0Z"/><path class="cls-15" d="M93.39,16.14a2,2,0,0,1,1.41,2.45l-.11.42c-.28.8-5.82,14-5.82,14s1.8-14.21,2-15l.11-.42a2,2,0,0,1,2.45-1.42Z"/><path class="cls-3" d="M71.36,24.5a3.2,3.2,0,0,1,3.2,3.2s0,.07,0,.7-3.2,10.78-3.2,10.78S68.26,29,68.16,28.4s0-.67,0-.7a3.2,3.2,0,0,1,3.2-3.2Z"/><path class="cls-3" d="M82.6,29.44a2.8,2.8,0,0,1,2,3.43l-.16.59c-.23.53-5.35,9.16-5.35,9.16S78.94,32.59,79,32l.16-.59a2.8,2.8,0,0,1,3.43-2Z"/><path class="cls-3" d="M91.31,36.82A2,2,0,0,1,92,39.55l-.22.38c-.34.46-6.79,7.76-6.79,7.76s3.1-9.24,3.33-9.76l.22-.38a2,2,0,0,1,2.73-.73Z"/><path class="cls-16" d="M20.9,121.82a4,4,0,0,1,0-5.66l.62-.62c.42-.25,8.79-3.14,8.79-3.14s-2.89,8.37-3.14,8.79l-.62.62a4,4,0,0,1-5.66,0Z"/><path class="cls-14" d="M93.42,49.3a2,2,0,0,1,0,2.83l-.31.31c-.29.2-5.75,2.92-5.75,2.92s2.72-5.46,2.92-5.75l.31-.31a2,2,0,0,1,2.83,0Z"/><path class="cls-17" d="M9.55,107A4,4,0,0,1,11,101.58l.76-.44c.64-.23,12.35-2.51,12.35-2.51s-7.83,9-8.35,9.44l-.76.44A4,4,0,0,1,9.55,107Z"/><path class="cls-18" d="M2.41,89.84a4,4,0,0,1,2.83-4.9l.85-.22c.84-.1,15.49,0,15.49,0S8.94,92.1,8.16,92.44l-.85.23a4,4,0,0,1-4.9-2.83Z"/><path class="cls-19" d="M0,71.36a4,4,0,0,1,4-4h.88c1,.12,17.74,4,17.74,4s-16.75,3.88-17.74,4H4a4,4,0,0,1-4-4Z"/><path class="cls-14" d="M7.22,54.17a4,4,0,0,1,4.9-2.83l.85.23c.83.35,14.3,8,14.3,8s-15.47-.13-16.37-.24L10,59.08a4,4,0,0,1-2.83-4.9Z"/><path class="cls-3" d="M17.88,40.48A4,4,0,0,1,23.34,39l.76.44c.63.51,10.37,10.61,10.37,10.61S20.86,46.68,20.1,46.38l-.76-.44a4,4,0,0,1-1.47-5.47Z"/><path class="cls-3" d="M30.78,30.78a4,4,0,0,1,5.66,0l.62.62c.42.6,6.29,11.94,6.29,11.94S32,37.48,31.4,37.06l-.62-.62a4,4,0,0,1,0-5.66Z"/><path class="cls-3" d="M44.61,25a4,4,0,0,1,5.47,1.47l.44.76c.22.63,2.39,12.14,2.39,12.14S44,31.76,43.59,31.25l-.44-.76A4,4,0,0,1,44.61,25Z"/><path class="cls-3" d="M58.39,23A3.6,3.6,0,0,1,62.8,25.5l.2.76c.06.64-.58,11.76-.58,11.76s-6.11-9.32-6.38-9.89l-.21-.76A3.6,3.6,0,0,1,58.39,23Z"/><path class="cls-20" d="M33.5,129.61a4,4,0,1,1,4,4,4,4,0,0,1-4-4Z"/><path class="cls-3" d="M71.36,113.1a3.2,3.2,0,0,1-3.2-3.2s0-.07,0-.7c.1-1.27,3.2-22.62,3.2-22.62s3.1,21.35,3.2,22.62c0,.64,0,.67,0,.7a3.2,3.2,0,0,1-3.2,3.2Z"/><path class="cls-15" d="M62.18,105.64a2.8,2.8,0,0,1-2-3.43l.16-.59c.33-.9,7.12-15.74,7.12-15.74s-1.54,16.24-1.71,17.19l-.16.59a2.8,2.8,0,0,1-3.43,2Z"/><path class="cls-21" d="M57.38,95.58a2.4,2.4,0,0,1-.88-3.28l.26-.45c.35-.46,7.2-7.67,7.2-7.67s-2.82,9.54-3,10.07l-.26.46a2.4,2.4,0,0,1-3.28.88Z"/><path class="cls-22" d="M56,86.74a2,2,0,0,1,0-2.83l.31-.31c.23-.14,4.74-1.91,4.74-1.91s-1.77,4.51-1.91,4.74l-.31.31a2,2,0,0,1-2.83,0Z"/><path class="cls-23" d="M142.74,71.36a4,4,0,0,1-4,4h-.88c-.93-.12-16.53-4-16.53-4s15.61-3.88,16.53-4h.88a4,4,0,0,1,4,4Z"/><path class="cls-17" d="M123.94,101.72a4,4,0,0,1-5.47,1.47l-.76-.44c-1.88-1.23-32.64-23.46-32.64-23.46s34.64,15.52,36.64,16.53l.76.44a4,4,0,0,1,1.47,5.47Z"/><path class="cls-18" d="M110.23,110.23a4,4,0,0,1-5.66,0l-.62-.62c-1.28-1.45-21.53-27.19-21.53-27.19s25.74,20.26,27.19,21.53l.62.62a4,4,0,0,1,0,5.66Z"/><path class="cls-19" d="M96.51,114.93A4,4,0,0,1,91,113.46l-.44-.76c-.73-1.52-11.51-27.93-11.51-27.93s17.49,22.54,18.44,23.93l.44.76a4,4,0,0,1-1.47,5.47Z"/><path class="cls-14" d="M83.33,116a3.6,3.6,0,0,1-4.41-2.55l-.2-.76c-.28-1.46-3.38-26.53-3.38-26.53s9.84,23.26,10.34,24.67l.21.76A3.6,3.6,0,0,1,83.33,116Z"/><path class="cls-16" d="M135.54,88.56a4,4,0,0,1-4.9,2.83l-.85-.23c-1.52-.54-26.72-11.3-26.72-11.3s27.21,3.28,28.79,3.58l.85.22a4,4,0,0,1,2.83,4.9Z"/><path class="cls-24" d="M71.36,142.73a4,4,0,0,1-4-4s0-.08,0-.88c.12-1.34,4-23.9,4-23.9s3.88,22.56,4,23.9c0,.79,0,.84,0,.88a4,4,0,0,1-4,4Z"/><path class="cls-15" d="M71.36,39.56a2,2,0,0,1,2,2s0,0,0,.44c-.06.81-2,14.43-2,14.43s-1.94-13.62-2-14.43c0-.4,0-.42,0-.44a2,2,0,0,1,2-2Z"/><path class="cls-25" d="M52.89,140.31a4,4,0,0,1-2.83-4.9l.23-.85c.55-1.59,11.62-27.91,11.62-27.91S58.33,135,58,136.63l-.22.85a4,4,0,0,1-4.9,2.83Z"/><path class="cls-25" d="M40.4,125a4,4,0,0,1-1.47-5.47l.44-.76c.89-1.3,17.51-22.33,17.51-22.33s-9.9,24.9-10.58,26.33l-.44.76A4,4,0,0,1,40.4,125Z"/><path class="cls-25" d="M30.53,112.2a4,4,0,0,1,0-5.66l.62-.62c1.28-1.11,24.1-18.44,24.1-18.44s-17.34,22.82-18.44,24.1l-.62.62a4,4,0,0,1-5.66,0Z"/><path class="cls-25" d="M24.49,98.42A4,4,0,0,1,26,93l.76-.44c1.69-.84,31.13-13.35,31.13-13.35S32.29,98.4,30.72,99.45l-.76.44a4,4,0,0,1-5.47-1.46Z"/><path class="cls-25" d="M22.09,84.57a4,4,0,0,1,2.83-4.9l.85-.22c1.69-.33,30.62-4.06,30.62-4.06S29.46,86.6,27.83,87.17L27,87.4a4,4,0,0,1-4.9-2.83Z"/><path class="cls-25" d="M23.24,71.36a4,4,0,0,1,4-4h.88c1.56.12,27.84,4,27.84,4s-26.28,3.88-27.84,4h-.88a4,4,0,0,1-4-4Z"/><path class="cls-25" d="M27.8,59.69a4,4,0,0,1,4.9-2.83l.85.23c1.32.48,23,10.31,23,10.31s-23.72-2.34-25.11-2.59l-.85-.22a4,4,0,0,1-2.83-4.9Z"/><path class="cls-24" d="M34.91,50.31A3.6,3.6,0,0,1,39.83,49l.68.4c1,.73,17.67,14.36,17.67,14.36s-20.13-7.59-21.27-8.12l-.68-.39a3.6,3.6,0,0,1-1.32-4.92Z"/><path class="cls-15" d="M133.18,107a2.4,2.4,0,0,1-3.28.88l-.45-.26c-.33-.27-5.27-5.81-5.27-5.81s7.27,1.51,7.67,1.66l.46.26a2.4,2.4,0,0,1,.88,3.28Z"/><path class="cls-26" d="M43.67,43.67a3.2,3.2,0,0,1,4.53,0l.49.5c.73.87,12,16.5,12,16.5S45,49.42,44.16,48.69l-.5-.49a3.2,3.2,0,0,1,0-4.53Z"/><path class="cls-21" d="M121.82,121.82a2.8,2.8,0,0,1-4,0l-.43-.44c-.44-.56-6.89-10.85-6.89-10.85s10.29,6.45,10.85,6.89l.44.43a2.8,2.8,0,0,1,0,4Z"/><path class="cls-22" d="M53.11,39.74a2.8,2.8,0,0,1,3.83,1l.3.53c.43.92,6.59,17,6.59,17S53,44.93,52.39,44.1l-.31-.53a2.8,2.8,0,0,1,1-3.83Z"/><path class="cls-22" d="M107.05,133.17a3.2,3.2,0,0,1-4.37-1.17l-.35-.61c-.38-.85-5.52-16-5.52-16s10.52,12,11.07,12.77l.35.61a3.2,3.2,0,0,1-1.17,4.37Z"/><path class="cls-21" d="M62.53,38.4a2.4,2.4,0,0,1,2.94,1.7l.13.51c.16.9,1.87,16.27,1.87,16.27s-6.2-14.17-6.51-15l-.14-.51a2.4,2.4,0,0,1,1.7-2.94Z"/><path class="cls-26" d="M89.84,140.31a3.6,3.6,0,0,1-4.41-2.55l-.2-.76c-.18-1.11-1.71-20.28-1.71-20.28s8.26,17.36,8.66,18.42l.21.76a3.6,3.6,0,0,1-2.55,4.41Z"/><path class="cls-3" d="M136.39,89.32a2,2,0,1,1,2,2,2,2,0,0,1-2-2Z"/><path class="cls-1" d="M80.24,53.41a2.4,2.4,0,1,1,2.4,2.4,2.4,2.4,0,0,1-2.4-2.4Z"/><path class="cls-3" d="M79,43a2,2,0,0,1,1.42,2.45l-.12.42C80,46.48,75.21,57,75.21,57s1.09-11.54,1.2-12.21l.11-.42A2,2,0,0,1,79,43Z"/><path class="cls-20" d="M87.34,69.08a19.57,19.57,0,0,0,1-7.86.19.19,0,0,0-.27-.15,7.74,7.74,0,0,1-6.67-.36.19.19,0,0,0-.24.29L87,69.13a.2.2,0,0,0,.35-.05Z"/><path class="cls-27" d="M207.41,59.66a2.52,2.52,0,0,1-.72,1.82,2.45,2.45,0,0,1-1.84.74,2.69,2.69,0,0,1-1.46-.44,2.47,2.47,0,0,1-1-1.2L190.42,31,178.13,60.58a2.83,2.83,0,0,1-1,1.2,2.57,2.57,0,0,1-1.43.44,2.45,2.45,0,0,1-1.87-.79,2.64,2.64,0,0,1-.74-1.87,3.33,3.33,0,0,1,.26-1.18L187.7,24a2.6,2.6,0,0,1,2.51-1.79A2.49,2.49,0,0,1,192.72,24l14.43,34.45A3.35,3.35,0,0,1,207.41,59.66Z"/><path class="cls-27" d="M236.48,49.4a2.34,2.34,0,0,1-1.69.64H215.34a9,9,0,0,0,3.25,5.78,10.39,10.39,0,0,0,9.78,1.64,9.55,9.55,0,0,0,2.74-1.38,2.65,2.65,0,0,1,1.69-.56,2.2,2.2,0,0,1,1.54.51,2.24,2.24,0,0,1,.92,1.74,1.85,1.85,0,0,1-.82,1.54,14.16,14.16,0,0,1-4.32,2.25,15.63,15.63,0,0,1-12.46-.95,13.18,13.18,0,0,1-5.2-5,14.33,14.33,0,0,1-1.87-7.32,15.14,15.14,0,0,1,1.77-7.34,12.77,12.77,0,0,1,4.91-5.07A14,14,0,0,1,224.4,34a12.87,12.87,0,0,1,6.81,1.74,11.48,11.48,0,0,1,4.4,4.86,16,16,0,0,1,1.54,7.17A2.14,2.14,0,0,1,236.48,49.4Zm-18.14-8.93a9.19,9.19,0,0,0-2.94,5.48h17a9.07,9.07,0,0,0-2.56-5.48,7.51,7.51,0,0,0-5.48-2A8.85,8.85,0,0,0,218.34,40.47Z"/><path class="cls-27" d="M260.31,36.09a6.65,6.65,0,0,1,2.94,5.76q0,5.94-9.73,8.09A17,17,0,0,0,248,51.8a3.05,3.05,0,0,0-1.59,2.58A2.79,2.79,0,0,0,248,56.95a9.15,9.15,0,0,0,4.48.87q5.42,0,7.47-2.2a3,3,0,0,1,2-1.07,2.41,2.41,0,0,1,1.48.61,2.23,2.23,0,0,1,.87,1.69,2.35,2.35,0,0,1-.77,1.69,12.58,12.58,0,0,1-4.76,2.81,18.79,18.79,0,0,1-6.35,1.07,15.81,15.81,0,0,1-5.78-1,9.29,9.29,0,0,1-4-2.79,6.58,6.58,0,0,1,1.38-9.49A20.35,20.35,0,0,1,252.3,46,12,12,0,0,0,257,44.41a3.16,3.16,0,0,0,1.28-2.66,2.61,2.61,0,0,0-1.56-2.38,8,8,0,0,0-3.86-.84,11.36,11.36,0,0,0-3.61.59,8,8,0,0,0-2.89,1.61,3.75,3.75,0,0,1-1.15.79,3,3,0,0,1-1.2.28,1.31,1.31,0,0,1-.82-.2,2.57,2.57,0,0,1-.95-.92,2.19,2.19,0,0,1-.33-1.13,1.91,1.91,0,0,1,.51-1.33,10.64,10.64,0,0,1,4.35-3A16.06,16.06,0,0,1,252.86,34,12.63,12.63,0,0,1,260.31,36.09Z"/><path class="cls-27" d="M295.19,49.4a2.34,2.34,0,0,1-1.69.64H274a9,9,0,0,0,3.25,5.78,10.39,10.39,0,0,0,9.78,1.64,9.55,9.55,0,0,0,2.74-1.38,2.65,2.65,0,0,1,1.69-.56A2.2,2.2,0,0,1,293,56a2.24,2.24,0,0,1,.92,1.74,1.85,1.85,0,0,1-.82,1.54,14.16,14.16,0,0,1-4.32,2.25,15.63,15.63,0,0,1-12.46-.95,13.18,13.18,0,0,1-5.2-5,14.32,14.32,0,0,1-1.87-7.32,15.13,15.13,0,0,1,1.77-7.34A12.77,12.77,0,0,1,276,35.84,14,14,0,0,1,283.11,34a12.87,12.87,0,0,1,6.81,1.74,11.48,11.48,0,0,1,4.4,4.86,16,16,0,0,1,1.54,7.17A2.14,2.14,0,0,1,295.19,49.4ZM277,40.47a9.19,9.19,0,0,0-2.94,5.48h17a9.07,9.07,0,0,0-2.56-5.48,7.51,7.51,0,0,0-5.48-2A8.85,8.85,0,0,0,277,40.47Z"/><path class="cls-27" d="M327.87,34.94a2.62,2.62,0,0,1,.69,1.89V59.61a2.61,2.61,0,0,1-.69,1.89,2.41,2.41,0,0,1-1.82.72,2.54,2.54,0,0,1-2.61-2.61V50H307.62v9.62a2.58,2.58,0,0,1-.72,1.87,2.51,2.51,0,0,1-1.89.74,2.41,2.41,0,0,1-1.82-.72,2.61,2.61,0,0,1-.69-1.89V36.83a2.62,2.62,0,0,1,.69-1.89,2.41,2.41,0,0,1,1.82-.72,2.46,2.46,0,0,1,2.61,2.61v8.55h15.82V36.83a2.51,2.51,0,0,1,.74-1.89,2.58,2.58,0,0,1,1.87-.72A2.41,2.41,0,0,1,327.87,34.94Z"/><path class="cls-27" d="M357.71,35.84a13.08,13.08,0,0,1,5,5,14.76,14.76,0,0,1,1.82,7.37V59.3a15.3,15.3,0,0,1-1.79,7.37,13.32,13.32,0,0,1-5,5.25,14.17,14.17,0,0,1-7.34,1.92,16.22,16.22,0,0,1-6.86-1.46,14.33,14.33,0,0,1-5.32-4.17,2.32,2.32,0,0,1-.56-1.43,2.23,2.23,0,0,1,1.07-1.84,2.63,2.63,0,0,1,1.43-.46,2.53,2.53,0,0,1,2.1,1.07,9,9,0,0,0,3.48,2.74,11.45,11.45,0,0,0,4.76.95A8.83,8.83,0,0,0,355,68a8.67,8.67,0,0,0,3.28-3.53,11.76,11.76,0,0,0,1.23-5.55V56.44a11.83,11.83,0,0,1-4.2,4.4,11.11,11.11,0,0,1-5.89,1.59,12.81,12.81,0,0,1-6.78-1.82,12.42,12.42,0,0,1-4.66-5,15.73,15.73,0,0,1-1.66-7.32,14.91,14.91,0,0,1,1.79-7.37,12.84,12.84,0,0,1,5-5A14.65,14.65,0,0,1,350.46,34,14.41,14.41,0,0,1,357.71,35.84Zm-2.56,20.75a8.49,8.49,0,0,0,3.22-3.4,10.39,10.39,0,0,0,1.15-4.94,10.55,10.55,0,0,0-1.15-5,8.46,8.46,0,0,0-3.22-3.43,9.54,9.54,0,0,0-9.37,0,8.63,8.63,0,0,0-3.25,3.43,10.35,10.35,0,0,0-1.18,5,10.2,10.2,0,0,0,1.18,4.94,8.66,8.66,0,0,0,3.25,3.4,9.54,9.54,0,0,0,9.37,0Z"/><path class="cls-27" d="M392.15,35.89A13.77,13.77,0,0,1,397.22,41a14.27,14.27,0,0,1,1.87,7.24V59.66a2.61,2.61,0,1,1-5.22,0V57.77a12.89,12.89,0,0,1-16.56,2.82,12.92,12.92,0,0,1-4.71-5.09,15.27,15.27,0,0,1-1.71-7.24A14.43,14.43,0,0,1,372.73,41a13.46,13.46,0,0,1,5.09-5.12A14.17,14.17,0,0,1,385,34,13.9,13.9,0,0,1,392.15,35.89Zm-2.51,20.68a8.85,8.85,0,0,0,3.25-3.43,10.1,10.1,0,0,0,1.18-4.89,10.26,10.26,0,0,0-1.18-4.91,9,9,0,0,0-12.51-3.45,9,9,0,0,0-3.28,3.45,10.08,10.08,0,0,0-1.2,4.91,9.93,9.93,0,0,0,1.2,4.89,9,9,0,0,0,3.28,3.43,9.18,9.18,0,0,0,9.26,0Z"/><path d="M175.77,95.65a1,1,0,0,1-1.76-.73V81.6a1,1,0,0,1,.3-.74,1,1,0,0,1,.73-.29H185.5a1,1,0,0,1,1,1V94.92a1,1,0,0,1-.29.73,1,1,0,0,1-1.76-.73V82.39h-8.42V94.92A1,1,0,0,1,175.77,95.65Z"/><path d="M199.86,85.44a1,1,0,0,1,.28.73v8.77a1,1,0,0,1-.28.72,1,1,0,0,1-1.73-.72v-.22a4.37,4.37,0,0,1-1.5,1,5,5,0,0,1-1.85.34,5,5,0,0,1-2.44-.59,4.15,4.15,0,0,1-1.69-1.72A5.67,5.67,0,0,1,190,91V86.17a1,1,0,1,1,2,0V91a2.9,2.9,0,0,0,3.13,3.23,3.36,3.36,0,0,0,1.51-.33,2.67,2.67,0,0,0,1.06-.91,2.24,2.24,0,0,0,.38-1.28V86.17a1,1,0,0,1,.29-.73,1.09,1.09,0,0,1,1.45,0Z"/><path d="M211.85,85.82a5.17,5.17,0,0,1,2,2,5.54,5.54,0,0,1,.71,2.78,5.87,5.87,0,0,1-.66,2.78,5,5,0,0,1-1.81,2,4.91,4.91,0,0,1-6.36-1.08v5.31a1,1,0,0,1-1.72.73,1,1,0,0,1-.29-.73v-9a5.48,5.48,0,0,1,.72-2.78,5.31,5.31,0,0,1,4.69-2.69A5.45,5.45,0,0,1,211.85,85.82Zm-1,7.95a3.47,3.47,0,0,0,1.26-1.32,3.82,3.82,0,0,0,.46-1.88,3.88,3.88,0,0,0-.46-1.89,3.46,3.46,0,0,0-1.26-1.33,3.43,3.43,0,0,0-4.81,1.33,3.94,3.94,0,0,0-.45,1.89,3.88,3.88,0,0,0,.45,1.88,3.47,3.47,0,0,0,4.81,1.32Z"/><path d="M225.17,85.8a5,5,0,0,1,1.93,1.94,6.09,6.09,0,0,1,0,5.65,5,5,0,0,1-1.92,1.94,6,6,0,0,1-5.62,0,4.93,4.93,0,0,1-1.93-1.94,6.13,6.13,0,0,1,0-5.65,4.94,4.94,0,0,1,1.93-1.94,5.63,5.63,0,0,1,2.81-.7A5.54,5.54,0,0,1,225.17,85.8Zm-4.58,1.54a3.32,3.32,0,0,0-1.25,1.32,4,4,0,0,0-.45,1.91,3.92,3.92,0,0,0,.45,1.9,3.33,3.33,0,0,0,1.25,1.31,3.67,3.67,0,0,0,3.6,0,3.27,3.27,0,0,0,1.24-1.31,4,4,0,0,0,.44-1.9,4.06,4.06,0,0,0-.44-1.91,3.25,3.25,0,0,0-1.24-1.32,3.67,3.67,0,0,0-3.6,0Z"/><path d="M244.86,86.21a4.39,4.39,0,0,1,1.05,3.13V95a1,1,0,0,1-.28.72,1,1,0,0,1-1.73-.72V89.33a2.52,2.52,0,0,0-.6-1.82,2.13,2.13,0,0,0-1.6-.62,2.2,2.2,0,0,0-1.68.71,2.55,2.55,0,0,0-.66,1.81V95a1,1,0,0,1-.28.72,1,1,0,0,1-1.73-.72V89.33a2.52,2.52,0,0,0-.6-1.82,2.13,2.13,0,0,0-1.6-.62,2.22,2.22,0,0,0-1.7.71,2.55,2.55,0,0,0-.66,1.81V95a1,1,0,0,1-.28.72,1,1,0,0,1-1.73-.72V86.21a1,1,0,0,1,.29-.73,1,1,0,0,1,.72-.28,1,1,0,0,1,.71.27,1,1,0,0,1,.3.7,3.61,3.61,0,0,1,1.22-.8,4.07,4.07,0,0,1,1.53-.29,3.93,3.93,0,0,1,1.8.4,3.45,3.45,0,0,1,1.31,1.15,4.11,4.11,0,0,1,1.48-1.14,4.59,4.59,0,0,1,2-.41A3.61,3.61,0,0,1,244.86,86.21Z"/><path d="M258.64,91a.9.9,0,0,1-.65.25h-7.48a3.46,3.46,0,0,0,1.25,2.22,3.86,3.86,0,0,0,2.53.85,3.82,3.82,0,0,0,1.23-.22,3.66,3.66,0,0,0,1.05-.53,1,1,0,0,1,.65-.22.85.85,0,0,1,.59.2.86.86,0,0,1,.35.67.71.71,0,0,1-.31.59,5.44,5.44,0,0,1-1.66.87,6,6,0,0,1-4.79-.36,5.07,5.07,0,0,1-2-1.94,5.51,5.51,0,0,1-.72-2.81,5.82,5.82,0,0,1,.68-2.82,4.91,4.91,0,0,1,1.89-1.95,5.39,5.39,0,0,1,2.74-.7,5,5,0,0,1,2.62.67,4.41,4.41,0,0,1,1.69,1.87,6.17,6.17,0,0,1,.59,2.75A.82.82,0,0,1,258.64,91Zm-7-3.43a3.53,3.53,0,0,0-1.13,2.11h6.55a3.49,3.49,0,0,0-1-2.11A2.89,2.89,0,0,0,254,86.8,3.4,3.4,0,0,0,251.67,87.58Z"/><path d="M269.31,95.12a.78.78,0,0,1-.25.59.89.89,0,0,1-.64.24.83.83,0,0,1-.71-.31l-3.13-3.74-3,3.74a.94.94,0,0,1-.71.31.79.79,0,0,1-.85-.83,1.12,1.12,0,0,1,.28-.73l3-3.82-3.25-3.84a1.15,1.15,0,0,1-.3-.75.79.79,0,0,1,.23-.57.84.84,0,0,1,.64-.24.92.92,0,0,1,.75.33l3.23,3.86,2.89-3.86a.86.86,0,0,1,.73-.33.8.8,0,0,1,.62.25.85.85,0,0,1,.23.6,1.25,1.25,0,0,1-.28.79l-3,3.88L269,94.43A1,1,0,0,1,269.31,95.12Z"/><path d="M281.57,85.46a1,1,0,0,1,.27.73v8.75a1,1,0,0,1-.27.73.93.93,0,0,1-.7.28,1,1,0,0,1-1-1v-3.7h-6.08v3.7a1,1,0,0,1-.28.72,1,1,0,0,1-.73.29.93.93,0,0,1-.7-.28,1,1,0,0,1-.27-.73V86.19a1,1,0,0,1,.27-.73.93.93,0,0,1,.7-.28.95.95,0,0,1,1,1v3.29h6.08V86.19a1,1,0,0,1,.29-.73,1,1,0,0,1,.72-.28A.93.93,0,0,1,281.57,85.46Z"/><path d="M295,85.44a1,1,0,0,1,.28.73v8.77a1,1,0,0,1-.28.72,1,1,0,0,1-1.73-.72v-.22a4.37,4.37,0,0,1-1.5,1,5,5,0,0,1-1.85.34,5,5,0,0,1-2.44-.59,4.15,4.15,0,0,1-1.69-1.72,5.67,5.67,0,0,1-.61-2.73V86.17a1,1,0,1,1,2,0V91a2.9,2.9,0,0,0,3.13,3.23,3.36,3.36,0,0,0,1.51-.33,2.67,2.67,0,0,0,1.06-.91,2.24,2.24,0,0,0,.38-1.28V86.17a1,1,0,0,1,.29-.73,1.09,1.09,0,0,1,1.45,0Z"/><path d="M307.85,95.08a.86.86,0,0,1-.31.63,1,1,0,0,1-.71.24,1,1,0,0,1-.73-.28L302,91.32h-1.28V95a1,1,0,0,1-.29.72,1,1,0,0,1-.74.29.89.89,0,0,1-.69-.28,1,1,0,0,1-.26-.73V86.19a1,1,0,0,1,.26-.73.89.89,0,0,1,.69-.28,1,1,0,0,1,.74.29,1,1,0,0,1,.29.72v3.29h1.5l3.56-4a1.08,1.08,0,0,1,.83-.31.83.83,0,0,1,.61.2,1,1,0,0,1,.33.71.81.81,0,0,1-.22.53l-3.56,3.82,3.78,4.05A.91.91,0,0,1,307.85,95.08Z"/><path d="M316.95,85.82a5.29,5.29,0,0,1,1.95,2,5.48,5.48,0,0,1,.72,2.78V95a1,1,0,1,1-2,0v-.73a5,5,0,0,1-6.36,1.08,5,5,0,0,1-1.81-2,5.87,5.87,0,0,1-.66-2.78,5.55,5.55,0,0,1,.71-2.78,5.18,5.18,0,0,1,2-2,5.45,5.45,0,0,1,2.76-.72A5.34,5.34,0,0,1,316.95,85.82Zm-1,7.95a3.4,3.4,0,0,0,1.25-1.32,3.89,3.89,0,0,0,.45-1.88,3.94,3.94,0,0,0-.45-1.89,3.47,3.47,0,0,0-4.81-1.33,3.46,3.46,0,0,0-1.26,1.33,3.87,3.87,0,0,0-.46,1.89,3.81,3.81,0,0,0,.46,1.88,3.47,3.47,0,0,0,1.26,1.32,3.53,3.53,0,0,0,3.56,0Z"/><path d="M336,85.8A5,5,0,0,1,338,87.74a6.09,6.09,0,0,1,0,5.65A5,5,0,0,1,336,95.32a6,6,0,0,1-5.62,0,4.93,4.93,0,0,1-1.93-1.94,6.13,6.13,0,0,1,0-5.65,4.94,4.94,0,0,1,1.93-1.94,5.63,5.63,0,0,1,2.81-.7A5.54,5.54,0,0,1,336,85.8Zm-4.58,1.54a3.32,3.32,0,0,0-1.25,1.32,4,4,0,0,0-.45,1.91,3.92,3.92,0,0,0,.45,1.9,3.34,3.34,0,0,0,1.25,1.31,3.67,3.67,0,0,0,3.6,0,3.26,3.26,0,0,0,1.24-1.31,4,4,0,0,0,.44-1.9,4.06,4.06,0,0,0-.44-1.91A3.25,3.25,0,0,0,335,87.35a3.67,3.67,0,0,0-3.6,0Z"/><path d="M349.44,85.67a4.16,4.16,0,0,1,1.69,1.72,5.67,5.67,0,0,1,.61,2.72V95a1,1,0,1,1-2,0V90.12a2.9,2.9,0,0,0-3.13-3.23,3.36,3.36,0,0,0-1.51.33,2.68,2.68,0,0,0-1.06.91,2.24,2.24,0,0,0-.38,1.28V95a1,1,0,0,1-.28.72,1,1,0,0,1-1.73-.72V86.19a1,1,0,0,1,.29-.73,1,1,0,0,1,1.72.73v.22a4.38,4.38,0,0,1,1.5-1,5.25,5.25,0,0,1,4.29.25Z"/><path d="M369.14,86.21a4.39,4.39,0,0,1,1.05,3.13V95a1,1,0,0,1-.28.72,1,1,0,0,1-1.73-.72V89.33a2.52,2.52,0,0,0-.6-1.82,2.13,2.13,0,0,0-1.6-.62,2.19,2.19,0,0,0-1.68.71,2.55,2.55,0,0,0-.66,1.81V95a1,1,0,0,1-.28.72,1,1,0,0,1-1.73-.72V89.33a2.52,2.52,0,0,0-.6-1.82,2.13,2.13,0,0,0-1.6-.62,2.22,2.22,0,0,0-1.7.71,2.55,2.55,0,0,0-.66,1.81V95a1,1,0,0,1-.28.72,1,1,0,0,1-1.73-.72V86.21a1,1,0,0,1,.29-.73,1,1,0,0,1,.72-.28,1,1,0,0,1,.71.27,1,1,0,0,1,.3.7,3.61,3.61,0,0,1,1.22-.8,4.07,4.07,0,0,1,1.53-.29,3.93,3.93,0,0,1,1.8.4,3.45,3.45,0,0,1,1.31,1.15,4.1,4.1,0,0,1,1.48-1.14,4.59,4.59,0,0,1,2-.41A3.62,3.62,0,0,1,369.14,86.21Z"/><path d="M381.18,85.8a5,5,0,0,1,1.93,1.94,6.09,6.09,0,0,1,0,5.65,5,5,0,0,1-1.92,1.94,6,6,0,0,1-5.62,0,4.93,4.93,0,0,1-1.93-1.94,6.13,6.13,0,0,1,0-5.65,4.94,4.94,0,0,1,1.93-1.94,5.63,5.63,0,0,1,2.81-.7A5.54,5.54,0,0,1,381.18,85.8Zm-4.58,1.54a3.32,3.32,0,0,0-1.25,1.32,4,4,0,0,0-.45,1.91,3.92,3.92,0,0,0,.45,1.9,3.34,3.34,0,0,0,1.25,1.31,3.67,3.67,0,0,0,3.6,0,3.26,3.26,0,0,0,1.24-1.31,4,4,0,0,0,.44-1.9,4.06,4.06,0,0,0-.44-1.91,3.25,3.25,0,0,0-1.24-1.32,3.67,3.67,0,0,0-3.6,0Z"/><path d="M398.8,85.46a1,1,0,0,1,.28.73v8.75a1,1,0,0,1-.28.72,1,1,0,0,1-1.73-.72V88.66L394,93.05a1.15,1.15,0,0,1-2.11,0l-3-4.39v6.28a1,1,0,0,1-.28.72,1,1,0,0,1-1.73-.72V86.19a1,1,0,0,1,.29-.73,1,1,0,0,1,.72-.28,1.27,1.27,0,0,1,1.06.61l4.07,5.88L397,85.79a1.27,1.27,0,0,1,1.06-.61A1,1,0,0,1,398.8,85.46Z"/><path d="M181.47,109.41a5,5,0,0,1,1.93,1.94,6.09,6.09,0,0,1,0,5.65,5,5,0,0,1-1.92,1.94,6,6,0,0,1-5.62,0,4.93,4.93,0,0,1-1.93-1.94,6.13,6.13,0,0,1,0-5.65,4.94,4.94,0,0,1,1.93-1.94,5.63,5.63,0,0,1,2.81-.7A5.54,5.54,0,0,1,181.47,109.41ZM176.89,111a3.32,3.32,0,0,0-1.25,1.32,4,4,0,0,0-.45,1.91,3.92,3.92,0,0,0,.45,1.9,3.33,3.33,0,0,0,1.25,1.31,3.67,3.67,0,0,0,3.6,0,3.27,3.27,0,0,0,1.24-1.31,4,4,0,0,0,.44-1.9,4.06,4.06,0,0,0-.44-1.91,3.25,3.25,0,0,0-1.24-1.32,3.67,3.67,0,0,0-3.6,0Z"/><path d="M201.17,109.81a4.39,4.39,0,0,1,1.05,3.13v5.63a1,1,0,0,1-.28.72,1,1,0,0,1-1.73-.72v-5.63a2.52,2.52,0,0,0-.6-1.82,2.13,2.13,0,0,0-1.6-.62,2.2,2.2,0,0,0-1.68.71,2.55,2.55,0,0,0-.66,1.81v5.55a1,1,0,0,1-.28.72,1,1,0,0,1-1.73-.72v-5.63a2.52,2.52,0,0,0-.6-1.82,2.13,2.13,0,0,0-1.6-.62,2.22,2.22,0,0,0-1.7.71,2.55,2.55,0,0,0-.66,1.81v5.55a1,1,0,0,1-.28.72,1,1,0,0,1-1.73-.72v-8.75a1,1,0,0,1,.29-.73,1,1,0,0,1,.72-.28,1,1,0,0,1,.71.27,1,1,0,0,1,.3.7,3.61,3.61,0,0,1,1.22-.8,4.07,4.07,0,0,1,1.53-.29,3.93,3.93,0,0,1,1.8.4,3.45,3.45,0,0,1,1.31,1.15,4.11,4.11,0,0,1,1.48-1.14,4.59,4.59,0,0,1,2-.41A3.61,3.61,0,0,1,201.17,109.81Z"/><path d="M219.1,109.28a4.16,4.16,0,0,1,1.69,1.72,5.67,5.67,0,0,1,.61,2.72v4.84a1,1,0,1,1-2,0v-4.84a2.9,2.9,0,0,0-3.13-3.23,3.36,3.36,0,0,0-1.51.33,2.67,2.67,0,0,0-1.06.91,2.24,2.24,0,0,0-.38,1.28v5.55a1,1,0,0,1-.28.72,1,1,0,0,1-1.73-.72v-8.77a1,1,0,0,1,.29-.73,1,1,0,0,1,1.72.73V110a4.37,4.37,0,0,1,1.5-1,5.25,5.25,0,0,1,4.29.25Z"/><path d="M232.9,109.43a5.17,5.17,0,0,1,2,2,5.54,5.54,0,0,1,.71,2.78,5.87,5.87,0,0,1-.66,2.78,5,5,0,0,1-1.81,2,4.91,4.91,0,0,1-6.36-1.08v5.31a1,1,0,0,1-1.72.73,1,1,0,0,1-.29-.73v-9a5.48,5.48,0,0,1,.72-2.78,5.31,5.31,0,0,1,4.69-2.69A5.45,5.45,0,0,1,232.9,109.43Zm-1,7.95a3.47,3.47,0,0,0,1.26-1.32,3.82,3.82,0,0,0,.46-1.88,3.88,3.88,0,0,0-.46-1.89,3.46,3.46,0,0,0-1.26-1.33,3.43,3.43,0,0,0-4.81,1.33,3.94,3.94,0,0,0-.45,1.89,3.88,3.88,0,0,0,.45,1.88,3.47,3.47,0,0,0,4.81,1.32Z"/><path d="M246.22,109.41a5,5,0,0,1,1.93,1.94,6.09,6.09,0,0,1,0,5.65,5,5,0,0,1-1.92,1.94,6,6,0,0,1-5.62,0A4.93,4.93,0,0,1,238.7,117a6.13,6.13,0,0,1,0-5.65,4.94,4.94,0,0,1,1.93-1.94,5.63,5.63,0,0,1,2.81-.7A5.54,5.54,0,0,1,246.22,109.41ZM241.64,111a3.32,3.32,0,0,0-1.25,1.32,4,4,0,0,0-.45,1.91,3.92,3.92,0,0,0,.45,1.9,3.33,3.33,0,0,0,1.25,1.31,3.67,3.67,0,0,0,3.6,0,3.27,3.27,0,0,0,1.24-1.31,4,4,0,0,0,.44-1.9,4.06,4.06,0,0,0-.44-1.91,3.25,3.25,0,0,0-1.24-1.32,3.67,3.67,0,0,0-3.6,0Z"/><path d="M261.44,109a1,1,0,0,1,.28.73v8.77a1,1,0,0,1-.28.72,1,1,0,0,1-1.73-.72v-.22a4.37,4.37,0,0,1-1.5,1,5,5,0,0,1-1.85.34,5,5,0,0,1-2.44-.59,4.15,4.15,0,0,1-1.69-1.72,5.67,5.67,0,0,1-.61-2.73v-4.84a1,1,0,1,1,2,0v4.84a2.9,2.9,0,0,0,3.13,3.23,3.36,3.36,0,0,0,1.51-.33,2.67,2.67,0,0,0,1.06-.91,2.24,2.24,0,0,0,.38-1.28v-5.55A1,1,0,0,1,260,109a1.09,1.09,0,0,1,1.45,0Z"/><path d="M272.58,114.81a2.24,2.24,0,0,1,.62,1.57,2.8,2.8,0,0,1-.56,1.69,3.72,3.72,0,0,1-1.53,1.2,5.3,5.3,0,0,1-2.17.43,6.89,6.89,0,0,1-2.45-.41,5.81,5.81,0,0,1-1.84-1.08,1,1,0,0,1-.31-.69.84.84,0,0,1,.33-.67,1,1,0,0,1,.63-.2,1.13,1.13,0,0,1,.81.3,4.11,4.11,0,0,0,2.81,1,2.89,2.89,0,0,0,1.71-.46,1.4,1.4,0,0,0,.65-1.19,1.28,1.28,0,0,0-.46-1,1.8,1.8,0,0,0-1.15-.41h-1.12a1.13,1.13,0,0,1-.73-.24.71.71,0,0,1-.3-.57.66.66,0,0,1,.3-.55,1.2,1.2,0,0,1,.73-.22h1.1a1.25,1.25,0,0,0,1-.41,1.5,1.5,0,0,0,.33-1,1.17,1.17,0,0,0-.55-1,2.84,2.84,0,0,0-1.59-.37,4.71,4.71,0,0,0-1.53.24,2.92,2.92,0,0,0-1.14.69,1,1,0,0,1-.75.33,1,1,0,0,1-.63-.22.59.59,0,0,1-.22-.51,1,1,0,0,1,.32-.75,4.8,4.8,0,0,1,1.71-1.12,5.79,5.79,0,0,1,2.2-.43,5.18,5.18,0,0,1,2.12.41,3.69,3.69,0,0,1,1.47,1.1,2.43,2.43,0,0,1,.53,1.51,2.08,2.08,0,0,1-.53,1.43,2.56,2.56,0,0,1-1.38.8A2.91,2.91,0,0,1,272.58,114.81Z"/><path d="M284.68,115a2.53,2.53,0,0,1,.5,1.54,2.71,2.71,0,0,1-.47,1.57,3.17,3.17,0,0,1-1.32,1.08,4.47,4.47,0,0,1-1.91.39h-4.82a1,1,0,0,1-1-1v-8.77a1.11,1.11,0,0,1,.31-.71.93.93,0,0,1,.69-.28h4.94a3.33,3.33,0,0,1,2.28.8,2.59,2.59,0,0,1,.91,2,2.4,2.4,0,0,1-.39,1.35,2.64,2.64,0,0,1-1.08.93A3.27,3.27,0,0,1,284.68,115Zm-2.13-4a1.36,1.36,0,0,0-.94-.33h-3.94v2.54h4.13a1,1,0,0,0,.81-.38,1.49,1.49,0,0,0,.31-1A1.09,1.09,0,0,0,282.55,111Zm.22,6.33a1.2,1.2,0,0,0,.49-1,1.32,1.32,0,0,0-.49-1.06,1.92,1.92,0,0,0-1.28-.41h-3.82v2.85h3.82A2,2,0,0,0,282.76,117.3Z"/><path d="M295.31,109.41a5,5,0,0,1,1.93,1.94,6.09,6.09,0,0,1,0,5.65,5,5,0,0,1-1.92,1.94,6,6,0,0,1-5.62,0,4.93,4.93,0,0,1-1.93-1.94,6.13,6.13,0,0,1,0-5.65,4.94,4.94,0,0,1,1.93-1.94,5.63,5.63,0,0,1,2.81-.7A5.54,5.54,0,0,1,295.31,109.41ZM290.72,111a3.32,3.32,0,0,0-1.25,1.32,4,4,0,0,0-.45,1.91,3.92,3.92,0,0,0,.45,1.9,3.34,3.34,0,0,0,1.25,1.31,3.67,3.67,0,0,0,3.6,0,3.26,3.26,0,0,0,1.24-1.31,4,4,0,0,0,.44-1.9,4.06,4.06,0,0,0-.44-1.91,3.25,3.25,0,0,0-1.24-1.32,3.67,3.67,0,0,0-3.6,0Z"/><path d="M308.59,109.41a5,5,0,0,1,1.93,1.94,5.67,5.67,0,0,1,.7,2.83v4.25a5.88,5.88,0,0,1-.69,2.83,5.12,5.12,0,0,1-1.94,2,5.45,5.45,0,0,1-2.82.74,6.24,6.24,0,0,1-2.64-.56,5.51,5.51,0,0,1-2-1.6.89.89,0,0,1-.22-.55.86.86,0,0,1,.41-.71,1,1,0,0,1,.55-.18,1,1,0,0,1,.81.41,3.46,3.46,0,0,0,1.34,1.05,4.4,4.4,0,0,0,1.83.36,3.4,3.4,0,0,0,1.75-.46,3.33,3.33,0,0,0,1.26-1.36,4.51,4.51,0,0,0,.47-2.13v-1a4.55,4.55,0,0,1-1.61,1.69,4.27,4.27,0,0,1-2.26.61,4.92,4.92,0,0,1-2.61-.7A4.78,4.78,0,0,1,301,117a6,6,0,0,1-.64-2.81,5.73,5.73,0,0,1,.69-2.83,4.94,4.94,0,0,1,1.93-1.94,5.63,5.63,0,0,1,2.81-.7A5.54,5.54,0,0,1,308.59,109.41Zm-1,8a3.26,3.26,0,0,0,1.24-1.31,4,4,0,0,0,.44-1.9,4.06,4.06,0,0,0-.44-1.91A3.25,3.25,0,0,0,307.6,111a3.67,3.67,0,0,0-3.6,0,3.32,3.32,0,0,0-1.25,1.32,4,4,0,0,0-.45,1.91,3.92,3.92,0,0,0,.45,1.9,3.34,3.34,0,0,0,1.25,1.31,3.67,3.67,0,0,0,3.6,0Z"/><path d="M323.8,109a1,1,0,0,1,.28.73v8.77a1,1,0,0,1-.28.72,1,1,0,0,1-1.73-.72v-.22a4.37,4.37,0,0,1-1.5,1,5,5,0,0,1-1.85.34,5,5,0,0,1-2.44-.59,4.15,4.15,0,0,1-1.69-1.72,5.67,5.67,0,0,1-.61-2.73v-4.84a1,1,0,1,1,2,0v4.84a2.9,2.9,0,0,0,3.13,3.23,3.36,3.36,0,0,0,1.51-.33,2.67,2.67,0,0,0,1.06-.91,2.24,2.24,0,0,0,.38-1.28v-5.55a1,1,0,0,1,.29-.73,1.09,1.09,0,0,1,1.45,0Z"/><path d="M341.7,109.81a4.39,4.39,0,0,1,1.05,3.13v5.63a1,1,0,0,1-.28.72,1,1,0,0,1-1.73-.72v-5.63a2.52,2.52,0,0,0-.6-1.82,2.13,2.13,0,0,0-1.6-.62,2.19,2.19,0,0,0-1.68.71,2.55,2.55,0,0,0-.66,1.81v5.55a1,1,0,0,1-.28.72,1,1,0,0,1-1.73-.72v-5.63a2.52,2.52,0,0,0-.6-1.82,2.13,2.13,0,0,0-1.6-.62,2.22,2.22,0,0,0-1.7.71,2.55,2.55,0,0,0-.66,1.81v5.55a1,1,0,0,1-.28.72,1,1,0,0,1-1.73-.72v-8.75a1,1,0,0,1,.29-.73,1,1,0,0,1,.72-.28,1,1,0,0,1,.71.27,1,1,0,0,1,.3.7,3.61,3.61,0,0,1,1.22-.8,4.07,4.07,0,0,1,1.53-.29,3.93,3.93,0,0,1,1.8.4,3.45,3.45,0,0,1,1.31,1.15,4.1,4.1,0,0,1,1.48-1.14,4.59,4.59,0,0,1,2-.41A3.62,3.62,0,0,1,341.7,109.81Z"/><path d="M355.48,114.62a.9.9,0,0,1-.65.25h-7.48a3.46,3.46,0,0,0,1.25,2.22,3.86,3.86,0,0,0,2.53.85,3.82,3.82,0,0,0,1.23-.22,3.66,3.66,0,0,0,1.05-.53,1,1,0,0,1,.65-.22.84.84,0,0,1,.59.2.86.86,0,0,1,.35.67.71.71,0,0,1-.31.59,5.44,5.44,0,0,1-1.66.87,6,6,0,0,1-4.79-.36,5.06,5.06,0,0,1-2-1.94,5.5,5.5,0,0,1-.72-2.81,5.82,5.82,0,0,1,.68-2.82,4.91,4.91,0,0,1,1.89-1.95,5.39,5.39,0,0,1,2.74-.7,5,5,0,0,1,2.62.67,4.41,4.41,0,0,1,1.69,1.87,6.16,6.16,0,0,1,.59,2.75A.82.82,0,0,1,355.48,114.62Zm-7-3.43a3.53,3.53,0,0,0-1.13,2.11h6.55a3.49,3.49,0,0,0-1-2.11,2.89,2.89,0,0,0-2.11-.79A3.4,3.4,0,0,0,348.5,111.19Z"/><path d="M367.38,118.67a.77.77,0,0,1-.14.45.83.83,0,0,1-.39.3,1.51,1.51,0,0,1-.53.14.83.83,0,0,1-.75-.53l-3.21-7.28L359.06,119a.82.82,0,0,1-.77.53,1.07,1.07,0,0,1-.51-.14.86.86,0,0,1-.57-.75.91.91,0,0,1,.1-.41l4.07-8.79a1.12,1.12,0,0,1,.38-.5,1,1,0,0,1,.56-.15,1,1,0,0,1,.9.65l4.05,8.79A1.22,1.22,0,0,1,367.38,118.67Z"/><path d="M377.37,109.07a1,1,0,0,1,.28.73v8.77a1.13,1.13,0,0,1-.3.71,1,1,0,0,1-1.39,0,1,1,0,0,1-.28-.72V116h-1.85l-2.58,3.21a1.13,1.13,0,0,1-1.59.16.87.87,0,0,1-.3-.61,1,1,0,0,1,.24-.61l2-2.6a3.25,3.25,0,0,1-1.63-1.14,3.07,3.07,0,0,1-.61-1.91,3.53,3.53,0,0,1,.5-1.87,3.6,3.6,0,0,1,1.39-1.31,4.13,4.13,0,0,1,2-.48h3.4A1,1,0,0,1,377.37,109.07Zm-1.69,1.59h-2.44a2,2,0,0,0-1.39.51,1.63,1.63,0,0,0-.58,1.28,1.7,1.7,0,0,0,.58,1.33,2,2,0,0,0,1.39.52h2.44Z"/></g></g></g></svg>