<svg xmlns="http://www.w3.org/2000/svg" viewBox="0 0 352.88 97.99"><defs><style>.cls-1{fill:#80cff4;}.cls-1,.cls-10,.cls-11,.cls-12,.cls-13,.cls-14,.cls-15,.cls-16,.cls-17,.cls-18,.cls-19,.cls-2,.cls-20,.cls-21,.cls-22,.cls-23,.cls-24,.cls-25,.cls-26,.cls-3,.cls-4,.cls-5,.cls-6,.cls-7,.cls-8,.cls-9{fill-rule:evenodd;}.cls-2{fill:#68c0ea;}.cls-3{fill:#f29229;}.cls-4{fill:#4fa6d3;}.cls-5{fill:#3c8dbb;}.cls-6{fill:#3472a1;}.cls-7{fill:#2e598a;}.cls-8{fill:#28436f;}.cls-9{fill:#cbe9f9;}.cls-10{fill:#b7e1f7;}.cls-11{fill:#a5dbf7;}.cls-12{fill:#93d5f6;}.cls-13{fill:#dbeffa;}.cls-14{fill:#ef7f26;}.cls-15{fill:#f6a31b;}.cls-16{fill:#e64123;}.cls-17{fill:#e84d22;}.cls-18{fill:#ea5e22;}.cls-19{fill:#ed6e24;}.cls-20{fill:#e53524;}.cls-21{fill:#f9b311;}.cls-22{fill:#fcc30d;}.cls-23,.cls-27{fill:#e53824;}.cls-24{fill:#fde002;}.cls-25{fill:#fbea09;}.cls-26{fill:#fdd205;}</style></defs><title>logo-mobile</title><g id="Слой_2" data-name="Слой 2"><g id="Слой_1-2" data-name="Слой 1"><g id="logo"><path class="cls-1" d="M49,0a1.37,1.37,0,0,1,1.32,1.37s0,0,0,.3c0,.82-1.37,14.64-1.37,14.64S47.66,2.49,47.62,1.67c0-.27,0-.29,0-.3A1.37,1.37,0,0,1,48.94,0Z"/><path class="cls-2" d="M61.68,1.66a1.37,1.37,0,0,1,1,1.68l-.08.29c-.29.91-5.71,16-5.71,16S59.71,3.85,59.92,2.92L60,2.63a1.37,1.37,0,0,1,1.68-1Z"/><path class="cls-3" d="M73.5,6.56A1.37,1.37,0,0,1,74,8.43l-.15.26c-.58.91-10.82,16-10.82,16S71,8.28,71.47,7.32l.15-.26a1.37,1.37,0,0,1,1.88-.5Z"/><path class="cls-4" d="M83.64,14.35a1.37,1.37,0,0,1,0,1.94l-.25.23-.69.63-2.25,2L74,25l-9.2,8.23L73,24l5.82-6.48,2-2.25.63-.69.23-.25a1.37,1.37,0,0,1,1.94,0Z"/><path class="cls-5" d="M91.43,24.49a1.37,1.37,0,0,1-.5,1.88L86.29,28.8l-9.51,4.95-13.49,7,12.8-8.19,9-5.76L89.56,24a1.37,1.37,0,0,1,1.88.5Z"/><path class="cls-6" d="M96.33,36.31a1.37,1.37,0,0,1-1,1.68l-5.31,1.2L79.14,41.63,63.67,45.06,78.78,40.3,89.45,37l5.2-1.62a1.37,1.37,0,0,1,1.68,1Z"/><path class="cls-7" d="M82.9,49a1.37,1.37,0,0,1-1.37,1.37h-.3C80,50.32,59.66,49,59.66,49S80,47.66,81.23,47.62h.3A1.37,1.37,0,0,1,82.9,49Z"/><path class="cls-8" d="M70.1,54.65a1.37,1.37,0,0,1-1.68,1l-.29-.08c-.53-.18-9.22-3.89-9.22-3.89s9.39,1.14,9.93,1.24l.29.08a1.37,1.37,0,0,1,1,1.68Z"/><path class="cls-9" d="M6.56,24.49A1.37,1.37,0,0,1,8.43,24l.26.15c.21.17,3.44,3.57,3.44,3.57s-4.56-1.09-4.81-1.19l-.26-.15a1.37,1.37,0,0,1-.5-1.88Z"/><path class="cls-10" d="M14.35,14.35a1.37,1.37,0,0,1,1.94,0l.21.21c.27.33,4.44,6.38,4.44,6.38s-6-4.17-6.38-4.44l-.21-.21a1.37,1.37,0,0,1,0-1.94Z"/><path class="cls-11" d="M24.49,6.56a1.37,1.37,0,0,1,1.88.5l.15.26c.25.52,3.93,9.55,3.93,9.55s-6-7.7-6.31-8.18L24,8.43a1.37,1.37,0,0,1,.5-1.88Z"/><path class="cls-12" d="M36.31,1.66a1.37,1.37,0,0,1,1.68,1l.08.29C38.21,3.61,40,15.34,40,15.34s-4.34-11-4.56-11.71l-.08-.29a1.37,1.37,0,0,1,1-1.68Z"/><path class="cls-13" d="M1.63,36.67A1.37,1.37,0,1,1,3,38a1.37,1.37,0,0,1-1.37-1.37Z"/><path class="cls-14" d="M74.26,16.95a1.37,1.37,0,0,1,0,1.94L74,19.1c-.44.38-8.25,6.31-8.25,6.31s5.93-7.81,6.31-8.25l.21-.21a1.37,1.37,0,0,1,1.94,0Z"/><path class="cls-15" d="M64.12,11.08a1.37,1.37,0,0,1,1,1.68l-.08.29c-.19.55-4,9.61-4,9.61s1.24-9.75,1.34-10.32l.08-.29a1.37,1.37,0,0,1,1.68-1Z"/><path class="cls-3" d="M49,16.82a2.2,2.2,0,0,1,2.2,2.2s0,0,0,.48S49,26.9,49,26.9s-2.13-7-2.2-7.4,0-.46,0-.48a2.2,2.2,0,0,1,2.2-2.2Z"/><path class="cls-3" d="M56.71,20.21a1.92,1.92,0,0,1,1.36,2.36L58,23c-.16.36-3.67,6.29-3.67,6.29s-.08-6.89,0-7.28l.11-.41a1.92,1.92,0,0,1,2.36-1.36Z"/><path class="cls-3" d="M62.69,25.28a1.37,1.37,0,0,1,.5,1.88l-.15.26c-.23.32-4.66,5.33-4.66,5.33S60.5,26.4,60.66,26l.15-.26a1.37,1.37,0,0,1,1.88-.5Z"/><path class="cls-16" d="M14.35,83.64a2.75,2.75,0,0,1,0-3.89l.43-.42c.29-.17,6-2.15,6-2.15s-2,5.75-2.15,6l-.42.43a2.75,2.75,0,0,1-3.89,0Z"/><path class="cls-14" d="M64.14,33.85a1.37,1.37,0,0,1,0,1.94l-.21.21c-.2.14-3.95,2-3.95,2s1.87-3.75,2-3.95l.21-.21a1.37,1.37,0,0,1,1.94,0Z"/><path class="cls-17" d="M6.56,73.5a2.75,2.75,0,0,1,1-3.75l.52-.3c.44-.16,8.48-1.73,8.48-1.73s-5.38,6.18-5.74,6.48l-.52.3a2.75,2.75,0,0,1-3.75-1Z"/><path class="cls-18" d="M1.66,61.68A2.75,2.75,0,0,1,3.6,58.31l.58-.15c.58-.07,10.63,0,10.63,0S6.14,63.23,5.6,63.46L5,63.62a2.75,2.75,0,0,1-3.37-1.94Z"/><path class="cls-19" d="M0,49a2.75,2.75,0,0,1,2.75-2.75h.6C4,46.33,15.53,49,15.53,49S4,51.66,3.35,51.74h-.6A2.75,2.75,0,0,1,0,49Z"/><path class="cls-14" d="M5,37.19a2.75,2.75,0,0,1,3.37-1.94l.58.16c.57.24,9.81,5.47,9.81,5.47s-10.62-.09-11.24-.17l-.58-.15A2.75,2.75,0,0,1,5,37.19Z"/><path class="cls-3" d="M12.27,27.79a2.75,2.75,0,0,1,3.75-1l.52.3c.43.35,7.12,7.28,7.12,7.28S14.32,32,13.8,31.85l-.52-.3a2.75,2.75,0,0,1-1-3.75Z"/><path class="cls-3" d="M21.13,21.13a2.75,2.75,0,0,1,3.89,0l.42.43c.29.41,4.32,8.2,4.32,8.2s-7.79-4-8.2-4.32L21.13,25a2.75,2.75,0,0,1,0-3.89Z"/><path class="cls-3" d="M30.63,17.18a2.75,2.75,0,0,1,3.75,1l.3.52c.15.43,1.64,8.33,1.64,8.33s-6.1-5.24-6.4-5.59l-.3-.52a2.75,2.75,0,0,1,1-3.75Z"/><path class="cls-3" d="M40.09,15.76a2.47,2.47,0,0,1,3,1.75l.14.52c0,.44-.4,8.07-.4,8.07s-4.19-6.4-4.38-6.79l-.14-.52a2.47,2.47,0,0,1,1.75-3Z"/><path class="cls-20" d="M23,89a2.75,2.75,0,1,1,2.75,2.75A2.75,2.75,0,0,1,23,89Z"/><path class="cls-3" d="M49,77.65a2.2,2.2,0,0,1-2.2-2.2s0,0,0-.48c.07-.87,2.2-15.53,2.2-15.53S51.12,74.1,51.19,75c0,.44,0,.46,0,.48a2.2,2.2,0,0,1-2.2,2.2Z"/><path class="cls-15" d="M42.69,72.53a1.92,1.92,0,0,1-1.36-2.36l.11-.41C41.67,69.15,46.32,59,46.32,59s-1.06,11.15-1.17,11.8l-.11.41a1.92,1.92,0,0,1-2.36,1.36Z"/><path class="cls-21" d="M39.4,65.62a1.65,1.65,0,0,1-.6-2.25l.18-.31c.24-.32,4.94-5.27,4.94-5.27S42,64.34,41.83,64.71l-.18.31a1.65,1.65,0,0,1-2.25.6Z"/><path class="cls-22" d="M38.44,59.55a1.37,1.37,0,0,1,0-1.94l.21-.21c.16-.1,3.26-1.31,3.26-1.31s-1.22,3.1-1.31,3.26l-.21.21a1.37,1.37,0,0,1-1.94,0Z"/><path class="cls-23" d="M98,49a2.75,2.75,0,0,1-2.75,2.75h-.6C94,51.66,83.3,49,83.3,49S94,46.33,94.65,46.25h.6A2.75,2.75,0,0,1,98,49Z"/><path class="cls-17" d="M85.09,69.84a2.75,2.75,0,0,1-3.75,1l-.52-.3c-1.29-.84-22.41-16.11-22.41-16.11S82.19,65.09,83.57,65.78l.52.3a2.75,2.75,0,0,1,1,3.75Z"/><path class="cls-18" d="M75.68,75.68a2.75,2.75,0,0,1-3.89,0l-.42-.43c-.88-1-14.78-18.67-14.78-18.67S74.26,70.49,75.25,71.37l.43.42a2.75,2.75,0,0,1,0,3.89Z"/><path class="cls-19" d="M66.26,78.9a2.75,2.75,0,0,1-3.75-1l-.3-.52c-.5-1-7.9-19.18-7.9-19.18S66.32,73.67,67,74.63l.3.52a2.75,2.75,0,0,1-1,3.75Z"/><path class="cls-14" d="M57.21,79.67a2.47,2.47,0,0,1-3-1.75L54,77.4c-.19-1-2.32-18.22-2.32-18.22s6.76,16,7.1,16.94l.14.52a2.47,2.47,0,0,1-1.75,3Z"/><path class="cls-16" d="M93.06,60.8a2.75,2.75,0,0,1-3.37,1.94l-.58-.16c-1-.37-18.35-7.76-18.35-7.76s18.68,2.25,19.77,2.45l.58.15a2.75,2.75,0,0,1,1.94,3.37Z"/><path class="cls-24" d="M49,98a2.75,2.75,0,0,1-2.75-2.75s0-.06,0-.6C46.33,93.72,49,78.23,49,78.23s2.66,15.49,2.75,16.41c0,.54,0,.58,0,.6A2.75,2.75,0,0,1,49,98Z"/><path class="cls-15" d="M49,27.16a1.37,1.37,0,0,1,1.37,1.37s0,0,0,.3c0,.56-1.37,9.91-1.37,9.91s-1.33-9.35-1.37-9.91c0-.27,0-.29,0-.3A1.37,1.37,0,0,1,49,27.16Z"/><path class="cls-25" d="M36.31,96.33A2.75,2.75,0,0,1,34.37,93l.16-.58c.38-1.09,8-19.16,8-19.16S40,92.67,39.83,93.81l-.15.58a2.75,2.75,0,0,1-3.37,1.94Z"/><path class="cls-25" d="M27.74,85.81a2.75,2.75,0,0,1-1-3.75l.3-.52c.61-.89,12-15.33,12-15.33s-6.8,17.1-7.26,18.07l-.3.52a2.75,2.75,0,0,1-3.75,1Z"/><path class="cls-25" d="M21,77a2.75,2.75,0,0,1,0-3.89l.43-.42c.88-.76,16.54-12.66,16.54-12.66S26,75.73,25.27,76.6l-.42.43A2.75,2.75,0,0,1,21,77Z"/><path class="cls-25" d="M16.82,67.57a2.75,2.75,0,0,1,1-3.75l.52-.3c1.16-.57,21.37-9.17,21.37-9.17S22.17,67.56,21.09,68.28l-.52.3a2.75,2.75,0,0,1-3.75-1Z"/><path class="cls-25" d="M15.16,58.06a2.75,2.75,0,0,1,1.94-3.37l.58-.15c1.16-.22,21-2.79,21-2.79s-18.49,7.71-19.6,8.1l-.58.16a2.75,2.75,0,0,1-3.37-1.94Z"/><path class="cls-25" d="M16,49a2.75,2.75,0,0,1,2.75-2.75h.6C20.38,46.33,38.42,49,38.42,49s-18,2.66-19.11,2.75h-.6A2.75,2.75,0,0,1,16,49Z"/><path class="cls-25" d="M19.08,41A2.75,2.75,0,0,1,22.45,39l.58.16c.9.33,15.82,7.08,15.82,7.08S22.56,44.67,21.61,44.5L21,44.35A2.75,2.75,0,0,1,19.08,41Z"/><path class="cls-24" d="M24,34.54a2.47,2.47,0,0,1,3.38-.91l.47.27c.71.5,12.13,9.86,12.13,9.86s-13.82-5.21-14.61-5.58l-.47-.27A2.47,2.47,0,0,1,24,34.54Z"/><path class="cls-15" d="M91.43,73.5a1.65,1.65,0,0,1-2.25.6l-.31-.18c-.22-.19-3.62-4-3.62-4s5,1,5.27,1.14l.31.18a1.65,1.65,0,0,1,.6,2.25Z"/><path class="cls-26" d="M30,30a2.2,2.2,0,0,1,3.11,0l.34.34c.5.6,8.22,11.33,8.22,11.33s-10.73-7.72-11.33-8.22L30,33.09A2.2,2.2,0,0,1,30,30Z"/><path class="cls-21" d="M83.64,83.64a1.92,1.92,0,0,1-2.72,0l-.3-.3c-.3-.38-4.73-7.45-4.73-7.45s7.06,4.43,7.45,4.73l.3.3a1.92,1.92,0,0,1,0,2.72Z"/><path class="cls-22" d="M36.46,27.29a1.92,1.92,0,0,1,2.63.7l.21.37C39.59,29,43.82,40,43.82,40S36.37,30.85,36,30.28l-.21-.36a1.92,1.92,0,0,1,.7-2.63Z"/><path class="cls-22" d="M73.5,91.43a2.2,2.2,0,0,1-3-.8l-.24-.42c-.26-.59-3.79-11-3.79-11s7.22,8.25,7.6,8.76l.24.42a2.2,2.2,0,0,1-.8,3Z"/><path class="cls-21" d="M42.93,26.36a1.65,1.65,0,0,1,2,1.17l.09.35c.11.62,1.29,11.17,1.29,11.17s-4.26-9.73-4.47-10.32l-.09-.35a1.65,1.65,0,0,1,1.17-2Z"/><path class="cls-26" d="M61.68,96.33a2.47,2.47,0,0,1-3-1.75l-.14-.52c-.13-.76-1.17-13.93-1.17-13.93S63,92.05,63.29,92.78l.14.52a2.47,2.47,0,0,1-1.75,3Z"/><path class="cls-3" d="M93.64,61.32A1.37,1.37,0,1,1,95,62.7a1.37,1.37,0,0,1-1.37-1.37Z"/><path class="cls-1" d="M55.09,36.67a1.65,1.65,0,1,1,1.65,1.65,1.65,1.65,0,0,1-1.65-1.65Z"/><path class="cls-3" d="M54.22,29.5a1.37,1.37,0,0,1,1,1.68l-.08.29c-.16.44-3.48,7.67-3.48,7.67s.75-7.92.82-8.38l.08-.29a1.37,1.37,0,0,1,1.68-1Z"/><path class="cls-20" d="M60,47.43a13.43,13.43,0,0,0,.68-5.4.13.13,0,0,0-.19-.1,5.31,5.31,0,0,1-4.58-.25.13.13,0,0,0-.17.2l4,5.58a.13.13,0,0,0,.24,0Z"/><path class="cls-27" d="M161.2,65.66a2.52,2.52,0,0,1-.72,1.82,2.45,2.45,0,0,1-1.84.74,2.69,2.69,0,0,1-1.46-.44,2.47,2.47,0,0,1-1-1.2L144.21,37,131.92,66.58a2.83,2.83,0,0,1-1,1.2,2.57,2.57,0,0,1-1.43.44,2.45,2.45,0,0,1-1.87-.79,2.64,2.64,0,0,1-.74-1.87,3.33,3.33,0,0,1,.26-1.18L141.49,30A2.6,2.6,0,0,1,144,28.25,2.49,2.49,0,0,1,146.51,30l14.43,34.45A3.35,3.35,0,0,1,161.2,65.66Z"/><path class="cls-27" d="M190.27,55.4a2.34,2.34,0,0,1-1.69.64H169.13a9,9,0,0,0,3.25,5.78,10.39,10.39,0,0,0,9.78,1.64,9.55,9.55,0,0,0,2.74-1.38,2.65,2.65,0,0,1,1.69-.56,2.2,2.2,0,0,1,1.54.51,2.24,2.24,0,0,1,.92,1.74,1.85,1.85,0,0,1-.82,1.54,14.16,14.16,0,0,1-4.32,2.25,15.63,15.63,0,0,1-12.46-.95,13.18,13.18,0,0,1-5.2-5,14.33,14.33,0,0,1-1.87-7.32,15.14,15.14,0,0,1,1.77-7.34,12.77,12.77,0,0,1,4.91-5.07A14,14,0,0,1,178.19,40,12.87,12.87,0,0,1,185,41.76a11.48,11.48,0,0,1,4.4,4.86,16,16,0,0,1,1.54,7.17A2.14,2.14,0,0,1,190.27,55.4Zm-18.14-8.93a9.19,9.19,0,0,0-2.94,5.48h17a9.07,9.07,0,0,0-2.56-5.48,7.51,7.51,0,0,0-5.48-2A8.85,8.85,0,0,0,172.13,46.47Z"/><path class="cls-27" d="M214.1,42.09A6.65,6.65,0,0,1,217,47.85q0,5.94-9.73,8.09a17,17,0,0,0-5.48,1.87,3.05,3.05,0,0,0-1.59,2.58,2.79,2.79,0,0,0,1.51,2.56,9.15,9.15,0,0,0,4.48.87q5.42,0,7.47-2.2a3,3,0,0,1,2-1.07,2.41,2.41,0,0,1,1.48.61,2.23,2.23,0,0,1,.87,1.69,2.35,2.35,0,0,1-.77,1.69,12.58,12.58,0,0,1-4.76,2.81,18.79,18.79,0,0,1-6.35,1.07,15.81,15.81,0,0,1-5.78-1,9.29,9.29,0,0,1-4-2.79,6.58,6.58,0,0,1,1.38-9.49,20.35,20.35,0,0,1,8.24-3.1,12,12,0,0,0,4.66-1.64A3.16,3.16,0,0,0,212,47.75a2.61,2.61,0,0,0-1.56-2.38,8,8,0,0,0-3.86-.84,11.36,11.36,0,0,0-3.61.59,8,8,0,0,0-2.89,1.61,3.75,3.75,0,0,1-1.15.79,3,3,0,0,1-1.2.28,1.31,1.31,0,0,1-.82-.2,2.57,2.57,0,0,1-.95-.92,2.19,2.19,0,0,1-.33-1.13,1.91,1.91,0,0,1,.51-1.33,10.64,10.64,0,0,1,4.35-3A16.06,16.06,0,0,1,206.65,40,12.63,12.63,0,0,1,214.1,42.09Z"/><path class="cls-27" d="M249,55.4a2.34,2.34,0,0,1-1.69.64H227.84a9,9,0,0,0,3.25,5.78,10.39,10.39,0,0,0,9.78,1.64,9.55,9.55,0,0,0,2.74-1.38,2.65,2.65,0,0,1,1.69-.56,2.2,2.2,0,0,1,1.54.51,2.24,2.24,0,0,1,.92,1.74,1.85,1.85,0,0,1-.82,1.54,14.16,14.16,0,0,1-4.32,2.25,15.63,15.63,0,0,1-12.46-.95,13.18,13.18,0,0,1-5.2-5,14.32,14.32,0,0,1-1.87-7.32,15.13,15.13,0,0,1,1.77-7.34,12.77,12.77,0,0,1,4.91-5.07A14,14,0,0,1,236.9,40a12.87,12.87,0,0,1,6.81,1.74,11.48,11.48,0,0,1,4.4,4.86,16,16,0,0,1,1.54,7.17A2.14,2.14,0,0,1,249,55.4Zm-18.14-8.93a9.19,9.19,0,0,0-2.94,5.48h17a9.07,9.07,0,0,0-2.56-5.48,7.51,7.51,0,0,0-5.48-2A8.85,8.85,0,0,0,230.83,46.47Z"/><path class="cls-27" d="M281.66,40.94a2.62,2.62,0,0,1,.69,1.89V65.61a2.61,2.61,0,0,1-.69,1.89,2.41,2.41,0,0,1-1.82.72,2.54,2.54,0,0,1-2.61-2.61V56H261.42v9.62a2.58,2.58,0,0,1-.72,1.87,2.51,2.51,0,0,1-1.89.74A2.41,2.41,0,0,1,257,67.5a2.61,2.61,0,0,1-.69-1.89V42.83a2.62,2.62,0,0,1,.69-1.89,2.41,2.41,0,0,1,1.82-.72,2.46,2.46,0,0,1,2.61,2.61v8.55h15.82V42.83a2.51,2.51,0,0,1,.74-1.89,2.58,2.58,0,0,1,1.87-.72A2.41,2.41,0,0,1,281.66,40.94Z"/><path class="cls-27" d="M311.5,41.84a13.08,13.08,0,0,1,5,5,14.76,14.76,0,0,1,1.82,7.37V65.3a15.3,15.3,0,0,1-1.79,7.37,13.32,13.32,0,0,1-5,5.25,14.17,14.17,0,0,1-7.34,1.92,16.22,16.22,0,0,1-6.86-1.46A14.33,14.33,0,0,1,292,74.21a2.32,2.32,0,0,1-.56-1.43,2.23,2.23,0,0,1,1.07-1.84,2.63,2.63,0,0,1,1.43-.46,2.53,2.53,0,0,1,2.1,1.07,9,9,0,0,0,3.48,2.74,11.45,11.45,0,0,0,4.76.95,8.83,8.83,0,0,0,4.55-1.2,8.67,8.67,0,0,0,3.28-3.53,11.76,11.76,0,0,0,1.23-5.55V62.44a11.83,11.83,0,0,1-4.2,4.4,11.11,11.11,0,0,1-5.89,1.59,12.81,12.81,0,0,1-6.78-1.82,12.42,12.42,0,0,1-4.66-5,15.73,15.73,0,0,1-1.66-7.32,14.91,14.91,0,0,1,1.79-7.37,12.84,12.84,0,0,1,5-5A14.65,14.65,0,0,1,304.26,40,14.41,14.41,0,0,1,311.5,41.84Zm-2.56,20.75a8.49,8.49,0,0,0,3.22-3.4,10.39,10.39,0,0,0,1.15-4.94,10.55,10.55,0,0,0-1.15-5,8.46,8.46,0,0,0-3.22-3.43,9.54,9.54,0,0,0-9.37,0,8.63,8.63,0,0,0-3.25,3.43,10.35,10.35,0,0,0-1.18,5,10.2,10.2,0,0,0,1.18,4.94,8.66,8.66,0,0,0,3.25,3.4,9.54,9.54,0,0,0,9.37,0Z"/><path class="cls-27" d="M345.94,41.89A13.77,13.77,0,0,1,351,47a14.27,14.27,0,0,1,1.87,7.24V65.66a2.61,2.61,0,1,1-5.22,0V63.77a12.89,12.89,0,0,1-16.56,2.82,12.92,12.92,0,0,1-4.71-5.09,15.27,15.27,0,0,1-1.71-7.24A14.43,14.43,0,0,1,326.52,47a13.46,13.46,0,0,1,5.09-5.12A14.17,14.17,0,0,1,338.8,40,13.9,13.9,0,0,1,345.94,41.89Zm-2.51,20.68a8.85,8.85,0,0,0,3.25-3.43,10.1,10.1,0,0,0,1.18-4.89,10.26,10.26,0,0,0-1.18-4.91,9,9,0,0,0-12.51-3.45,9,9,0,0,0-3.28,3.45,10.08,10.08,0,0,0-1.2,4.91,9.93,9.93,0,0,0,1.2,4.89,9,9,0,0,0,3.28,3.43,9.18,9.18,0,0,0,9.26,0Z"/></g></g></g></svg>