<svg width="49" height="49" viewBox="0 0 49 49" fill="none" xmlns="http://www.w3.org/2000/svg">
<g clip-path="url(#clip0)">
<path fill-rule="evenodd" clip-rule="evenodd" d="M24.5233 0C24.6984 0.00954906 24.8633 0.0859424 24.9838 0.213437C25.1044 0.340933 25.1714 0.509815 25.1712 0.685282C25.1712 0.685282 25.1712 0.685282 25.1712 0.834459C25.1712 1.2447 24.486 8.15346 24.486 8.15346C24.486 8.15346 23.8334 1.24936 23.8101 0.839121C23.8101 0.703929 23.8101 0.694606 23.8101 0.689944C23.8088 0.511358 23.8772 0.339313 24.0008 0.210446C24.1245 0.081578 24.2935 0.00606964 24.472 0L24.5233 0Z" fill="#80CFF4"/>
<path fill-rule="evenodd" clip-rule="evenodd" d="M30.8396 0.829436C31.0117 0.880381 31.157 0.996825 31.2441 1.15374C31.3313 1.31065 31.3534 1.4955 31.3057 1.66856L31.2684 1.81307C31.1426 2.26993 28.4344 9.81735 28.4344 9.81735C28.4344 9.81735 29.8561 1.92496 29.9586 1.45878L29.9959 1.31426C30.0468 1.1411 30.164 0.995009 30.3219 0.907725C30.4799 0.82044 30.6659 0.799009 30.8396 0.848084V0.829436Z" fill="#68C0EA"/>
<path fill-rule="evenodd" clip-rule="evenodd" d="M36.7454 3.26348C36.9019 3.35419 37.0162 3.50312 37.0634 3.67778C37.1106 3.85245 37.0867 4.03867 36.9971 4.19584L36.9226 4.32637C36.6335 4.79255 31.5107 12.326 31.5107 12.326C31.5107 12.326 35.4822 4.1399 35.7339 3.65973L35.8085 3.5292C35.8992 3.37267 36.0481 3.25835 36.2228 3.21119C36.3974 3.16403 36.5836 3.18786 36.7408 3.27747L36.7454 3.26348Z" fill="#F29229"/>
<path fill-rule="evenodd" clip-rule="evenodd" d="M41.8171 7.17492C41.8808 7.23856 41.9313 7.31414 41.9658 7.39733C42.0003 7.48052 42.018 7.56969 42.018 7.65974C42.018 7.7498 42.0003 7.83897 41.9658 7.92216C41.9313 8.00535 41.8808 8.08092 41.8171 8.14457L41.6912 8.26111L41.3463 8.57811L40.2229 9.59438L36.96 12.5033L32.3592 16.6197L36.4752 12.0185L39.3838 8.75526L40.4 7.63177L40.717 7.2868L40.8335 7.16093C40.8972 7.09722 40.9727 7.04668 41.0559 7.01219C41.1391 6.97771 41.2283 6.95996 41.3183 6.95996C41.4083 6.95996 41.4975 6.97771 41.5807 7.01219C41.6639 7.04668 41.7394 7.09722 41.8031 7.16093L41.8171 7.17492Z" fill="#4FA6D3"/>
<path fill-rule="evenodd" clip-rule="evenodd" d="M45.7136 12.2462C45.8032 12.4034 45.827 12.5896 45.7798 12.7643C45.7327 12.9389 45.6184 13.0879 45.4618 13.1786L43.1312 14.3953L38.3906 16.8754L31.6456 20.3717L38.0457 16.2787L42.5672 13.3977L44.7766 11.9991C44.9338 11.9095 45.12 11.8857 45.2946 11.9329C45.4693 11.98 45.6182 12.0943 45.7089 12.2509L45.7136 12.2462Z" fill="#3C8DBB"/>
<path fill-rule="evenodd" clip-rule="evenodd" d="M48.1657 18.1579C48.2148 18.3316 48.1934 18.5176 48.1061 18.6756C48.0188 18.8336 47.8727 18.9508 47.6996 19.0017L45.024 19.5797L39.5702 20.7965L31.8324 22.5306L39.3884 20.1485L44.721 18.4749L47.322 17.6684C47.4957 17.6193 47.6817 17.6408 47.8397 17.728C47.9977 17.8153 48.1148 17.9614 48.1657 18.1346V18.1579Z" fill="#3472A1"/>
<path fill-rule="evenodd" clip-rule="evenodd" d="M41.4486 24.4978C41.4462 24.6779 41.3729 24.8498 41.2447 24.9763C41.1164 25.1028 40.9435 25.1738 40.7634 25.1737H40.6142C40.0083 25.1737 29.8326 24.4978 29.8326 24.4978C29.8326 24.4978 40.0129 23.8311 40.6189 23.8125H40.7681C40.9498 23.8125 41.1241 23.8847 41.2526 24.0132C41.3811 24.1417 41.4533 24.316 41.4533 24.4978H41.4486Z" fill="#2E598A"/>
<path fill-rule="evenodd" clip-rule="evenodd" d="M35.0487 27.3274C34.9978 27.5005 34.8806 27.6466 34.7226 27.7339C34.5647 27.8212 34.3786 27.8426 34.205 27.7935L34.0605 27.7562C33.7994 27.663 29.4504 25.8076 29.4504 25.8076C29.4504 25.8076 34.1444 26.3764 34.4147 26.4276L34.5592 26.4649C34.7313 26.5159 34.8766 26.6323 34.9637 26.7892C35.0509 26.9461 35.073 27.131 35.0254 27.304L35.0487 27.3274Z" fill="#28436F"/>
<path fill-rule="evenodd" clip-rule="evenodd" d="M3.26313 12.247C3.35383 12.0904 3.50274 11.9761 3.67739 11.929C3.85203 11.8818 4.03824 11.9056 4.1954 11.9952L4.32591 12.0698C4.43312 12.1537 6.04129 13.8553 6.04129 13.8553C6.04129 13.8553 3.76189 13.3099 3.63603 13.2586L3.50552 13.184C3.349 13.0933 3.23469 12.9444 3.18754 12.7697C3.14038 12.595 3.1642 12.4088 3.2538 12.2516L3.26313 12.247Z" fill="#CBE9F9"/>
<path fill-rule="evenodd" clip-rule="evenodd" d="M7.17369 7.17461C7.23733 7.11089 7.3129 7.06035 7.39608 7.02587C7.47926 6.99138 7.56843 6.97363 7.65847 6.97363C7.74852 6.97363 7.83768 6.99138 7.92086 7.02587C8.00404 7.06035 8.07961 7.11089 8.14325 7.17461L8.25046 7.28183C8.38564 7.44965 10.4693 10.4705 10.4693 10.4705C10.4693 10.4705 7.45803 8.39133 7.2809 8.25148L7.17369 8.14426C7.10999 8.08061 7.05945 8.00504 7.02497 7.92185C6.99049 7.83866 6.97274 7.74948 6.97274 7.65943C6.97274 7.56938 6.99049 7.48021 7.02497 7.39702C7.05945 7.31383 7.10999 7.23825 7.17369 7.17461Z" fill="#B7E1F7"/>
<path fill-rule="evenodd" clip-rule="evenodd" d="M12.2454 3.26282C12.4025 3.17321 12.5887 3.14938 12.7634 3.19654C12.938 3.2437 13.087 3.35802 13.1777 3.51456L13.2522 3.64509C13.3781 3.90615 15.2147 8.41875 15.2147 8.41875C15.2147 8.41875 12.2314 4.5821 12.0729 4.34435L11.9937 4.19518C11.9041 4.03801 11.8802 3.85178 11.9274 3.67712C11.9746 3.50246 12.0889 3.35353 12.2454 3.26282Z" fill="#A5DBF7"/>
<path fill-rule="evenodd" clip-rule="evenodd" d="M18.1561 0.83028C18.3292 0.782603 18.514 0.80473 18.6709 0.891903C18.8278 0.979077 18.9442 1.12434 18.9952 1.29646L19.0324 1.44097C19.1024 1.78595 19.9647 7.65047 19.9647 7.65047C19.9647 7.65047 17.8205 2.14956 17.7133 1.81392L17.676 1.6694C17.6283 1.49635 17.6504 1.31149 17.7376 1.15458C17.8248 0.997669 17.97 0.881224 18.1421 0.83028H18.1561Z" fill="#93D5F6"/>
<path fill-rule="evenodd" clip-rule="evenodd" d="M0.815998 18.3347C0.815998 18.1992 0.856185 18.0667 0.931478 17.954C1.00677 17.8413 1.11379 17.7534 1.23899 17.7016C1.3642 17.6497 1.50198 17.6361 1.63489 17.6626C1.76781 17.689 1.88991 17.7543 1.98574 17.8501C2.08157 17.946 2.14683 18.0681 2.17327 18.201C2.1997 18.3339 2.18614 18.4717 2.13427 18.5969C2.08241 18.7222 1.99458 18.8292 1.8819 18.9045C1.76922 18.9798 1.63674 19.02 1.50121 19.02C1.31948 19.02 1.1452 18.9478 1.01669 18.8193C0.88819 18.6907 0.815998 18.5164 0.815998 18.3347Z" fill="#DBEFFA"/>
<path fill-rule="evenodd" clip-rule="evenodd" d="M37.1275 8.47539C37.1912 8.53903 37.2418 8.61461 37.2762 8.6978C37.3107 8.78099 37.3285 8.87016 37.3285 8.96021C37.3285 9.05027 37.3107 9.13944 37.2762 9.22263C37.2418 9.30582 37.1912 9.38139 37.1275 9.44504L37.0203 9.55226C36.8012 9.74339 32.895 12.7083 32.895 12.7083C32.895 12.7083 35.8596 8.80171 36.0507 8.58261L36.158 8.47539C36.2216 8.41167 36.2972 8.36113 36.3803 8.32665C36.4635 8.29216 36.5527 8.27441 36.6427 8.27441C36.7328 8.27441 36.8219 8.29216 36.9051 8.32665C36.9883 8.36113 37.0639 8.41167 37.1275 8.47539Z" fill="#EF7F26"/>
<path fill-rule="evenodd" clip-rule="evenodd" d="M32.056 5.5433C32.2281 5.59425 32.3734 5.71069 32.4605 5.86761C32.5477 6.02452 32.5698 6.20937 32.5222 6.38242L32.4849 6.52694C32.3916 6.80199 30.4852 11.3332 30.4852 11.3332C30.4852 11.3332 31.1051 6.45701 31.1564 6.17264L31.1937 6.02813C31.2446 5.85496 31.3617 5.70888 31.5197 5.62159C31.6777 5.53431 31.8637 5.51288 32.0374 5.56195L32.056 5.5433Z" fill="#F6A31B"/>
<path fill-rule="evenodd" clip-rule="evenodd" d="M24.4953 8.3916C24.7871 8.3916 25.0669 8.50751 25.2732 8.71384C25.4795 8.92016 25.5954 9.2 25.5954 9.49178C25.5954 9.49178 25.5954 9.49178 25.5954 9.73419C25.5954 9.97661 24.4953 13.4356 24.4953 13.4356C24.4953 13.4356 23.4325 9.94397 23.3953 9.73419C23.358 9.52441 23.3953 9.50111 23.3953 9.49178C23.3953 9.2 23.5112 8.92016 23.7175 8.71384C23.9238 8.50751 24.2036 8.3916 24.4953 8.3916Z" fill="#F29229"/>
<path fill-rule="evenodd" clip-rule="evenodd" d="M28.3553 10.1067C28.4776 10.1391 28.5923 10.1954 28.6927 10.2724C28.7932 10.3493 28.8775 10.4453 28.9407 10.5549C29.004 10.6645 29.0449 10.7855 29.0613 10.911C29.0776 11.0365 29.0689 11.164 29.0358 11.2861L28.9799 11.4912C28.9007 11.673 27.1433 14.6333 27.1433 14.6333C27.1433 14.6333 27.1014 11.1882 27.1433 10.9924L27.1993 10.7873C27.2317 10.665 27.288 10.5503 27.3649 10.4498C27.4418 10.3493 27.5379 10.2651 27.6474 10.2018C27.757 10.1386 27.8781 10.0976 28.0035 10.0813C28.129 10.0649 28.2565 10.0736 28.3786 10.1067H28.3553Z" fill="#F29229"/>
<path fill-rule="evenodd" clip-rule="evenodd" d="M31.3429 12.6384C31.4994 12.7291 31.6137 12.878 31.6609 13.0527C31.7081 13.2273 31.6842 13.4135 31.5946 13.5707L31.52 13.7012C31.4035 13.8597 29.1894 16.3631 29.1894 16.3631C29.1894 16.3631 30.2522 13.1931 30.3314 13.0113L30.406 12.8808C30.4967 12.7242 30.6456 12.6099 30.8202 12.5628C30.9949 12.5156 31.1811 12.5394 31.3383 12.629L31.3429 12.6384Z" fill="#F29229"/>
<path fill-rule="evenodd" clip-rule="evenodd" d="M7.17391 41.8205C6.92186 41.5597 6.78097 41.2112 6.78097 40.8485C6.78097 40.4858 6.92186 40.1373 7.17391 39.8765L7.38833 39.6667C7.53283 39.5828 10.4089 38.5898 10.4089 38.5898C10.4089 38.5898 9.41601 41.4662 9.32278 41.6107L9.11302 41.8251C8.85227 42.0772 8.50379 42.2181 8.14113 42.2181C7.77847 42.2181 7.43 42.0772 7.16924 41.8251L7.17391 41.8205Z" fill="#E64123"/>
<path fill-rule="evenodd" clip-rule="evenodd" d="M32.0701 16.9266C32.1338 16.9902 32.1843 17.0658 32.2188 17.149C32.2533 17.2322 32.271 17.3213 32.271 17.4114C32.271 17.5014 32.2533 17.5906 32.2188 17.6738C32.1843 17.757 32.1338 17.8326 32.0701 17.8962L31.9629 18.0034C31.865 18.0734 29.9911 19.0057 29.9911 19.0057C29.9911 19.0057 30.9234 17.141 30.9933 17.0338L31.1005 16.9266C31.1642 16.8628 31.2397 16.8123 31.3229 16.7778C31.4061 16.7433 31.4953 16.7256 31.5853 16.7256C31.6753 16.7256 31.7645 16.7433 31.8477 16.7778C31.9309 16.8123 32.0064 16.8628 32.0701 16.9266Z" fill="#EF7F26"/>
<path fill-rule="evenodd" clip-rule="evenodd" d="M3.26282 36.7484C3.09085 36.4325 3.04721 36.0624 3.14096 35.7152C3.23472 35.3679 3.45865 35.0701 3.76624 34.8837L4.02728 34.7345C4.24636 34.6553 8.2691 33.8721 8.2691 33.8721C8.2691 33.8721 5.5795 36.9628 5.40237 37.1353L5.14134 37.2845C4.82545 37.4565 4.45544 37.5001 4.10821 37.4064C3.76097 37.3126 3.46322 37.0886 3.2768 36.781L3.26282 36.7484Z" fill="#E84D22"/>
<path fill-rule="evenodd" clip-rule="evenodd" d="M0.829644 30.8421C0.741829 30.4906 0.79382 30.1188 0.974668 29.8049C1.15552 29.4909 1.45111 29.2595 1.7992 29.1592L2.08821 29.0799C2.37721 29.0473 7.40679 29.0799 7.40679 29.0799C7.40679 29.0799 3.06709 31.6206 2.79673 31.7325L2.50773 31.8117C2.15628 31.8996 1.78447 31.8476 1.4706 31.6667C1.15672 31.4858 0.925268 31.1902 0.824983 30.8421H0.829644Z" fill="#EA5E22"/>
<path fill-rule="evenodd" clip-rule="evenodd" d="M0 24.4973C0.00599834 24.1344 0.1528 23.7881 0.409391 23.5315C0.665983 23.2749 1.01227 23.1281 1.37509 23.1221H1.67808C2.01836 23.164 7.77045 24.4973 7.77045 24.4973C7.77045 24.4973 2.01836 25.8306 1.67342 25.8725H1.37509C1.01227 25.8665 0.665983 25.7197 0.409391 25.4631C0.1528 25.2065 0.00599834 24.8602 0 24.4973H0Z" fill="#ED6E24"/>
<path fill-rule="evenodd" clip-rule="evenodd" d="M2.4752 18.5963C2.57549 18.2482 2.80694 17.9526 3.12081 17.7717C3.43469 17.5909 3.8065 17.5389 4.15795 17.6267L4.44695 17.7059C4.73129 17.8271 9.35534 20.4424 9.35534 20.4424C9.35534 20.4424 4.04607 20.3958 3.7291 20.3585L3.44942 20.2792C3.10133 20.1789 2.80574 19.9475 2.62489 19.6336C2.44404 19.3197 2.39205 18.9478 2.47986 18.5963H2.4752Z" fill="#EF7F26"/>
<path fill-rule="evenodd" clip-rule="evenodd" d="M6.13447 13.8963C6.32088 13.5887 6.61864 13.3648 6.96587 13.271C7.31311 13.1772 7.68311 13.2209 7.99901 13.3929L8.26004 13.5421C8.47912 13.7145 11.8213 17.1829 11.8213 17.1829C11.8213 17.1829 7.15996 16.0221 6.88961 15.9196L6.62857 15.7704C6.32098 15.584 6.09704 15.2862 6.00329 14.9389C5.90954 14.5916 5.95318 14.2216 6.12515 13.9057L6.13447 13.8963Z" fill="#F29229"/>
<path fill-rule="evenodd" clip-rule="evenodd" d="M10.5673 10.5678C10.828 10.3157 11.1765 10.1748 11.5392 10.1748C11.9018 10.1748 12.2503 10.3157 12.5111 10.5678L12.7208 10.7822C12.8653 10.9873 14.879 14.8846 14.879 14.8846C14.879 14.8846 10.9821 12.8707 10.777 12.7262L10.5626 12.5164C10.3106 12.2556 10.1697 11.9071 10.1697 11.5444C10.1697 11.1817 10.3106 10.8332 10.5626 10.5724L10.5673 10.5678Z" fill="#F29229"/>
<path fill-rule="evenodd" clip-rule="evenodd" d="M15.3127 8.59209C15.6286 8.42011 15.9986 8.37646 16.3458 8.47023C16.693 8.56399 16.9908 8.78795 17.1772 9.09557L17.3264 9.35663C17.4149 9.57107 18.1794 13.5196 18.1794 13.5196C18.1794 13.5196 15.1309 10.8997 14.9817 10.7225L14.8325 10.4615C14.6606 10.1455 14.6169 9.77551 14.7107 9.42824C14.8044 9.08097 15.0284 8.78318 15.336 8.59676L15.3127 8.59209Z" fill="#F29229"/>
<path fill-rule="evenodd" clip-rule="evenodd" d="M20.0439 7.87836C20.2009 7.83611 20.3647 7.82528 20.5259 7.84649C20.6872 7.8677 20.8426 7.92054 20.9833 8.00196C21.1241 8.08339 21.2474 8.1918 21.3461 8.32099C21.4449 8.45017 21.5172 8.59759 21.5588 8.75477L21.6288 9.01583C21.6474 9.23494 21.4423 13.0529 21.4423 13.0529C21.4423 13.0529 19.3447 9.85495 19.2515 9.6545L19.1815 9.39344C19.0957 9.07818 19.1383 8.74177 19.2999 8.45782C19.4615 8.17387 19.729 7.96552 20.0439 7.87836Z" fill="#F29229"/>
<path fill-rule="evenodd" clip-rule="evenodd" d="M11.4996 44.4963C11.4996 44.2243 11.5802 43.9584 11.7313 43.7323C11.8824 43.5061 12.0972 43.3299 12.3485 43.2258C12.5997 43.1217 12.8762 43.0945 13.143 43.1475C13.4097 43.2006 13.6547 43.3316 13.847 43.5239C14.0393 43.7162 14.1703 43.9613 14.2234 44.228C14.2764 44.4948 14.2492 44.7713 14.1451 45.0226C14.041 45.2739 13.8648 45.4887 13.6386 45.6398C13.4125 45.7909 13.1467 45.8716 12.8747 45.8716C12.51 45.8716 12.1602 45.7267 11.9023 45.4688C11.6445 45.2109 11.4996 44.8611 11.4996 44.4963Z" fill="#E53524"/>
<path fill-rule="evenodd" clip-rule="evenodd" d="M24.4955 38.8279C24.2037 38.8279 23.9239 38.712 23.7176 38.5056C23.5113 38.2993 23.3954 38.0195 23.3954 37.7277C23.3954 37.7277 23.3954 37.7277 23.3954 37.4853C23.4281 37.0517 24.4955 29.7188 24.4955 29.7188C24.4955 29.7188 25.5583 37.0471 25.5956 37.4853C25.5956 37.7044 25.5956 37.7184 25.5956 37.7277C25.5956 38.0195 25.4797 38.2993 25.2734 38.5056C25.0671 38.712 24.7873 38.8279 24.4955 38.8279Z" fill="#F29229"/>
<path fill-rule="evenodd" clip-rule="evenodd" d="M21.3442 36.269C21.2219 36.2366 21.1072 36.1802 21.0068 36.1033C20.9063 36.0264 20.822 35.9304 20.7588 35.8208C20.6955 35.7112 20.6546 35.5902 20.6382 35.4647C20.6219 35.3392 20.6305 35.2117 20.6636 35.0896L20.7196 34.8845C20.8315 34.5768 23.1621 29.4814 23.1621 29.4814C23.1621 29.4814 22.6307 35.0756 22.5748 35.3833L22.5189 35.5884C22.4864 35.7107 22.4301 35.8254 22.3532 35.9259C22.2763 36.0263 22.1803 36.1106 22.0707 36.1739C21.9611 36.2371 21.8401 36.2781 21.7146 36.2944C21.5891 36.3107 21.4617 36.3021 21.3395 36.269H21.3442Z" fill="#F6A31B"/>
<path fill-rule="evenodd" clip-rule="evenodd" d="M19.6989 32.814C19.5128 32.7048 19.3768 32.5271 19.3201 32.3188C19.2635 32.1105 19.2907 31.8883 19.3959 31.6999L19.4845 31.546C19.6057 31.3875 21.955 28.9121 21.955 28.9121C21.955 28.9121 20.9761 32.166 20.9109 32.3525L20.8223 32.511C20.7682 32.6051 20.6961 32.6875 20.6101 32.7537C20.5241 32.8198 20.4259 32.8684 20.3211 32.8965C20.2164 32.9247 20.1071 32.9319 19.9995 32.9177C19.8919 32.9036 19.7882 32.8683 19.6943 32.814H19.6989Z" fill="#F9B311"/>
<path fill-rule="evenodd" clip-rule="evenodd" d="M19.2187 29.7752C19.155 29.7116 19.1045 29.636 19.07 29.5528C19.0355 29.4696 19.0178 29.3804 19.0178 29.2904C19.0178 29.2003 19.0355 29.1111 19.07 29.028C19.1045 28.9448 19.155 28.8692 19.2187 28.8055L19.3259 28.6983C19.4052 28.647 20.9527 28.041 20.9527 28.041C20.9527 28.041 20.3468 29.5887 20.2955 29.668L20.1883 29.7752C20.1246 29.8389 20.0491 29.8894 19.9659 29.9239C19.8827 29.9584 19.7935 29.9762 19.7035 29.9762C19.6134 29.9762 19.5243 29.9584 19.4411 29.9239C19.3579 29.8894 19.2823 29.8389 19.2187 29.7752Z" fill="#FCC30D"/>
<path fill-rule="evenodd" clip-rule="evenodd" d="M49.0002 24.4973C48.9942 24.8602 48.8474 25.2065 48.5908 25.4631C48.3342 25.7197 47.988 25.8665 47.6251 25.8725H47.3221C47.0052 25.8306 41.6493 24.4973 41.6493 24.4973C41.6493 24.4973 47.0052 23.164 47.3221 23.1221H47.6251C47.988 23.1281 48.3342 23.2749 48.5908 23.5315C48.8474 23.7881 48.9942 24.1344 49.0002 24.4973Z" fill="#E53824"/>
<path fill-rule="evenodd" clip-rule="evenodd" d="M42.544 34.921C42.3576 35.2286 42.0599 35.4526 41.7126 35.5463C41.3654 35.6401 40.9954 35.5964 40.6795 35.4245L40.4185 35.2753C39.7752 34.8557 29.2313 27.2197 29.2313 27.2197C29.2313 27.2197 41.1223 32.5481 41.8169 32.8978L42.0779 33.047C42.3855 33.2334 42.6094 33.5312 42.7032 33.8784C42.7969 34.2257 42.7533 34.5957 42.5813 34.9117L42.544 34.921Z" fill="#E84D22"/>
<path fill-rule="evenodd" clip-rule="evenodd" d="M37.8408 37.8446C37.5801 38.0967 37.2316 38.2376 36.8689 38.2376C36.5063 38.2376 36.1578 38.0967 35.897 37.8446L35.6873 37.6302C35.2491 37.1314 28.2944 28.3066 28.2944 28.3066C28.2944 28.3066 37.1509 35.262 37.6171 35.7002L37.8315 35.91C38.0836 36.1708 38.2244 36.5193 38.2244 36.882C38.2244 37.2447 38.0836 37.5932 37.8315 37.854L37.8408 37.8446Z" fill="#EA5E22"/>
<path fill-rule="evenodd" clip-rule="evenodd" d="M33.1327 39.4527C32.8168 39.6247 32.4468 39.6683 32.0996 39.5745C31.7524 39.4808 31.4546 39.2568 31.2682 38.9492L31.1051 38.6928C30.8533 38.1707 27.1569 29.1035 27.1569 29.1035C27.1569 29.1035 33.156 36.8281 33.4823 37.2943L33.6315 37.5553C33.8035 37.8712 33.8471 38.2413 33.7534 38.5886C33.6596 38.9358 33.4357 39.2336 33.1281 39.42L33.1327 39.4527Z" fill="#ED6E24"/>
<path fill-rule="evenodd" clip-rule="evenodd" d="M28.6068 39.8352C28.4498 39.8775 28.286 39.8883 28.1248 39.8671C27.9636 39.8459 27.8081 39.7931 27.6674 39.7116C27.5266 39.6302 27.4033 39.5218 27.3046 39.3926C27.2058 39.2634 27.1335 39.116 27.0919 38.9588L27.0359 38.6931C26.9427 38.1896 25.8753 29.584 25.8753 29.584C25.8753 29.584 29.2547 37.5696 29.4226 38.0544L29.4925 38.3155C29.5347 38.4725 29.5455 38.6364 29.5243 38.7976C29.5031 38.9588 29.4503 39.1143 29.3689 39.255C29.2875 39.3958 29.1791 39.5191 29.0499 39.6179C28.9207 39.7166 28.7733 39.7889 28.6161 39.8306L28.6068 39.8352Z" fill="#EF7F26"/>
<path fill-rule="evenodd" clip-rule="evenodd" d="M46.5294 30.4042C46.4291 30.7523 46.1977 31.048 45.8838 31.2288C45.5699 31.4097 45.1981 31.4617 44.8467 31.3739L44.5577 31.2946C44.0356 31.1128 35.3841 27.416 35.3841 27.416C35.3841 27.416 44.7068 28.5395 45.2708 28.6421L45.5598 28.7167C45.9079 28.8169 46.2035 29.0484 46.3844 29.3623C46.5652 29.6762 46.6172 30.0481 46.5294 30.3996V30.4042Z" fill="#E64123"/>
<path fill-rule="evenodd" clip-rule="evenodd" d="M24.4955 49.0002C24.1326 48.9942 23.7864 48.8473 23.5298 48.5907C23.2732 48.3341 23.1264 47.9878 23.1204 47.6249C23.1204 47.6249 23.1204 47.597 23.1204 47.3219C23.1623 46.8557 24.4955 39.1172 24.4955 39.1172C24.4955 39.1172 25.824 46.8651 25.8706 47.3219C25.8706 47.5923 25.8706 47.611 25.8706 47.6249C25.8646 47.9878 25.7178 48.3341 25.4612 48.5907C25.2046 48.8473 24.8583 48.9942 24.4955 49.0002Z" fill="#FDE002"/>
<path fill-rule="evenodd" clip-rule="evenodd" d="M24.4951 13.5801C24.676 13.5825 24.8486 13.6565 24.9752 13.7857C25.1018 13.915 25.1722 14.0891 25.171 14.27C25.171 14.27 25.171 14.27 25.171 14.4192C25.171 14.6989 24.4857 19.37 24.4857 19.37C24.4857 19.37 23.8192 14.7082 23.8005 14.4192C23.8005 14.284 23.8005 14.2747 23.8005 14.27C23.8005 14.0883 23.8727 13.914 24.0012 13.7855C24.1297 13.6569 24.304 13.5847 24.4857 13.5847L24.4951 13.5801Z" fill="#F6A31B"/>
<path fill-rule="evenodd" clip-rule="evenodd" d="M18.1557 48.1701C17.8077 48.0698 17.5121 47.8383 17.3312 47.5244C17.1504 47.2105 17.0984 46.8386 17.1862 46.4872L17.2654 46.1981C17.4565 45.6527 21.2555 36.6182 21.2555 36.6182C21.2555 36.6182 20.0436 46.338 19.9131 46.9067L19.8385 47.1957C19.7382 47.5439 19.5068 47.8395 19.1929 48.0204C18.879 48.2012 18.5072 48.2532 18.1557 48.1654V48.1701Z" fill="#FBEA09"/>
<path fill-rule="evenodd" clip-rule="evenodd" d="M13.8674 42.8884C13.5598 42.7019 13.3359 42.4042 13.2421 42.0569C13.1484 41.7096 13.192 41.3396 13.364 41.0237L13.5131 40.7626C13.8254 40.3244 19.5263 33.0986 19.5263 33.0986C19.5263 33.0986 16.1281 41.653 15.8951 42.1425L15.7459 42.4035C15.5595 42.7112 15.2617 42.9351 14.9145 43.0289C14.5673 43.1227 14.1973 43.079 13.8814 42.907L13.8674 42.8884Z" fill="#FBEA09"/>
<path fill-rule="evenodd" clip-rule="evenodd" d="M10.4786 38.5206C10.2266 38.2598 10.0857 37.9113 10.0857 37.5486C10.0857 37.1859 10.2266 36.8374 10.4786 36.5766L10.6931 36.3668C11.1312 35.9892 18.9669 30.0361 18.9669 30.0361C18.9669 30.0361 13.0144 37.8633 12.6322 38.3061L12.4224 38.5206C12.1617 38.7726 11.8132 38.9136 11.4505 38.9136C11.0879 38.9136 10.7394 38.7726 10.4786 38.5206Z" fill="#FBEA09"/>
<path fill-rule="evenodd" clip-rule="evenodd" d="M8.39038 33.7888C8.21842 33.4729 8.17477 33.1028 8.26853 32.7556C8.36228 32.4083 8.58622 32.1105 8.89381 31.9241L9.15484 31.7749C9.73751 31.4859 19.8386 27.1924 19.8386 27.1924C19.8386 27.1924 11.066 33.7935 10.516 34.1571L10.2549 34.3063C9.93903 34.4782 9.56902 34.5219 9.22179 34.4281C8.87455 34.3344 8.57679 34.1104 8.39038 33.8028V33.7888Z" fill="#FBEA09"/>
<path fill-rule="evenodd" clip-rule="evenodd" d="M7.57921 29.0337C7.49139 28.6823 7.54338 28.3104 7.72423 27.9965C7.90508 27.6826 8.20067 27.4511 8.54876 27.3508L8.85641 27.2716C9.43908 27.1597 19.3677 25.873 19.3677 25.873C19.3677 25.873 10.1243 29.7283 9.57892 29.9195L9.28992 29.9987C8.93847 30.0865 8.56666 30.0346 8.25279 29.8537C7.93891 29.6728 7.70746 29.3772 7.60717 29.0291L7.57921 29.0337Z" fill="#FBEA09"/>
<path fill-rule="evenodd" clip-rule="evenodd" d="M7.98022 24.4973C7.98622 24.1344 8.13302 23.7881 8.38961 23.5315C8.6462 23.2749 8.99249 23.1281 9.35531 23.1221H9.6583C10.1944 23.164 19.214 24.4973 19.214 24.4973C19.214 24.4973 10.1944 25.8259 9.6583 25.8725H9.35531C8.99249 25.8665 8.6462 25.7197 8.38961 25.4631C8.13302 25.2065 7.98622 24.8602 7.98022 24.4973Z" fill="#FBEA09"/>
<path fill-rule="evenodd" clip-rule="evenodd" d="M9.54196 20.5114C9.64225 20.1632 9.8737 19.8676 10.1876 19.6868C10.5015 19.5059 10.8733 19.4539 11.2247 19.5417L11.5137 19.621C11.9798 19.7841 19.438 23.1593 19.438 23.1593C19.438 23.1593 11.2946 22.3528 10.8192 22.2735L10.5302 22.1989C10.1776 22.1026 9.87678 21.872 9.69209 21.5566C9.50739 21.2412 9.4535 20.866 9.54196 20.5114Z" fill="#FBEA09"/>
<path fill-rule="evenodd" clip-rule="evenodd" d="M11.9844 17.2718C12.0643 17.1301 12.1715 17.0056 12.2996 16.9055C12.4278 16.8053 12.5745 16.7315 12.7313 16.6882C12.8881 16.6448 13.0519 16.6329 13.2133 16.6531C13.3747 16.6732 13.5305 16.7251 13.6718 16.8056L13.9049 16.9408C14.2591 17.1879 19.9646 21.8683 19.9646 21.8683C19.9646 21.8683 13.0518 19.281 12.6696 19.1132L12.4365 18.978C12.2949 18.8981 12.1704 18.7909 12.0703 18.6627C11.9701 18.5346 11.8963 18.3879 11.853 18.2311C11.8097 18.0743 11.7977 17.9105 11.8179 17.749C11.838 17.5876 11.8899 17.4318 11.9704 17.2904L11.9844 17.2718Z" fill="#FDE002"/>
<path fill-rule="evenodd" clip-rule="evenodd" d="M45.7138 36.7486C45.6597 36.8426 45.5876 36.9251 45.5016 36.9912C45.4156 37.0574 45.3174 37.1059 45.2127 37.1341C45.1079 37.1622 44.9986 37.1694 44.891 37.1553C44.7835 37.1411 44.6797 37.1059 44.5858 37.0516L44.432 36.963C44.3201 36.8698 42.6234 34.9678 42.6234 34.9678C42.6234 34.9678 45.1172 35.4852 45.257 35.5365L45.4155 35.6251C45.5096 35.6792 45.592 35.7513 45.6582 35.8373C45.7243 35.9233 45.7728 36.0215 45.801 36.1263C45.8291 36.2311 45.8363 36.3404 45.8222 36.448C45.808 36.5556 45.7728 36.6593 45.7185 36.7532L45.7138 36.7486Z" fill="#F6A31B"/>
<path fill-rule="evenodd" clip-rule="evenodd" d="M14.991 14.9924C15.1971 14.7871 15.4762 14.6719 15.7671 14.6719C16.058 14.6719 16.337 14.7871 16.5432 14.9924L16.711 15.1648C16.9627 15.4632 20.8223 20.8289 20.8223 20.8289C20.8223 20.8289 15.4571 16.969 15.1588 16.7172L14.9863 16.5494C14.7811 16.3432 14.6659 16.0641 14.6659 15.7732C14.6659 15.4823 14.7811 15.2032 14.9863 14.997L14.991 14.9924Z" fill="#FDD205"/>
<path fill-rule="evenodd" clip-rule="evenodd" d="M41.817 41.821C41.7278 41.9106 41.6217 41.9818 41.5049 42.0303C41.3881 42.0789 41.2629 42.1038 41.1364 42.1038C41.01 42.1038 40.8847 42.0789 40.768 42.0303C40.6512 41.9818 40.5451 41.9106 40.4559 41.821L40.3067 41.6718C40.1576 41.4807 37.9434 37.9424 37.9434 37.9424C37.9434 37.9424 41.4767 40.1567 41.6725 40.3059L41.8217 40.4551C41.9113 40.5443 41.9824 40.6504 42.031 40.7672C42.0795 40.884 42.1045 41.0092 42.1045 41.1357C42.1045 41.2622 42.0795 41.3874 42.031 41.5042C41.9824 41.621 41.9113 41.7271 41.8217 41.8163L41.817 41.821Z" fill="#F9B311"/>
<path fill-rule="evenodd" clip-rule="evenodd" d="M18.2306 13.6448C18.3401 13.5814 18.461 13.5403 18.5865 13.5238C18.7119 13.5073 18.8393 13.5158 18.9615 13.5487C19.0836 13.5816 19.1981 13.6384 19.2982 13.7157C19.3984 13.793 19.4823 13.8893 19.5451 13.9991L19.6476 14.1809C19.7968 14.4979 21.9084 20.0221 21.9084 20.0221C21.9084 20.0221 18.1793 15.4256 17.9789 15.1412L17.8717 14.9594C17.8083 14.8499 17.7672 14.729 17.7507 14.6035C17.7342 14.4781 17.7427 14.3506 17.7756 14.2285C17.8085 14.1063 17.8652 13.9919 17.9425 13.8917C18.0198 13.7915 18.1161 13.7076 18.2259 13.6448H18.2306Z" fill="#FCC30D"/>
<path fill-rule="evenodd" clip-rule="evenodd" d="M36.7453 45.718C36.493 45.8634 36.1933 45.9029 35.912 45.8278C35.6306 45.7526 35.3905 45.569 35.2444 45.317L35.1232 45.1073C34.9973 44.8136 33.2307 39.625 33.2307 39.625C33.2307 39.625 36.8385 43.746 37.0297 44.0071L37.1508 44.2169C37.2963 44.4692 37.3358 44.7689 37.2606 45.0503C37.1855 45.3317 37.0019 45.5718 36.75 45.718H36.7453Z" fill="#FCC30D"/>
<path fill-rule="evenodd" clip-rule="evenodd" d="M21.4422 13.1837C21.5469 13.1555 21.6561 13.1482 21.7636 13.1622C21.8711 13.1762 21.9748 13.2113 22.0687 13.2654C22.1627 13.3195 22.245 13.3916 22.3111 13.4776C22.3771 13.5636 22.4256 13.6617 22.4537 13.7664L22.5003 13.9389C22.5563 14.2466 23.1436 19.533 23.1436 19.533C23.1436 19.533 21.0367 14.6615 20.9295 14.3678L20.8829 14.1953C20.825 13.987 20.8512 13.7643 20.9558 13.5752C21.0604 13.386 21.2351 13.2454 21.4422 13.1837Z" fill="#F9B311"/>
<path fill-rule="evenodd" clip-rule="evenodd" d="M30.8394 48.1707C30.6823 48.2129 30.5185 48.2237 30.3573 48.2025C30.1961 48.1813 30.0407 48.1285 29.8999 48.0471C29.7592 47.9656 29.6359 47.8572 29.5371 47.728C29.4384 47.5989 29.3661 47.4514 29.3244 47.2943L29.2545 47.0332C29.1939 46.6509 28.6672 40.0918 28.6672 40.0918C28.6672 40.0918 31.5059 46.0542 31.6411 46.4132L31.711 46.6742C31.7533 46.8313 31.7641 46.9951 31.7429 47.1563C31.7217 47.3175 31.6689 47.473 31.5874 47.6138C31.506 47.7545 31.3976 47.8778 31.2684 47.9766C31.1393 48.0754 30.9919 48.1477 30.8347 48.1893L30.8394 48.1707Z" fill="#FDD205"/>
<path fill-rule="evenodd" clip-rule="evenodd" d="M46.8189 30.6648C46.8189 30.5292 46.859 30.3967 46.9343 30.284C47.0096 30.1714 47.1167 30.0835 47.2419 30.0317C47.3671 29.9798 47.5048 29.9662 47.6378 29.9927C47.7707 30.0191 47.8928 30.0844 47.9886 30.1802C48.0844 30.276 48.1497 30.3981 48.1761 30.5311C48.2026 30.664 48.189 30.8018 48.1371 30.927C48.0853 31.0522 47.9974 31.1593 47.8848 31.2346C47.7721 31.3099 47.6396 31.3501 47.5041 31.3501C47.3223 31.3501 47.1481 31.2779 47.0196 31.1493C46.8911 31.0208 46.8189 30.8465 46.8189 30.6648Z" fill="#F29229"/>
<path fill-rule="evenodd" clip-rule="evenodd" d="M27.5437 18.3349C27.5437 18.1717 27.5921 18.0122 27.6828 17.8765C27.7735 17.7408 27.9023 17.635 28.0531 17.5726C28.2038 17.5101 28.3697 17.4938 28.5298 17.5256C28.6898 17.5575 28.8368 17.636 28.9522 17.7514C29.0676 17.8668 29.1462 18.0139 29.178 18.1739C29.2098 18.334 29.1935 18.4999 29.1311 18.6507C29.0686 18.8014 28.9629 18.9303 28.8272 19.021C28.6915 19.1116 28.532 19.16 28.3688 19.16C28.15 19.16 27.9401 19.0731 27.7854 18.9184C27.6307 18.7636 27.5437 18.5537 27.5437 18.3349Z" fill="#80CFF4"/>
<path fill-rule="evenodd" clip-rule="evenodd" d="M27.1103 14.7503C27.2834 14.8012 27.4295 14.9184 27.5168 15.0764C27.6041 15.2344 27.6255 15.4204 27.5764 15.5941L27.5391 15.7386C27.4599 15.9577 25.8004 19.5753 25.8004 19.5753C25.8004 19.5753 26.1734 15.6128 26.2106 15.3797L26.2479 15.2352C26.2988 15.062 26.416 14.9159 26.574 14.8286C26.7319 14.7413 26.918 14.7199 27.0916 14.769L27.1103 14.7503Z" fill="#F29229"/>
<path fill-rule="evenodd" clip-rule="evenodd" d="M29.9817 23.7144C30.2702 22.8456 30.378 21.9271 30.2987 21.0152C30.2975 21.0049 30.2939 20.9949 30.2881 20.9863C30.2823 20.9776 30.2745 20.9705 30.2653 20.9655C30.2562 20.9605 30.246 20.9577 30.2356 20.9574C30.2252 20.9572 30.2149 20.9594 30.2055 20.9639C29.8391 21.1158 29.4434 21.1838 29.0474 21.1628C28.6514 21.1418 28.265 21.0325 27.9168 20.8427C27.9035 20.8346 27.8878 20.8314 27.8725 20.8338C27.8571 20.8362 27.8431 20.844 27.833 20.8558C27.8229 20.8676 27.8173 20.8826 27.8173 20.8982C27.8173 20.9137 27.8228 20.9288 27.8329 20.9406L29.8466 23.7377C29.852 23.7485 29.8603 23.7575 29.8706 23.7639C29.8809 23.7702 29.8927 23.7736 29.9048 23.7736C29.9169 23.7736 29.9288 23.7702 29.939 23.7639C29.9493 23.7575 29.9577 23.7485 29.9631 23.7377L29.9817 23.7144Z" fill="#E53524"/>
</g>
<defs>
<clipPath id="clip0">
<rect width="49" height="49" fill="white"/>
</clipPath>
</defs>
</svg>
