<?xml version="1.0" encoding="utf-8"?>
<!-- Generator: Adobe Illustrator 21.0.0, SVG Export Plug-In . SVG Version: 6.00 Build 0)  -->
<svg version="1.1" id="Слой_1" xmlns="http://www.w3.org/2000/svg" xmlns:xlink="http://www.w3.org/1999/xlink" x="0px" y="0px"
	 viewBox="0 0 60 54" style="enable-background:new 0 0 60 54;" xml:space="preserve">
<style type="text/css">
	.st0{fill:#0084FF;}
</style>
<path class="st0" d="M57,0H3C1.3,0,0,1.3,0,3v38c0,1.7,1.3,3,3,3h23v4h-8c-1.7,0-3,1.3-3,3v2c0,0.6,0.4,1,1,1h28c0.6,0,1-0.4,1-1v-2
	c0-1.7-1.3-3-3-3h-7v-4h22c1.7,0,3-1.3,3-3V3C60,1.3,58.7,0,57,0z M42,50c0.6,0,1,0.4,1,1v1H17v-1c0-0.6,0.4-1,1-1H42z M28,48v-4h5
	v4H28z M58,41c0,0.6-0.4,1-1,1H3c-0.6,0-1-0.4-1-1v-3h56V41z M58,36H2V8.1h56V36z M58,6.1H2V3c0-0.6,0.4-1,1-1h54c0.6,0,1,0.4,1,1
	V6.1z M5,12h2.2L10,25.2c0.1,0.5,0.5,0.8,1,0.8h12c0.5,0,0.9-0.3,1-0.8l2-10c0.1-0.5-0.2-1.1-0.8-1.2c-0.1,0-0.1,0-0.2,0H9.8L9,10.8
	C8.9,10.3,8.5,10,8,10H5c-0.6,0-1,0.4-1,1S4.4,12,5,12z M23.8,16l-1.6,8H11.8l-1.6-8H23.8z M13,27c-1.7,0-3,1.3-3,3s1.3,3,3,3
	s3-1.3,3-3S14.7,27,13,27z M13,31c-0.6,0-1-0.4-1-1s0.4-1,1-1s1,0.4,1,1S13.6,31,13,31z M22,27c-1.7,0-3,1.3-3,3s1.3,3,3,3
	s3-1.3,3-3S23.7,27,22,27z M22,31c-0.6,0-1-0.4-1-1s0.4-1,1-1s1,0.4,1,1S22.6,31,22,31z M31,15h18c0.6,0,1-0.4,1-1s-0.4-1-1-1H31
	c-0.6,0-1,0.4-1,1S30.4,15,31,15z M53,15h2c0.6,0,1-0.4,1-1s-0.4-1-1-1h-2c-0.6,0-1,0.4-1,1S52.4,15,53,15z M31,19h18
	c0.6,0,1-0.4,1-1s-0.4-1-1-1H31c-0.6,0-1,0.4-1,1S30.4,19,31,19z M53,19h2c0.6,0,1-0.4,1-1s-0.4-1-1-1h-2c-0.6,0-1,0.4-1,1
	S52.4,19,53,19z M31,23h18c0.6,0,1-0.4,1-1s-0.4-1-1-1H31c-0.6,0-1,0.4-1,1S30.4,23,31,23z M53,23h2c0.6,0,1-0.4,1-1s-0.4-1-1-1h-2
	c-0.6,0-1,0.4-1,1S52.4,23,53,23z M31,27h18c0.6,0,1-0.4,1-1s-0.4-1-1-1H31c-0.6,0-1,0.4-1,1S30.4,27,31,27z M53,27h2
	c0.6,0,1-0.4,1-1s-0.4-1-1-1h-2c-0.6,0-1,0.4-1,1S52.4,27,53,27z"/>
</svg>
