<?xml version="1.0" encoding="utf-8"?>
<!-- Generator: Adobe Illustrator 21.0.0, SVG Export Plug-In . SVG Version: 6.00 Build 0)  -->
<svg version="1.1" id="Слой_1" xmlns="http://www.w3.org/2000/svg" xmlns:xlink="http://www.w3.org/1999/xlink" x="0px" y="0px"
	 viewBox="0 0 68 61" style="enable-background:new 0 0 68 61;" xml:space="preserve">
<style type="text/css">
	.st0{fill:#0084FF;}
</style>
<path class="st0" d="M64.6,0H3.4C1.5,0,0,1.5,0,3.4v42.9c0,1.9,1.5,3.4,3.4,3.4h26.1v4.5h-9.1c-1.9,0-3.4,1.5-3.4,3.4v2.3
	c0,0.6,0.5,1.1,1.1,1.1h31.7c0.6,0,1.1-0.5,1.1-1.1v-2.3c0-1.9-1.5-3.4-3.4-3.4h-7.9v-4.5h24.9c1.9,0,3.4-1.5,3.4-3.4V3.4
	C68,1.5,66.5,0,64.6,0z M47.6,56.5c0.6,0,1.1,0.5,1.1,1.1v1.1H19.3v-1.1c0-0.6,0.5-1.1,1.1-1.1H47.6z M31.7,54.2v-4.5h5.7v4.5H31.7z
	 M65.7,46.3c0,0.6-0.5,1.1-1.1,1.1H3.4c-0.6,0-1.1-0.5-1.1-1.1v-3.4h63.5V46.3z M65.7,40.7H2.3V9.1h63.5V40.7z M65.7,6.9H2.3V3.4
	c0-0.6,0.5-1.1,1.1-1.1h61.2c0.6,0,1.1,0.5,1.1,1.1V6.9z M45.8,35H22.2c-1.6,0-3-1.3-3-2.9V17.5c0-1.6,1.3-2.9,3-2.9h23.5
	c1.6,0,3,1.3,3,2.9v14.6C48.8,33.8,47.4,35,45.8,35z M22.2,16.6c-0.5,0-1,0.4-1,1v14.6c0,0.5,0.5,1,1,1h23.5c0.5,0,1-0.4,1-1V17.5
	c0-0.5-0.5-1-1-1H22.2z M34,28.4c-0.3,0-0.5-0.1-0.7-0.3L20.2,16.9c-0.4-0.3-0.5-1-0.1-1.3c0.3-0.4,1-0.4,1.4-0.1L34,26.2l12.5-10.6
	c0.4-0.3,1.1-0.3,1.4,0.1c0.3,0.4,0.3,1-0.1,1.3L34.7,28.1C34.5,28.2,34.2,28.4,34,28.4z M20.5,34.1c-0.3,0-0.5-0.1-0.7-0.3
	c-0.4-0.4-0.3-1,0.1-1.3l9.4-8.5c0.4-0.4,1.1-0.3,1.4,0.1c0.4,0.4,0.3,1-0.1,1.3l-9.3,8.5C21,34,20.7,34.1,20.5,34.1z M47.5,34.1
	c-0.3,0-0.5-0.1-0.7-0.3l-9.4-8.5c-0.4-0.4-0.4-1-0.1-1.3c0.4-0.4,1-0.4,1.4-0.1l9.4,8.5c0.4,0.4,0.4,1,0.1,1.3
	C48.1,34,47.8,34.1,47.5,34.1z"/>
</svg>
