<svg xmlns="http://www.w3.org/2000/svg" viewBox="0 0 21 21"><defs><style>.cls-1{fill:#8d8d8d;}.cls-2{fill:#f12626;}</style></defs><title>50</title><g id="Слой_2" data-name="Слой 2"><g id="иконки"><path class="cls-1" d="M10.5,21a10.41,10.41,0,0,1-6-1.88.5.5,0,1,1,.57-.82,9.52,9.52,0,1,0-1.46-1.25.5.5,0,1,1-.72.69A10.41,10.41,0,0,1,0,10.5,10.5,10.5,0,1,1,10.5,21Z"/><path class="cls-2" d="M6.08,9.64a1.81,1.81,0,0,0-.77.16l0-1h2a.27.27,0,0,0,.27-.27V8.33a.27.27,0,0,0-.27-.27H4.88a.27.27,0,0,0-.27.26l-.1,2.41a.27.27,0,0,0,.2.28l.18,0a.27.27,0,0,0,.33-.16.89.89,0,0,1,.85-.5h.05a.75.75,0,0,1,.81.83v.11a.75.75,0,0,1-.81.83H6.05a.69.69,0,0,1-.77-.53.27.27,0,0,0-.26-.2H4.78a.27.27,0,0,0-.27.33,1.44,1.44,0,0,0,1.57,1.16A1.53,1.53,0,0,0,7.7,11.31v-.05A1.53,1.53,0,0,0,6.08,9.64Zm0,0ZM9.47,8A1.41,1.41,0,0,0,7.93,9.56v1.81a1.41,1.41,0,0,0,1.54,1.56A1.41,1.41,0,0,0,11,11.37V9.56A1.41,1.41,0,0,0,9.47,8Zm0,4.17h0c-.55,0-.75-.23-.75-.86V9.61c0-.63.2-.86.75-.86h0c.55,0,.75.23.75.86v1.7c0,.63-.2.86-.75.86Zm0,0Zm4.16-3.83a1.19,1.19,0,0,0-1.67,0,1.2,1.2,0,0,0-.34.83,1.17,1.17,0,0,0,2,.82A1.13,1.13,0,0,0,14,9.17,1.16,1.16,0,0,0,13.65,8.34Zm-.47,1.2a.5.5,0,0,1-.37.14.56.56,0,0,1-.37-.14.51.51,0,0,1-.14-.37.54.54,0,0,1,.14-.37.52.52,0,0,1,.37-.15.52.52,0,0,1,.52.52A.52.52,0,0,1,13.18,9.54ZM16.67,11a1.17,1.17,0,1,0,0,1.66A1.17,1.17,0,0,0,16.67,11Zm-.47,1.19a.51.51,0,0,1-.37.15.52.52,0,1,1,0-1,.52.52,0,0,1,.37.88Zm.32-3.91a.34.34,0,0,0-.47,0l-4,4a.31.31,0,0,0,0,.46.32.32,0,0,0,.22.1.33.33,0,0,0,.23-.1l4-4A.34.34,0,0,0,16.53,8.29Z"/></g></g></svg>