<?xml version="1.0" encoding="utf-8"?>
<!-- Generator: Adobe Illustrator 21.0.0, SVG Export Plug-In . SVG Version: 6.00 Build 0)  -->
<svg version="1.1" id="Слой_1" xmlns="http://www.w3.org/2000/svg" xmlns:xlink="http://www.w3.org/1999/xlink" x="0px" y="0px"
	 viewBox="0 0 50 50" style="enable-background:new 0 0 50 50;" xml:space="preserve">
<path d="M29.9,33.4c-0.4,0.4-0.9,0.4-1.3,0c-0.3-0.4-0.3-0.9,0-1.3l6.5-6.6H13.6c-0.5,0-0.9-0.4-0.9-0.9c0-0.5,0.4-0.9,0.9-0.9h21.5
	L28.6,17c-0.3-0.4-0.3-1,0-1.3c0.4-0.4,0.9-0.4,1.3,0l8,8.2c0.3,0.4,0.3,0.9,0,1.3L29.9,33.4z M25,50C11.2,50,0,38.8,0,25
	S11.2,0,25,0s25,11.2,25,25S38.8,50,25,50z M25,2C12.3,2,2,12.3,2,25c0,12.7,10.3,23,23,23c12.7,0,23-10.3,23-23
	C48,12.3,37.7,2,25,2z"/>
</svg>
