<svg width="20" height="14" viewBox="0 0 20 14" fill="none" xmlns="http://www.w3.org/2000/svg">
<g clip-path="url(#clip0)">
<path d="M13.4799 -0.789866C13.3438 -0.903367 13.1702 -0.961865 12.9932 -0.953866C12.8161 -0.945866 12.6485 -0.871948 12.5232 -0.746635C12.3979 -0.621322 12.3239 -0.453676 12.3159 -0.276638C12.3079 -0.0995992 12.3664 0.0740304 12.4799 0.210134L17.5799 5.29013H0.719942C0.625866 5.28881 0.532465 5.30619 0.445166 5.34128C0.357866 5.37637 0.278412 5.42846 0.21142 5.49452C0.144428 5.56058 0.0912323 5.6393 0.0549278 5.7261C0.0186234 5.8129 -6.67572e-05 5.90605 -5.72205e-05 6.00013C0.00257111 6.18935 0.079586 6.36993 0.214329 6.5028C0.349072 6.63567 0.530706 6.71015 0.719942 6.71013H17.5799L12.4699 11.7901C12.3404 11.9244 12.268 12.1036 12.268 12.2901C12.268 12.4767 12.3404 12.6559 12.4699 12.7901C12.6029 12.922 12.7826 12.996 12.9699 12.996C13.1572 12.996 13.337 12.922 13.4699 12.7901L19.7999 6.50013C19.9318 6.36715 20.0059 6.18744 20.0059 6.00013C20.0059 5.81283 19.9318 5.63311 19.7999 5.50013L13.4799 -0.789866Z" fill="black"/>
</g>
<defs>
<clipPath id="clip0">
<rect width="20" height="14" fill="white" transform="matrix(-1 0 0 1 20 0)"/>
</clipPath>
</defs>
</svg>
