<svg xmlns="http://www.w3.org/2000/svg" viewBox="0 0 20 19"><defs><style>.cls-1{fill:#8d8d8d;}.cls-2{fill:#f12626;}</style></defs><title>Ресурс 72</title><g id="Слой_2" data-name="Слой 2"><g id="иконки"><path class="cls-1" d="M13.76,8.47H6.24A.47.47,0,0,1,5.76,8V.47A.47.47,0,0,1,6.24,0h7.53a.47.47,0,0,1,.47.47V8A.47.47,0,0,1,13.76,8.47ZM6.71,7.53h6.59V.94H6.71ZM17.53,16H2.47A.47.47,0,0,1,2,15.53V8a.47.47,0,0,1,.47-.47H17.53A.47.47,0,0,1,18,8v7.53A.47.47,0,0,1,17.53,16ZM2.94,15.06H17.06V8.47H2.94ZM10.5,8h-1v8h1Z"/><path class="cls-2" d="M18.57,19H5.24a.5.5,0,0,1,0-1H18.57a.49.49,0,0,0,.48-.5v-1a.49.49,0,0,0-.48-.5H1.43a.49.49,0,0,0-.48.5v1a.49.49,0,0,0,.48.5h1.9a.5.5,0,0,1,0,1H1.43A1.47,1.47,0,0,1,0,17.5v-1A1.47,1.47,0,0,1,1.43,15H18.57A1.47,1.47,0,0,1,20,16.5v1A1.47,1.47,0,0,1,18.57,19Z"/></g></g></svg>