<svg xmlns="http://www.w3.org/2000/svg" viewBox="0 0 20 20"><defs><style>.cls-1{fill:#08d04c;}</style></defs><title>check_1</title><g id="Слой_2" data-name="Слой 2"><g id="иконки"><path class="cls-1" d="M10,0A10,10,0,1,0,20,10,10,10,0,0,0,10,0Zm4.37,7.29L8.66,13.37a.44.44,0,0,1-.31.13A.46.46,0,0,1,8,13.37l-2.4-2.53a.54.54,0,0,1-.1-.16.39.39,0,0,1,0-.18.41.41,0,0,1,0-.19.4.4,0,0,1,.1-.15.31.31,0,0,1,.15-.1.38.38,0,0,1,.34,0,.31.31,0,0,1,.15.1l2.07,2.19,5.39-5.71a.33.33,0,0,1,.14-.1.39.39,0,0,1,.18,0,.35.35,0,0,1,.17,0,.44.44,0,0,1,.15.1A.48.48,0,0,1,14.5,7,.46.46,0,0,1,14.37,7.29Z"/></g></g></svg>