<svg width="60" height="54" viewBox="0 0 60 54" fill="none" xmlns="http://www.w3.org/2000/svg">
<path d="M57 0H3C1.34312 0 0 1.34312 0 3V41C0 42.6569 1.34312 44 3 44H26V48H18C16.3431 48 15 49.3431 15 51V53C15 53.5522 15.4478 54 16 54H44C44.5522 54 45 53.5522 45 53V51C45 49.3431 43.6569 48 42 48H35V44H57C58.6569 44 60 42.6569 60 41V3C60 1.34312 58.6569 0 57 0ZM42 50C42.5522 50 43 50.4478 43 51V52H17V51C17 50.4478 17.4478 50 18 50H42ZM28 48V44H33V48H28ZM58 41C58 41.5522 57.5522 42 57 42H3C2.44775 42 2 41.5522 2 41V38H58V41ZM58 36H2V8.083H58V36ZM58 6.083H2V3C2 2.44775 2.44775 2 3 2H57C57.5522 2 58 2.44775 58 3V6.083Z" fill="#0F28BF"/>
<path d="M5 12H7.219L10.019 25.2C10.1141 25.666 10.5244 26.0006 11 26H23C23.4753 26.0001 23.885 25.6656 23.98 25.2L25.98 15.2C26.0905 14.6589 25.7414 14.1306 25.2003 14.0203C25.1344 14.0068 25.0673 14 25 14H9.78L8.97 10.758C8.85888 10.3126 8.459 10.0001 8 10H5C4.44775 10 4 10.4477 4 11C4 11.5523 4.44775 12 5 12ZM23.78 16L22.181 24H11.819L10.219 16H23.78Z" fill="#0F28BF"/>
<path d="M13 27C11.3431 27 10 28.3431 10 30C10 31.6569 11.3431 33 13 33C14.6569 33 16 31.6569 16 30C16 28.3431 14.6569 27 13 27ZM13 31C12.4478 31 12 30.5522 12 30C12 29.4478 12.4478 29 13 29C13.5523 29 14 29.4478 14 30C14 30.5522 13.5523 31 13 31Z" fill="#0F28BF"/>
<path d="M22 27C20.3431 27 19 28.3431 19 30C19 31.6569 20.3431 33 22 33C23.6569 33 25 31.6569 25 30C25 28.3431 23.6569 27 22 27ZM22 31C21.4478 31 21 30.5522 21 30C21 29.4478 21.4478 29 22 29C22.5522 29 23 29.4478 23 30C23 30.5522 22.5522 31 22 31Z" fill="#0F28BF"/>
<path d="M31 15H49C49.5522 15 50 14.5523 50 14C50 13.4478 49.5522 13 49 13H31C30.4477 13 30 13.4478 30 14C30 14.5523 30.4477 15 31 15Z" fill="#0F28BF"/>
<path d="M53 15H55C55.5522 15 56 14.5523 56 14C56 13.4478 55.5522 13 55 13H53C52.4477 13 52 13.4478 52 14C52 14.5523 52.4477 15 53 15Z" fill="#0F28BF"/>
<path d="M31 19H49C49.5522 19 50 18.5523 50 18C50 17.4477 49.5522 17 49 17H31C30.4477 17 30 17.4477 30 18C30 18.5523 30.4477 19 31 19Z" fill="#0F28BF"/>
<path d="M53 19H55C55.5522 19 56 18.5523 56 18C56 17.4477 55.5522 17 55 17H53C52.4477 17 52 17.4477 52 18C52 18.5523 52.4477 19 53 19Z" fill="#0F28BF"/>
<path d="M31 23H49C49.5522 23 50 22.5523 50 22C50 21.4478 49.5522 21 49 21H31C30.4477 21 30 21.4478 30 22C30 22.5523 30.4477 23 31 23Z" fill="#0F28BF"/>
<path d="M53 23H55C55.5522 23 56 22.5523 56 22C56 21.4478 55.5522 21 55 21H53C52.4477 21 52 21.4478 52 22C52 22.5523 52.4477 23 53 23Z" fill="#0F28BF"/>
<path d="M31 27H49C49.5522 27 50 26.5523 50 26C50 25.4478 49.5522 25 49 25H31C30.4477 25 30 25.4478 30 26C30 26.5523 30.4477 27 31 27Z" fill="#0F28BF"/>
<path d="M53 27H55C55.5522 27 56 26.5523 56 26C56 25.4478 55.5522 25 55 25H53C52.4477 25 52 25.4478 52 26C52 26.5523 52.4477 27 53 27Z" fill="#0F28BF"/>
</svg>
