<svg width="32" height="22" viewBox="0 0 32 22" fill="none" xmlns="http://www.w3.org/2000/svg">
<path d="M28.6667 0H3.33332C1.496 0 0 1.54275 0 3.43754V18.5625C0 20.4573 1.496 22 3.33332 22H28.6667C30.504 22 32 20.4573 32 18.5625V3.43754C32.0001 1.54275 30.5041 0 28.6667 0ZM30.6667 18.5625C30.6667 19.6996 29.7694 20.625 28.6667 20.625H3.33332C2.23063 20.625 1.33332 19.6996 1.33332 18.5625V3.43754C1.33332 2.30039 2.23063 1.37504 3.33332 1.37504H28.6667C29.7694 1.37504 30.6667 2.30039 30.6667 3.43754V18.5625H30.6667Z" fill="#F12626"/>
<path d="M31.3333 4.00012H0.666686C0.298687 4.00012 0 4.33614 0 4.75014V9.2501C0 9.6641 0.298687 10.0001 0.666686 10.0001H31.3333C31.7013 10.0001 32 9.6641 32 9.2501V4.75014C31.9999 4.33614 31.7013 4.00012 31.3333 4.00012ZM30.6666 8.50009H1.33331V5.50009H30.6666V8.50009H30.6666Z" fill="#F12626"/>
<path d="M25.75 12.0001H24.25C23.0095 12.0001 22 13.0096 22 14.2501V15.7501C22 16.9906 23.0095 18.0001 24.25 18.0001H25.75C26.9905 18.0001 28 16.9906 28 15.7501V14.2501C28 13.0097 26.9905 12.0001 25.75 12.0001ZM26.5 15.7502C26.5 16.1642 26.164 16.5002 25.75 16.5002H24.25C23.836 16.5002 23.5 16.1642 23.5 15.7502V14.2502C23.5 13.8362 23.836 13.5002 24.25 13.5002H25.75C26.164 13.5002 26.5 13.8362 26.5 14.2502V15.7502Z" fill="#F12626"/>
</svg>
