<svg xmlns="http://www.w3.org/2000/svg" viewBox="0 0 14 19.5"><defs><style>.cls-1{fill:#f12626;}.cls-2{fill:#8d8d8d;}</style></defs><title>Ресурс 60</title><g id="Слой_2" data-name="Слой 2"><g id="иконки"><path class="cls-1" d="M6.24,7.88a1.33,1.33,0,0,0-1.86,0A1.34,1.34,0,0,0,4,8.81a1.31,1.31,0,0,0,2.24.92,1.26,1.26,0,0,0,.38-.92A1.3,1.3,0,0,0,6.24,7.88ZM5.72,9.22a.56.56,0,0,1-.41.16.62.62,0,0,1-.41-.16.57.57,0,0,1-.16-.41A.6.6,0,0,1,4.9,8.4a.58.58,0,0,1,.41-.17.58.58,0,0,1,.58.58A.58.58,0,0,1,5.72,9.22Zm3.9,1.63a1.31,1.31,0,1,0,0,1.85A1.31,1.31,0,0,0,9.62,10.85ZM9.1,12.18a.57.57,0,0,1-.41.17.58.58,0,1,1,0-1.15.58.58,0,0,1,.41,1Zm.36-4.36a.37.37,0,0,0-.52,0l-4.49,4.5a.35.35,0,0,0,0,.51.36.36,0,0,0,.25.11A.36.36,0,0,0,5,12.83l4.5-4.49A.37.37,0,0,0,9.46,7.82Z"/><path class="cls-2" d="M13.46,19.5H.54A.53.53,0,0,1,0,19V16.93a.53.53,0,0,1,.54-.51.53.53,0,0,1,.54.51v1.54H12.92V4.82L9.25,1H1.08V14.88a.53.53,0,0,1-.54.51A.53.53,0,0,1,0,14.88V.51A.53.53,0,0,1,.54,0H9.49a.55.55,0,0,1,.4.17l4,4.1a.5.5,0,0,1,.14.35V19A.53.53,0,0,1,13.46,19.5Z"/><path class="cls-2" d="M13,5.5H9A.48.48,0,0,1,8.5,5V.5h1V4.59H13Z"/></g></g></svg>