<?xml version="1.0" encoding="utf-8"?>
<!-- Generator: Adobe Illustrator 21.0.0, SVG Export Plug-In . SVG Version: 6.00 Build 0)  -->
<svg version="1.1" id="Слой_1" xmlns="http://www.w3.org/2000/svg" xmlns:xlink="http://www.w3.org/1999/xlink" x="0px" y="0px"
	 viewBox="0 0 61 61" style="enable-background:new 0 0 61 61;" xml:space="preserve">
<style type="text/css">
	.st0{fill:#3862F7;}
</style>
<path class="st0" d="M46.7,46.4l-9.2-3.9c-0.4-0.2-0.7-0.6-0.7-1v-2l1.7-1c1.5-0.8,2.5-2.3,2.6-4l0,0H42c1.7,0,3-1.4,3-3v-1.9
	c0.3-0.7,1-2.8,1-5.7c0-4-1.6-7.8-4.4-10.7c-1.1-1.1-2.3-2-3.7-2.7c0-3.3-3.3-6-7.4-6s-7.3,2.7-7.4,6c-1.3,0.7-2.6,1.6-3.7,2.7
	c-2.9,2.9-4.4,6.7-4.4,10.7c0,2.9,0.8,5,1,5.7v1.9c0,1.7,1.4,3,3,3h0.9l0,0c0.2,1.7,1.1,3.2,2.6,4l1.7,1v2c0,0.4-0.3,0.8-0.7,1
	l-9.2,3.9C13,47.1,12,48.5,12,50.2v6.2c0,1.7,1.4,3,3,3h31.1c1.7,0,3-1.4,3-3v-6.2C49.2,48.5,48.2,47.1,46.7,46.4z M43.1,31.5
	c0,0.6-0.5,1.1-1.1,1.1h-0.7l0.4-4.3H42c0.6,0,1.1,0.5,1.1,1.1V31.5z M30.6,6.6c2.5,0,4.7,1.3,5.3,3.1c-1.7-0.6-3.4-0.9-5.3-0.9
	c-1.8,0-3.6,0.3-5.3,0.9C25.9,7.9,28,6.6,30.6,6.6z M19.2,32.6c-0.6,0-1.1-0.5-1.1-1.1v-2.1c0-0.6,0.5-1.1,1.1-1.1h0.3l0.4,4.3H19.2
	z M23.6,36.9c-0.9-0.5-1.5-1.4-1.6-2.5l-0.7-8.1c1.3,0,3.5-0.1,6.1-0.7c5.3-1.1,9.7-3.5,12.6-7c0.3-0.4,0.3-1-0.1-1.4
	c-0.4-0.3-1-0.3-1.4,0.1c-6.3,7.5-18,6.9-18.2,6.9v0c0,0-0.1,0-0.1,0c-0.5,0-0.9,0.5-0.9,1.1l0.1,1h-0.2c-0.7,0-1.3,0.2-1.8,0.6
	c-0.2-0.8-0.3-1.8-0.3-3c0-3.5,1.4-6.8,3.9-9.3c2.5-2.5,6-4,9.7-4c3.7,0,7.1,1.4,9.7,4c2.5,2.5,3.9,5.8,3.9,9.3c0,1.2-0.1,2.2-0.3,3
	c-0.5-0.4-1.1-0.6-1.8-0.6h-0.2l0.1-1c0-0.3-0.1-0.6-0.3-0.8l-2.1-2.1c-0.4-0.4-1-0.4-1.4,0c-0.4,0.4-0.4,1,0,1.4l1.8,1.8l-0.7,7.6
	c-0.8,0.7-3.3,2.5-8.7,2.5c-0.5,0-1,0.4-1,1c0,0.5,0.4,1,1,1c3.7,0,6.3-0.8,7.9-1.6c-0.3,0.3-0.6,0.6-1,0.8l-5.4,3
	c-1,0.5-2.1,0.5-3.1,0L23.6,36.9z M24.5,44.4c1.1-0.5,1.9-1.6,1.9-2.8v-0.9l1.7,1c0.8,0.4,1.6,0.6,2.5,0.6c0.9,0,1.7-0.2,2.5-0.6
	l1.7-1v0.9c0,1.2,0.7,2.3,1.9,2.8l1,0.4c-1.8,2.1-3.6,3.2-4.8,3.7c-1.3,0.6-2.2,0.6-2.3,0.6c-0.1,0-1-0.1-2.3-0.6
	c-1.2-0.5-3-1.6-4.8-3.7L24.5,44.4z M18.2,57.5H15c-0.6,0-1.1-0.5-1.1-1.1v-6.2c0-0.3,0-0.5,0.1-0.8l3.3,2.7c0.5,0.4,0.8,1,0.8,1.7
	V57.5z M41,53.8v3.8H20.2v-3.8c0-1.2-0.6-2.4-1.5-3.2l-3.1-2.5l6.1-2.5c3.2,4,6.4,5,8,5.3v3.3c0,0.5,0.4,1,1,1c0.5,0,1-0.4,1-1v-3.3
	c1.6-0.3,4.8-1.4,8-5.3l6.1,2.5l-3.1,2.5C41.6,51.3,41,52.5,41,53.8z M47.2,56.4c0,0.6-0.5,1.1-1.1,1.1H43v-3.8
	c0-0.7,0.3-1.3,0.8-1.7l3.3-2.7c0.1,0.2,0.1,0.5,0.1,0.8L47.2,56.4L47.2,56.4z M29.4,29c-0.5-1-1.6-1.6-2.9-1.6
	c-1.3,0-2.4,0.6-2.9,1.6c-0.2,0.5,0,1.1,0.5,1.3c0.5,0.2,1.1,0,1.3-0.5c0.1-0.2,0.5-0.5,1.1-0.5c0.6,0,1,0.3,1.1,0.5
	c0.2,0.3,0.5,0.5,0.9,0.5c0.1,0,0.3,0,0.4-0.1C29.4,30.1,29.6,29.5,29.4,29z M37.5,29c-0.5-1-1.6-1.6-2.9-1.6
	c-1.3,0-2.4,0.6-2.9,1.6c-0.2,0.5,0,1.1,0.5,1.3c0.5,0.2,1.1,0,1.3-0.5c0.1-0.2,0.5-0.5,1.1-0.5c0.6,0,1,0.3,1.1,0.5
	c0.2,0.3,0.5,0.5,0.9,0.5c0.1,0,0.3,0,0.4-0.1C37.5,30.1,37.7,29.5,37.5,29z"/>
</svg>
