<svg width="30" height="20" viewBox="0 0 30 20" fill="none" xmlns="http://www.w3.org/2000/svg">
<path d="M24.6049 6.76145L26.0725 8.04925V10.4452H22.2126V6.76145H24.5902H24.6049ZM24.4728 15.6263C24.862 15.6263 25.2353 15.7841 25.5106 16.0649C25.7858 16.3457 25.9405 16.7266 25.9405 17.1237C25.9405 17.5209 25.7858 17.9018 25.5106 18.1826C25.2353 18.4634 24.862 18.6212 24.4728 18.6212C24.0427 18.6214 23.6285 18.4556 23.3133 18.157C23.1697 18.0277 23.0546 17.8687 22.9758 17.6905C22.897 17.5124 22.8562 17.3192 22.8562 17.1237C22.8562 16.9283 22.897 16.7351 22.9758 16.5569C23.0546 16.3788 23.1697 16.2198 23.3133 16.0905C23.6269 15.7893 24.0422 15.623 24.4728 15.6263ZM9.8843 15.6263C10.2735 15.6263 10.6469 15.7841 10.9221 16.0649C11.1973 16.3457 11.352 16.7266 11.352 17.1237C11.352 17.5209 11.1973 17.9018 10.9221 18.1826C10.6469 18.4634 10.2735 18.6212 9.8843 18.6212C9.45423 18.6214 9.04 18.4556 8.72485 18.157C8.58118 18.0277 8.46611 17.8687 8.38729 17.6905C8.30848 17.5124 8.26771 17.3192 8.26771 17.1237C8.26771 16.9283 8.30848 16.7351 8.38729 16.5569C8.46611 16.3788 8.58118 16.2198 8.72485 16.0905C9.0392 15.7906 9.45395 15.6245 9.8843 15.6263ZM19.336 0.277536H4.10174C4.02464 0.275544 3.94791 0.289073 3.87594 0.317349C3.80396 0.345624 3.73815 0.388093 3.68227 0.442327C3.62639 0.496561 3.58153 0.561499 3.55026 0.633428C3.51898 0.705358 3.5019 0.782871 3.5 0.861537V5.11427C3.52232 5.25874 3.59446 5.39035 3.70343 5.48538C3.8124 5.58041 3.95105 5.63263 4.0944 5.63263C4.23775 5.63263 4.3764 5.58041 4.48537 5.48538C4.59434 5.39035 4.66648 5.25874 4.6888 5.11427V1.44554H18.7196V15.2519H13.8323C13.7571 15.2519 13.6827 15.267 13.6133 15.2964C13.5438 15.3257 13.4807 15.3688 13.4276 15.423C13.3744 15.4772 13.3322 15.5416 13.3035 15.6124C13.2747 15.6833 13.2599 15.7592 13.2599 15.8359C13.2599 15.9126 13.2747 15.9886 13.3035 16.0594C13.3322 16.1303 13.3744 16.1947 13.4276 16.2489C13.4807 16.3031 13.5438 16.3461 13.6133 16.3755C13.6827 16.4048 13.7571 16.4199 13.8323 16.4199H21.1706C21.2457 16.4199 21.3202 16.4048 21.3896 16.3755C21.4591 16.3461 21.5222 16.3031 21.5753 16.2489C21.6285 16.1947 21.6706 16.1303 21.6994 16.0594C21.7282 15.9886 21.743 15.9126 21.743 15.8359C21.743 15.7592 21.7282 15.6833 21.6994 15.6124C21.6706 15.5416 21.6285 15.4772 21.5753 15.423C21.5222 15.3688 21.4591 15.3257 21.3896 15.2964C21.3202 15.267 21.2457 15.2519 21.1706 15.2519H19.9671V4.11098H24.781L28.685 7.2556V15.222H28.0686C27.9167 15.222 27.7712 15.2835 27.6638 15.393C27.5565 15.5026 27.4962 15.6511 27.4962 15.806C27.4962 15.9609 27.5565 16.1094 27.6638 16.2189C27.7712 16.3285 27.9167 16.39 28.0686 16.39H29.2867C29.44 16.3941 29.5887 16.3369 29.7012 16.2305C29.8136 16.1242 29.8808 15.9772 29.8884 15.821V7.00104C29.8858 6.91436 29.8648 6.82931 29.8267 6.75174C29.7887 6.67418 29.7347 6.60596 29.6683 6.55181L25.3827 3.1077C25.2746 3.01927 25.1398 2.97166 25.0012 2.97293H19.9231V0.861537C19.9192 0.705288 19.8557 0.556756 19.746 0.447645C19.6363 0.338533 19.4892 0.277487 19.336 0.277536ZM24.781 5.63837H21.7136C21.6365 5.63638 21.5598 5.64991 21.4878 5.67818C21.4158 5.70646 21.35 5.74893 21.2941 5.80316C21.2383 5.85739 21.1934 5.92233 21.1621 5.99426C21.1308 6.06619 21.1138 6.1437 21.1119 6.22237V10.9992C21.1138 11.0779 21.1308 11.1554 21.1621 11.2273C21.1934 11.2992 21.2383 11.3642 21.2941 11.4184C21.35 11.4726 21.4158 11.5151 21.4878 11.5434C21.5598 11.5717 21.6365 11.5852 21.7136 11.5832H26.5862C26.6633 11.5852 26.74 11.5717 26.812 11.5434C26.884 11.5151 26.9498 11.4726 27.0057 11.4184C27.0616 11.3642 27.1064 11.2992 27.1377 11.2273C27.169 11.1554 27.1861 11.0779 27.188 10.9992V7.76473C27.1723 7.68297 27.1391 7.60571 27.091 7.53844C27.0428 7.47116 26.9807 7.41551 26.9091 7.3754L25.1773 5.78811C25.0673 5.69096 24.9265 5.63777 24.781 5.63837ZM4.10174 13.1256C4.02211 13.1255 3.9433 13.1419 3.87009 13.1739C3.79688 13.2058 3.73081 13.2526 3.67589 13.3115C3.62097 13.3703 3.57836 13.4399 3.55065 13.5161C3.52293 13.5922 3.5107 13.6733 3.51468 13.7545V15.8809C3.51658 15.9595 3.53366 16.037 3.56493 16.109C3.59621 16.1809 3.64107 16.2458 3.69695 16.3001C3.75283 16.3543 3.81864 16.3968 3.89061 16.425C3.96259 16.4533 4.03932 16.4668 4.11642 16.4649H5.90696C5.98212 16.4649 6.05655 16.4498 6.126 16.4204C6.19544 16.3911 6.25854 16.348 6.31169 16.2938C6.36484 16.2396 6.40701 16.1752 6.43577 16.1043C6.46454 16.0335 6.47934 15.9575 6.47934 15.8809C6.47934 15.8042 6.46454 15.7282 6.43577 15.6574C6.40701 15.5865 6.36484 15.5221 6.31169 15.4679C6.25854 15.4137 6.19544 15.3707 6.126 15.3413C6.05655 15.312 5.98212 15.2969 5.90696 15.2969H4.70348V13.7545C4.70157 13.6758 4.6845 13.5983 4.65322 13.5264C4.62195 13.4545 4.57709 13.3895 4.52121 13.3353C4.46532 13.281 4.39952 13.2386 4.32754 13.2103C4.25557 13.182 4.17884 13.1685 4.10174 13.1705V13.1256ZM24.4875 14.5332C23.7602 14.4981 23.0485 14.7563 22.5061 15.2519C22.2538 15.4863 22.0522 15.7719 21.9142 16.0903C21.7763 16.4088 21.705 16.7531 21.705 17.1013C21.705 17.4494 21.7763 17.7938 21.9142 18.1122C22.0522 18.4307 22.2538 18.7162 22.5061 18.9506C23.0241 19.443 23.7061 19.7161 24.4141 19.7143C24.7667 19.7416 25.1211 19.6942 25.4549 19.5753C25.7888 19.4563 26.095 19.2683 26.3543 19.023C26.6136 18.7777 26.8205 18.4804 26.962 18.1497C27.1035 17.819 27.1765 17.4621 27.1765 17.1013C27.1765 16.7405 27.1035 16.3835 26.962 16.0529C26.8205 15.7222 26.6136 15.4249 26.3543 15.1796C26.095 14.9343 25.7888 14.7462 25.4549 14.6273C25.1211 14.5083 24.7667 14.461 24.4141 14.4882L24.4875 14.5332ZM9.89898 14.5332C9.19171 14.5138 8.50393 14.7709 7.97635 15.2519C7.72399 15.4863 7.52238 15.7719 7.38442 16.0903C7.24646 16.4088 7.1752 16.7531 7.1752 17.1013C7.1752 17.4494 7.24646 17.7938 7.38442 18.1122C7.52238 18.4307 7.72399 18.7162 7.97635 18.9506C8.49426 19.443 9.17636 19.7161 9.8843 19.7143C10.2369 19.7416 10.5913 19.6942 10.9251 19.5753C11.259 19.4563 11.5652 19.2683 11.8245 19.023C12.0838 18.7777 12.2907 18.4804 12.4322 18.1497C12.5737 17.819 12.6467 17.4621 12.6467 17.1013C12.6467 16.7405 12.5737 16.3835 12.4322 16.0529C12.2907 15.7222 12.0838 15.4249 11.8245 15.1796C11.5652 14.9343 11.259 14.7462 10.9251 14.6273C10.5913 14.5083 10.2369 14.461 9.8843 14.4882L9.89898 14.5332Z" fill="#1C1C1C"/>
<path d="M9.0012 12.054C8.99933 11.9794 8.98252 11.9058 8.95173 11.8376C8.92094 11.7694 8.87678 11.7078 8.82177 11.6563C8.76676 11.6049 8.70198 11.5646 8.63113 11.5378C8.56027 11.5109 8.48474 11.4981 8.40884 11.5H1.28612C1.21212 11.5 1.13885 11.5143 1.07049 11.5422C1.00213 11.57 0.940012 11.6108 0.88769 11.6622C0.835368 11.7137 0.793864 11.7748 0.765547 11.842C0.737231 11.9092 0.722656 11.9812 0.722656 12.054C0.722656 12.1267 0.737231 12.1988 0.765547 12.266C0.793864 12.3332 0.835368 12.3943 0.88769 12.4457C0.940012 12.4972 1.00213 12.538 1.07049 12.5658C1.13885 12.5937 1.21212 12.608 1.28612 12.608H8.42329C8.49919 12.6099 8.57472 12.5971 8.64557 12.5702C8.71643 12.5434 8.78121 12.5031 8.83622 12.4517C8.89123 12.4002 8.93539 12.3386 8.96618 12.2704C8.99696 12.2021 9.01377 12.1286 9.01565 12.054H9.0012ZM2.47083 10.0652H9.608C9.75888 10.0691 9.90531 10.0148 10.016 9.91397C10.1267 9.81309 10.1929 9.67365 10.2004 9.52544C10.2004 9.45147 10.1853 9.37825 10.1561 9.31009C10.1269 9.24193 10.0841 9.18022 10.0303 9.12858C9.97639 9.07695 9.91256 9.03644 9.84252 9.00945C9.77248 8.98246 9.69765 8.96953 9.62245 8.97143H2.48528C2.33584 8.97143 2.19252 9.0298 2.08685 9.13369C1.98118 9.23759 1.92182 9.3785 1.92182 9.52544C1.92182 9.67237 1.98118 9.81328 2.08685 9.91718C2.19252 10.0211 2.33584 10.0794 2.48528 10.0794L2.47083 10.0652ZM3.66999 7.55089H10.8072C10.9566 7.55089 11.0999 7.49252 11.2056 7.38862C11.3113 7.28473 11.3706 7.14381 11.3706 6.99688C11.3706 6.84995 11.3113 6.70903 11.2056 6.60514C11.0999 6.50124 10.9566 6.44287 10.8072 6.44287H3.66999C3.52055 6.44287 3.37723 6.50124 3.27156 6.60514C3.16589 6.70903 3.10653 6.84995 3.10653 6.99688C3.10653 7.14381 3.16589 7.28473 3.27156 7.38862C3.37723 7.49252 3.52055 7.55089 3.66999 7.55089Z" fill="#1C1C1C"/>
</svg>
