<svg width="27" height="16" viewBox="0 0 27 16" fill="none" xmlns="http://www.w3.org/2000/svg">
<path d="M22.1066 5.18728L23.2807 6.21752V8.13425H20.1927V5.18728H22.0948H22.1066ZM22.0009 12.2792C22.3123 12.2792 22.6109 12.4054 22.8311 12.63C23.0513 12.8547 23.175 13.1594 23.175 13.4771C23.175 13.7948 23.0513 14.0995 22.8311 14.3242C22.6109 14.5488 22.3123 14.6751 22.0009 14.6751C21.6568 14.6753 21.3254 14.5426 21.0733 14.3037C20.9584 14.2003 20.8663 14.0731 20.8033 13.9306C20.7402 13.788 20.7076 13.6335 20.7076 13.4771C20.7076 13.3207 20.7402 13.1662 20.8033 13.0237C20.8663 12.8811 20.9584 12.7539 21.0733 12.6505C21.3242 12.4096 21.6564 12.2765 22.0009 12.2792ZM10.3301 12.2792C10.6415 12.2792 10.9401 12.4054 11.1603 12.63C11.3805 12.8547 11.5042 13.1594 11.5042 13.4771C11.5042 13.7948 11.3805 14.0995 11.1603 14.3242C10.9401 14.5488 10.6415 14.6751 10.3301 14.6751C9.98604 14.6753 9.65465 14.5426 9.40254 14.3037C9.2876 14.2003 9.19554 14.0731 9.13249 13.9306C9.06944 13.788 9.03683 13.6335 9.03683 13.4771C9.03683 13.3207 9.06944 13.1662 9.13249 13.0237C9.19554 12.8811 9.2876 12.7539 9.40254 12.6505C9.65401 12.4106 9.98582 12.2778 10.3301 12.2792ZM17.8915 0.000153449H5.70405C5.64237 -0.00143953 5.58098 0.00938343 5.5234 0.0320039C5.46583 0.0546244 5.41318 0.088599 5.36847 0.131986C5.32377 0.175374 5.28788 0.227324 5.26286 0.284868C5.23784 0.342412 5.22418 0.404422 5.22266 0.467355V3.86954C5.24051 3.98512 5.29822 4.0904 5.3854 4.16643C5.47258 4.24245 5.58349 4.28423 5.69818 4.28423C5.81286 4.28423 5.92377 4.24245 6.01095 4.16643C6.09813 4.0904 6.15584 3.98512 6.1737 3.86954V0.934556H17.3983V11.9797H13.4885C13.4284 11.9797 13.3688 11.9918 13.3133 12.0152C13.2577 12.0387 13.2072 12.0731 13.1647 12.1165C13.1222 12.1599 13.0885 12.2114 13.0654 12.2681C13.0424 12.3248 13.0306 12.3855 13.0306 12.4469C13.0306 12.5082 13.0424 12.569 13.0654 12.6257C13.0885 12.6823 13.1222 12.7338 13.1647 12.7772C13.2072 12.8206 13.2577 12.855 13.3133 12.8785C13.3688 12.902 13.4284 12.9141 13.4885 12.9141H19.3591C19.4192 12.9141 19.4788 12.902 19.5343 12.8785C19.5899 12.855 19.6404 12.8206 19.6829 12.7772C19.7254 12.7338 19.7592 12.6823 19.7822 12.6257C19.8052 12.569 19.817 12.5082 19.817 12.4469C19.817 12.3855 19.8052 12.3248 19.7822 12.2681C19.7592 12.2114 19.7254 12.1599 19.6829 12.1165C19.6404 12.0731 19.5899 12.0387 19.5343 12.0152C19.4788 11.9918 19.4192 11.9797 19.3591 11.9797H18.3963V3.06691H22.2475L25.3706 5.58261V11.9557H24.8775C24.7561 11.9557 24.6396 12.0049 24.5537 12.0926C24.4678 12.1802 24.4196 12.299 24.4196 12.4229C24.4196 12.5468 24.4678 12.6657 24.5537 12.7533C24.6396 12.8409 24.7561 12.8901 24.8775 12.8901H25.852C25.9746 12.8934 26.0936 12.8476 26.1836 12.7625C26.2736 12.6775 26.3273 12.5599 26.3334 12.4349V5.37896C26.3313 5.30962 26.3145 5.24157 26.2841 5.17952C26.2536 5.11747 26.2104 5.0629 26.1573 5.01957L22.7288 2.26428C22.6423 2.19354 22.5345 2.15546 22.4236 2.15647H18.3611V0.467355C18.358 0.342356 18.3072 0.22353 18.2195 0.136241C18.1317 0.0489516 18.014 0.000114369 17.8915 0.000153449ZM22.2475 4.28882H19.7935C19.7319 4.28723 19.6705 4.29805 19.6129 4.32067C19.5553 4.34329 19.5027 4.37727 19.458 4.42065C19.4133 4.46404 19.3774 4.51599 19.3524 4.57353C19.3273 4.63108 19.3137 4.69309 19.3121 4.75602V8.57749C19.3137 8.64042 19.3273 8.70243 19.3524 8.75997C19.3774 8.81752 19.4133 8.86947 19.458 8.91286C19.5027 8.95624 19.5553 8.99022 19.6129 9.01284C19.6705 9.03546 19.7319 9.04628 19.7935 9.04469H23.6916C23.7533 9.04628 23.8147 9.03546 23.8723 9.01284C23.9299 8.99022 23.9825 8.95624 24.0272 8.91286C24.0719 8.86947 24.1078 8.81752 24.1328 8.75997C24.1578 8.70243 24.1715 8.64042 24.173 8.57749V5.98991C24.1605 5.9245 24.134 5.8627 24.0954 5.80888C24.0569 5.75506 24.0072 5.71053 23.9499 5.67844L22.5645 4.40862C22.4765 4.3309 22.3638 4.28834 22.2475 4.28882ZM5.70405 10.2786C5.64035 10.2785 5.57729 10.2916 5.51873 10.3172C5.46016 10.3428 5.4073 10.3802 5.36337 10.4273C5.31944 10.4744 5.28535 10.53 5.26318 10.591C5.241 10.6519 5.23121 10.7168 5.2344 10.7817V12.4828C5.23592 12.5457 5.24958 12.6078 5.2746 12.6653C5.29962 12.7228 5.33551 12.7748 5.38022 12.8182C5.42492 12.8616 5.47757 12.8955 5.53515 12.9182C5.59272 12.9408 5.65411 12.9516 5.71579 12.95H7.14822C7.20835 12.95 7.2679 12.9379 7.32345 12.9144C7.37901 12.891 7.42949 12.8566 7.47201 12.8132C7.51453 12.7698 7.54826 12.7183 7.57127 12.6616C7.59428 12.6049 7.60613 12.5442 7.60613 12.4828C7.60613 12.4215 7.59428 12.3607 7.57127 12.304C7.54826 12.2473 7.51453 12.1958 7.47201 12.1524C7.42949 12.1091 7.37901 12.0747 7.32345 12.0512C7.2679 12.0277 7.20835 12.0156 7.14822 12.0156H6.18544V10.7817C6.18392 10.7188 6.17025 10.6568 6.14523 10.5992C6.12021 10.5417 6.08433 10.4897 6.03962 10.4464C5.99492 10.403 5.94227 10.369 5.88469 10.3464C5.82711 10.3237 5.76573 10.3129 5.70405 10.3145V10.2786ZM22.0126 11.4047C21.4308 11.3766 20.8615 11.5832 20.4276 11.9797C20.2257 12.1672 20.0644 12.3956 19.954 12.6504C19.8437 12.9051 19.7867 13.1806 19.7867 13.4591C19.7867 13.7377 19.8437 14.0131 19.954 14.2679C20.0644 14.5227 20.2257 14.7511 20.4276 14.9386C20.8419 15.3326 21.3876 15.551 21.9539 15.5496C22.236 15.5714 22.5195 15.5335 22.7866 15.4383C23.0537 15.3432 23.2986 15.1927 23.5061 14.9965C23.7136 14.8003 23.8791 14.5624 23.9923 14.2979C24.1054 14.0333 24.1639 13.7478 24.1639 13.4591C24.1639 13.1705 24.1054 12.885 23.9923 12.6204C23.8791 12.3559 23.7136 12.118 23.5061 11.9218C23.2986 11.7255 23.0537 11.5751 22.7866 11.4799C22.5195 11.3848 22.236 11.3469 21.9539 11.3687L22.0126 11.4047ZM10.3418 11.4047C9.77602 11.3892 9.2258 11.5949 8.80374 11.9797C8.60185 12.1672 8.44056 12.3956 8.33019 12.6504C8.21983 12.9051 8.16282 13.1806 8.16282 13.4591C8.16282 13.7377 8.21983 14.0131 8.33019 14.2679C8.44056 14.5227 8.60185 14.7511 8.80374 14.9386C9.21807 15.3326 9.76375 15.551 10.3301 15.5496C10.6122 15.5714 10.8957 15.5335 11.1628 15.4383C11.4298 15.3432 11.6748 15.1927 11.8823 14.9965C12.0897 14.8003 12.2552 14.5624 12.3684 14.2979C12.4816 14.0333 12.54 13.7478 12.54 13.4591C12.54 13.1705 12.4816 12.885 12.3684 12.6204C12.2552 12.3559 12.0897 12.118 11.8823 11.9218C11.6748 11.7255 11.4298 11.5751 11.1628 11.4799C10.8957 11.3848 10.6122 11.3469 10.3301 11.3687L10.3418 11.4047Z" fill="#1C1C1C"/>
<path d="M6.62284 9.42151C6.62134 9.36181 6.60789 9.30299 6.58326 9.2484C6.55863 9.19381 6.5233 9.14453 6.47929 9.10337C6.43528 9.06221 6.38346 9.02998 6.32678 9.00852C6.27009 8.98706 6.20967 8.97679 6.14895 8.97831H0.450769C0.391573 8.97831 0.332957 8.98977 0.278267 9.01204C0.223577 9.03432 0.173885 9.06696 0.132027 9.10812C0.0901694 9.14927 0.056966 9.19813 0.0343127 9.25191C0.0116595 9.30568 0 9.36331 0 9.42151C0 9.47972 0.0116595 9.53735 0.0343127 9.59112C0.056966 9.64489 0.0901694 9.69375 0.132027 9.73491C0.173885 9.77606 0.223577 9.80871 0.278267 9.83098C0.332957 9.85326 0.391573 9.86472 0.450769 9.86472H6.16051C6.22123 9.86623 6.28165 9.85597 6.33833 9.83451C6.39502 9.81305 6.44684 9.78082 6.49085 9.73966C6.53486 9.6985 6.57019 9.64922 6.59482 9.59463C6.61945 9.54004 6.63289 9.48121 6.63439 9.42151H6.62284ZM1.39854 7.83051H7.10828C7.22898 7.83363 7.34613 7.79019 7.43468 7.70949C7.52323 7.6288 7.57617 7.51724 7.58216 7.39867C7.58218 7.3395 7.57015 7.28092 7.54678 7.22639C7.52341 7.17187 7.48917 7.12249 7.44608 7.08119C7.40299 7.03988 7.35192 7.00747 7.29589 6.98588C7.23986 6.96429 7.18 6.95394 7.11984 6.95546H1.4101C1.29055 6.95546 1.17589 7.00216 1.09136 7.08527C1.00682 7.16839 0.959329 7.28112 0.959329 7.39867C0.959329 7.51622 1.00682 7.62895 1.09136 7.71206C1.17589 7.79518 1.29055 7.84188 1.4101 7.84188L1.39854 7.83051ZM2.35787 5.81903H8.06761C8.18716 5.81903 8.30181 5.77234 8.38635 5.68922C8.47088 5.6061 8.51838 5.49337 8.51838 5.37582C8.51838 5.25828 8.47088 5.14555 8.38635 5.06243C8.30181 4.97931 8.18716 4.93262 8.06761 4.93262H2.35787C2.23832 4.93262 2.12366 4.97931 2.03913 5.06243C1.95459 5.14555 1.9071 5.25828 1.9071 5.37582C1.9071 5.49337 1.95459 5.6061 2.03913 5.68922C2.12366 5.77234 2.23832 5.81903 2.35787 5.81903Z" fill="#1C1C1C"/>
<path d="M14.8417 4.90833C14.8417 4.45833 14.6667 4.01667 14.375 3.68333C14.1667 3.41667 13.8667 3.21667 13.5417 3.10833C13.35 3.03333 13.1333 3 12.925 3H10.3333V6.04167H9.66667V6.80833H10.3333V7.525H9.66667V8.18333H10.3333V9H11.1417V8.18333H12.8583V7.525H11.1417V6.80833H12.925C13.5083 6.80833 14.075 6.53333 14.4167 6.09167C14.6833 5.76667 14.85 5.33333 14.8417 4.90833ZM13.7667 5.61667C13.5583 5.88333 13.2167 6.04167 12.9167 6.04167H11.1417V3.76667H12.9167C13.2 3.76667 13.5083 3.91667 13.7083 4.125C13.9 4.33333 14.0083 4.61667 14.0167 4.90833C14.025 5.16667 13.925 5.41667 13.7667 5.61667Z" fill="#1C1C1C"/>
</svg>
