<svg width="41" height="41" viewBox="0 0 41 41" fill="none" xmlns="http://www.w3.org/2000/svg">
<g clip-path="url(#clip0)">
<path d="M25.2849 6.83331V10.25C25.2849 12.8877 23.1392 15.0333 20.5016 15.0333C17.864 15.0333 15.7183 12.8877 15.7183 10.25V6.83331H14.3516V10.25C14.3516 13.6407 17.1109 16.4 20.5016 16.4C23.893 16.4 26.6516 13.6407 26.6516 10.25V6.83331H25.2849Z" fill="#B3B3B3"/>
<path d="M39.7103 35.0536L36.0326 20.3292C35.6418 18.8176 34.2812 17.7893 32.7724 17.7688L24.6011 17.1346V14.35H23.2344V17.7667C23.2344 18.1233 23.509 18.4199 23.8651 18.448L32.7211 19.1334C32.7224 19.1334 32.7238 19.1334 32.7252 19.1334C33.66 19.1334 34.4758 19.7654 34.7088 20.6654L38.3852 35.3858C38.4528 35.6571 38.4877 35.9366 38.4877 36.2167C38.4869 38.1007 36.9542 39.6334 35.0703 39.6334V41C37.7073 41 39.8536 38.8543 39.8544 36.2167C39.8545 35.8244 39.806 35.4329 39.7103 35.0536Z" fill="#B3B3B3"/>
<path d="M16.4027 14.35V17.1345L8.28609 17.7666C8.28337 17.7666 8.28129 17.7666 8.27928 17.7666C6.722 17.7666 5.36148 18.8196 4.9699 20.3345L1.29423 35.0529C0.983286 36.2924 1.17331 37.5785 1.82995 38.6746C2.48595 39.7706 3.53009 40.5455 4.76898 40.8558C5.14959 40.9514 5.54117 40.9999 5.93404 40.9999V39.6332C5.65384 39.6332 5.37437 39.5984 5.10242 39.53C4.21684 39.3079 3.47131 38.7551 3.00254 37.972C2.53376 37.1889 2.39779 36.2705 2.61984 35.3842L6.29479 20.6706C6.52918 19.7638 7.34709 19.131 8.33798 19.131L17.1393 18.4477C17.4946 18.4204 17.7693 18.1232 17.7693 17.7664V14.35H16.4027Z" fill="#B3B3B3"/>
<path d="M23.2349 0H17.7682C15.8843 0 14.3516 1.5327 14.3516 3.41669V7.51669C14.3516 7.89386 14.6577 8.2 15.0349 8.2H25.9682C26.3453 8.2 26.6515 7.89386 26.6515 7.51669V3.41669C26.6516 1.5327 25.1189 0 23.2349 0ZM25.2849 6.83331H15.7183V3.41669C15.7183 2.28647 16.638 1.36669 17.7683 1.36669H23.2349C24.3652 1.36669 25.2849 2.28647 25.2849 3.41669V6.83331H25.2849Z" fill="#B3B3B3"/>
<path d="M23.231 4.10001H17.7644C15.8804 4.10001 14.3477 5.6327 14.3477 7.5167C14.3477 7.89387 14.6538 8.20001 15.031 8.20001H25.9643C26.3414 8.20001 26.6476 7.89387 26.6476 7.5167C26.6477 5.6327 25.115 4.10001 23.231 4.10001ZM15.8319 6.83331C16.1135 6.0379 16.8733 5.46662 17.7644 5.46662H23.231C24.1221 5.46662 24.882 6.0379 25.1642 6.83331H15.8319Z" fill="#B3B3B3"/>
<path d="M20.5034 10.25V7.51669H19.1367V10.9334C19.1367 11.3106 19.4429 11.6167 19.82 11.6167H21.1867V10.25H20.5034Z" fill="#B3B3B3"/>
<path d="M14.3519 36.9H8.88516V35.5333C8.88516 34.4031 7.96538 33.4833 6.83516 33.4833C5.70493 33.4833 4.78516 34.4031 4.78516 35.5333V40.3166C4.78516 40.6945 5.0913 40.9999 5.46846 40.9999H11.6185C13.5024 40.9999 15.0352 39.4673 15.0352 37.5833C15.0352 37.2054 14.729 36.9 14.3519 36.9ZM11.6185 39.6333H6.15185V35.5333C6.15185 35.1562 6.45863 34.85 6.83516 34.85C7.21168 34.85 7.51846 35.1562 7.51846 35.5333V37.5833C7.51846 37.9612 7.8246 38.2666 8.20177 38.2666H13.5515C13.2694 39.0621 12.5096 39.6333 11.6185 39.6333Z" fill="#B3B3B3"/>
<path d="M8.20128 29.3833H3.41797V30.75H8.20128V29.3833Z" fill="#B3B3B3"/>
<path d="M37.5841 29.3833H32.8008V30.75H37.5841V29.3833Z" fill="#B3B3B3"/>
<path d="M32.7989 20.5H8.19893C7.82176 20.5 7.51562 20.8061 7.51562 21.1833V37.5833C7.51562 37.9612 7.82176 38.2666 8.19893 38.2666H32.7989C33.1761 38.2666 33.4822 37.9612 33.4822 37.5833V21.1833C33.4822 20.8061 33.1768 20.5 32.7989 20.5ZM32.1156 36.9H8.88224V21.8667H32.1155V36.9H32.1156Z" fill="#B3B3B3"/>
<path d="M30.7495 34.1667H29.3828V35.5334H30.7495V34.1667Z" fill="#B3B3B3"/>
<path d="M28.019 34.1667H26.6523V35.5334H28.019V34.1667Z" fill="#B3B3B3"/>
<path d="M23.4342 17.2836L20.5014 20.2172L17.5678 17.2836L16.6016 18.2498L20.0183 21.6665C20.1461 21.795 20.3203 21.8667 20.5014 21.8667C20.6824 21.8667 20.8567 21.795 20.9845 21.6665L24.4005 18.2498L23.4342 17.2836Z" fill="#B3B3B3"/>
<path d="M34.1687 33.4833C33.0385 33.4833 32.1187 34.4031 32.1187 35.5333V36.9H26.6521C26.2742 36.9 25.9688 37.2054 25.9688 37.5833C25.9688 39.4673 27.5014 41 29.3854 41H35.5354C35.9126 41 36.2188 40.6946 36.2188 40.3167V35.5334C36.2188 34.4031 35.299 33.4833 34.1687 33.4833ZM34.8521 39.6333H29.3854C28.4943 39.6333 27.7344 39.0621 27.4522 38.2666H32.802C33.1799 38.2666 33.4853 37.9612 33.4853 37.5833V35.5333C33.4853 35.1562 33.7914 34.85 34.1686 34.85C34.5458 34.85 34.8519 35.1562 34.8519 35.5333V39.6333H34.8521Z" fill="#B3B3B3"/>
<path d="M32.7992 25.2833H8.19922V26.65H32.7992V25.2833Z" fill="#B3B3B3"/>
<path d="M23.2359 20.5H17.7692C17.3921 20.5 17.0859 20.8061 17.0859 21.1833V30.0666C17.0859 30.4445 17.3921 30.7499 17.7692 30.7499H23.2359C23.6131 30.7499 23.9192 30.4445 23.9192 30.0666V21.1833C23.9193 20.8061 23.6138 20.5 23.2359 20.5ZM22.5526 29.3833H18.4526V21.8666H22.5526V29.3833Z" fill="#B3B3B3"/>
</g>
<defs>
<clipPath id="clip0">
<rect width="41" height="41" fill="white"/>
</clipPath>
</defs>
</svg>
