<svg width="28" height="28" viewBox="0 0 28 28" fill="none" xmlns="http://www.w3.org/2000/svg">
<g clip-path="url(#clip0)">
<path d="M27.0972 3.23071H17.2305V6.44425H20.4946V8.63148H17.2305V10.7692H20.4612V12.923H17.2305V15.0769H20.4612V17.2307H17.2305V19.3846H20.4612V21.5384H17.2305V24.7692H27.0972C27.5937 24.7692 27.9997 24.3481 27.9997 23.8322V4.16764C27.9997 3.65179 27.5937 3.23071 27.0972 3.23071ZM25.8459 21.5384H21.5382V19.3846H25.8459V21.5384ZM25.8459 17.2307H21.5382V15.0769H25.8459V17.2307ZM25.8459 12.923H21.5382V10.7692H25.8459V12.923ZM25.8459 8.61533H21.5382V6.46148H25.8459V8.61533Z" fill="#08D04C"/>
<path d="M0 3.11123V24.8898L16.1538 28V0L0 3.11123ZM10.2178 19.4708L8.33862 15.918C8.26754 15.7855 8.19431 15.5422 8.11785 15.1878H8.08877C8.05323 15.3548 7.96923 15.6089 7.83677 15.9492L5.95108 19.4708H3.02292L6.49923 14.0172L3.31908 8.56262H6.30862L7.868 11.8332C7.98969 12.0917 8.09846 12.3986 8.19539 12.7529H8.22554C8.28692 12.5397 8.40108 12.2231 8.568 11.802L10.3018 8.56154H13.0394L9.76877 13.9698L13.1309 19.4697L10.2178 19.4708Z" fill="#08D04C"/>
</g>
<defs>
<clipPath id="clip0">
<rect width="28" height="28" fill="white"/>
</clipPath>
</defs>
</svg>
