<svg width="28" height="28" viewBox="0 0 28 28" fill="none" xmlns="http://www.w3.org/2000/svg">
<path d="M27.0977 3.23047H17.231V6.44401H20.4951V8.63124H17.231V10.7689H20.4617V12.9228H17.231V15.0766H20.4617V17.2305H17.231V19.3843H20.4617V21.5382H17.231V24.7689H27.0977C27.5942 24.7689 28.0002 24.3479 28.0002 23.832V4.16739C28.0002 3.65155 27.5942 3.23047 27.0977 3.23047ZM25.8463 21.5382H21.5386V19.3843H25.8463V21.5382ZM25.8463 17.2305H21.5386V15.0766H25.8463V17.2305ZM25.8463 12.9228H21.5386V10.7689H25.8463V12.9228ZM25.8463 8.61508H21.5386V6.46124H25.8463V8.61508Z" fill="white"/>
<path d="M0 3.11123V24.8898L16.1538 28V0L0 3.11123ZM10.2178 19.4708L8.33862 15.918C8.26754 15.7855 8.19431 15.5422 8.11785 15.1878H8.08877C8.05323 15.3548 7.96923 15.6089 7.83677 15.9492L5.95108 19.4708H3.02292L6.49923 14.0172L3.31908 8.56262H6.30862L7.868 11.8332C7.98969 12.0917 8.09846 12.3986 8.19538 12.7529H8.22554C8.28692 12.5397 8.40108 12.2231 8.568 11.802L10.3018 8.56154H13.0394L9.76877 13.9698L13.1309 19.4697L10.2178 19.4708Z" fill="white"/>
</svg>
