<svg xmlns="http://www.w3.org/2000/svg" viewBox="0 0 20 13"><defs><style>.cls-1{fill:#8d8d8d;}.cls-2{fill:#f12626;}</style></defs><title>fast</title><g id="Слой_2" data-name="Слой 2"><g id="иконки"><path class="cls-1" d="M16.43,4.33l1,.86v1.6H14.8V4.33h1.62m-.08,5.92a1,1,0,1,1,0,2,1.16,1.16,0,0,1-.79-.31.92.92,0,0,1,0-1.38,1.14,1.14,0,0,1,.79-.31m-9.94,0a1,1,0,1,1,0,2,1.16,1.16,0,0,1-.79-.31.92.92,0,0,1,0-1.38,1.15,1.15,0,0,1,.79-.31M12.84,0H2.46a.4.4,0,0,0-.41.39V3.23a.41.41,0,0,0,.81,0V.78h9.56V10H9.09a.39.39,0,1,0,0,.78h5a.39.39,0,1,0,0-.78h-.82V2.56h3.28l2.66,2.1,0,5.32h-.42a.39.39,0,1,0,0,.78h.83a.4.4,0,0,0,.41-.38l0-5.89a.4.4,0,0,0-.15-.3l-2.92-2.3a.41.41,0,0,0-.26-.09H13.24V.39A.4.4,0,0,0,12.84,0Zm3.71,3.58H14.46a.4.4,0,0,0-.41.39V7.16a.4.4,0,0,0,.41.39h3.32a.4.4,0,0,0,.41-.39V5A.38.38,0,0,0,18,4.74L16.82,3.68a.41.41,0,0,0-.27-.1Zm-14.09,5A.4.4,0,0,0,2.06,9v1.42a.4.4,0,0,0,.41.39H3.69a.39.39,0,1,0,0-.78H2.87V9a.4.4,0,0,0-.41-.39Zm13.89.94A1.89,1.89,0,0,0,15,10a1.67,1.67,0,0,0,0,2.47,1.9,1.9,0,0,0,1.3.51,1.75,1.75,0,1,0,0-3.49Zm-9.94,0A1.89,1.89,0,0,0,5.1,10a1.67,1.67,0,0,0,0,2.47,1.9,1.9,0,0,0,1.3.51,1.75,1.75,0,1,0,0-3.49Z"/><path class="cls-2" d="M5.75,7.87a.4.4,0,0,0-.41-.39H.41a.39.39,0,1,0,0,.78H5.35a.4.4,0,0,0,.41-.39Zm0,0M1.23,6.47l4.94,0a.4.4,0,0,0,.41-.38.39.39,0,0,0-.4-.39l-4.94,0h0a.39.39,0,1,0,0,.78Zm0,0M2.06,4.7H7a.39.39,0,1,0,0-.78H2.06a.39.39,0,1,0,0,.78Zm0,0"/></g></g></svg>