<svg width="80" height="80" viewBox="0 0 80 80" fill="none" xmlns="http://www.w3.org/2000/svg">
<circle cx="40" cy="40" r="40" fill="#08D04C"/>
<g clip-path="url(#clip0)">
<path d="M54.7909 25.0519C54.7845 25.0542 54.778 25.056 54.7717 25.0584L25.7097 35.9567C25.018 36.2161 24.9098 37.1526 25.5249 37.5627L31.8968 41.8107C31.9191 41.9041 34.2187 51.516 34.2339 51.5728C34.4127 52.2434 35.2564 52.4765 35.7527 51.9802L40.312 47.4208L47.3213 52.0937C47.8345 52.4358 48.53 52.177 48.6984 51.5875C48.7579 51.379 55.9602 26.1732 55.9718 26.1262C56.1459 25.419 55.4634 24.8165 54.7909 25.0519ZM28.0077 37.0348L48.4238 29.3787L32.6977 40.1615L28.0077 37.0348ZM36.3221 43.6693C36.3194 43.6733 36.3174 43.6775 36.3148 43.6815C36.3059 43.6954 36.2975 43.7096 36.2894 43.724C36.2386 43.813 36.2036 43.9071 36.1853 44.0033L35.1715 47.6906L33.7277 41.6576L47.7942 32.0128C35.7001 44.2741 36.3976 43.5547 36.3238 43.6669C36.3233 43.6677 36.3226 43.6684 36.3221 43.6693ZM36.8966 48.2674L37.6225 45.6277L38.7708 46.3933L36.8966 48.2674ZM47.2937 49.8921C47.2085 49.8354 38.6679 44.1416 38.4955 44.0267L53.2407 29.0775L47.2937 49.8921Z" fill="white"/>
<path d="M31.0913 49.9087C30.7367 49.554 30.1616 49.554 29.807 49.9087L25.266 54.4496C24.9113 54.8043 24.9113 55.3793 25.266 55.7339C25.6206 56.0886 26.1958 56.0886 26.5504 55.7339L31.0913 51.193C31.446 50.8383 31.446 50.2633 31.0913 49.9087Z" fill="white"/>
<path d="M31.0913 44.4596C30.7367 44.1049 30.1616 44.1049 29.807 44.4596L25.266 49.0005C24.9113 49.3552 24.9113 49.9302 25.266 50.2849C25.6206 50.6396 26.1958 50.6396 26.5504 50.2849L31.0913 45.7439C31.446 45.3893 31.446 44.8142 31.0913 44.4596Z" fill="white"/>
</g>
<defs>
<clipPath id="clip0">
<rect width="31" height="31" fill="white" transform="translate(25 25)"/>
</clipPath>
</defs>
</svg>
