<?xml version="1.0" encoding="utf-8"?>
<!-- Generator: Adobe Illustrator 21.0.0, SVG Export Plug-In . SVG Version: 6.00 Build 0)  -->
<svg version="1.1" id="Слой_1" xmlns="http://www.w3.org/2000/svg" xmlns:xlink="http://www.w3.org/1999/xlink" x="0px" y="0px"
	 viewBox="0 0 60 54" style="enable-background:new 0 0 60 54;" xml:space="preserve">
<style type="text/css">
	.st0{fill:#3862F7;}
</style>
<path class="st0" d="M57,0H3C1.3,0,0,1.3,0,3v38c0,1.7,1.3,3,3,3h23v4h-8c-1.7,0-3,1.3-3,3v2c0,0.6,0.4,1,1,1h28c0.6,0,1-0.4,1-1v-2
	c0-1.7-1.3-3-3-3h-7v-4h22c1.7,0,3-1.3,3-3V3C60,1.3,58.7,0,57,0z M42,50c0.6,0,1,0.4,1,1v1H17v-1c0-0.6,0.4-1,1-1H42z M28,48v-4h5
	v4H28z M58,41c0,0.6-0.4,1-1,1H3c-0.6,0-1-0.4-1-1v-3h56V41z M58,36H2V8.1h56V36z M58,6.1H2V3c0-0.6,0.4-1,1-1h54c0.6,0,1,0.4,1,1
	V6.1z M39.2,18H15.7v-2h23.5V18z M27.1,22.2v3.7c0,0.5-0.4,0.9-0.9,0.9h-7.5c-0.5,0-0.9-0.4-0.9-0.9v-3.7c0-0.5,0.4-0.9,0.9-0.9h7.5
	C26.6,21.3,27.1,21.7,27.1,22.2z M25.2,23.1h-5.6V25h5.6V23.1z M41,11.9v13.4c0,0.3-0.1,0.6-0.4,0.7c-0.2,0.2-0.5,0.2-0.8,0.1L36,25
	l1.1,3.8c0.1,0.3,0,0.6-0.1,0.8c-0.2,0.2-0.4,0.4-0.7,0.4H14.9c-0.5,0-0.9-0.4-0.9-0.9V11.9c0-0.5,0.4-0.9,0.9-0.9h25.2
	C40.6,11,41,11.4,41,11.9z M39.2,24.1V12.8H15.8v15.4h19.3l-1.3-4.3c-0.1-0.3,0-0.7,0.2-0.9c0.2-0.2,0.6-0.3,0.9-0.2L39.2,24.1
	L39.2,24.1z"/>
<path class="st0" d="M45.7,30.8l-2.2-2.2l1.2-1.2c0.2-0.2,0.3-0.6,0.2-0.9c-0.1-0.3-0.3-0.6-0.6-0.7L35.2,23c-0.3-0.1-0.7,0-0.9,0.2
	c-0.2,0.2-0.3,0.6-0.2,0.9l2.8,9.2c0.1,0.3,0.3,0.6,0.7,0.6c0.3,0.1,0.6,0,0.9-0.2l1.3-1.3l2.2,2.2c0.2,0.2,0.4,0.3,0.6,0.3
	c0.2,0,0.5-0.1,0.6-0.3l2.6-2.6C46.1,31.8,46.1,31.2,45.7,30.8z M42.5,32.8l-2-2c-0.2-0.2-0.5-0.4-0.8-0.4c-0.3,0-0.6,0.1-0.8,0.4
	l-0.7,0.7l-1.8-6.1l6.1,1.8l-0.7,0.7c-0.2,0.2-0.3,0.5-0.3,0.7c0,0.3,0.1,0.5,0.3,0.7l2.1,2.1L42.5,32.8z"/>
</svg>
