<svg xmlns="http://www.w3.org/2000/svg" viewBox="0 0 20 18"><defs><style>.cls-1{fill:#8d8d8d;}.cls-2{fill:#f12626;}</style></defs><title>map</title><g id="Слой_2" data-name="Слой 2"><g id="иконки"><path class="cls-1" d="M13.61,16.1s0,0,0-.08l-.07.07a1.77,1.77,0,0,1-.34.62.54.54,0,0,1-.41.26s0,0-.06.06l0,0a.5.5,0,0,0,.39-.12.89.89,0,0,1,.18-.15.56.56,0,0,0,.33-.54C13.62,16.21,13.62,16.15,13.61,16.1ZM4,11.61l0,0-.08.12a.15.15,0,0,0-.23.12l0,.08a.44.44,0,0,1,0,.07s.07,0,.09,0l.14-.08s.06-.1.1-.11S4,11.69,4,11.61Zm-.73.76-.1,0,0,0c0,.07,0,.14-.06.24s.17,0,.2,0a.31.31,0,0,0,0-.17S3.31,12.37,3.29,12.37ZM1.35,14.56l-.12,0s0,0,0,.06l.11,0s0,0,.11,0Zm17.71,1.31-.67-.69s0,.06,0,.08a1.65,1.65,0,0,0,.18.28s.1.06.13.1.18.3.27.44l.08.12C19,16.07,19,16,19.06,15.88ZM11.58,11c0,.07,0,.11-.07.17l.22,0h0l0,0Zm2,5.15s0,0,0-.08l-.07.07a1.77,1.77,0,0,1-.34.62.54.54,0,0,1-.41.26s0,0-.06.06l0,0a.5.5,0,0,0,.39-.12.89.89,0,0,1,.18-.15.56.56,0,0,0,.33-.54C13.62,16.21,13.62,16.15,13.61,16.1ZM4,11.61l0,0-.08.12a.15.15,0,0,0-.23.12l0,.08a.44.44,0,0,1,0,.07s.07,0,.09,0l.14-.08s.06-.1.1-.11S4,11.69,4,11.61Zm-.73.76-.1,0,0,0c0,.07,0,.14-.06.24s.17,0,.2,0a.31.31,0,0,0,0-.17S3.31,12.37,3.29,12.37ZM1.35,14.56l-.12,0s0,0,0,.06l.11,0s0,0,.11,0Zm7.59-2.17a.35.35,0,0,1,0,.08.43.43,0,0,0-.07.22c0,.17-.26.3-.45.25s-.1,0-.12,0,0,.12.07.14.19.09.3,0A.62.62,0,0,1,8.87,13,.17.17,0,0,0,9,12.84c0-.08.07-.1.15-.08l0,0a.08.08,0,0,1,.06.1h0s0,0,0,.06,0,.14.13.12l.6,1,1.46-2.41c.08,0,.14-.09.22-.12s0,0,0-.07l.09-.14.1.06,0,0,.12,0c.05.15.05.15.19.07a.29.29,0,0,1,.32.1l.1.14c-.11.18-.35.32-.44.54l0,0,.38-.2c.07,0,.13-.08.2,0h.08a.24.24,0,0,1,.33,0,.4.4,0,0,0,.41,0s0-.09,0-.14a.79.79,0,0,1,.23,0,.39.39,0,0,1,.3.21.41.41,0,0,0,.44.21l0-.15.16-.09a.24.24,0,0,1,.14,0c.11,0,.14,0,.16-.11s0-.09-.05-.13a.84.84,0,0,0-.09-.15l.44-.2s.08,0,.09,0,.07,0,.13,0,.15-.06.23,0,.08,0,.1,0,.07-.11.11-.17.13-.12.23,0a.32.32,0,0,0,.33,0s0-.1,0-.14a.45.45,0,0,0,.1-.09.25.25,0,0,1,.22-.13c.08,0,.09,0,.05-.1a.71.71,0,0,0-.14-.1l-.11,0c0-.26.18-.38.39-.47s.13-.08.19-.1a1.23,1.23,0,0,1,.19,0l.1,0L17.41,10s-.06,0-.05-.07a.14.14,0,0,1,.08-.07.1.1,0,0,1,.09,0l.37.32-.2.08a.91.91,0,0,1,0,.1h-.14c0,.11,0,.16.11.17a.31.31,0,0,1,.25.24c0,.09,0,.11.13.09a.53.53,0,0,1,.37.07l0,0a1.57,1.57,0,0,0,.39.83.89.89,0,0,0,.05.09c-.14,0-.13.14-.15.25s.07.21,0,.31a.19.19,0,0,0,0,.12c.07.1.15.19.23.29s.09.11.18.07l.21.14,0,0a.42.42,0,0,0,.23.29.1.1,0,0,1,.07.13.29.29,0,0,0,.12.31.1.1,0,0,1,.05.1.24.24,0,0,0,.07.21,2.16,2.16,0,0,1,.09.23l0,0c-.15-.12-.31-.23-.45-.36l-.43-.4a.63.63,0,0,1-.1-.18,0,0,0,0,0,0,0c-.13-.07-.1-.18-.11-.29a.57.57,0,0,0-.07-.21,1.74,1.74,0,0,1-.25-.62s-.05,0-.07-.08L18.24,12s0,0-.08,0a.1.1,0,0,0,0,.07.56.56,0,0,0,0,.12l.21.33,0,0-.07-.06s-.08-.06-.1-.06-.11.07-.12.12a.75.75,0,0,0,0,.26,2.72,2.72,0,0,0,.15.36.52.52,0,0,0,.11.15l0,.08c-.11,0-.22.06-.33.11a.1.1,0,0,0-.05.1c0,.07,0,.09-.07.12s-.25.15-.36.24a.29.29,0,0,0-.07.19c0,.16,0,.32,0,.49a1.42,1.42,0,0,1-.09.58s0,.15,0,.17.13,0,.18,0l.24.11c.07,0,.15-.07.15-.15s0-.12.14-.09a.41.41,0,0,1,.17.07h-.06l-.06,0s0,0,.06,0a.38.38,0,0,0,.1,0,.21.21,0,0,1,.17.16,1.73,1.73,0,0,0,.12.32,2.19,2.19,0,0,1,.18.34,1.83,1.83,0,0,1,0,.41s0,.06,0,.09a2.07,2.07,0,0,1-.12.92.89.89,0,0,1-.22.3s-.09,0-.13,0A.13.13,0,0,0,18,18l-.13-.23a.12.12,0,0,1,.12-.16c.13,0,.16-.07.15-.17s0-.45-.07-.67-.07-.12-.16,0l-.24.25c-.08.08-.14.07-.21,0s-.08-.13-.13-.14a.93.93,0,0,0-.4,0c-.1,0-.13,0-.16-.06a1.49,1.49,0,0,0-.47-.5.33.33,0,0,0-.17,0H16a.64.64,0,0,0-.61.23.39.39,0,0,0,0,.14c.14,0,.14,0,.1.14a1.63,1.63,0,0,0-.07.32.25.25,0,0,1-.27.19,3.91,3.91,0,0,0-.49,0s-.1,0-.14.08a1.08,1.08,0,0,1-.76.22.15.15,0,0,1-.09,0c-.14-.06-.28-.13-.43-.18a.58.58,0,0,0-.43,0,.36.36,0,0,1-.36,0l0,0c0-.22-.24-.17-.36-.26a.42.42,0,0,0-.12,0,.35.35,0,0,0-.35.13s0,.07,0,.11,0,.22-.18.22a1.43,1.43,0,0,1-.29,0,.47.47,0,0,1-.15-.06l-.15-.06h-.08a1.57,1.57,0,0,0-1.19.2l0,0c0-.16,0-.19-.2-.19a.18.18,0,0,1-.19-.11A.83.83,0,0,0,9,16.9a.37.37,0,0,0-.19-.08,2.15,2.15,0,0,0-.25,0s-.06,0-.06,0-.13-.14-.25-.08c-.14-.25-.08-.57-.33-.76A1.38,1.38,0,0,1,8,15.78c-.14,0-.25,0-.37,0s-.17,0-.22-.08,0,0,0-.06-.14,0-.15-.1H7a.74.74,0,0,0,0-.26s-.12-.07-.19-.09a.53.53,0,0,0-.33,0c-.1,0-.22,0-.33,0A4.29,4.29,0,0,1,5.3,15c-.15,0-.11.08-.13.16s-.17,0-.2.12-.13,0-.22,0l.11.27s0,0,0,0-.3,0-.36-.12a1,1,0,0,0-.21-.19.69.69,0,0,0-.3-.07H3.88A2.18,2.18,0,0,1,3.71,15a.63.63,0,0,0-.08-.14c-.06-.11-.2-.1-.27-.17a.2.2,0,0,0-.11,0H3.06a1.73,1.73,0,0,0-.32,0s-.06.08-.11.14a1.62,1.62,0,0,1,0-.21.67.67,0,0,0-.39.17h0c-.15,0-.2.09-.21.23a.15.15,0,0,0,0,.13.16.16,0,0,1,0,.13.1.1,0,0,1-.13.07c-.05,0-.1,0-.09.08s0,0,0,.06h0v-.06c0-.07-.06-.08-.12,0l-.4.21-.05,0c0,.22-.23.35-.23.56s-.12.14-.19.12a.07.07,0,0,1,0-.06A1.11,1.11,0,0,1,.72,16a.27.27,0,0,1,0-.09.2.2,0,0,0-.12-.24.17.17,0,0,1-.12-.14.55.55,0,0,0-.12-.19L.1,15a.16.16,0,0,1,0-.07L0,14.53s0-.06,0-.06l.38,0,0-.08.18,0,.14,0s0-.09-.05-.14.1,0,.15,0,.08,0,.11,0a3.36,3.36,0,0,0,.37-.2.12.12,0,0,0,0-.11c0-.08-.1-.16-.1-.23s-.08-.19-.15-.28,0-.07,0-.09.09-.13,0-.2c.23-.14.22-.24,0-.38l.16-.12c.05.11.15.06.25.06a1.15,1.15,0,0,1,.05-.2.3.3,0,0,1,.22-.24.12.12,0,0,0,.05-.21c-.08-.09-.07-.13,0-.2a2.6,2.6,0,0,1,.79-.37s.11,0,.15,0,0,.07.06.11l.07,0a.38.38,0,0,0,0-.15c0-.09,0-.11.09-.1l.2,0-.29.31c.14,0,.25.11.38,0s.14-.2.11-.36h.21a.31.31,0,0,0,.28-.15l0,0c.18,0,.23-.21.39-.22a.82.82,0,0,0,.35-.17c.06,0,.14,0,.21-.06a.47.47,0,0,0,.18-.12.16.16,0,0,1,.16-.1.49.49,0,0,1,.35,0,.73.73,0,0,0,0,.18.89.89,0,0,1,0,.56s-.13.11-.21.14a.23.23,0,0,1-.27-.06A1.69,1.69,0,0,1,5,11.08a.36.36,0,0,1,0-.15c-.12,0-.12.09-.16.15a.93.93,0,0,1-.13.15l-.25.16c-.07,0,0,.34.07.36a.46.46,0,0,0,.16,0c.05,0,.06-.07,0-.12l.06-.08h0s0,.08,0,.1a1.94,1.94,0,0,0,.17.23H5A.27.27,0,0,0,5,11.76a.2.2,0,0,1,.25-.1.81.81,0,0,0,.22,0c0,.07,0,.13,0,.21a.6.6,0,0,0,.38-.24.27.27,0,0,0,0,.09c0,.06,0,.14,0,.17a.23.23,0,0,0,.2,0,.57.57,0,0,1,.36,0,2.49,2.49,0,0,1,.29.06s.08.07.12.09.09.07.12.06a.28.28,0,0,1,.2,0,.59.59,0,0,0,.19,0v.12a.78.78,0,0,0,.15,0c.08,0,.19,0,.2-.14h.08a.91.91,0,0,1,.43.46s.06.06.08,0,.13,0,.14-.09a.61.61,0,0,0,0-.21c0-.09.07-.17.11-.24s0,0,.08-.07l0,0Z"/><path class="cls-2" d="M10,14.53a.89.89,0,0,1-.77-.44L6,9a.5.5,0,0,1,.16-.68.5.5,0,0,1,.69.16l3.1,5,3.62-6a4.29,4.29,0,1,0-7.68-.61.5.5,0,0,1-.28.64A.5.5,0,0,1,5,7.19a5.29,5.29,0,1,1,9.46.76L10.73,14.1A.89.89,0,0,1,10,14.53Zm-.09-.94h0Zm.17,0h0ZM9.89,7.34A2.09,2.09,0,1,1,12,5.26,2.1,2.1,0,0,1,9.89,7.34Zm0-3.18A1.09,1.09,0,1,0,11,5.26,1.1,1.1,0,0,0,9.89,4.16Z"/></g></g></svg>