<svg xmlns="http://www.w3.org/2000/svg" viewBox="0 0 14.97 20.5"><defs><style>.cls-1{fill:#8d8d8d;}.cls-2{fill:#f12626;}</style></defs><title>Ресурс 57</title><g id="Слой_2" data-name="Слой 2"><g id="иконки"><path class="cls-1" d="M7.5,14.88a.5.5,0,0,1-.3-.1L5.8,13.71l-1.73.24a.5.5,0,0,1-.53-.3L2.87,12l-1.62-.66a.5.5,0,0,1-.31-.53L1,10.31a.5.5,0,0,1,1,.13l0,.16,1.27.52a1,1,0,0,1,.54.55l.51,1.24,1.36-.18h.14a1,1,0,0,1,.56.17l1.13.86,1.1-.84a1.17,1.17,0,0,1,.7-.19l1.39.19.52-1.26a1,1,0,0,1,.54-.53L13,10.59l-.19-1.33a1,1,0,0,1,.2-.74l.82-1.07L13,6.36a1,1,0,0,1-.2-.71L13,4.29l-1.26-.51a1,1,0,0,1-.55-.55L10.69,2l-1.36.18A1.07,1.07,0,0,1,8.61,2L7.5,1.13,6.4,2a1.07,1.07,0,0,1-.7.19L4.31,2,3.79,3.23a.92.92,0,0,1-.51.53L2,4.29l.18,1.35A1,1,0,0,1,2,6.35l-.84,1.1.47.6a.5.5,0,1,1-.79.61L.1,7.76a.5.5,0,0,1,0-.61L1.17,5.75.94,4a.5.5,0,0,1,.31-.53l1.63-.66.66-1.61a.49.49,0,0,1,.53-.3l1.74.23L7.2.1A.5.5,0,0,1,7.8.1L9.2,1.17,10.93.93a.5.5,0,0,1,.53.3l.67,1.61,1.62.66a.5.5,0,0,1,.31.53l-.23,1.73,1,1.32a.58.58,0,0,1,0,.72l-1,1.33.23,1.72a.5.5,0,0,1-.31.51L12.13,12l-.67,1.61a.48.48,0,0,1-.5.29l-.21,0-1.55-.21L7.8,14.78A.5.5,0,0,1,7.5,14.88Zm4-2.4V20a.48.48,0,0,1-.35.44.57.57,0,0,1-.22,0,.68.68,0,0,1-.4-.13l-3-2.43-3,2.43a.65.65,0,0,1-.62.09A.48.48,0,0,1,3.5,20V12.48a.4.4,0,0,1,0-.15L4,13.45l.64-.08V18.9l2.47-2a.65.65,0,0,1,.78,0l2.47,2V13.37l.43.06.21,0,.09-.2.38-.92A.4.4,0,0,1,11.5,12.48Z"/><path class="cls-2" d="M7.5,4.5a3,3,0,1,1-3,3,3,3,0,0,1,3-3m0-1a4,4,0,1,0,4,4,4,4,0,0,0-4-4Z"/></g></g></svg>