<svg width="32" height="22" viewBox="0 0 32 22" fill="none" xmlns="http://www.w3.org/2000/svg">
<path d="M28.6667 0H3.33332C1.496 0 0 1.54275 0 3.43754V18.5625C0 20.4573 1.496 22 3.33332 22H28.6667C30.504 22 32 20.4573 32 18.5625V3.43754C32.0001 1.54275 30.5041 0 28.6667 0ZM30.6667 18.5625C30.6667 19.6996 29.7694 20.625 28.6667 20.625H3.33332C2.23063 20.625 1.33332 19.6996 1.33332 18.5625V3.43754C1.33332 2.30039 2.23063 1.37504 3.33332 1.37504H28.6667C29.7694 1.37504 30.6667 2.30039 30.6667 3.43754V18.5625H30.6667Z" fill="#8D8D8D"/>
</svg>
