<?xml version="1.0" encoding="utf-8"?>
<!-- Generator: Adobe Illustrator 21.0.0, SVG Export Plug-In . SVG Version: 6.00 Build 0)  -->
<svg version="1.1" id="Слой_1" xmlns="http://www.w3.org/2000/svg" xmlns:xlink="http://www.w3.org/1999/xlink" x="0px" y="0px"
	 viewBox="0 0 60 54" style="enable-background:new 0 0 60 54;" xml:space="preserve">
<style type="text/css">
	.st0{fill:#3862F7;}
</style>
<path class="st0" d="M57,0H3C1.3,0,0,1.3,0,3v38c0,1.7,1.3,3,3,3h23v4h-8c-1.7,0-3,1.3-3,3v2c0,0.6,0.4,1,1,1h28c0.6,0,1-0.4,1-1v-2
	c0-1.7-1.3-3-3-3h-7v-4h22c1.7,0,3-1.3,3-3V3C60,1.3,58.7,0,57,0z M42,50c0.6,0,1,0.4,1,1v1H17v-1c0-0.6,0.4-1,1-1H42z M28,48v-4h5
	v4H28z M58,41c0,0.6-0.4,1-1,1H3c-0.6,0-1-0.4-1-1v-3h56V41z M58,36H2V8.1h56V36z M58,6.1H2V3c0-0.6,0.4-1,1-1h54c0.6,0,1,0.4,1,1
	V6.1z M39.2,20.3c-0.5,0-0.8,0.4-0.8,0.8V22c0,2.2-0.9,4.3-2.4,5.9c-1.6,1.6-3.7,2.4-5.9,2.4c0,0,0,0,0,0c-4.6,0-8.3-3.7-8.3-8.3
	c0-2.2,0.9-4.3,2.4-5.9c1.6-1.6,3.7-2.4,5.9-2.4c0,0,0,0,0,0c1.2,0,2.3,0.2,3.4,0.7c0.4,0.2,0.9,0,1.1-0.4c0.2-0.4,0-0.9-0.4-1.1
	C32.8,12.3,31.4,12,30,12c0,0,0,0,0,0c-2.7,0-5.2,1-7.1,2.9C21,16.8,20,19.3,20,22c0,2.7,1,5.2,2.9,7.1C24.8,31,27.3,32,30,32
	c0,0,0,0,0,0c2.7,0,5.2-1,7.1-2.9C39,27.2,40,24.7,40,22v-0.9C40,20.7,39.6,20.3,39.2,20.3z M40.8,13.2c-0.3-0.3-0.9-0.3-1.2,0
	L30,23.2l-2.2-2.3c-0.3-0.3-0.9-0.3-1.2,0c-0.3,0.3-0.3,0.9,0,1.3l2.8,2.9c0.2,0.2,0.4,0.3,0.6,0.3s0.4-0.1,0.6-0.3l10.1-10.6
	C41.1,14.1,41.1,13.6,40.8,13.2z"/>
</svg>
