<svg width="60" height="60" viewBox="0 0 60 60" fill="none" xmlns="http://www.w3.org/2000/svg">
<path d="M0 21.5V19.5H4V5.5C3.99987 4.94787 4.44738 4.50012 4.9995 4.5C4.99963 4.5 4.99987 4.5 5 4.5H27C27.5521 4.49987 27.9999 4.94737 28 5.4995C28 5.49962 28 5.49987 28 5.5V19.5H31V5.5C30.9999 4.94787 31.4474 4.50012 31.9995 4.5C31.9996 4.5 31.9999 4.5 32 4.5H54C54.5521 4.49987 54.9999 4.94737 55 5.4995C55 5.49962 55 5.49987 55 5.5V19.5H58V0.5H60V58.5C60.0001 59.0521 59.5526 59.4999 59.0005 59.5C59.0004 59.5 59.0001 59.5 59 59.5H0V57.5H4V43.5C3.99987 42.9479 4.44738 42.5001 4.9995 42.5C4.99963 42.5 4.99987 42.5 5 42.5H27C27.5521 42.4999 27.9999 42.9474 28 43.4995C28 43.4996 28 43.4999 28 43.5V57.5H31V43.5C30.9999 42.9479 31.4474 42.5001 31.9995 42.5C31.9996 42.5 31.9999 42.5 32 42.5H54C54.5521 42.4999 54.9999 42.9474 55 43.4995C55 43.4996 55 43.4999 55 43.5V57.5H58V40.5H0V38.5H4V24.5C3.99987 23.9479 4.44738 23.5001 4.9995 23.5C4.99963 23.5 4.99987 23.5 5 23.5H27C27.5521 23.4999 27.9999 23.9474 28 24.4995C28 24.4996 28 24.4999 28 24.5V38.5H31V24.5C30.9999 23.9479 31.4474 23.5001 31.9995 23.5C31.9996 23.5 31.9999 23.5 32 23.5H54C54.5521 23.4999 54.9999 23.9474 55 24.4995C55 24.4996 55 24.4999 55 24.5V38.5H58V21.5H0ZM18 6.5H14V10.5H18V6.5ZM26 6.5H20V11.5C20.0001 12.0521 19.5526 12.4999 19.0005 12.5C19.0004 12.5 19.0001 12.5 19 12.5H13C12.4479 12.5001 12.0001 12.0526 12 11.5005C12 11.5004 12 11.5001 12 11.5V6.5H6V19.5H26V6.5ZM45 6.5H41V10.5H45V6.5ZM53 6.5H47V11.5C47.0001 12.0521 46.5526 12.4999 46.0005 12.5C46.0004 12.5 46.0001 12.5 46 12.5H40C39.4479 12.5001 39.0001 12.0526 39 11.5005C39 11.5004 39 11.5001 39 11.5V6.5H33V19.5H53V6.5ZM18 44.5H14V48.5H18V44.5ZM26 44.5H20V49.5C20.0001 50.0521 19.5526 50.4999 19.0005 50.5C19.0004 50.5 19.0001 50.5 19 50.5H13C12.4479 50.5001 12.0001 50.0526 12 49.5005C12 49.5004 12 49.5001 12 49.5V44.5H6V57.5H26V44.5ZM45 44.5H41V48.5H45V44.5ZM53 44.5H47V49.5C47.0001 50.0521 46.5526 50.4999 46.0005 50.5C46.0004 50.5 46.0001 50.5 46 50.5H40C39.4479 50.5001 39.0001 50.0526 39 49.5005C39 49.5004 39 49.5001 39 49.5V44.5H33V57.5H53V44.5ZM18 26.5H14V30.5H18V26.5ZM26 25.5H20V31.5C20.0001 32.0521 19.5526 32.4999 19.0005 32.5C19.0004 32.5 19.0001 32.5 19 32.5H13C12.4479 32.5001 12.0001 32.0526 12 31.5005C12 31.5004 12 31.5001 12 31.5V25.5H6V38.5H26V25.5ZM45 25.5H41V29.5H45V25.5ZM53 25.5H47V30.5C47.0001 31.0521 46.5526 31.4999 46.0005 31.5C46.0004 31.5 46.0001 31.5 46 31.5H40C39.4479 31.5001 39.0001 31.0526 39 30.5005C39 30.5004 39 30.5001 39 30.5V25.5H33V38.5H53V25.5Z" fill="#0F28BF"/>
</svg>
