<svg width="59" height="60" viewBox="0 0 59 60" fill="none" xmlns="http://www.w3.org/2000/svg">
<path d="M49.1667 10.594V5C49.1632 2.24 46.964 0.0035 44.25 0H4.91667C2.20267 0.0035 0.00344167 2.24 0 5V27C0.00762085 29.5538 1.91111 31.6895 4.40927 31.9485L8.10562 41.7063C9.08207 44.2828 11.9273 45.5663 14.4611 44.5745L37.5437 35.532C35.9487 39.7688 36.4025 44.5215 38.7684 48.3673L39.3333 49.286V59C39.3333 59.5525 39.7734 60 40.3167 60H58.0167C58.56 60 59 59.5525 59 59V25.9913C58.9907 22.533 57.6369 19.2195 55.2326 16.7738L49.1667 10.594ZM49.1667 16.5745L52.1511 24.453C52.7359 25.9995 51.978 27.7348 50.4575 28.33L48.7517 29C49.0241 28.3695 49.1652 27.688 49.1667 27V16.5745ZM1.96667 27V5C1.96667 3.3435 3.28777 2 4.91667 2H44.25C45.8789 2 47.2 3.3435 47.2 5V11.356H47.1914L47.2 11.3788V27C47.1924 27.1745 47.17 27.3475 47.1331 27.518L38.1258 18.357C36.1011 16.3455 32.8733 16.33 30.8305 18.3205C28.7871 20.3123 28.6644 23.5923 30.5541 25.7348L34.3941 30H4.91667C3.28777 30 1.96667 28.6565 1.96667 27ZM14.5641 32L7.57167 34.7378L6.5372 32H14.5641ZM13.7539 42.7078C12.2337 43.3038 10.5263 42.533 9.94052 40.987L8.28163 36.6L20.0197 32V31.994H36.1965L37.4746 33.411L13.7539 42.7078ZM57.0333 58H41.3V50H57.0333V58ZM57.0333 48H40.8624L40.4359 47.307C38.0383 43.4105 37.9429 38.489 40.1869 34.5C40.3993 34.1225 40.3471 33.6485 40.058 33.328L31.9999 24.388C30.7982 23.0505 30.8658 20.9828 32.1523 19.73C33.4392 18.477 35.4735 18.4975 36.7351 19.7755L52.4048 35.707L53.7952 34.293L50.1569 30.593L51.1658 30.193C53.6974 29.1998 54.959 26.3088 53.985 23.7328L50.6567 14.9438L53.8422 18.19C55.8777 20.2595 57.0255 23.064 57.0333 25.9913V48Z" fill="#0F28BF"/>
<path d="M11.2098 14C12.6218 14 13.7664 12.836 13.7664 11.4V6.6C13.7664 5.164 12.6218 4 11.2098 4H6.48977C5.07771 4 3.93311 5.164 3.93311 6.6V11.4C3.93311 12.836 5.07771 14 6.48977 14H11.2098ZM5.89977 11.4V10H7.86644V8H5.89977V6.6C5.89977 6.26875 6.16404 6 6.48977 6H11.2098C11.5355 6 11.7998 6.26875 11.7998 6.6V8H9.83311V10H11.7998V11.4C11.7998 11.7313 11.5355 12 11.2098 12H6.48977C6.16404 12 5.89977 11.7313 5.89977 11.4Z" fill="#0F28BF"/>
<path d="M4.9165 17H8.84984V19H4.9165V17Z" fill="#0F28BF"/>
<path d="M4.9165 23H8.84984V25H4.9165V23Z" fill="#0F28BF"/>
<path d="M22.6167 23H26.55V25H22.6167V23Z" fill="#0F28BF"/>
<path d="M10.8169 17H14.7502V19H10.8169V17Z" fill="#0F28BF"/>
<path d="M16.7168 17H20.6501V19H16.7168V17Z" fill="#0F28BF"/>
<path d="M22.6167 17H26.55V19H22.6167V17Z" fill="#0F28BF"/>
<path d="M41.2998 5H43.2665V8H41.2998V5Z" fill="#0F28BF"/>
<path d="M37.3667 5H39.3334V8H37.3667V5Z" fill="#0F28BF"/>
<path d="M33.4331 5H35.3998V8H33.4331V5Z" fill="#0F28BF"/>
<path d="M29.5 5H31.4666V8H29.5V5Z" fill="#0F28BF"/>
<path d="M43.2666 52H45.2333V54H43.2666V52Z" fill="#0F28BF"/>
</svg>
