<?xml version="1.0" encoding="utf-8"?>
<!-- Generator: Adobe Illustrator 21.0.0, SVG Export Plug-In . SVG Version: 6.00 Build 0)  -->
<svg version="1.1" id="Слой_1" xmlns="http://www.w3.org/2000/svg" xmlns:xlink="http://www.w3.org/1999/xlink" x="0px" y="0px"
	 viewBox="0 0 44 44" style="enable-background:new 0 0 44 44;" xml:space="preserve">
<style type="text/css">
	.st0{fill:#3862F7;}
</style>
<path class="st0" d="M0,42.7L42.6,0l1.3,1.3L1.3,44L0,42.7z M9.6,19.1c5.3,0,9.5-4.3,9.5-9.5c0-5.3-4.3-9.5-9.5-9.5
	C4.3,0,0.1,4.3,0.1,9.5C0.1,14.8,4.3,19.1,9.6,19.1z M9.6,1.8c4.3,0,7.7,3.5,7.7,7.7s-3.5,7.7-7.7,7.7c-4.3,0-7.7-3.5-7.7-7.7
	S5.3,1.8,9.6,1.8z M34.5,24.9c-5.3,0-9.5,4.3-9.5,9.5s4.3,9.5,9.5,9.5c5.3,0,9.5-4.3,9.5-9.5S39.7,24.9,34.5,24.9z M34.5,42.2
	c-4.3,0-7.7-3.5-7.7-7.7c0-4.3,3.5-7.7,7.7-7.7c4.3,0,7.7,3.5,7.7,7.7C42.2,38.7,38.7,42.2,34.5,42.2z"/>
</svg>
