<?xml version="1.0" encoding="utf-8"?>
<!-- Generator: Adobe Illustrator 21.0.0, SVG Export Plug-In . SVG Version: 6.00 Build 0)  -->
<svg version="1.1" id="Слой_1" xmlns="http://www.w3.org/2000/svg" xmlns:xlink="http://www.w3.org/1999/xlink" x="0px" y="0px"
	 viewBox="0 0 500 298" style="enable-background:new 0 0 500 298;" xml:space="preserve">
<style type="text/css">
	.st0{opacity:0.3;}
</style>
<g class="st0">
	<path d="M292,124.7h-14.2l-6.7-16.7h-42.3l-6.7,16.7H220v-8.4h-10v8.4h-2c-4.4,0-8,3.6-8,8v49.1c0,4.5,3.6,8.1,8.1,8.1h83.9
		c4.4,0,8.1-3.6,8.1-8.1v-49.1C300,128.3,296.4,124.7,292,124.7z M213.3,119.7h3.3v5h-3.3V119.7z M296.7,181.9
		c0,2.6-2.1,4.7-4.7,4.7h-83.9c-2.6,0-4.7-2.1-4.7-4.7v-49.1c0-2.6,2.1-4.7,4.7-4.7h2h10h4.5l6.7-16.7h37.7l6.7,16.7H292
		c2.6,0,4.7,2.1,4.7,4.7C296.7,132.8,296.7,181.9,296.7,181.9z"/>
	<path d="M250,123.1c-16.5,0-30,13.5-30,30.1s13.5,30.1,30,30.1s30-13.5,30-30.1S266.5,123.1,250,123.1z M250,180
		c-14.7,0-26.7-12-26.7-26.8c0-14.8,12-26.8,26.7-26.8s26.7,12,26.7,26.8S264.7,180,250,180z"/>
	<path d="M250,133.1c-11,0-20,9-20,20.1s9,20.1,20,20.1c11,0,20-9,20-20.1S261,133.1,250,133.1z M250,169.9
		c-9.2,0-16.7-7.5-16.7-16.7s7.5-16.7,16.7-16.7s16.7,7.5,16.7,16.7S259.2,169.9,250,169.9z"/>
	<path d="M286.7,131.4c-3.7,0-6.7,3-6.7,6.7c0,3.7,3,6.7,6.7,6.7s6.7-3,6.7-6.7C293.3,134.4,290.3,131.4,286.7,131.4z M286.7,141.5
		c-1.8,0-3.3-1.5-3.3-3.3s1.5-3.3,3.3-3.3c1.8,0,3.3,1.5,3.3,3.3S288.5,141.5,286.7,141.5z"/>
</g>
</svg>
