<?xml version="1.0" encoding="utf-8"?>
<!-- Generator: Adobe Illustrator 21.0.0, SVG Export Plug-In . SVG Version: 6.00 Build 0)  -->
<svg version="1.1" id="Слой_1" xmlns="http://www.w3.org/2000/svg" xmlns:xlink="http://www.w3.org/1999/xlink" x="0px" y="0px"
	 viewBox="0 0 59 60" style="enable-background:new 0 0 59 60;" xml:space="preserve">
<style type="text/css">
	.st0{fill:#3862F7;}
	.st1{display:none;fill:#3862F7;}
</style>
<g>
	<path class="st0" d="M58.8,50.6l-9.2-14c-0.3-0.4-0.9-0.5-1.3-0.3c-0.4,0.3-0.5,0.9-0.3,1.3l8.3,12.5H2.6l8.3-12.5
		c0.3-0.4,0.2-1-0.3-1.3c-0.4-0.3-1-0.2-1.3,0.3l-9.1,14c-0.2,0.3-0.2,0.7,0,1C0.3,51.8,0.6,52,0.9,52h57.2c0.3,0,0.7-0.2,0.8-0.5
		C59.1,51.2,59,50.9,58.8,50.6z"/>
	<path class="st0" d="M58.1,50.2H0.9c-0.5,0-0.9,0.4-0.9,0.9v3.8c0,0.5,0.4,0.9,0.9,0.9h57.2c0.5,0,0.9-0.4,0.9-0.9v-3.8
		C59,50.6,58.6,50.2,58.1,50.2z M57.2,53.9H1.8V52h55.3v1.9H57.2z"/>
	<path class="st0" d="M14.3,39.9c-0.5-0.2-1,0-1.2,0.4L8.2,50.7c-0.2,0.5,0,1,0.4,1.2C8.8,52,8.9,52,9.1,52c0.3,0,0.7-0.2,0.8-0.5
		l4.8-10.3C15,40.7,14.8,40.2,14.3,39.9z"/>
	<path class="st0" d="M50.8,50.7L49,46.9c-0.2-0.5-0.8-0.7-1.2-0.4c-0.5,0.2-0.7,0.8-0.4,1.2l1.8,3.8c0.2,0.3,0.5,0.5,0.8,0.5
		c0.1,0,0.3,0,0.4-0.1C50.8,51.7,51,51.2,50.8,50.7z"/>
	<path class="st0" d="M47.2,43.3l-3.1-6c-0.2-0.5-0.8-0.6-1.2-0.4c-0.5,0.2-0.7,0.7-0.4,1.1l3.1,6c0.2,0.3,0.5,0.5,0.8,0.5
		c0.1,0,0.3,0,0.4-0.1C47.3,44.2,47.5,43.8,47.2,43.3z"/>
	<path class="st0" d="M20.1,40.8c-0.5-0.1-1,0.1-1.1,0.6l-1.3,4.7c-0.1,0.5,0.1,1,0.6,1.2c0.1,0,0.2,0,0.3,0c0.4,0,0.8-0.3,0.9-0.7
		l1.3-4.7C20.9,41.5,20.6,41,20.1,40.8z"/>
	<path class="st1" d="M41.3,45.7L40,41.5c-0.1-0.5-0.7-0.8-1.1-0.6c-0.5,0.1-0.8,0.7-0.6,1.2l1.3,4.4c0.1,0.4,0.5,0.7,0.9,0.7
		c0.1,0,0.2,0,0.3,0C41.2,46.8,41.5,46.2,41.3,45.7z"/>
	<path class="st0" d="M13.9,39.8H7.7c-0.5,0-0.9,0.4-0.9,0.9s0.4,0.9,0.9,0.9h6.2c0.5,0,0.9-0.4,0.9-0.9
		C14.8,40.3,14.4,39.8,13.9,39.8z"/>
	<path class="st0" d="M55.5,46.4h-7.3c-0.5,0-0.9,0.4-0.9,0.9c0,0.5,0.4,0.9,0.9,0.9h7.3c0.5,0,0.9-0.4,0.9-0.9S56,46.4,55.5,46.4z"
		/>
	<path class="st0" d="M53.2,42.7h-6.8c-0.5,0-0.9,0.4-0.9,0.9s0.4,0.9,0.9,0.9h6.8c0.5,0,0.9-0.4,0.9-0.9
		C54,43.1,53.6,42.7,53.2,42.7z"/>
	<path class="st0" d="M27.6,40.8h-7.7c-0.5,0-0.9,0.4-0.9,0.9s0.4,0.9,0.9,0.9h7.7c0.5,0,0.9-0.4,0.9-0.9S28.1,40.8,27.6,40.8z"/>
	<path class="st0" d="M39,40.8h-7.6c-0.5,0-0.9,0.4-0.9,0.9s0.4,0.9,0.9,0.9H39c0.5,0,0.9-0.4,0.9-0.9S39.5,40.8,39,40.8z"/>
	<path class="st0" d="M40.4,45.5H18.6c-0.5,0-0.9,0.4-0.9,0.9s0.4,0.9,0.9,0.9h21.9c0.5,0,0.9-0.4,0.9-0.9S40.9,45.5,40.4,45.5z"/>
	<path class="st0" d="M29.5,4.2c-8.1,0-14.8,6.7-14.8,15c0,12.3,13.6,24.6,14.1,25.1c0.2,0.2,0.4,0.2,0.6,0.2s0.4-0.1,0.6-0.2
		c0.6-0.5,14.1-12.7,14.1-25.1C44.2,10.9,37.6,4.2,29.5,4.2z M29.5,42.3c-2.6-2.5-12.9-13-12.9-23.1c0-7.2,5.8-13.1,12.9-13.1
		S42.4,12,42.4,19.2C42.4,29.3,32.1,39.8,29.5,42.3z M29.1,26.9c-4,0-7.2-3.3-7.2-7.3s3.2-7.3,7.2-7.3s7.2,3.3,7.2,7.3
		C36.3,23.6,33.1,26.9,29.1,26.9z M29.1,14.3c-2.9,0-5.2,2.4-5.2,5.3s2.3,5.3,5.2,5.3s5.2-2.4,5.2-5.3S32,14.3,29.1,14.3z"/>
	<path class="st0" d="M23.4,36.1H10.1c-0.5,0-0.9,0.4-0.9,0.9s0.4,0.9,0.9,0.9h13.3c0.5,0,0.9-0.4,0.9-0.9
		C24.4,36.5,24,36.1,23.4,36.1z"/>
	<path class="st0" d="M48.8,36.1H35.6c-0.5,0-0.9,0.4-0.9,0.9s0.4,0.9,0.9,0.9h13.2c0.5,0,0.9-0.4,0.9-0.9S49.3,36.1,48.8,36.1z"/>
</g>
<line class="st1" x1="39" y1="41.4" x2="40.6" y2="46.5"/>
<path class="st0" d="M38.2,42l1.5,4.6c0.1,0.4,0.5,0.7,0.9,0.7c0.1,0,0.2,0,0.3,0c0.5-0.2,0.7-0.7,0.5-1.2l-1.5-4.6
	c-0.1-0.5-0.6-0.7-1.1-0.5C38.3,41.1,38,41.6,38.2,42z"/>
</svg>
