<svg width="12" height="12" viewBox="0 0 12 12" fill="none" xmlns="http://www.w3.org/2000/svg">
<g clip-path="url(#clip0)">
<path d="M6 11.6571C9.31371 11.6571 12 9.0476 12 5.82857C12 2.60954 9.31371 0 6 0C2.68629 0 0 2.60954 0 5.82857C0 9.0476 2.68629 11.6571 6 11.6571Z" fill="#C4C4C4"/>
<path d="M7.37144 6.00084C7.02859 6.34369 6.85716 6.51512 6.68573 6.68655C6.5143 7.02941 6.5143 7.02941 6.5143 7.37227H5.3143C5.3143 7.02941 5.48573 6.51512 5.65716 6.17227C5.82859 5.65798 6.17144 5.65798 6.68573 5.14369C6.68573 4.97227 6.85716 4.80084 6.85716 4.45798C6.85716 4.28655 6.85716 4.11512 6.68573 3.94369C6.5143 3.77227 6.34287 3.77227 6.00001 3.77227C5.82859 3.77227 5.65716 3.77227 5.48573 3.94369C5.3143 3.94369 5.14287 4.28655 5.14287 4.45798H3.94287C3.94287 3.77227 4.28573 3.25798 4.80001 2.91512C5.14287 2.74369 5.48573 2.57227 6.00001 2.57227C6.68573 2.57227 7.37144 2.74369 7.7143 3.25798C8.05716 3.60084 8.05716 3.94369 8.05716 4.45798C8.05716 5.14369 7.7143 5.65798 7.37144 6.00084ZM5.3143 7.88655H6.5143V9.25798H5.3143V7.88655Z" fill="white"/>
</g>
<defs>
<clipPath id="clip0">
<rect width="12" height="11.8286" fill="white"/>
</clipPath>
</defs>
</svg>
