<svg xmlns="http://www.w3.org/2000/svg" viewBox="0 0 17.35 20"><defs><style>.cls-1{fill:#fff;}.cls-2{fill:#e1eaf8;}.cls-3{fill:#f12626;}.cls-4{fill:#434c54;}</style></defs><title>rocket_1</title><g id="Слой_2" data-name="Слой 2"><g id="иконки"><g id="rocket"><path class="cls-1" d="M2.21,11.83,12.37,1.68l3.57,3.57L5.78,15.4Z"/><path class="cls-2" d="M5.19,14.81,15.35,4.65l.59.59L5.78,15.4Zm-3-3L12.36,1.66l.59.59L2.79,12.41Zm9.33-9.33.83-.83,3.58,3.58-.83.83Z"/><path class="cls-3" d="M11.49,9.69,9.31,11.88h-7l0,0L4.35,9.69h7.14Zm4.43-4.43L13.73,7.45H6.59L8.78,5.27Zm0,0L13.73,7.45H12.55l2.19-2.19ZM11.49,9.69,9.31,11.88H8.12l2.19-2.19ZM9.94,5.27,7.75,7.45H6.59L8.78,5.27ZM5.51,9.69,3.33,11.88H2.26l0,0L4.35,9.69ZM17.06.3l-5,.84a.37.37,0,0,0-.31.35.23.23,0,0,0,.06.18L16,5.82a.21.21,0,0,0,.13.05.36.36,0,0,0,.38-.33Z"/><path class="cls-4" d="M17.26.08l0,0,0,0s0,0,0,0A.29.29,0,0,0,17,0L12,.84a.66.66,0,0,0-.56.63.51.51,0,0,0,.14.39l.09.09L10.36,3.27a.3.3,0,0,0,.42.42l1.32-1.32L14.69,5l.54.56L5.78,15,3,12.17l-.34-.34L9.92,4.55a.3.3,0,0,0-.42-.42L4.14,9.49,2,11.63a.3.3,0,0,0-.07.29.41.41,0,0,0,.12.17l2.56,2.56a.94.94,0,0,1-.87,0,.77.77,0,0,1-.18-.24A3.64,3.64,0,0,1,3.4,14a1.78,1.78,0,0,0-.67-1,1.46,1.46,0,0,0-1.47.1.3.3,0,0,0,.31.51.9.9,0,0,1,.86-.1,1.3,1.3,0,0,1,.42.68,4.11,4.11,0,0,0,.2.45,1.34,1.34,0,0,0,.33.42,1.16,1.16,0,0,0,.76.26h.12L.09,19.5a.3.3,0,0,0,.42.42l4.69-4.69.38.38a.3.3,0,0,0,.42,0l3.52-3.52h0L11.7,9.9h0l2.24-2.24h0l1.72-1.72.09.09a.5.5,0,0,0,.32.14h0a.66.66,0,0,0,.65-.59L17.35.33A.3.3,0,0,0,17.26.08ZM16.18,5.51a.08.08,0,0,1,0,.06L12.3,1.75h0L12,1.48a.07.07,0,0,1,.06-.06L16.72.65Z"/></g></g></g></svg>