<svg width="79" height="22" viewBox="0 0 79 22" fill="none" xmlns="http://www.w3.org/2000/svg">
<circle cx="11" cy="11" r="11" fill="#B6B6B6"/>
<path d="M10.8207 5.3634C10.894 5.21475 11.106 5.21475 11.1793 5.3634L12.7168 8.47866C12.746 8.53769 12.8023 8.5786 12.8674 8.58807L16.3053 9.08762C16.4693 9.11146 16.5349 9.31306 16.4161 9.42876L13.9285 11.8537C13.8813 11.8996 13.8598 11.9658 13.8709 12.0307L14.4582 15.4547C14.4862 15.6181 14.3147 15.7427 14.168 15.6655L11.0931 14.0489C11.0348 14.0183 10.9652 14.0183 10.9069 14.0489L7.83198 15.6655C7.68526 15.7427 7.51377 15.6181 7.54179 15.4547L8.12906 12.0307C8.14018 11.9658 8.11867 11.8996 8.07154 11.8537L5.58385 9.42876C5.46515 9.31306 5.53065 9.11146 5.69469 9.08762L9.13259 8.58807C9.19773 8.5786 9.25405 8.53769 9.28318 8.47866L10.8207 5.3634Z" fill="white"/>
<path d="M41.6094 7.60937C41.1719 6.46875 40.4219 5.57812 39.4688 5.0625C38.7188 4.65625 37.875 4.53125 37.1094 4.51562C36.3594 4.51562 35.5469 4.57812 34.7344 4.95312C33.7031 5.42187 32.9063 6.48437 32.9063 7.71875C32.9063 8.5 33.2031 9.34375 33.875 9.90625C34.4219 10.3906 35.1875 10.7187 36.0313 10.9531L38.125 11.5625C38.5625 11.6875 38.875 11.8437 39.125 12.0625C39.3594 12.2656 39.4688 12.5469 39.4688 12.8437C39.4688 13.1562 39.375 13.5 39.0156 13.7656C38.6094 14.0781 37.8594 14.25 37.2656 14.25C36.5156 14.25 35.6406 13.9687 35.1875 13.3437C34.9063 13 34.7188 12.5 34.625 11.9531L32.4688 12.5312C32.6406 13.2656 32.9375 14.0469 33.4844 14.7187C34.4063 15.8437 35.6875 16.2344 37.1875 16.2344C38.375 16.2344 39.4063 16.0938 40.2656 15.5156C41.1563 14.9219 41.7188 13.8906 41.7188 12.9062C41.7188 11.9844 41.3438 11.1562 40.6719 10.5156C40.1719 10.0469 39.5938 9.75 38.5938 9.45312L36.6406 8.89062C36.0781 8.71875 35.5625 8.51562 35.3594 8.29687C35.2188 8.15625 35.1406 7.96875 35.1406 7.76562C35.1406 7.42187 35.3281 7.0625 35.7188 6.82812C36.0469 6.625 36.5469 6.5 37.0781 6.51562C37.5938 6.51562 38.0469 6.70312 38.4063 6.92187C38.9375 7.23437 39.1719 7.625 39.4531 8.1875L41.6094 7.60937ZM43.7307 4.51562V6.39062H45.8557V4.51562H43.7307ZM43.7307 7.5625V16H45.8557V7.5625H43.7307ZM48.5033 16V4.51562H50.6283V16H48.5033ZM58.3131 7.5625L56.3131 13.4062L54.2975 7.5625H52.1725L55.2506 16H57.36L60.4381 7.5625H58.3131ZM63.7488 12.3594H69.952C69.9676 12.1719 69.9832 11.9687 69.9832 11.7812C69.9832 10.6562 69.6551 9.57812 68.952 8.73437C68.1707 7.79688 66.9676 7.32812 65.7176 7.32812C64.4676 7.32812 63.2645 7.8125 62.4832 8.73437C61.7801 9.57812 61.4832 10.6094 61.452 11.7812C61.4207 12.8906 61.7645 13.9531 62.4832 14.8281C63.2645 15.7656 64.4676 16.1719 65.7176 16.2344C66.9676 16.2969 68.1863 15.8125 69.0301 14.875C69.2176 14.6562 69.3895 14.4219 69.5301 14.1875L67.4207 13.2656C67.3582 13.3437 67.327 13.4375 67.2645 13.5312C66.9051 14 66.3426 14.25 65.7176 14.25C65.1082 14.25 64.5301 14 64.1863 13.5312C63.9363 13.2031 63.8113 12.7969 63.7488 12.3594ZM65.7176 9.3125C66.3426 9.3125 66.9051 9.54687 67.2645 10.0312C67.4051 10.2344 67.5145 10.4687 67.5926 10.7187H63.8426C63.9207 10.4687 64.0301 10.2344 64.1863 10.0312C64.5301 9.54687 65.1082 9.3125 65.7176 9.3125ZM76.2559 7.34375C75.7559 7.375 75.2402 7.5 74.7871 7.78125C74.3965 8.01562 74.0996 8.34375 73.8809 8.71875V7.5625H72.0059V16H74.1465V11.5C74.1465 10.875 74.3184 10.3125 74.6934 9.90625C74.9902 9.59375 75.4277 9.375 76.0371 9.32812C76.6465 9.28125 77.2246 9.375 77.6621 9.54687V7.57812C77.1934 7.39062 76.709 7.3125 76.2559 7.34375Z" fill="#B6B6B6"/>
</svg>
