<svg width="63" height="22" viewBox="0 0 63 22" fill="none" xmlns="http://www.w3.org/2000/svg">
<circle cx="11" cy="11" r="11" fill="#F12626"/>
<path d="M10.8207 5.3634C10.894 5.21475 11.106 5.21475 11.1793 5.3634L12.7168 8.47866C12.746 8.53769 12.8023 8.5786 12.8674 8.58807L16.3053 9.08762C16.4693 9.11146 16.5349 9.31306 16.4161 9.42876L13.9285 11.8537C13.8813 11.8996 13.8598 11.9658 13.8709 12.0307L14.4582 15.4547C14.4862 15.6181 14.3147 15.7427 14.168 15.6655L11.0931 14.0489C11.0348 14.0183 10.9652 14.0183 10.9069 14.0489L7.83198 15.6655C7.68526 15.7427 7.51377 15.6181 7.54179 15.4547L8.12906 12.0307C8.14018 11.9658 8.11867 11.8996 8.07154 11.8537L5.58385 9.42876C5.46515 9.31306 5.53065 9.11146 5.69469 9.08762L9.13259 8.58807C9.19773 8.5786 9.25405 8.53769 9.28318 8.47866L10.8207 5.3634Z" fill="white"/>
<path d="M41.4063 10.6719C41.875 10.0469 42.1719 9.25 42.1563 8.46875C42.1406 7.6875 41.875 6.89062 41.4063 6.26562C40.9531 5.625 40.2813 5.15625 39.5313 4.92187C39.1719 4.8125 38.7813 4.75 38.3906 4.75H33.25V16H35.375V12.1719H37.8906L39.75 16H42.1563L40.0938 11.7656C40.625 11.5156 41.0781 11.125 41.4063 10.6719ZM35.375 6.75H38.375C38.8125 6.75 39.2969 7.01562 39.5938 7.35937C39.8594 7.65625 39.9844 8.0625 40 8.46875C40.0156 8.84375 39.875 9.20312 39.6563 9.5C39.3281 9.9375 38.7969 10.1875 38.375 10.1875H35.375V6.75ZM45.5637 12.3594H51.7668C51.7824 12.1719 51.798 11.9687 51.798 11.7812C51.798 10.6562 51.4699 9.57812 50.7668 8.73437C49.9855 7.79688 48.7824 7.32812 47.5324 7.32812C46.2824 7.32812 45.0793 7.8125 44.298 8.73437C43.5949 9.57812 43.298 10.6094 43.2668 11.7812C43.2355 12.8906 43.5793 13.9531 44.298 14.8281C45.0793 15.7656 46.2824 16.1719 47.5324 16.2344C48.7824 16.2969 50.0012 15.8125 50.8449 14.875C51.0324 14.6562 51.2043 14.4219 51.3449 14.1875L49.2355 13.2656C49.173 13.3437 49.1418 13.4375 49.0793 13.5312C48.7199 14 48.1574 14.25 47.5324 14.25C46.923 14.25 46.3449 14 46.0012 13.5312C45.7512 13.2031 45.6262 12.7969 45.5637 12.3594ZM47.5324 9.3125C48.1574 9.3125 48.7199 9.54687 49.0793 10.0312C49.2199 10.2344 49.3293 10.4687 49.4074 10.7187H45.6574C45.7355 10.4687 45.8449 10.2344 46.0012 10.0312C46.3449 9.54687 46.923 9.3125 47.5324 9.3125ZM59.4145 4.75V7.90625C58.8207 7.54687 58.102 7.32812 57.352 7.32812C56.1801 7.32812 55.0551 7.78125 54.3363 8.67187C53.6801 9.5 53.352 10.6094 53.352 11.7812C53.352 12.9375 53.6176 14.0156 54.3363 14.8906C55.0238 15.75 56.1332 16.2344 57.2426 16.2344C58.1801 16.2344 59.0238 15.9844 59.6801 15.4844V16H61.5551V4.75H59.4145ZM59.0863 13.75C58.7113 14.1562 58.1957 14.3437 57.5863 14.3437C56.9926 14.3437 56.3832 14.1406 56.0238 13.5937C55.727 13.1562 55.602 12.5 55.602 11.7812C55.602 11.0625 55.7582 10.4062 56.0551 9.96875C56.4145 9.42187 56.9613 9.21875 57.6645 9.21875C58.2426 9.21875 58.7426 9.40625 59.0863 9.8125C59.4926 10.2812 59.6801 11.0156 59.6801 11.7812C59.6801 12.5469 59.4926 13.2969 59.0863 13.75Z" fill="#F12626"/>
</svg>
