<svg width="69" height="25" viewBox="0 0 69 25" fill="none" xmlns="http://www.w3.org/2000/svg">
<path d="M31 8.3914C31 7.38901 30.161 6.57369 29.1298 6.57369C28.0984 6.57369 27.2594 7.38901 27.2594 8.3914C27.2594 8.71653 27.3488 9.02127 27.5034 9.28564L25.8156 10.926C25.3123 9.77471 25.0655 7.99941 24.9989 6.64206C25.5249 6.31997 25.876 5.75208 25.876 5.10455C25.876 4.10227 25.037 3.28684 24.0058 3.28684C22.9744 3.28684 22.1355 4.10227 22.1355 5.10455C22.1355 5.55629 22.307 5.96907 22.5885 6.28741C21.4963 8.11577 19.9712 9.87565 19.0247 10.8958C18.1928 9.20885 17.255 5.852 16.6734 3.23115C17.0979 2.8977 17.3702 2.38824 17.3702 1.81771C17.3702 0.81532 16.5314 0 15.5 0C14.4686 0 13.6298 0.81532 13.6298 1.81771C13.6298 2.38824 13.9021 2.8977 14.3266 3.23115C13.7453 5.85221 12.8075 9.20956 11.9752 10.8964C11.0292 9.87717 9.50489 8.11871 8.41144 6.28741C8.69305 5.96907 8.86443 5.55629 8.86443 5.10455C8.86443 4.10227 8.02556 3.28684 6.99421 3.28684C5.96296 3.28684 5.12398 4.10227 5.12398 5.10455C5.12398 5.75249 5.47541 6.32038 6.00168 6.64237C5.93603 7.99961 5.6896 9.77481 5.18504 10.9266L3.49663 9.28574C3.65111 9.02137 3.74046 8.71663 3.74046 8.3915C3.74046 7.38911 2.90158 6.57379 1.87023 6.57379C0.838983 6.57369 0 7.38911 0 8.3914C0 9.12586 0.451327 9.75838 1.09794 10.045C1.76095 13.3173 2.63897 18.0114 2.63897 19.0736V24.004C2.63897 24.554 3.09781 25 3.66364 25H27.3364C27.9024 25 28.3611 24.554 28.3611 24.004V19.0736C28.3611 18.0116 29.239 13.3174 29.9024 10.045C30.5487 9.75838 31 9.12596 31 8.3914ZM4.62986 13.2044C5.03014 13.5932 5.67885 13.5932 6.07924 13.2044C7.05193 12.2588 7.54981 10.5629 7.80449 9.04065C9.46241 11.317 11.2892 13.1029 11.3935 13.2044C11.7938 13.5932 12.4425 13.5932 12.8429 13.2044C13.8752 12.201 14.8212 9.45292 15.5 7.00433C16.1788 9.45292 17.1248 12.2011 18.1571 13.2044C18.3494 13.391 18.61 13.496 18.8818 13.496C19.1536 13.496 19.4142 13.391 19.6064 13.2044C19.7107 13.1029 21.5375 11.317 23.1954 9.04065C23.4502 10.5629 23.948 12.2588 24.9207 13.2044C25.3211 13.5932 25.9698 13.5932 26.37 13.2044L27.387 12.2159C27.0065 14.1948 26.5676 16.6094 26.3911 18.0777H4.60877C4.43227 16.6093 3.99336 14.1948 3.61301 12.2159L4.62986 13.2044ZM26.3116 23.0079H4.68841V20.0696H26.3116V23.0079Z" fill="#1C1C1C"/>
<path d="M46.5156 19H49.6875L53.125 7.75H50.9375L48.0781 17L45.2656 7.75H43.0781L46.5156 19ZM54.4523 7.51562V9.39062H56.5773V7.51562H54.4523ZM54.4523 10.5625V19H56.5773V10.5625H54.4523ZM66.4438 11.6719C65.725 10.7812 64.6 10.3281 63.4281 10.3281C62.5688 10.3281 61.7406 10.6094 61.1 11.0937V10.5625H59.225V22.75H61.3656V18.6719C61.975 19.0469 62.725 19.2344 63.5375 19.2344C64.6469 19.2344 65.7563 18.75 66.4438 17.8906C67.1625 17.0156 67.4281 15.9375 67.4281 14.7812C67.4281 13.6094 67.1 12.5 66.4438 11.6719ZM64.7563 16.5937C64.3969 17.1406 63.7875 17.3437 63.1938 17.3437C62.5844 17.3437 62.0688 17.1562 61.6938 16.75C61.2875 16.2969 61.1 15.5469 61.1 14.7812C61.1 14.0156 61.2875 13.2812 61.6938 12.8125C62.0375 12.4062 62.5375 12.2187 63.1156 12.2187C63.8188 12.2187 64.3656 12.4219 64.725 12.9687C65.0219 13.4062 65.1781 14.0625 65.1781 14.7812C65.1781 15.5 65.0531 16.1562 64.7563 16.5937Z" fill="#1C1C1C"/>
</svg>
