<svg width="70" height="22" viewBox="0 0 70 22" fill="none" xmlns="http://www.w3.org/2000/svg">
<circle cx="11" cy="11" r="11" fill="#E9D56A"/>
<path d="M10.8207 5.3634C10.894 5.21475 11.106 5.21475 11.1793 5.3634L12.7168 8.47866C12.746 8.53769 12.8023 8.5786 12.8674 8.58807L16.3053 9.08762C16.4693 9.11146 16.5349 9.31306 16.4161 9.42876L13.9285 11.8537C13.8813 11.8996 13.8598 11.9658 13.8709 12.0307L14.4582 15.4547C14.4862 15.6181 14.3147 15.7427 14.168 15.6655L11.0931 14.0489C11.0348 14.0183 10.9652 14.0183 10.9069 14.0489L7.83198 15.6655C7.68526 15.7427 7.51377 15.6181 7.54179 15.4547L8.12906 12.0307C8.14018 11.9658 8.11867 11.8996 8.07154 11.8537L5.58385 9.42876C5.46515 9.31306 5.53065 9.11146 5.69469 9.08762L9.13259 8.58807C9.19773 8.5786 9.25405 8.53769 9.28318 8.47866L10.8207 5.3634Z" fill="white"/>
<path d="M38.5625 10V11.6875H41.1719C41.0469 12.2031 40.8594 12.7031 40.5469 13.1094C39.9844 13.8594 39.0469 14.25 38.0938 14.2344C37.125 14.25 36.1875 13.8594 35.625 13.1094C35.0625 12.3594 34.8906 11.3594 34.875 10.375C34.8906 9.39062 35.0625 8.39062 35.625 7.64062C36.1875 6.89062 37.125 6.5 38.0938 6.51562C39.0469 6.5 39.9844 6.89062 40.5469 7.64062C40.6406 7.76562 40.7031 7.89062 40.7813 8.01562L42.7344 7.125C42.5938 6.85937 42.4219 6.59375 42.2344 6.35937C41.2656 5.1875 39.75 4.51562 38.0938 4.51562C36.4844 4.51562 34.9219 5.14062 33.9531 6.35937C33.0313 7.48437 32.6563 8.82812 32.625 10.375C32.6563 11.8594 33.0156 13.2812 33.9531 14.3906C34.9219 15.625 36.4688 16.2344 38.0938 16.2344C39.7188 16.2344 41.25 15.625 42.2344 14.3906C43.1406 13.2969 43.5156 11.8906 43.5469 10.375V10H38.5625ZM49.3635 16.2344C50.6291 16.2344 51.801 15.7656 52.5979 14.8281C53.3166 13.9375 53.6447 12.9844 53.6447 11.7812C53.6447 10.6406 53.3479 9.625 52.5979 8.73437C51.8166 7.79688 50.6135 7.32812 49.3635 7.32812C48.1291 7.32812 46.9104 7.8125 46.1291 8.73437C45.4572 9.54687 45.0979 10.5937 45.0979 11.7812C45.0979 12.9375 45.4104 13.9531 46.1291 14.8281C46.9104 15.75 48.1135 16.2344 49.3635 16.2344ZM50.9104 13.5312C50.5666 14 49.9885 14.25 49.3635 14.25C48.7385 14.25 48.1604 14 47.8166 13.5312C47.4572 13.0625 47.3479 12.4219 47.3479 11.7812C47.3479 11.1406 47.4572 10.4844 47.8166 10.0156C48.1604 9.54687 48.7385 9.3125 49.3635 9.3125C49.9885 9.3125 50.5666 9.54687 50.9104 10.0156C51.2697 10.4844 51.3947 11.1406 51.3947 11.7812C51.3947 12.4219 51.2697 13.0625 50.9104 13.5312ZM55.6664 16V4.51562H57.7914V16H55.6664ZM65.8668 4.75V7.90625C65.273 7.54687 64.5543 7.32812 63.8043 7.32812C62.6324 7.32812 61.5074 7.78125 60.7887 8.67187C60.1324 9.5 59.8043 10.6094 59.8043 11.7812C59.8043 12.9375 60.0699 14.0156 60.7887 14.8906C61.4762 15.75 62.5855 16.2344 63.6949 16.2344C64.6324 16.2344 65.4762 15.9844 66.1324 15.4844V16H68.0074V4.75H65.8668ZM65.5387 13.75C65.1637 14.1562 64.648 14.3437 64.0387 14.3437C63.4449 14.3437 62.8355 14.1406 62.4762 13.5937C62.1793 13.1562 62.0543 12.5 62.0543 11.7812C62.0543 11.0625 62.2105 10.4062 62.5074 9.96875C62.8668 9.42187 63.4137 9.21875 64.1168 9.21875C64.6949 9.21875 65.1949 9.40625 65.5387 9.8125C65.9449 10.2812 66.1324 11.0156 66.1324 11.7812C66.1324 12.5469 65.9449 13.2969 65.5387 13.75Z" fill="#E9D56A"/>
</svg>
