<svg width="20" height="20" viewBox="0 0 20 20" fill="none" xmlns="http://www.w3.org/2000/svg">
<path d="M19.8355 5.71255L10.1687 0.0458236C10.0671 -0.0135128 9.94207 -0.015505 9.8391 0.0414877L0.172345 5.37489C0.0660161 5.43321 0 5.5452 0 5.66653V19.6666C0 19.851 0.149337 20 0.333323 20H2.00002C2.184 20 2.33334 19.851 2.33334 19.6666V7.99991H17.6668V19.6667C17.6668 19.851 17.8158 20 18.0001 20H19.6668C19.8511 20 20.0001 19.851 20.0001 19.6667V5.99989C20.0002 5.88153 19.9375 5.7722 19.8355 5.71255ZM19.3335 19.3333H18.3335V7.66655C18.3335 7.48256 18.1845 7.33322 18.0001 7.33322H2.00002C1.81603 7.33322 1.66669 7.48256 1.66669 7.66655V19.3333H0.666685V5.86321L9.99508 0.716493L19.3335 6.19087V19.3333Z" fill="#1C1C1C"/>
<path d="M16.6693 15.3335H12.6693C12.4849 15.3335 12.3359 15.4825 12.3359 15.6668V19.6668C12.3359 19.8512 12.4849 20.0002 12.6693 20.0002H16.6693C16.8536 20.0002 17.0026 19.8512 17.0026 19.6668V15.6668C17.0026 15.4825 16.8536 15.3335 16.6693 15.3335ZM16.3359 19.3335H13.0026V16.0002H16.3359V19.3335Z" fill="#1C1C1C"/>
<path d="M14.9994 15.668V16.668H14.3327V15.668H13.666V17.0013C13.666 17.1856 13.815 17.3346 13.9993 17.3346H15.3327C15.517 17.3346 15.666 17.1856 15.666 17.0013V15.668H14.9994Z" fill="#1C1C1C"/>
<path d="M12.6693 15.3335H8.66926C8.48527 15.3335 8.33594 15.4825 8.33594 15.6668V19.6668C8.33594 19.8512 8.48527 20.0002 8.66926 20.0002H12.6693C12.8536 20.0002 13.0026 19.8512 13.0026 19.6668V15.6668C13.0026 15.4825 12.8536 15.3335 12.6693 15.3335ZM12.3359 19.3335H9.00258V16.0002H12.3359V19.3335Z" fill="#1C1C1C"/>
<path d="M10.9994 15.668V16.668H10.3327V15.668H9.66602V17.0013C9.66602 17.1856 9.81535 17.3346 9.99934 17.3346H11.3327C11.517 17.3346 11.666 17.1856 11.666 17.0013V15.668H10.9994Z" fill="#1C1C1C"/>
<path d="M16.6693 11.3335H12.6693C12.4849 11.3335 12.3359 11.4825 12.3359 11.6668V15.6668C12.3359 15.8512 12.4849 16.0002 12.6693 16.0002H16.6693C16.8536 16.0002 17.0026 15.8512 17.0026 15.6668V11.6668C17.0026 11.4825 16.8536 11.3335 16.6693 11.3335ZM16.3359 15.3335H13.0026V12.0002H16.3359V15.3335Z" fill="#1C1C1C"/>
<path d="M14.9994 11.668V12.668H14.3327V11.668H13.666V13.0013C13.666 13.1856 13.815 13.3346 13.9993 13.3346H15.3327C15.517 13.3346 15.666 13.1856 15.666 13.0013V11.668H14.9994Z" fill="#1C1C1C"/>
<path d="M18.0001 10H2V10.6667H18.0001V10Z" fill="#1C1C1C"/>
<path d="M18.0001 8.66797H2V9.33465H18.0001V8.66797Z" fill="#1C1C1C"/>
<path d="M11.6667 4.66797H8.33332C8.14934 4.66797 8 4.81731 8 5.00129V6.33462C8 6.51861 8.14934 6.66794 8.33332 6.66794H11.6667C11.851 6.66794 12 6.51861 12 6.33462V5.00129C12 4.81731 11.851 4.66797 11.6667 4.66797ZM11.3333 6.00134H8.66661V5.33465H11.3333V6.00134Z" fill="#1C1C1C"/>
</svg>
