<svg width="60" height="55" viewBox="0 0 60 55" fill="none" xmlns="http://www.w3.org/2000/svg">
<path d="M59 52.9995V13.9834H47V52.9995H44V21.9867H32V52.9995H29V29.99H17V52.9995H14V38.9937H2V52.9995H1C0.448 52.9995 0 53.4467 0 53.9999C0 54.5532 0.448 55.0003 1 55.0003H2H14H17H29H32H44H47H59C59.552 55.0003 60 54.5532 60 53.9999C60 53.4467 59.552 52.9995 59 52.9995ZM4 52.9995V40.9946H12V52.9995H4ZM19 52.9995V31.9908H27V52.9995H19ZM34 52.9995V23.9875H42V52.9995H34ZM49 52.9995V15.9842H57V52.9995H49Z" fill="#0F28BF"/>
<path d="M8.48523 24.2373C8.65153 24.2373 8.82177 24.1961 8.97626 24.1091L44.6655 4.07253L42.4318 8.84724C42.2064 9.32853 42.4249 9.89595 42.9198 10.1141C43.0517 10.1734 43.1905 10.2002 43.3272 10.2002C43.7012 10.2002 44.0584 9.99163 44.2237 9.63951L47.7287 2.14734C47.7396 2.12342 47.7376 2.09758 47.7464 2.0727C47.7651 2.02199 47.7799 1.97319 47.7897 1.91961C47.7947 1.89282 47.8104 1.87081 47.8124 1.84306C47.8134 1.83158 47.8084 1.82201 47.8094 1.81053C47.8114 1.77417 47.8075 1.74068 47.8055 1.70432C47.8025 1.65169 47.7937 1.60193 47.7819 1.54931C47.774 1.51294 47.772 1.47563 47.7592 1.44022C47.7474 1.40578 47.7268 1.37707 47.711 1.34358C47.6982 1.32157 47.6982 1.29574 47.6845 1.27277C47.6707 1.24981 47.6471 1.23641 47.6313 1.21441C47.6107 1.18474 47.5949 1.15317 47.5703 1.12638C47.5447 1.09767 47.5122 1.07758 47.4827 1.05174C47.4424 1.01634 47.402 0.983804 47.3568 0.955098C47.3263 0.935961 47.2987 0.91491 47.2653 0.898644C47.2544 0.89386 47.2485 0.884291 47.2377 0.879507C47.2131 0.868981 47.1865 0.870895 47.1619 0.862283C47.1078 0.843146 47.0547 0.82975 46.9986 0.820182C46.973 0.815398 46.9523 0.801045 46.9258 0.799131L38.5006 0.00494166C37.9545 -0.0486422 37.4783 0.339841 37.4261 0.864197C37.373 1.39047 37.7695 1.85837 38.3097 1.90908L43.6785 2.41526L7.99224 22.4518C7.5209 22.7159 7.36051 23.3015 7.63209 23.7589C7.81414 24.066 8.14476 24.2373 8.48523 24.2373Z" fill="#0F28BF"/>
</svg>
