<svg width="22" height="12" viewBox="0 0 22 12" fill="none" xmlns="http://www.w3.org/2000/svg">
<path d="M11 0C5.6323 0 0.434708 5.21154 0.226804 5.44231C0.0756013 5.59615 0 5.78846 0 6C0 6.21154 0.0756013 6.40385 0.226804 6.55769C0.453608 6.78846 5.6323 12 11 12C16.3677 12 21.5653 6.78846 21.7732 6.55769C21.9244 6.40385 22 6.21154 22 6C22 5.78846 21.9244 5.59615 21.7732 5.44231C21.5653 5.21154 16.3866 0 11 0ZM11 10.4038C7.23883 10.4038 3.36426 7.28846 1.90893 5.98077C3.36426 4.67308 7.23883 1.55769 11 1.55769C14.7612 1.55769 18.6357 4.67308 20.0911 5.98077C18.6357 7.28846 14.7612 10.4038 11 10.4038Z" fill="#BBBBBB"/>
<path d="M7.61523 6.00084C7.61523 7.87729 9.12459 9.42941 10.9999 9.42941C12.8751 9.42941 14.3845 7.90045 14.3845 6.00084C14.3845 4.10122 12.8751 2.57227 10.9999 2.57227C9.12459 2.57227 7.61523 4.12439 7.61523 6.00084ZM12.4863 6.00084C12.4863 6.83482 11.8231 7.5298 10.977 7.5298C10.1537 7.5298 9.46762 6.85798 9.46762 6.00084C9.46762 5.1437 10.1308 4.47188 10.977 4.47188C11.8003 4.49505 12.4863 5.16686 12.4863 6.00084Z" fill="#BBBBBB"/>
</svg>
