<svg width="59" height="59" viewBox="0 0 59 59" fill="none" xmlns="http://www.w3.org/2000/svg">
<g clip-path="url(#clip0)">
<path d="M33.5231 44.8979L24.581 41.1721C24.1829 41.0063 23.9258 40.6205 23.9258 40.1892V38.2924L25.5977 37.3636C27.0302 36.5677 27.974 35.1183 28.1223 33.4864L28.1259 33.4459H28.999C30.6222 33.4459 31.9427 32.1253 31.9427 30.5021V28.6926C32.2059 28.0562 32.9448 26.0192 32.9448 23.2089C32.9448 19.3261 31.4238 15.6626 28.6621 12.8931C27.6054 11.8335 26.4102 10.9527 25.1136 10.2658C25.0684 7.08559 21.8846 4.50952 17.9758 4.50952C14.0669 4.50952 10.8831 7.08559 10.8378 10.2658C9.54118 10.9526 8.34596 11.8334 7.28927 12.8931C4.52756 15.6626 3.00658 19.326 3.00658 23.2089C3.00658 26.0192 3.74546 28.0561 4.00866 28.6926V30.5021C4.00866 32.1253 5.32924 33.4459 6.95244 33.4459H7.82545L7.82902 33.4864C7.97733 35.1183 8.92121 36.5678 10.3537 37.3636L12.0256 38.2924V40.1892C12.0256 40.6204 11.7684 41.0062 11.3704 41.1721L2.42833 44.8979C0.953104 45.5126 0 46.9423 0 48.5402V54.5529C0 56.1761 1.32059 57.4967 2.94378 57.4967H33.0075C34.6307 57.4967 35.9513 56.1761 35.9513 54.5529V48.5402C35.9512 46.9423 34.9981 45.5126 33.5231 44.8979ZM30.0637 30.502C30.0637 31.0891 29.5861 31.5668 28.999 31.5668H28.2968L28.6726 27.433H28.999C29.5861 27.433 30.0637 27.9106 30.0637 28.4977V30.502ZM17.9756 6.38853C20.4365 6.38853 22.5072 7.66233 23.0794 9.37691C21.47 8.81249 19.7497 8.51806 17.9756 8.51806C16.2016 8.51806 14.4814 8.81249 12.8719 9.37691C13.4439 7.66233 15.5147 6.38853 17.9756 6.38853ZM6.95221 31.5668C6.36509 31.5668 5.88744 31.0891 5.88744 30.502V28.4977C5.88744 27.9106 6.36509 27.433 6.95221 27.433H7.27855L7.65433 31.5668H6.95221ZM11.2662 35.7211C10.3777 35.2274 9.79216 34.3284 9.7002 33.3162L8.98494 25.4488C10.2138 25.441 12.3686 25.3364 14.8884 24.8143C20.0417 23.7466 24.2459 21.4173 27.0464 18.0783C27.3799 17.6808 27.3279 17.0882 26.9303 16.7548C26.5327 16.4213 25.9402 16.4733 25.6067 16.8709C19.4947 24.1584 8.16862 23.5613 8.01374 23.5519V23.5529C7.96627 23.55 7.91821 23.5495 7.86936 23.554C7.35264 23.601 6.97179 24.0579 7.01881 24.5746L7.10777 25.5542H6.95221C6.29445 25.5542 5.68636 25.7712 5.19569 26.1371C5.02537 25.3461 4.88525 24.35 4.88525 23.2089C4.88525 19.8271 6.21148 16.6348 8.61953 14.2199C11.0778 11.7547 14.4005 10.397 17.9755 10.397C21.5506 10.397 24.8731 11.7545 27.3315 14.2199C29.7396 16.6346 31.0658 19.8271 31.0658 23.2089C31.0658 24.3499 30.9258 25.3462 30.7554 26.1372C30.2647 25.7712 29.6567 25.5542 28.9988 25.5542H28.8433L28.9324 24.5745C28.9577 24.2969 28.8581 24.0223 28.661 23.8251L26.6567 21.8208C26.2898 21.4539 25.695 21.4539 25.3282 21.8208C24.9613 22.1877 24.9613 22.7825 25.3282 23.1494L27.0213 24.8425L26.3524 32.2008C25.5851 32.8794 23.1517 34.5732 17.9755 34.5732C17.4566 34.5732 17.036 34.9939 17.036 35.5128C17.036 36.0317 17.4566 36.4523 17.9755 36.4523C21.5725 36.4523 24.0339 35.6991 25.6303 34.9041C25.3781 35.2335 25.0588 35.5136 24.685 35.7212L19.466 38.6207C18.5327 39.1392 17.4184 39.1392 16.4852 38.6207L11.2662 35.7211ZM12.093 42.9064C13.1935 42.4479 13.9045 41.3813 13.9045 40.1892V39.3362L15.5727 40.2631C16.325 40.6809 17.1502 40.89 17.9756 40.89C18.8011 40.89 19.6263 40.6811 20.3786 40.2631L22.0468 39.3362V40.1892C22.0468 41.3815 22.7578 42.448 23.8582 42.9064L24.8437 43.317C23.0813 45.3631 21.3781 46.3797 20.2244 46.8768C18.9484 47.4266 18.0649 47.4718 17.9755 47.4751C17.8861 47.4719 17.0026 47.4266 15.7266 46.8768C14.573 46.3798 12.8698 45.3631 11.1073 43.317L12.093 42.9064ZM6.0127 55.6178H2.94378C2.35666 55.6178 1.87901 55.1402 1.87901 54.553V48.5403C1.87901 48.2813 1.92706 48.0308 2.01603 47.7987L5.23706 50.3757C5.73014 50.77 6.0127 51.3583 6.0127 51.9897V55.6178V55.6178ZM28.0595 51.9894V55.6177H7.89171V51.9894C7.89171 50.7841 7.35195 49.6611 6.41083 48.9082L3.42384 46.5186L9.29192 44.0735C12.3877 47.9025 15.5169 48.956 17.036 49.2451V52.4235C17.036 52.9424 17.4566 53.363 17.9755 53.363C18.4944 53.363 18.915 52.9424 18.915 52.4235V49.2451C20.4343 48.956 23.5634 47.9025 26.6591 44.0735L32.5272 46.5186L29.5402 48.9082C28.5992 49.6611 28.0595 50.7842 28.0595 51.9894ZM34.0722 54.553C34.0722 55.1402 33.5945 55.6178 33.0074 55.6178H29.9383V51.9895C29.9383 51.3582 30.221 50.77 30.714 50.3755L33.935 47.7986C34.024 48.0307 34.072 48.2812 34.072 48.5402V54.553H34.0722Z" fill="#8D8D8D"/>
<path d="M16.8183 28.09C16.3693 27.1584 15.2866 26.5562 14.0597 26.5562C12.8328 26.5562 11.75 27.1583 11.3011 28.09C11.0759 28.5574 11.2723 29.119 11.7398 29.3442C12.2072 29.5695 12.7687 29.3729 12.994 28.9056C13.1038 28.6776 13.5147 28.4352 14.0598 28.4352C14.6048 28.4352 15.0156 28.6775 15.1256 28.9056C15.2874 29.2417 15.6232 29.4376 15.9727 29.4376C16.1095 29.4376 16.2484 29.4075 16.3798 29.3442C16.8471 29.119 17.0434 28.5575 16.8183 28.09Z" fill="#8D8D8D"/>
<path d="M24.6511 28.09C24.2022 27.1584 23.1195 26.5562 21.8925 26.5562C20.6655 26.5562 19.5828 27.1583 19.1339 28.09C18.9086 28.5575 19.1051 29.119 19.5726 29.3442C20.04 29.5695 20.6015 29.3729 20.8268 28.9056C20.9366 28.6776 21.3475 28.4352 21.8926 28.4352C22.4376 28.4352 22.8485 28.6775 22.9584 28.9056C23.1202 29.2417 23.456 29.4376 23.8055 29.4376C23.9423 29.4376 24.0812 29.4075 24.2126 29.3442C24.6799 29.119 24.8764 28.5575 24.6511 28.09Z" fill="#8D8D8D"/>
<path d="M47.0371 1.50317C40.4407 1.50317 35.0742 6.86964 35.0742 13.466C35.0742 16.9271 36.5398 20.1473 39.1226 22.4224C37.8266 24.5441 36.42 25.7668 36.4056 25.7793C36.0961 26.0436 35.9921 26.4772 36.1479 26.8532C36.2942 27.2062 36.6382 27.4331 37.0155 27.4331C37.0401 27.4331 37.065 27.4321 37.09 27.4302C37.2445 27.4179 40.7725 27.1167 43.902 25.0123C44.9219 25.2888 45.9744 25.4289 47.0372 25.4289C53.6335 25.4289 59 20.0625 59 13.4661C58.9999 6.86964 53.6334 1.50317 47.0371 1.50317ZM47.0371 23.5498C46.008 23.5498 44.9908 23.3944 44.0138 23.0876C43.7294 22.9984 43.4194 23.0492 43.1785 23.2252C42.0218 24.0695 40.7522 24.6145 39.6619 24.9634C40.1496 24.3202 40.6705 23.5469 41.1587 22.6543C41.3809 22.2481 41.2741 21.7406 40.9069 21.4584C38.3942 19.5281 36.9532 16.6149 36.9532 13.466C36.9532 7.90571 41.4768 3.38219 47.0371 3.38219C52.5974 3.38219 57.1209 7.90571 57.1209 13.466C57.1209 19.0263 52.5974 23.5498 47.0371 23.5498Z" fill="#F12626"/>
<path d="M48.0395 18.5392H47.9768V12.4012H48.0395C48.5584 12.4012 48.979 11.9806 48.979 11.4617C48.979 10.9428 48.5584 10.5222 48.0395 10.5222H46.0352C45.5163 10.5222 45.0957 10.9428 45.0957 11.4617C45.0957 11.9806 45.5163 12.4012 46.0352 12.4012H46.0979V18.5392H46.0352C45.5163 18.5392 45.0957 18.9598 45.0957 19.4787C45.0957 19.9976 45.5163 20.4182 46.0352 20.4182H48.0395C48.5584 20.4182 48.979 19.9976 48.979 19.4787C48.979 18.9599 48.5584 18.5392 48.0395 18.5392Z" fill="#F12626"/>
<path d="M47.047 6.51392H47.037C46.5181 6.51392 46.1025 6.93452 46.1025 7.45342C46.1025 7.97232 46.5282 8.39293 47.047 8.39293C47.5658 8.39293 47.9865 7.97232 47.9865 7.45342C47.9865 6.93452 47.5658 6.51392 47.047 6.51392Z" fill="#F12626"/>
</g>
<defs>
<clipPath id="clip0">
<rect width="59" height="59" fill="white"/>
</clipPath>
</defs>
</svg>
