<svg width="63" height="41" viewBox="0 0 63 41" fill="none" xmlns="http://www.w3.org/2000/svg">
<path d="M51.5873 13.6722L54.7575 16.3876V21.4395H46.4199V13.6722H51.5556H51.5873ZM51.302 32.3644C52.1428 32.3644 52.9491 32.697 53.5437 33.2891C54.1382 33.8813 54.4722 34.6844 54.4722 35.5218C54.4722 36.3592 54.1382 37.1623 53.5437 37.7545C52.9491 38.3466 52.1428 38.6793 51.302 38.6793C50.373 38.6798 49.4783 38.3301 48.7976 37.7005C48.4872 37.4279 48.2387 37.0926 48.0684 36.717C47.8982 36.3413 47.8101 35.9339 47.8101 35.5218C47.8101 35.1097 47.8982 34.7023 48.0684 34.3266C48.2387 33.951 48.4872 33.6158 48.7976 33.3432C49.4748 32.708 50.3718 32.3574 51.302 32.3644ZM19.7903 32.3644C20.6311 32.3644 21.4375 32.697 22.032 33.2891C22.6265 33.8813 22.9605 34.6844 22.9605 35.5218C22.9605 36.3592 22.6265 37.1623 22.032 37.7545C21.4375 38.3466 20.6311 38.6793 19.7903 38.6793C18.8613 38.6798 17.9666 38.3301 17.2859 37.7005C16.9755 37.4279 16.727 37.0926 16.5567 36.717C16.3865 36.3413 16.2984 35.9339 16.2984 35.5218C16.2984 35.1097 16.3865 34.7023 16.5567 34.3266C16.727 33.951 16.9755 33.6158 17.2859 33.3432C17.9649 32.7108 18.8607 32.3607 19.7903 32.3644V32.3644ZM40.2063 0.000404448H7.29978C7.13324 -0.00379419 6.9675 0.024732 6.81203 0.0843531C6.65657 0.143974 6.51442 0.233522 6.39371 0.347879C6.27301 0.462236 6.17611 0.599161 6.10855 0.75083C6.041 0.902499 6.00411 1.06594 6 1.23181V10.199C6.04821 10.5036 6.20404 10.7811 6.43942 10.9815C6.6748 11.1819 6.97428 11.292 7.28393 11.292C7.59357 11.292 7.89305 11.1819 8.12843 10.9815C8.36382 10.7811 8.51964 10.5036 8.56785 10.199V2.46322H38.8749V31.575H28.3181C28.1558 31.575 27.995 31.6068 27.845 31.6687C27.695 31.7306 27.5587 31.8213 27.4439 31.9357C27.3291 32.05 27.238 32.1858 27.1759 32.3352C27.1137 32.4846 27.0818 32.6447 27.0818 32.8064C27.0818 32.9681 27.1137 33.1282 27.1759 33.2776C27.238 33.427 27.3291 33.5628 27.4439 33.6771C27.5587 33.7915 27.695 33.8822 27.845 33.9441C27.995 34.006 28.1558 34.0378 28.3181 34.0378H44.1691C44.3314 34.0378 44.4922 34.006 44.6422 33.9441C44.7922 33.8822 44.9285 33.7915 45.0433 33.6771C45.1581 33.5628 45.2492 33.427 45.3113 33.2776C45.3735 33.1282 45.4054 32.9681 45.4054 32.8064C45.4054 32.6447 45.3735 32.4846 45.3113 32.3352C45.2492 32.1858 45.1581 32.05 45.0433 31.9357C44.9285 31.8213 44.7922 31.7306 44.6422 31.6687C44.4922 31.6068 44.3314 31.575 44.1691 31.575H41.5695V8.0835H51.9677L60.4004 14.7142V31.5118H59.069C58.7411 31.5118 58.4266 31.6416 58.1947 31.8725C57.9629 32.1034 57.8326 32.4167 57.8326 32.7432C57.8326 33.0698 57.9629 33.3831 58.1947 33.614C58.4266 33.8449 58.7411 33.9747 59.069 33.9747H61.7002C62.0313 33.9833 62.3526 33.8626 62.5955 33.6384C62.8384 33.4142 62.9836 33.1043 63 32.7748V14.1774C62.9943 13.9946 62.9488 13.8153 62.8667 13.6517C62.7846 13.4882 62.6679 13.3443 62.5245 13.2302L53.2675 5.968C53.0338 5.78155 52.7427 5.68117 52.4433 5.68383H41.4744V1.23181C41.4661 0.902352 41.3289 0.58916 41.092 0.359091C40.8551 0.129022 40.5372 0.000301443 40.2063 0.000404448V0.000404448ZM51.9677 11.3041H45.342C45.1755 11.2999 45.0098 11.3284 44.8543 11.3881C44.6988 11.4477 44.5567 11.5372 44.436 11.6516C44.3153 11.7659 44.2184 11.9029 44.1508 12.0545C44.0833 12.2062 44.0464 12.3696 44.0423 12.5355V22.6078C44.0464 22.7737 44.0833 22.9371 44.1508 23.0888C44.2184 23.2405 44.3153 23.3774 44.436 23.4917C44.5567 23.6061 44.6988 23.6956 44.8543 23.7553C45.0098 23.8149 45.1755 23.8434 45.342 23.8392H55.8671C56.0336 23.8434 56.1993 23.8149 56.3548 23.7553C56.5103 23.6956 56.6524 23.6061 56.7731 23.4917C56.8938 23.3774 56.9907 23.2405 57.0583 23.0888C57.1259 22.9371 57.1627 22.7737 57.1669 22.6078V15.7877C57.1329 15.6153 57.0614 15.4524 56.9573 15.3105C56.8532 15.1687 56.7191 15.0513 56.5645 14.9668L52.8237 11.6199C52.5861 11.415 52.282 11.3028 51.9677 11.3041V11.3041ZM7.29978 27.0914C7.12778 27.0912 6.95753 27.1258 6.7994 27.1932C6.64127 27.2606 6.49855 27.3593 6.37993 27.4834C6.26131 27.6074 6.16927 27.7542 6.1094 27.9148C6.04954 28.0754 6.0231 28.2464 6.0317 28.4175V32.9011C6.03581 33.067 6.0727 33.2304 6.14026 33.3821C6.20781 33.5338 6.30471 33.6707 6.42542 33.7851C6.54612 33.8994 6.68827 33.989 6.84374 34.0486C6.9992 34.1082 7.16494 34.1367 7.33148 34.1325H11.1991C11.3615 34.1325 11.5222 34.1007 11.6722 34.0388C11.8223 33.9769 11.9586 33.8862 12.0734 33.7719C12.1882 33.6575 12.2792 33.5218 12.3414 33.3724C12.4035 33.223 12.4355 33.0628 12.4355 32.9011C12.4355 32.7394 12.4035 32.5793 12.3414 32.4299C12.2792 32.2805 12.1882 32.1447 12.0734 32.0304C11.9586 31.916 11.8223 31.8253 11.6722 31.7634C11.5222 31.7016 11.3615 31.6697 11.1991 31.6697H8.59955V28.4175C8.59544 28.2517 8.55856 28.0882 8.491 27.9365C8.42345 27.7849 8.32655 27.648 8.20584 27.5336C8.08513 27.4192 7.94299 27.3297 7.78752 27.2701C7.63206 27.2104 7.46632 27.1819 7.29978 27.1861V27.0914ZM51.3337 30.0594C49.7627 29.9856 48.2255 30.5299 47.0539 31.575C46.5088 32.0692 46.0733 32.6713 45.7754 33.3428C45.4774 34.0142 45.3234 34.7403 45.3234 35.4744C45.3234 36.2086 45.4774 36.9347 45.7754 37.6061C46.0733 38.2776 46.5088 38.8797 47.0539 39.3739C48.1727 40.4123 49.646 40.9879 51.1752 40.9842C51.9369 41.0417 52.7023 40.9419 53.4234 40.691C54.1446 40.4402 54.8059 40.0437 55.3661 39.5265C55.9263 39.0092 56.3731 38.3824 56.6788 37.6851C56.9844 36.9878 57.1421 36.2352 57.1421 35.4744C57.1421 34.7137 56.9844 33.9611 56.6788 33.2638C56.3731 32.5665 55.9263 31.9397 55.3661 31.4224C54.8059 30.9052 54.1446 30.5087 53.4234 30.2579C52.7023 30.007 51.9369 29.9072 51.1752 29.9647L51.3337 30.0594ZM19.822 30.0594C18.2943 30.0186 16.8087 30.5608 15.6691 31.575C15.124 32.0692 14.6885 32.6713 14.3905 33.3428C14.0925 34.0142 13.9386 34.7403 13.9386 35.4744C13.9386 36.2086 14.0925 36.9347 14.3905 37.6061C14.6885 38.2776 15.124 38.8797 15.6691 39.3739C16.7878 40.4123 18.2611 40.9879 19.7903 40.9842C20.552 41.0417 21.3174 40.9419 22.0385 40.691C22.7597 40.4402 23.4211 40.0437 23.9812 39.5265C24.5414 39.0092 24.9883 38.3824 25.2939 37.6851C25.5995 36.9878 25.7572 36.2352 25.7572 35.4744C25.7572 34.7137 25.5995 33.9611 25.2939 33.2638C24.9883 32.5665 24.5414 31.9397 23.9812 31.4224C23.4211 30.9052 22.7597 30.5087 22.0385 30.2579C21.3174 30.007 20.552 29.9072 19.7903 29.9647L19.822 30.0594Z" fill="#8D8D8D"/>
<path d="M17.882 24.8314C17.8779 24.6741 17.8416 24.519 17.7751 24.3752C17.7086 24.2313 17.6132 24.1014 17.4944 23.9929C17.3756 23.8844 17.2356 23.7995 17.0826 23.7429C16.9295 23.6864 16.7664 23.6593 16.6024 23.6633H1.2171C1.05727 23.6633 0.898999 23.6935 0.751334 23.7522C0.603669 23.8109 0.469497 23.897 0.356479 24.0054C0.243461 24.1139 0.153811 24.2427 0.092646 24.3844C0.0314811 24.5261 0 24.678 0 24.8314C0 24.9849 0.0314811 25.1368 0.092646 25.2785C0.153811 25.4202 0.243461 25.549 0.356479 25.6575C0.469497 25.7659 0.603669 25.852 0.751334 25.9107C0.898999 25.9694 1.05727 25.9996 1.2171 25.9996H16.6337C16.7976 26.0036 16.9607 25.9765 17.1138 25.92C17.2668 25.8634 17.4068 25.7785 17.5256 25.67C17.6444 25.5615 17.7398 25.4316 17.8063 25.2877C17.8728 25.1438 17.9091 24.9888 17.9132 24.8314H17.882ZM3.77612 20.638H19.1927C19.5186 20.6462 19.8349 20.5317 20.074 20.3191C20.3131 20.1064 20.456 19.8123 20.4722 19.4998C20.4722 19.3438 20.4398 19.1895 20.3766 19.0457C20.3135 18.902 20.2211 18.7719 20.1047 18.663C19.9884 18.5541 19.8505 18.4687 19.6992 18.4118C19.5479 18.3549 19.3863 18.3276 19.2239 18.3316H3.80733C3.48453 18.3316 3.17496 18.4547 2.94671 18.6738C2.71846 18.8929 2.59023 19.19 2.59023 19.4998C2.59023 19.8096 2.71846 20.1068 2.94671 20.3258C3.17496 20.5449 3.48453 20.668 3.80733 20.668L3.77612 20.638ZM6.36635 15.3363H21.7829C22.1057 15.3363 22.4153 15.2133 22.6435 14.9942C22.8718 14.7751 23 14.478 23 14.1682C23 13.8584 22.8718 13.5612 22.6435 13.3421C22.4153 13.1231 22.1057 13 21.7829 13H6.36635C6.04356 13 5.73398 13.1231 5.50573 13.3421C5.27748 13.5612 5.14925 13.8584 5.14925 14.1682C5.14925 14.478 5.27748 14.7751 5.50573 14.9942C5.73398 15.2133 6.04356 15.3363 6.36635 15.3363V15.3363Z" fill="#F12626"/>
</svg>
