<svg width="50" height="50" viewBox="0 0 50 50" fill="none" xmlns="http://www.w3.org/2000/svg">
<g clip-path="url(#clip0)">
<path d="M46.346 22.6923L40.673 7.69225C40.4807 7.11533 39.9037 6.63456 39.2307 6.44225C38.5576 6.3461 37.8845 6.53841 37.4999 7.01917L26.5384 18.4615C26.1537 18.8461 25.9614 19.423 26.0576 19.9999C26.0576 20.5769 26.3461 21.0576 26.8268 21.3461C27.5961 21.923 28.4614 22.4038 29.2307 22.8846L25.673 39.423C25.5768 39.7115 25.673 39.9999 25.8653 40.2884C26.923 41.4423 27.9807 42.3076 29.0384 42.8846L28.0768 47.3076C27.9807 47.5961 28.0768 47.8846 28.2691 48.173C29.2307 49.3269 30.2884 49.7115 31.346 49.7115C32.1153 49.7115 32.7884 49.5192 33.2691 49.1346C33.4614 49.0384 33.6537 48.7499 33.6537 48.4615L34.6153 44.0384C36.2499 43.9423 37.596 43.3653 38.4614 42.8846C38.6537 42.7884 38.846 42.4999 38.9422 42.2115L42.4999 25.673C43.5576 25.5769 44.423 25.3846 45.0961 25.1923C45.5768 24.9999 46.0576 24.7115 46.2499 24.2307C46.5384 23.6538 46.5384 23.173 46.346 22.6923ZM31.923 47.5961C31.5384 47.6923 30.8653 47.7884 30.1922 47.2115L30.9614 43.6538C31.5384 43.8461 32.1153 43.9423 32.6922 44.0384L31.923 47.5961ZM37.2114 41.3461C35.1922 42.3076 31.1537 42.9807 27.6922 39.2307L30.9614 23.7499C34.3268 25.2884 37.5961 25.7692 40.2884 25.7692C40.3845 25.7692 40.4807 25.7692 40.5768 25.7692L37.2114 41.3461ZM27.9807 19.8076L38.8461 8.36533L44.5191 23.3653C41.6345 24.2307 34.5191 24.6153 27.9807 19.8076Z" fill="#8D8D8D"/>
<path d="M17.9809 22.8846C18.7501 22.4038 19.6155 21.923 20.3847 21.3461C20.8655 21.0576 21.1539 20.4807 21.1539 19.9999C21.1539 19.423 21.0578 18.9423 20.6732 18.4615L9.71163 7.01917C9.23086 6.53841 8.55778 6.3461 7.98086 6.44225C7.30778 6.63456 6.73086 7.01917 6.53855 7.69225L0.865472 22.6923C0.673164 23.173 0.673164 23.7499 0.961626 24.2307C1.15393 24.7115 1.6347 25.0961 2.11547 25.1923C2.78855 25.3846 3.65393 25.5769 4.71163 25.673L8.26932 42.2115C8.36547 42.4999 8.46163 42.6922 8.75009 42.8846C9.61547 43.4615 11.0578 43.9423 12.6924 44.0384L13.6539 48.4615C13.7501 48.7499 13.8462 48.9423 14.0385 49.0384C14.5193 49.3269 15.1924 49.6153 15.9616 49.6153C16.9232 49.6153 18.077 49.2307 18.9424 48.0769C19.1347 47.8846 19.2309 47.4999 19.1347 47.2115L18.1732 42.7884C19.2309 42.2115 20.2885 41.3461 21.3462 40.1923C21.5385 39.9999 21.6347 39.6153 21.5385 39.3269L17.9809 22.8846ZM8.26932 8.36533L19.2309 19.8076C12.6924 24.6153 5.57701 24.2307 2.69239 23.3653L8.26932 8.36533ZM15.2885 47.5961L14.5193 44.0384C15.0962 43.9423 15.6732 43.8461 16.2501 43.6538L17.0193 47.2115C16.3462 47.7884 15.6732 47.6923 15.2885 47.5961ZM10.0001 41.3461L6.6347 25.7692C6.73086 25.7692 6.82701 25.7692 6.92316 25.7692C9.61547 25.7692 12.8847 25.2884 16.2501 23.7499L19.5193 39.2307C16.0578 42.9807 11.9232 42.4038 10.0001 41.3461Z" fill="#8D8D8D"/>
<path d="M16.6345 39.8077V19.9038C18.4614 18.6538 23.7499 16.9231 30.0961 19.9038V39.8077C24.1345 44.2307 18.6538 41.6346 16.6345 39.8077Z" fill="white"/>
<path d="M23.2693 43.2691C20 43.2691 17.4039 41.8268 15.9616 40.5768C15.7693 40.3845 15.6731 40.0961 15.6731 39.9038V19.9038C15.6731 19.6153 15.8654 19.3268 16.0577 19.1345C18.1731 17.7884 23.8462 15.9614 30.3846 19.0384C30.7693 19.2307 30.9616 19.5191 30.9616 19.9038V39.8076C30.9616 40.0961 30.8654 40.3845 30.5769 40.5768C28.0769 42.4999 25.4808 43.2691 23.2693 43.2691ZM17.5962 39.423C19.6154 41.0576 24.1346 42.7884 29.1346 39.3268V20.5768C23.9423 18.3653 19.6154 19.423 17.5962 20.4807V39.423Z" fill="#F12626"/>
<path d="M20.1924 26.923C19.904 26.923 19.5193 26.7307 19.327 26.4423C19.0386 25.9615 19.2309 25.3846 19.6155 25.0961L29.2309 19.3269C29.7116 19.0384 30.2886 19.2307 30.577 19.6153C30.8655 20 30.6732 20.673 30.2886 20.9615L20.6732 26.7307C20.577 26.923 20.3847 26.923 20.1924 26.923ZM17.7886 32.5961L30.2886 25.8653C30.7693 25.5769 30.9616 25 30.6732 24.5192C30.3847 24.0384 29.8078 23.8461 29.327 24.1346L16.827 30.8653C16.3463 31.1538 16.154 31.7307 16.4424 32.2115C16.6347 32.5 16.9232 32.6923 17.3078 32.6923C17.5001 32.6923 17.5963 32.6923 17.7886 32.5961ZM17.7886 37.4038L30.2886 30.673C30.7693 30.3846 30.9616 29.8076 30.6732 29.3269C30.3847 28.8461 29.8078 28.6538 29.327 28.9423L16.827 35.673C16.3463 35.9615 16.154 36.5384 16.4424 37.0192C16.6347 37.3076 16.9232 37.5 17.3078 37.5C17.5001 37.5 17.5963 37.5 17.7886 37.4038ZM18.654 41.25L26.3463 37.4038C26.827 37.2115 27.0193 36.6346 26.7309 36.1538C26.5386 35.673 25.9616 35.4807 25.4809 35.7692L17.7886 39.6153C17.3078 39.8076 17.1155 40.3846 17.404 40.8653C17.5963 41.25 17.8847 41.4423 18.2693 41.4423C18.4616 41.3461 18.5578 41.3461 18.654 41.25ZM26.0578 48.4615C26.2501 48.2692 26.3463 48.0769 26.3463 47.7884V42.5C26.3463 42.0192 25.9616 41.6346 25.3847 41.6346C24.8078 41.6346 24.4232 42.0192 24.4232 42.5V47.3076C23.3655 47.9807 22.5963 47.5961 22.2116 47.3076V42.5C22.2116 42.0192 21.827 41.6346 21.2501 41.6346C20.6732 41.6346 20.2886 42.0192 20.2886 42.5V47.7884C20.2886 47.9807 20.3847 48.2692 20.577 48.3653C21.154 48.9423 22.1155 49.5192 23.3655 49.5192C24.2309 49.6153 25.1924 49.2307 26.0578 48.4615Z" fill="#F12626"/>
<path d="M24.6154 1.346C24.4231 1.05754 24.1346 0.865234 23.8461 0.865234C23.5577 0.865234 23.1731 1.05754 22.9807 1.346L13.0769 16.8268C12.9807 17.0191 12.8846 17.3075 12.9807 17.596C13.0769 17.8845 13.1731 18.0768 13.4615 18.1729C16.5384 19.9037 24.9038 22.2114 33.75 18.1729C34.0384 18.0768 34.2307 17.8845 34.2307 17.596C34.3269 17.3075 34.2307 17.0191 34.1346 16.8268L24.6154 1.346Z" fill="white"/>
<path d="M23.4615 21.3461C18.75 21.3461 14.9038 20.0961 12.9808 18.9423C12.5 18.6538 12.2115 18.2692 12.0192 17.6923C11.9231 17.2115 12.0192 16.6346 12.3077 16.1538L22.2115 0.769193C22.5961 0.19227 23.1731 -0.0961914 23.8461 -0.0961914C24.5192 -0.0961914 25.0961 0.288424 25.4808 0.865347L35 16.3461C35.2884 16.8269 35.3846 17.4038 35.1923 17.8846C35 18.3653 34.6154 18.8461 34.1346 19.0384C30.3846 20.7692 26.7308 21.3461 23.4615 21.3461ZM23.8461 1.82689L13.8461 17.3077C16.8269 18.9423 24.8077 21.1538 33.2692 17.3077L23.8461 1.82689Z" fill="#F12626"/>
</g>
<defs>
<clipPath id="clip0">
<rect width="50" height="50" fill="white"/>
</clipPath>
</defs>
</svg>
