<svg width="68" height="61" viewBox="0 0 68 61" fill="none" xmlns="http://www.w3.org/2000/svg">
<path d="M64.6 0H3.4C1.52221 0 0 1.51723 0 3.38889V46.3148C0 48.1865 1.52221 49.7037 3.4 49.7037H29.4667V54.2222H20.4C18.5222 54.2222 17 55.7395 17 57.6111V59.8704C17 60.4942 17.5075 61 18.1333 61H49.8667C50.4925 61 51 60.4942 51 59.8704V57.6111C51 55.7395 49.4778 54.2222 47.6 54.2222H39.6667V49.7037H64.6C66.4778 49.7037 68 48.1865 68 46.3148V3.38889C68 1.51723 66.4778 0 64.6 0ZM47.6 56.4815C48.2259 56.4815 48.7333 56.9873 48.7333 57.6111V58.7407H19.2667V57.6111C19.2667 56.9873 19.7741 56.4815 20.4 56.4815H47.6ZM31.7333 54.2222V49.7037H37.4V54.2222H31.7333ZM65.7333 46.3148C65.7333 46.9387 65.2259 47.4444 64.6 47.4444H3.4C2.77412 47.4444 2.26667 46.9387 2.26667 46.3148V42.9259H65.7333V46.3148ZM65.7333 40.6667H2.26667V9.1308H65.7333V40.6667ZM65.7333 6.87154H2.26667V3.38889C2.26667 2.76505 2.77412 2.25926 3.4 2.25926H64.6C65.2259 2.25926 65.7333 2.76505 65.7333 3.38889V6.87154Z" fill="#8D8D8D"/>
<path d="M51.8281 34.8077L49.3164 32.2907L50.7138 30.8903C50.9729 30.6307 51.0769 30.2532 50.9874 29.8976C50.8979 29.542 50.6284 29.2605 50.2777 29.1542L39.8727 26.026C39.5055 25.9154 39.1091 26.0166 38.8385 26.2878C38.5669 26.5589 38.4671 26.9571 38.5773 27.3242L41.6988 37.7514C41.8039 38.1038 42.0858 38.3738 42.4407 38.4635C42.7944 38.5511 43.1721 38.4489 43.4313 38.1893L44.9025 36.7138L47.4142 39.232C47.6088 39.428 47.8742 39.5375 48.1499 39.5375C48.4256 39.5375 48.6909 39.428 48.8855 39.232L51.828 36.2821C52.2349 35.8745 52.2349 35.2155 51.8281 34.8077ZM48.1499 37.0204L45.8629 34.7274C45.5975 34.4616 45.25 34.3291 44.9025 34.3291C44.5539 34.3291 44.2064 34.4625 43.9422 34.7263L43.1909 35.4792L41.1255 28.5795L48.0105 30.6493L47.2051 31.4564C46.9834 31.6796 46.8618 31.9758 46.8618 32.2907C46.8618 32.6067 46.9845 32.9048 47.2072 33.1259L49.6211 35.5449L48.1499 37.0204Z" fill="#F12626"/>
<path d="M17 19.2041H46.4667" stroke="#F12626" stroke-width="2"/>
<path d="M29.6177 24.0239H21.1554C20.5715 24.0239 20.0977 24.4963 20.0977 25.0782V29.2954C20.0977 29.8774 20.5715 30.3497 21.1554 30.3497H29.6177C30.2015 30.3497 30.6754 29.8774 30.6754 29.2954V25.0782C30.6754 24.4963 30.2015 24.0239 29.6177 24.0239ZM28.5598 28.2412H22.2131V26.1325H28.5598V28.2412Z" fill="#F12626"/>
<path d="M45.4471 12.4263H16.8871C16.3242 12.4263 15.8672 12.8842 15.8672 13.4483V32.8672C15.8672 33.4313 16.3242 33.8892 16.8871 33.8892H41.1693C41.4927 33.8892 41.7955 33.737 41.9874 33.4773C42.1802 33.2178 42.2394 32.8826 42.1465 32.5728L40.8552 28.2588L45.1545 29.5517C45.4636 29.6448 45.7982 29.5855 46.0561 29.3923C46.3151 29.2002 46.4672 28.8956 46.4672 28.5726V13.4483C46.4671 12.8842 46.0101 12.4263 45.4471 12.4263ZM44.4271 27.199L39.6259 25.7559C39.2659 25.6475 38.8773 25.7467 38.6121 26.0124C38.3459 26.2792 38.248 26.6686 38.356 27.0294L39.7983 31.8453H17.9071V14.4704H44.4271V27.199Z" fill="#F12626"/>
</svg>
