<svg width="68" height="61" viewBox="0 0 68 61" fill="none" xmlns="http://www.w3.org/2000/svg">
<path d="M64.6 0H3.4C1.52221 0 0 1.51723 0 3.38889V46.3148C0 48.1865 1.52221 49.7037 3.4 49.7037H29.4667V54.2222H20.4C18.5222 54.2222 17 55.7395 17 57.6111V59.8704C17 60.4942 17.5075 61 18.1333 61H49.8667C50.4925 61 51 60.4942 51 59.8704V57.6111C51 55.7395 49.4778 54.2222 47.6 54.2222H39.6667V49.7037H64.6C66.4778 49.7037 68 48.1865 68 46.3148V3.38889C68 1.51723 66.4778 0 64.6 0ZM47.6 56.4815C48.2259 56.4815 48.7333 56.9873 48.7333 57.6111V58.7407H19.2667V57.6111C19.2667 56.9873 19.7741 56.4815 20.4 56.4815H47.6ZM31.7333 54.2222V49.7037H37.4V54.2222H31.7333ZM65.7333 46.3148C65.7333 46.9387 65.2259 47.4444 64.6 47.4444H3.4C2.77412 47.4444 2.26667 46.9387 2.26667 46.3148V42.9259H65.7333V46.3148ZM65.7333 40.6667H2.26667V9.1308H65.7333V40.6667ZM65.7333 6.87154H2.26667V3.38889C2.26667 2.76505 2.77412 2.25926 3.4 2.25926H64.6C65.2259 2.25926 65.7333 2.76505 65.7333 3.38889V6.87154Z" fill="#8D8D8D"/>
<path d="M45.8312 35.0189H22.2333C20.5854 35.0189 19.2671 33.752 19.2671 32.1684V17.536C19.2671 15.9524 20.5854 14.6855 22.2333 14.6855H45.7653C47.4132 14.6855 48.7315 15.9524 48.7315 17.536V32.1684C48.7974 33.752 47.4132 35.0189 45.8312 35.0189ZM22.2333 16.5859C21.706 16.5859 21.2446 17.0293 21.2446 17.536V32.1684C21.2446 32.6752 21.706 33.1185 22.2333 33.1185H45.7653C46.2927 33.1185 46.754 32.6751 46.754 32.1684V17.536C46.754 17.0293 46.2926 16.5859 45.7653 16.5859H22.2333Z" fill="#F12626"/>
<path d="M34.0324 28.368C33.7687 28.368 33.5709 28.3047 33.3732 28.1146L20.19 16.9028C19.7945 16.5861 19.7285 15.9527 20.1241 15.5726C20.4537 15.1925 21.1128 15.1292 21.5083 15.5093L34.0323 26.151L46.5563 15.5093C46.9518 15.1925 47.6109 15.1925 47.9405 15.5726C48.2701 15.9527 48.2701 16.5861 47.8746 16.9028L34.6914 28.1146C34.4937 28.2413 34.2301 28.368 34.0324 28.368Z" fill="#F12626"/>
<path d="M20.4543 34.1316C20.1906 34.1316 19.9269 34.0049 19.7292 33.8148C19.3337 33.4347 19.3996 32.8013 19.7951 32.4846L29.1552 23.9966C29.5507 23.6165 30.2099 23.6798 30.5395 24.0599C30.935 24.44 30.869 25.0734 30.4735 25.3901L21.1793 33.8782C20.9816 34.0049 20.718 34.1316 20.4543 34.1316Z" fill="#F12626"/>
<path d="M47.5465 34.1328C47.2828 34.1328 47.0851 34.0694 46.8873 33.8794L37.5273 25.3913C37.1318 25.0112 37.1318 24.4412 37.4614 24.0611C37.8569 23.681 38.4501 23.681 38.8456 23.9978L48.2057 32.4858C48.6012 32.8659 48.6012 33.4359 48.2716 33.816C48.0738 34.0061 47.8102 34.1328 47.5465 34.1328Z" fill="#F12626"/>
</svg>
