<svg width="68" height="61" viewBox="0 0 68 61" fill="none" xmlns="http://www.w3.org/2000/svg">
<path d="M64.6 0H3.4C1.52221 0 0 1.51723 0 3.38889V46.3148C0 48.1865 1.52221 49.7037 3.4 49.7037H29.4667V54.2222H20.4C18.5222 54.2222 17 55.7395 17 57.6111V59.8704C17 60.4942 17.5075 61 18.1333 61H49.8667C50.4925 61 51 60.4942 51 59.8704V57.6111C51 55.7395 49.4778 54.2222 47.6 54.2222H39.6667V49.7037H64.6C66.4778 49.7037 68 48.1865 68 46.3148V3.38889C68 1.51723 66.4778 0 64.6 0ZM47.6 56.4815C48.2259 56.4815 48.7333 56.9873 48.7333 57.6111V58.7407H19.2667V57.6111C19.2667 56.9873 19.7741 56.4815 20.4 56.4815H47.6ZM31.7333 54.2222V49.7037H37.4V54.2222H31.7333ZM65.7333 46.3148C65.7333 46.9387 65.2259 47.4444 64.6 47.4444H3.4C2.77412 47.4444 2.26667 46.9387 2.26667 46.3148V42.9259H65.7333V46.3148ZM65.7333 40.6667H2.26667V9.1308H65.7333V40.6667ZM65.7333 6.87154H2.26667V3.38889C2.26667 2.76505 2.77412 2.25926 3.4 2.25926H64.6C65.2259 2.25926 65.7333 2.76505 65.7333 3.38889V6.87154Z" fill="#8D8D8D"/>
<path d="M5.66751 13.5556H8.18238L11.3557 28.4668C11.4635 28.9932 11.9285 29.3712 12.4675 29.3705H26.0675C26.6061 29.3706 27.0705 28.9927 27.1782 28.4668L29.4448 17.1705C29.5701 16.5592 29.1744 15.9625 28.5611 15.8378C28.4865 15.8225 28.4104 15.8149 28.3342 15.8149H11.0848L10.1668 12.1526C10.0409 11.6495 9.58771 11.2965 9.06751 11.2964H5.66751C5.04163 11.2964 4.53418 11.8022 4.53418 12.426C4.53418 13.0499 5.04163 13.5556 5.66751 13.5556ZM26.9515 18.0742L25.1393 27.1112H13.3957L11.5824 18.0742H26.9515Z" fill="#F12626"/>
<path d="M14.733 30.5002C12.8552 30.5002 11.333 32.0175 11.333 33.8891C11.333 35.7608 12.8552 37.278 14.733 37.278C16.6108 37.278 18.133 35.7608 18.133 33.8891C18.133 32.0175 16.6108 30.5002 14.733 30.5002ZM14.733 35.0188C14.1071 35.0188 13.5997 34.513 13.5997 33.8891C13.5997 33.2653 14.1071 32.7595 14.733 32.7595C15.3589 32.7595 15.8663 33.2653 15.8663 33.8891C15.8663 34.513 15.3589 35.0188 14.733 35.0188Z" fill="#F12626"/>
<path d="M24.9332 30.5002C23.0554 30.5002 21.5332 32.0175 21.5332 33.8891C21.5332 35.7608 23.0554 37.278 24.9332 37.278C26.811 37.278 28.3332 35.7608 28.3332 33.8891C28.3332 32.0175 26.811 30.5002 24.9332 30.5002ZM24.9332 35.0188C24.3073 35.0188 23.7999 34.513 23.7999 33.8891C23.7999 33.2653 24.3073 32.7595 24.9332 32.7595C25.5591 32.7595 26.0665 33.2653 26.0665 33.8891C26.0665 34.513 25.5591 35.0188 24.9332 35.0188Z" fill="#F12626"/>
<path d="M35.1333 16.9443H55.5333C56.1592 16.9443 56.6667 16.4385 56.6667 15.8147C56.6667 15.1909 56.1592 14.6851 55.5333 14.6851H35.1333C34.5074 14.6851 34 15.1909 34 15.8147C34 16.4385 34.5074 16.9443 35.1333 16.9443Z" fill="#F12626"/>
<path d="M60.0669 16.9443H62.3336C62.9595 16.9443 63.4669 16.4385 63.4669 15.8147C63.4669 15.1909 62.9595 14.6851 62.3336 14.6851H60.0669C59.441 14.6851 58.9336 15.1909 58.9336 15.8147C58.9336 16.4385 59.441 16.9443 60.0669 16.9443Z" fill="#F12626"/>
<path d="M35.1333 21.4629H55.5333C56.1592 21.4629 56.6667 20.9571 56.6667 20.3332C56.6667 19.7094 56.1592 19.2036 55.5333 19.2036H35.1333C34.5074 19.2036 34 19.7094 34 20.3332C34 20.9571 34.5074 21.4629 35.1333 21.4629Z" fill="#F12626"/>
<path d="M60.0669 21.4629H62.3336C62.9595 21.4629 63.4669 20.9571 63.4669 20.3332C63.4669 19.7094 62.9595 19.2036 62.3336 19.2036H60.0669C59.441 19.2036 58.9336 19.7094 58.9336 20.3332C58.9336 20.9571 59.441 21.4629 60.0669 21.4629Z" fill="#F12626"/>
<path d="M35.1333 25.9814H55.5333C56.1592 25.9814 56.6667 25.4756 56.6667 24.8518C56.6667 24.228 56.1592 23.7222 55.5333 23.7222H35.1333C34.5074 23.7222 34 24.228 34 24.8518C34 25.4756 34.5074 25.9814 35.1333 25.9814Z" fill="#F12626"/>
<path d="M60.0669 25.9814H62.3336C62.9595 25.9814 63.4669 25.4756 63.4669 24.8518C63.4669 24.228 62.9595 23.7222 62.3336 23.7222H60.0669C59.441 23.7222 58.9336 24.228 58.9336 24.8518C58.9336 25.4756 59.441 25.9814 60.0669 25.9814Z" fill="#F12626"/>
<path d="M35.1333 30.5H55.5333C56.1592 30.5 56.6667 29.9942 56.6667 29.3704C56.6667 28.7465 56.1592 28.2407 55.5333 28.2407H35.1333C34.5074 28.2407 34 28.7465 34 29.3704C34 29.9942 34.5074 30.5 35.1333 30.5Z" fill="#F12626"/>
<path d="M60.0669 30.5H62.3336C62.9595 30.5 63.4669 29.9942 63.4669 29.3704C63.4669 28.7465 62.9595 28.2407 62.3336 28.2407H60.0669C59.441 28.2407 58.9336 28.7465 58.9336 29.3704C58.9336 29.9942 59.441 30.5 60.0669 30.5Z" fill="#F12626"/>
</svg>
