<svg width="56" height="51" viewBox="0 0 56 51" fill="none" xmlns="http://www.w3.org/2000/svg">
<path d="M38.1844 45.6385C38.1844 45.6385 38.1844 45.6385 38.1844 45.4127L37.988 45.6103C37.7902 46.2521 37.4658 46.8471 37.0341 47.3598C36.9126 47.5639 36.7453 47.7366 36.5455 47.864C36.3458 47.9914 36.1191 48.07 35.8838 48.0935C35.8838 48.0935 35.8838 48.0935 35.7154 48.2628C35.9112 48.2869 36.1099 48.2692 36.2984 48.2109C36.487 48.1525 36.6612 48.0548 36.8096 47.9242C36.9587 47.7613 37.1285 47.619 37.3146 47.5009C37.6037 47.3704 37.8469 47.1551 38.0121 46.8832C38.1773 46.6112 38.2569 46.2954 38.2405 45.9771C38.2124 45.9489 38.2124 45.7796 38.1844 45.6385ZM11.2224 32.9684L10.998 33.307C10.9357 33.2674 10.8642 33.245 10.7905 33.2419C10.7169 33.2388 10.6438 33.2553 10.5784 33.2895C10.5131 33.3238 10.4579 33.3748 10.4183 33.4373C10.3786 33.4998 10.356 33.5716 10.3527 33.6457V33.8714C10.3579 33.9371 10.3579 34.0032 10.3527 34.0689C10.3527 34.0689 10.5491 34.0689 10.6052 34.0689L10.998 33.8432C10.998 33.8432 11.1663 33.561 11.2786 33.5328C11.3908 33.5046 11.2224 33.1942 11.2224 32.9684ZM9.17435 35.113H8.89379C8.89379 35.3105 8.89379 35.5081 8.72545 35.7903C8.55711 36.0724 9.20241 35.7903 9.28657 35.7903C9.33102 35.6335 9.33102 35.4673 9.28657 35.3105C9.28657 35.3105 9.28657 35.113 9.23046 35.113H9.17435ZM3.78758 41.2929H3.4509C3.4509 41.2929 3.4509 41.2929 3.4509 41.4622H3.75952C3.75952 41.4622 3.75952 41.4622 4.06814 41.4622L3.78758 41.2929ZM53.475 44.9895L51.5952 43.0424C51.5952 43.0424 51.5952 43.2117 51.5952 43.2681C51.7366 43.548 51.9058 43.8127 52.1002 44.0583C52.1002 44.0583 52.3808 44.2276 52.4649 44.3404C52.5491 44.4533 52.9699 45.187 53.2224 45.5821L53.4469 45.9207C53.3066 45.5538 53.3066 45.3563 53.475 45.0177V44.9895ZM32.489 31.2471C32.489 31.4446 32.489 31.5575 32.2926 31.7268H32.9098L32.489 31.2471ZM38.1002 45.7796C38.1002 45.7796 38.1002 45.7796 38.1002 45.5538L37.9038 45.7514C37.7061 46.3931 37.3816 46.9882 36.9499 47.5009C36.8284 47.705 36.6611 47.8777 36.4614 48.0051C36.2616 48.1325 36.035 48.2111 35.7996 48.2346C35.7996 48.2346 35.7996 48.2346 35.6313 48.4039C35.8271 48.428 36.0257 48.4103 36.2143 48.352C36.4028 48.2936 36.577 48.1959 36.7255 48.0653C36.8745 47.9024 37.0443 47.7601 37.2305 47.642C37.5196 47.5115 37.7627 47.2962 37.9279 47.0243C38.0931 46.7523 38.1728 46.4365 38.1563 46.1182C38.2124 45.9489 38.2124 45.7796 38.1844 45.6385L38.1002 45.7796ZM11.2224 32.9684L10.998 33.307C10.9357 33.2674 10.8642 33.245 10.7905 33.2419C10.7169 33.2388 10.6438 33.2553 10.5784 33.2895C10.5131 33.3238 10.4579 33.3748 10.4183 33.4373C10.3786 33.4998 10.356 33.5716 10.3527 33.6457V33.8714C10.3579 33.9371 10.3579 34.0032 10.3527 34.0689C10.3527 34.0689 10.5491 34.0689 10.6052 34.0689L10.998 33.8432C10.998 33.8432 11.1663 33.561 11.2786 33.5328C11.3908 33.5046 11.2224 33.1942 11.2224 32.9684ZM9.17435 35.113H8.89379C8.89379 35.3105 8.89379 35.5081 8.72545 35.7903C8.55711 36.0724 9.20241 35.7903 9.28657 35.7903C9.33102 35.6335 9.33102 35.4673 9.28657 35.3105C9.28657 35.3105 9.28657 35.113 9.23046 35.113H9.17435ZM3.78758 41.2929H3.4509C3.4509 41.2929 3.4509 41.2929 3.4509 41.4622H3.75952C3.75952 41.4622 3.75952 41.4622 4.06814 41.4622L3.78758 41.2929ZM25.0822 35.1695C25.0907 35.2445 25.0907 35.3202 25.0822 35.3952C24.9617 35.5803 24.8937 35.7949 24.8858 36.016C24.8858 36.4957 24.1563 36.8626 23.6232 36.7215C23.0902 36.5804 23.3427 36.7215 23.2866 36.7215C23.2305 36.7215 23.2866 37.0601 23.483 37.1165C23.6794 37.173 24.016 37.3705 24.3247 37.1165C24.4972 37.0089 24.6871 36.9325 24.8858 36.8908C24.9873 36.8661 25.0781 36.8085 25.1439 36.727C25.2098 36.6454 25.2473 36.5443 25.2505 36.4393C25.2505 36.2135 25.4469 36.1571 25.6713 36.2135C25.7013 36.2201 25.7296 36.2327 25.7545 36.2507C25.7794 36.2686 25.8004 36.2916 25.8162 36.318C25.832 36.3444 25.8422 36.3739 25.8462 36.4044C25.8503 36.435 25.848 36.4661 25.8397 36.4957C25.8397 36.4957 25.8397 36.4957 25.8397 36.665C25.8397 36.8343 25.8397 37.0601 26.2044 37.0037L27.8878 39.8255L31.984 33.0248C32.2084 33.0248 32.3768 32.7709 32.6012 32.6862C32.8257 32.6016 32.6012 32.6862 32.6012 32.4887L32.8537 32.0936L33.1343 32.263H33.4709C33.6112 32.6862 33.6112 32.6862 34.004 32.4605C34.1643 32.4082 34.3367 32.4073 34.4976 32.4579C34.6584 32.5084 34.7996 32.6079 34.9018 32.7427L35.1824 33.1377C34.8737 33.6457 34.2004 34.0407 33.9479 34.6615L35.014 34.0972C35.2104 34.0972 35.3788 33.8714 35.5752 34.0972H35.7996C35.9247 33.9781 36.0903 33.9117 36.2625 33.9117C36.4347 33.9117 36.6004 33.9781 36.7255 34.0972C36.8993 34.2015 37.0981 34.2567 37.3006 34.2567C37.5031 34.2567 37.7019 34.2015 37.8758 34.0972C37.8758 34.0972 37.8758 33.8432 37.8758 33.7021C38.0897 33.6704 38.3071 33.6704 38.521 33.7021C38.6988 33.724 38.8686 33.7895 39.0153 33.8928C39.1621 33.9962 39.2814 34.1342 39.3627 34.2947C39.4783 34.5133 39.6607 34.6889 39.8829 34.7956C40.1051 34.9022 40.3555 34.9344 40.5972 34.8873V34.464L41.0461 34.21C41.1741 34.1708 41.3109 34.1708 41.4389 34.21C41.7475 34.21 41.8317 34.21 41.8878 33.8996C41.9439 33.5892 41.8878 33.6457 41.7475 33.5328C41.6782 33.3832 41.5936 33.2414 41.495 33.1095L42.7295 32.5451C42.7295 32.5451 42.9539 32.5451 42.982 32.5451C43.01 32.5451 43.1784 32.5451 43.3467 32.5451C43.515 32.5451 43.7675 32.3758 43.992 32.5451C44.2164 32.7144 44.2164 32.5451 44.2725 32.5451C44.3287 32.5451 44.4689 32.2347 44.5812 32.0654C44.6934 31.8961 44.9459 31.7268 45.2265 32.0654C45.3662 32.15 45.5263 32.1947 45.6894 32.1947C45.8525 32.1947 46.0125 32.15 46.1523 32.0654C46.1523 32.0654 46.1523 31.7832 46.1523 31.6704C46.258 31.6003 46.3525 31.5147 46.4329 31.4164C46.4934 31.3051 46.5827 31.2122 46.6914 31.1477C46.8 31.0831 46.9239 31.0492 47.0501 31.0496C47.2746 31.0496 47.3026 31.0496 47.1904 30.7674C47.0713 30.6576 46.9394 30.5629 46.7976 30.4852H46.489C46.489 29.7515 46.994 29.4129 47.5832 29.1589C48.1723 28.905 47.9479 28.9332 48.1162 28.8767C48.2937 28.8629 48.4719 28.8629 48.6493 28.8767H48.9299L48.8457 28.4252C48.8457 28.4252 48.6774 28.4252 48.7054 28.2277C48.7515 28.1348 48.8321 28.0638 48.9299 28.0302C48.969 28.0103 49.0123 28 49.0561 28C49.1 28 49.1432 28.0103 49.1824 28.0302L50.2204 28.9332L49.6593 29.1589C49.6645 29.2529 49.6645 29.3471 49.6593 29.4411H49.2665C49.2665 29.7515 49.2665 29.8926 49.5752 29.9208C49.7458 29.9506 49.9038 30.031 50.0287 30.1517C50.1537 30.2723 50.24 30.4278 50.2766 30.5981C50.2766 30.852 50.2766 30.9085 50.6413 30.852C50.9997 30.7878 51.369 30.8581 51.6794 31.0496V31.0496C51.8042 31.9224 52.1852 32.7379 52.7735 33.3917C52.8154 33.479 52.8622 33.5638 52.9138 33.6457C52.521 33.6457 52.5491 34.0407 52.493 34.3511C52.4369 34.6615 52.6894 34.9437 52.493 35.2259C52.4566 35.3358 52.4566 35.4546 52.493 35.5645C52.6894 35.8467 52.9138 36.1007 53.1383 36.3828C53.3627 36.665 53.3908 36.6932 53.6433 36.5804L54.2325 36.9754C54.2707 37.1523 54.3488 37.3181 54.4607 37.46C54.5725 37.6018 54.7152 37.716 54.8778 37.7938C54.9156 37.8033 54.951 37.8207 54.9817 37.8448C55.0125 37.8689 55.0379 37.8991 55.0564 37.9336C55.0748 37.9682 55.086 38.0062 55.089 38.0452C55.0921 38.0843 55.087 38.1236 55.0741 38.1606C55.0343 38.3235 55.0453 38.4949 55.1055 38.6513C55.1657 38.8078 55.2723 38.9419 55.4108 39.0354C55.4595 39.063 55.4988 39.1046 55.5238 39.1549C55.5488 39.2052 55.5583 39.2618 55.5511 39.3176C55.5341 39.4249 55.5431 39.5348 55.5773 39.638C55.6115 39.7411 55.6699 39.8345 55.7475 39.9101C55.8439 40.1215 55.9282 40.3382 56 40.5592V40.5592C55.5792 40.2206 55.1303 39.9101 54.7375 39.5433L53.5311 38.4146C53.4105 38.2619 53.3157 38.0903 53.2505 37.9066C52.8858 37.7091 52.9699 37.3987 52.9419 37.0883C52.9156 36.8798 52.8488 36.6784 52.7455 36.4957C52.4015 35.9636 52.1633 35.3695 52.0441 34.7462C52.0441 34.7462 51.9038 34.7462 51.8477 34.5204L51.1744 34.0689C51.1744 34.0689 51.1744 34.0689 50.9499 34.0689C50.9262 34.1326 50.9262 34.2028 50.9499 34.2665C50.9378 34.379 50.9378 34.4925 50.9499 34.6051L51.5391 35.5363L51.3427 35.367C51.3427 35.367 51.1182 35.1977 51.0621 35.1977C51.006 35.1977 50.7535 35.3952 50.7255 35.5363C50.683 35.779 50.683 36.0273 50.7255 36.27C50.8414 36.6183 50.982 36.9578 51.1463 37.2858C51.223 37.4444 51.3276 37.5878 51.4549 37.7091V37.9349C51.1463 37.9349 50.8377 38.1042 50.5291 38.2453C50.4804 38.2729 50.441 38.3145 50.416 38.3648C50.3911 38.4151 50.3816 38.4717 50.3888 38.5274C50.3888 38.725 50.3888 38.7814 50.1924 38.8661C49.996 38.9507 49.491 39.2893 49.1824 39.5433C49.055 39.6925 48.9853 39.8828 48.986 40.0795C48.986 40.531 48.986 40.9825 48.986 41.4622C49.016 42.0195 48.93 42.5769 48.7335 43.0988C48.7335 43.0988 48.7335 43.5221 48.7335 43.5785C48.7335 43.635 49.0982 43.5785 49.2385 43.5785L49.9118 43.8889C50.1082 43.8889 50.3327 43.6914 50.3327 43.4657C50.3327 43.2399 50.3327 43.1271 50.7255 43.2117C50.8973 43.2404 51.0603 43.3079 51.2024 43.4092H51.0341H50.8657C50.8657 43.4092 50.8657 43.4092 51.0341 43.4092C51.1272 43.4217 51.2215 43.4217 51.3146 43.4092C51.4296 43.4286 51.5363 43.4818 51.6212 43.5622C51.7061 43.6426 51.7654 43.7465 51.7916 43.8607C51.8739 44.1722 51.9867 44.4746 52.1283 44.7637C52.3243 45.068 52.4932 45.3891 52.6333 45.7231C52.6764 46.1076 52.6764 46.4957 52.6333 46.8801C52.6333 46.8801 52.6333 47.0494 52.6333 47.1341C52.7178 48.0139 52.6027 48.9016 52.2966 49.7302C52.1524 50.0529 51.9421 50.3414 51.6794 50.5767C51.6794 50.5767 51.4269 50.5767 51.3146 50.5767C51.287 50.523 51.2491 50.4753 51.2031 50.4363C51.1572 50.3972 51.104 50.3677 51.0467 50.3494C50.9894 50.331 50.929 50.3242 50.8691 50.3294C50.8092 50.3345 50.7508 50.3514 50.6974 50.3792C50.644 50.407 50.5965 50.4451 50.5577 50.4913C50.519 50.5376 50.4896 50.591 50.4714 50.6487C50.4531 50.7063 50.4464 50.767 50.4514 50.8273C50.4565 50.8876 50.4734 50.9463 50.501 51L50.1363 50.351C50.1177 50.2983 50.1123 50.2419 50.1207 50.1866C50.129 50.1314 50.1508 50.0791 50.1842 50.0344C50.2175 49.9897 50.2613 49.9539 50.3117 49.9304C50.3621 49.9069 50.4175 49.8963 50.4729 49.8995C50.8377 49.8995 50.9218 49.702 50.8938 49.4198C50.8657 49.1376 50.8938 48.1499 50.6974 47.5291C50.501 46.9083 50.501 47.1905 50.2485 47.5291L49.5752 48.2346C49.3507 48.4603 49.1824 48.4321 48.986 48.2346C48.7896 48.0371 48.7615 47.8677 48.6212 47.8395C48.2516 47.7577 47.8687 47.7577 47.499 47.8395C47.2184 47.8395 47.1343 47.8395 47.0501 47.6702C46.7257 47.1031 46.2742 46.62 45.7315 46.2593C45.5752 46.2174 45.4108 46.2174 45.2545 46.2593H44.8898C44.5729 46.2033 44.2468 46.234 43.9457 46.3482C43.6447 46.4624 43.3796 46.6558 43.1784 46.9083C43.1547 47.0389 43.1547 47.1728 43.1784 47.3034C43.5711 47.3034 43.5711 47.3034 43.4589 47.6984C43.3635 47.992 43.2977 48.2946 43.2625 48.6014C43.2226 48.7681 43.1237 48.9145 42.9843 49.0132C42.8449 49.1118 42.6745 49.1561 42.505 49.1376C42.0472 49.1087 41.5881 49.1087 41.1303 49.1376C41.1303 49.1376 40.8497 49.1376 40.7375 49.3633C40.1304 49.8341 39.3685 50.0559 38.6052 49.9841C38.523 50.0101 38.4349 50.0101 38.3527 49.9841C37.9599 49.8148 37.5671 49.6173 37.1463 49.4762C36.759 49.3207 36.3272 49.3207 35.9399 49.4762C35.7863 49.5654 35.6122 49.6123 35.4349 49.6123C35.2576 49.6123 35.0834 49.5654 34.9299 49.4762C34.9299 48.8554 34.2565 48.9965 33.9198 48.7425C33.8082 48.7263 33.6948 48.7263 33.5832 48.7425C33.4018 48.7042 33.2133 48.7183 33.0395 48.7833C32.8657 48.8482 32.7138 48.9612 32.6012 49.1094C32.6012 49.1094 32.6012 49.3069 32.6012 49.4198C32.6012 49.5326 32.6012 50.0406 32.0962 50.0406C31.8257 50.0683 31.5531 50.0683 31.2826 50.0406C31.1336 50.009 30.9912 49.9517 30.8617 49.8713L30.4409 49.702H30.2164C29.6504 49.5699 29.064 49.5518 28.491 49.6486C27.918 49.7455 27.3697 49.9554 26.8778 50.2663V50.2663C26.8778 49.8148 26.8778 49.7302 26.3166 49.7302C26.2062 49.7448 26.094 49.7223 25.9976 49.6662C25.9012 49.61 25.8259 49.5234 25.7836 49.4198C25.7912 48.8643 25.6022 48.3242 25.2505 47.896C25.0977 47.7714 24.9128 47.6932 24.7174 47.6702C24.4838 47.6565 24.2496 47.6565 24.016 47.6702C24.016 47.6702 23.8477 47.6702 23.8477 47.6702C23.8477 47.6702 23.483 47.2752 23.1463 47.4445C22.7535 46.739 22.9218 45.836 22.2204 45.2999C22.2805 45.1062 22.3556 44.9175 22.4449 44.7355C22.0521 44.7355 21.7435 44.7355 21.4068 44.7355C21.0701 44.7355 20.9299 44.7355 20.7896 44.5098C20.6493 44.284 20.7896 44.5098 20.7896 44.3404C20.7896 44.1711 20.3968 44.3404 20.3687 44.0583H19.6393C19.6823 43.8156 19.6823 43.5672 19.6393 43.3246C19.6393 43.3246 19.3026 43.1271 19.1062 43.0706C18.8055 42.9715 18.4811 42.9715 18.1804 43.0706C17.8998 43.0706 17.5631 43.0706 17.2545 43.0706C16.4436 42.9737 15.6445 42.7941 14.8697 42.5345C14.4489 42.5345 14.5611 42.7602 14.505 42.986C14.4489 43.2117 14.0281 42.986 13.9439 43.3246C13.8597 43.6632 13.5792 43.3246 13.3267 43.3246L13.6353 44.0865C13.6353 44.0865 12.7936 44.0865 12.6253 43.7479C12.4551 43.5419 12.2568 43.3614 12.0361 43.2117C11.7739 43.0829 11.4862 43.0154 11.1944 43.0142H10.8858C10.7181 42.8632 10.5589 42.7031 10.4088 42.5345C10.3511 42.3937 10.2757 42.2609 10.1844 42.1394C10.016 41.829 9.62325 41.8572 9.42685 41.6597C9.326 41.6307 9.21909 41.6307 9.11824 41.6597H8.58517C8.28655 41.6318 7.986 41.6318 7.68738 41.6597C7.68738 41.6597 7.51904 41.8854 7.37876 42.0548C7.36602 41.8574 7.36602 41.6595 7.37876 41.4622C6.9719 41.4983 6.5878 41.6667 6.28457 41.9419C5.86373 41.9419 5.72345 42.1958 5.69539 42.5909C5.66803 42.6481 5.65383 42.7108 5.65383 42.7743C5.65383 42.8378 5.66803 42.9005 5.69539 42.9577C5.72091 43.0155 5.7341 43.078 5.7341 43.1412C5.7341 43.2044 5.72091 43.2668 5.69539 43.3246C5.68589 43.3626 5.66861 43.3982 5.64466 43.4291C5.62072 43.4601 5.59063 43.4856 5.55632 43.5042C5.522 43.5228 5.48422 43.534 5.44536 43.5371C5.40651 43.5401 5.36745 43.5351 5.33066 43.5221C5.19038 43.5221 5.0501 43.5221 5.07816 43.7479C5.10621 43.9736 5.07816 43.7479 5.07816 43.9172V43.7479C5.07816 43.5503 4.90982 43.5221 4.74148 43.7479L3.61924 44.3404H3.47896C3.47896 44.9613 2.83367 45.3281 2.83367 45.9207C2.83367 46.5133 2.49699 46.3157 2.3006 46.2593C2.28812 46.2328 2.28165 46.2039 2.28165 46.1746C2.28165 46.1454 2.28812 46.1164 2.3006 46.09C2.17682 45.8583 2.08256 45.6117 2.02004 45.3563C2.00591 45.2723 2.00591 45.1864 2.02004 45.1023C2.05737 44.9676 2.04359 44.8236 1.98138 44.6985C1.91917 44.5734 1.81297 44.4759 1.68337 44.4251C1.59541 44.3988 1.51687 44.3475 1.45715 44.2775C1.39743 44.2074 1.35908 44.1215 1.34669 44.03C1.27235 43.8299 1.15774 43.6474 1.01002 43.4939L0.280561 42.5345C0.266065 42.4694 0.266065 42.402 0.280561 42.3369L0 41.2082V41.0389H1.06613V40.8131H1.57114H1.96393C1.96393 40.8131 1.96393 40.5592 1.82365 40.4181C1.68337 40.277 2.10421 40.4181 2.24449 40.4181C2.38477 40.4181 2.46894 40.4181 2.55311 40.4181C2.91051 40.2519 3.25721 40.0635 3.59118 39.8537C3.61579 39.8057 3.62863 39.7525 3.62863 39.6985C3.62863 39.6445 3.61579 39.5913 3.59118 39.5433C3.59118 39.3176 3.31062 39.0918 3.31062 38.8943C3.31062 38.6968 3.08617 38.3581 2.88978 38.1042C2.69339 37.8502 2.88978 37.9066 2.88978 37.8502C2.88978 37.7938 3.14228 37.4834 2.88978 37.2858C3.53507 36.8908 3.50701 36.6086 2.88978 36.2135L3.33868 35.8749C3.47896 36.1853 3.75952 36.0442 4.04008 36.0442C4.06995 35.8523 4.1169 35.6634 4.18036 35.4799C4.20752 35.3192 4.2802 35.1698 4.38969 35.0497C4.49918 34.9296 4.64082 34.8438 4.7976 34.8026C4.85927 34.7888 4.91584 34.7579 4.96085 34.7133C5.00586 34.6687 5.03749 34.6123 5.05213 34.5505C5.06676 34.4887 5.06381 34.424 5.0436 34.3637C5.0234 34.3035 4.98676 34.2503 4.93788 34.21C4.71343 33.9561 4.74148 33.8432 4.93788 33.6457C5.61295 33.1746 6.36231 32.8216 7.15431 32.6016C7.15431 32.6016 7.46293 32.6016 7.57515 32.6016C7.68738 32.6016 7.57515 32.7991 7.74349 32.912H7.93988C7.96784 32.7723 7.96784 32.6284 7.93988 32.4887C7.93988 32.2347 7.93988 32.1783 8.19239 32.2065H8.75351L7.93988 33.0813C8.33267 33.0813 8.64128 33.3917 9.00601 33.0813C9.37074 32.7709 9.3988 32.5169 9.31463 32.0654H9.90381C10.0605 32.0727 10.2163 32.0372 10.3546 31.9627C10.4929 31.8882 10.6086 31.7774 10.6894 31.6421V31.6421C11.1944 31.6421 11.3347 31.0496 11.7836 31.0213C12.1444 30.943 12.4812 30.7785 12.7655 30.5416C12.9339 30.5416 13.1583 30.5416 13.3547 30.3723C13.5469 30.3005 13.7199 30.1845 13.8597 30.0337C13.8952 29.9449 13.9577 29.8697 14.0384 29.819C14.1191 29.7682 14.2137 29.7446 14.3086 29.7515C14.6248 29.6299 14.9744 29.6299 15.2906 29.7515C15.2697 29.9202 15.2697 30.0908 15.2906 30.2594C15.4596 30.7725 15.4596 31.3267 15.2906 31.8397C15.2906 31.8397 14.9259 32.1501 14.7014 32.2347C14.574 32.293 14.4312 32.3079 14.2945 32.2774C14.1579 32.2469 14.0348 32.1725 13.9439 32.0654C13.9596 31.8663 13.9877 31.6684 14.0281 31.4728C13.9985 31.3333 13.9985 31.1891 14.0281 31.0496C13.6914 31.0496 13.6914 31.3035 13.5792 31.4728C13.4729 31.6266 13.3507 31.7685 13.2144 31.8961L12.513 32.3476C12.3166 32.3476 12.513 33.307 12.7094 33.3635C12.8579 33.3898 13.0098 33.3898 13.1583 33.3635C13.2986 33.3635 13.3267 33.1659 13.1583 33.0248L13.3267 32.7991C13.3267 32.7991 13.3267 33.0248 13.3267 33.0813C13.4695 33.3091 13.629 33.5261 13.8036 33.7303H14.0281C14.0533 33.6189 14.0533 33.5031 14.0281 33.3917C14.0891 33.2653 14.1948 33.1663 14.3245 33.1141C14.4542 33.0619 14.5986 33.0603 14.7295 33.1095C14.9342 33.1377 15.1419 33.1377 15.3467 33.1095C15.3467 33.307 15.3467 33.4763 15.3467 33.7021C15.7759 33.6238 16.1581 33.381 16.4128 33.0248C16.3987 33.1089 16.3987 33.1948 16.4128 33.2788C16.4128 33.4481 16.4128 33.6739 16.4128 33.7585C16.5003 33.801 16.5962 33.8231 16.6934 33.8231C16.7905 33.8231 16.8865 33.801 16.9739 33.7585C17.3018 33.6488 17.6561 33.6488 17.984 33.7585C18.2583 33.7987 18.53 33.8552 18.7976 33.9278C18.7976 33.9278 19.022 34.1254 19.1343 34.1818C19.2465 34.2382 19.3868 34.3793 19.4709 34.3511C19.6516 34.2816 19.8514 34.2816 20.0321 34.3511C20.2086 34.3801 20.3886 34.3801 20.5651 34.3511V34.6897C20.7051 34.7033 20.846 34.7033 20.986 34.6897C21.2104 34.6897 21.519 34.6897 21.5471 34.2947H21.7715C22.3144 34.5692 22.7422 35.0294 22.978 35.5927C22.978 35.5927 23.1463 35.762 23.2024 35.5927C23.2585 35.4234 23.5671 35.5927 23.5952 35.3388C23.6293 35.1427 23.6293 34.9422 23.5952 34.7462C23.5952 34.4922 23.7916 34.2665 23.9038 34.0689C24.016 33.8714 23.9038 34.0689 24.1283 33.8714L25.0822 35.1695Z" fill="#8D8D8D"/>
<path d="M27.7269 41C27.3003 41.001 26.881 40.8874 26.5106 40.6703C26.1403 40.4532 25.8319 40.1403 25.6163 39.7627L16.7628 25.4499C16.5781 25.1355 16.5206 24.7595 16.6026 24.4022C16.6845 24.0449 16.8994 23.7347 17.2013 23.5378C17.3542 23.4396 17.5245 23.3734 17.7024 23.3428C17.8803 23.3123 18.0623 23.3181 18.238 23.3599C18.4137 23.4017 18.5797 23.4787 18.7263 23.5864C18.873 23.6941 18.9975 23.8305 19.0926 23.9877L27.5898 38.0474L37.5123 21.1757C38.5303 19.4137 39.0942 17.4149 39.1508 15.3675C39.2075 13.3201 38.7551 11.2916 37.8362 9.47321C36.9173 7.6548 35.5623 6.10636 33.8987 4.9738C32.2352 3.84123 30.3179 3.16186 28.3276 2.99968C26.3374 2.83751 24.3396 3.19788 22.5226 4.04684C20.7057 4.8958 19.1293 6.20539 17.9422 7.85219C16.755 9.49899 15.9961 11.4288 15.737 13.4597C15.4779 15.4906 15.7272 17.5557 16.4613 19.4604C16.5876 19.8038 16.5781 20.1843 16.4347 20.5206C16.2913 20.8568 16.0254 21.1222 15.6938 21.2601C15.3558 21.3586 14.9938 21.3201 14.6826 21.1527C14.3715 20.9852 14.1349 20.7015 14.0218 20.3603C13.113 18.0102 12.8032 15.4613 13.1214 12.9542C13.4397 10.4471 14.3756 8.06467 15.8407 6.03175C17.3059 3.99883 19.2519 2.38255 21.4951 1.33553C23.7383 0.288518 26.2046 -0.154684 28.6612 0.0477771C31.1177 0.250239 33.4834 1.09168 35.5349 2.49265C37.5864 3.89363 39.256 5.80789 40.3859 8.0547C41.5159 10.3015 42.0691 12.8067 41.9931 15.3337C41.9171 17.8608 41.2146 20.3262 39.9518 22.4973L29.7278 39.7909C29.5185 40.1471 29.2259 40.4442 28.8766 40.6553C28.5272 40.8665 28.1321 40.9849 27.7269 41V41ZM27.4253 20.7821C26.2935 20.7709 25.1903 20.4161 24.2549 19.7624C23.3195 19.1086 22.5938 18.1853 22.1694 17.1088C21.745 16.0324 21.641 14.8511 21.8704 13.7141C22.0998 12.577 22.6525 11.5352 23.4585 10.72C24.2646 9.90488 25.2879 9.35295 26.3995 9.13389C27.511 8.91483 28.6609 9.03847 29.704 9.48919C30.7471 9.93992 31.6366 10.6975 32.2604 11.6664C32.8842 12.6353 33.2143 13.7721 33.2089 14.9332C33.1944 16.4944 32.5778 17.9863 31.494 19.0823C30.4101 20.1784 28.9473 20.7896 27.4253 20.7821ZM27.4253 11.84C26.8381 11.8511 26.267 12.0396 25.7835 12.3818C25.3001 12.724 24.9256 13.2048 24.7071 13.7641C24.4885 14.3235 24.4355 14.9365 24.5547 15.5265C24.6739 16.1166 24.96 16.6575 25.3772 17.0816C25.7945 17.5058 26.3243 17.7944 26.9005 17.9113C27.4767 18.0283 28.0738 17.9683 28.617 17.7391C29.1602 17.5098 29.6255 17.1214 29.9547 16.6223C30.2839 16.1233 30.4624 15.5357 30.4679 14.9332C30.4679 14.5246 30.389 14.1201 30.2358 13.743C30.0825 13.3658 29.858 13.0236 29.5751 12.736C29.2922 12.4484 28.9566 12.2212 28.5876 12.0674C28.2186 11.9136 27.8236 11.8363 27.4253 11.84V11.84Z" fill="#F12626"/>
</svg>
