<svg width="37" height="52" viewBox="0 0 37 52" fill="none" xmlns="http://www.w3.org/2000/svg">
<path d="M18.56 37.8353C18.2925 37.8353 18.0321 37.7461 17.818 37.5811L14.3552 34.8604L10.0762 35.4706C9.80649 35.5096 9.53179 35.456 9.29475 35.3181C9.05771 35.1802 8.8716 34.9656 8.7653 34.7078L7.10811 30.5124L3.10117 28.8342C2.84579 28.7292 2.63174 28.5397 2.49287 28.2956C2.354 28.0516 2.29824 27.7669 2.33441 27.4866L2.48282 26.2152C2.52546 25.878 2.69665 25.5721 2.95872 25.3646C3.2208 25.1572 3.5523 25.0653 3.8803 25.1091C4.2083 25.153 4.50592 25.329 4.7077 25.5984C4.90947 25.8678 4.99888 26.2086 4.95624 26.5458V26.9526L8.09748 28.2748C8.39903 28.4055 8.67237 28.5964 8.90164 28.8364C9.13091 29.0765 9.31156 29.3609 9.43313 29.6733L10.6946 32.8262L14.0584 32.3685H14.4047C14.898 32.3674 15.3804 32.5179 15.7898 32.8008L18.5848 34.9875L21.3055 32.8517C21.8183 32.5061 22.4246 32.337 23.0369 32.3685L26.475 32.8517L27.7612 29.6479C28.0175 29.0362 28.4971 28.5523 29.0968 28.3002L32.1639 26.9272L31.6939 23.5454C31.6519 23.2137 31.674 22.8768 31.7589 22.5539C31.8438 22.231 31.9898 21.9286 32.1886 21.6638L34.2168 18.9431L32.1639 16.1716C31.7812 15.6566 31.6043 15.0108 31.6692 14.3662L32.1639 10.9082L29.0473 9.6114C28.7412 9.48353 28.4631 9.29389 28.2295 9.0537C27.9958 8.8135 27.8114 8.52762 27.687 8.21292L26.4503 5.0854L23.0864 5.54308C22.4587 5.61382 21.827 5.45149 21.3055 5.0854L18.56 2.87325L15.8393 5.0854C15.3345 5.44875 14.7221 5.61961 14.1079 5.56851L10.6698 5.0854L9.38366 8.21292C9.27487 8.51466 9.10669 8.79008 8.88964 9.02196C8.67259 9.25384 8.41134 9.43719 8.12221 9.56055L4.95624 10.9082L5.40145 14.3408C5.48049 14.9788 5.3214 15.6239 4.95624 16.1461L2.87856 18.9431L4.04107 20.4687C4.15229 20.5993 4.23633 20.7519 4.28801 20.9171C4.33969 21.0823 4.35791 21.2567 4.34156 21.4294C4.3252 21.6022 4.27461 21.7696 4.19291 21.9215C4.11121 22.0734 4.00012 22.2065 3.86649 22.3126C3.73287 22.4186 3.57953 22.4954 3.41592 22.5383C3.25232 22.5811 3.08191 22.5891 2.91521 22.5616C2.7485 22.5342 2.58902 22.472 2.4466 22.3788C2.30417 22.2856 2.18182 22.1634 2.08707 22.0198L0.256739 19.7313C0.0902679 19.509 0 19.2364 0 18.9558C0 18.6753 0.0902679 18.4026 0.256739 18.1803L2.9033 14.6205L2.33441 10.1708C2.29824 9.8905 2.354 9.6058 2.49287 9.36173C2.63174 9.11767 2.84579 8.92815 3.10117 8.82316L7.13285 7.14498L8.7653 3.05124C8.86804 2.79069 9.05348 2.57353 9.29148 2.43504C9.52948 2.29655 9.80604 2.24488 10.0762 2.28843L14.38 2.87325L17.818 0.25427C18.0321 0.0892206 18.2925 0 18.56 0C18.8276 0 19.088 0.0892206 19.3021 0.25427L22.7649 2.97496L27.0439 2.36471C27.3136 2.32571 27.5883 2.37933 27.8253 2.51726C28.0624 2.6552 28.2485 2.86971 28.3548 3.12752L30.012 7.22126L34.0189 8.89944C34.2743 9.00443 34.4884 9.19395 34.6272 9.43802C34.7661 9.68208 34.8218 9.96678 34.7857 10.2471L34.2168 14.6459L36.6902 18.0023C36.8908 18.2628 37 18.5854 37 18.9177C37 19.25 36.8908 19.5725 36.6902 19.833L34.2168 23.2148L34.7857 27.5883C34.8105 27.8604 34.7493 28.1336 34.6112 28.3672C34.473 28.6008 34.2654 28.7824 34.0189 28.8851L30.012 30.5124L28.3548 34.6061C28.2546 34.8505 28.0796 35.0546 27.8565 35.1876C27.6334 35.3207 27.3742 35.3754 27.1181 35.3435H26.5987L22.7649 34.8095L19.3021 37.5811C19.088 37.7461 18.8276 37.8353 18.56 37.8353ZM28.4537 31.7329V50.854C28.4422 51.1103 28.3523 51.3564 28.1969 51.5573C28.0415 51.7581 27.8284 51.9035 27.588 51.9728C27.4084 52.0091 27.2235 52.0091 27.0439 51.9728C26.6884 51.9728 26.342 51.8571 26.0545 51.6422L18.6342 45.4634L11.214 51.6422C10.9978 51.8101 10.7439 51.9191 10.4758 51.9591C10.2077 51.9991 9.93413 51.9688 9.68047 51.871C9.42755 51.8361 9.19233 51.7183 9.00966 51.5351C8.827 51.3519 8.70662 51.113 8.66637 50.854V31.7329C8.64297 31.6069 8.64297 31.4775 8.66637 31.3515L9.90308 34.1993L11.4861 33.9959V48.057L17.5954 42.9716C17.8737 42.757 18.2122 42.641 18.56 42.641C18.9079 42.641 19.2464 42.757 19.5247 42.9716L25.634 48.057V33.9959L26.6976 34.1484H27.217L27.4396 33.6399L28.3795 31.3006C28.4346 31.4374 28.4599 31.585 28.4537 31.7329V31.7329Z" fill="#8D8D8D"/>
<path d="M19 12.375C20.4834 12.375 21.9334 12.7929 23.1668 13.5758C24.4001 14.3587 25.3614 15.4715 25.9291 16.7734C26.4968 18.0753 26.6453 19.5079 26.3559 20.89C26.0665 22.2721 25.3522 23.5417 24.3033 24.5381C23.2544 25.5346 21.918 26.2132 20.4632 26.4881C19.0083 26.763 17.5003 26.6219 16.1299 26.0826C14.7594 25.5434 13.5881 24.6301 12.764 23.4584C11.9399 22.2867 11.5 20.9092 11.5 19.5C11.5 17.6103 12.2902 15.7981 13.6967 14.4619C15.1032 13.1257 17.0109 12.375 19 12.375V12.375ZM19 10C17.0222 10 15.0888 10.5572 13.4443 11.601C11.7998 12.6449 10.5181 14.1286 9.76121 15.8645C9.00433 17.6004 8.8063 19.5105 9.19215 21.3534C9.578 23.1962 10.5304 24.8889 11.9289 26.2175C13.3275 27.5461 15.1093 28.4509 17.0491 28.8175C18.9889 29.184 20.9996 28.9959 22.8268 28.2769C24.6541 27.5578 26.2159 26.3402 27.3147 24.7779C28.4135 23.2156 29 21.3789 29 19.5C29 16.9804 27.9464 14.5641 26.0711 12.7825C24.1957 11.0009 21.6522 10 19 10V10Z" fill="#F12626"/>
</svg>
