<svg width="49" height="49" viewBox="0 0 49 49" fill="none" xmlns="http://www.w3.org/2000/svg">
<path d="M24.5001 48.9999C19.4928 49.0156 14.6031 47.4835 10.5001 44.6132C10.3656 44.5297 10.2495 44.4197 10.1589 44.29C10.0682 44.1602 10.0049 44.0133 9.97289 43.8582C9.94082 43.7032 9.94065 43.5433 9.97237 43.3882C10.0041 43.2331 10.0671 43.0861 10.1574 42.9561C10.2478 42.8261 10.3636 42.7158 10.498 42.632C10.6323 42.5483 10.7823 42.4927 10.9388 42.4687C11.0953 42.4448 11.255 42.4529 11.4082 42.4926C11.5615 42.5324 11.705 42.6029 11.8301 42.6999C16.5096 45.9492 22.2586 47.2764 27.8889 46.4072C33.5192 45.538 38.6003 42.5388 42.0819 38.0295C45.5636 33.5202 47.1797 27.8456 46.5961 22.1786C46.0125 16.5116 43.2739 11.2854 38.9464 7.5803C34.6188 3.87519 29.0331 1.97441 23.3439 2.27085C17.6546 2.56728 12.2967 5.03826 8.37764 9.17305C4.45857 13.3078 2.27794 18.7903 2.28647 24.4873C2.29501 30.1843 4.49205 35.6602 8.42349 39.7832C8.54283 39.8906 8.63874 40.0214 8.70522 40.1674C8.7717 40.3135 8.80733 40.4717 8.80987 40.6322C8.81242 40.7927 8.78182 40.952 8.72 41.1001C8.65817 41.2482 8.56646 41.382 8.45058 41.493C8.3347 41.6041 8.19716 41.69 8.04655 41.7455C7.89594 41.8009 7.7355 41.8247 7.57528 41.8154C7.41505 41.806 7.25848 41.7637 7.11536 41.691C6.97224 41.6184 6.84565 41.517 6.7435 41.3932C2.39258 36.8481 -0.0248677 30.7919 0.000192915 24.4999C0.000192915 19.6543 1.43709 14.9175 4.12917 10.8885C6.82125 6.85952 10.6476 3.7193 15.1244 1.86496C19.6012 0.0106153 24.5273 -0.474565 29.2798 0.47077C34.0323 1.41611 38.3978 3.7495 41.8241 7.17588C45.2505 10.6023 47.5839 14.9677 48.5292 19.7202C49.4746 24.4728 48.9894 29.3989 47.135 33.8757C45.2807 38.3524 42.1405 42.1788 38.1115 44.8709C34.0825 47.563 29.3457 48.9999 24.5001 48.9999V48.9999Z" fill="#8D8D8D"/>
<path d="M31.0638 16.4723L15.9119 31.6139C15.4288 32.0971 15.4288 32.8783 15.9119 33.3615C16.1483 33.5979 16.467 33.7212 16.7857 33.7212C17.1043 33.7212 17.4127 33.5979 17.6594 33.3615L32.8113 18.2095C33.2945 17.7264 33.2945 16.9451 32.8113 16.462C32.3282 15.9892 31.547 15.9892 31.0638 16.4723Z" fill="#F12626"/>
<path d="M27.0961 26.6697C25.3794 28.3864 25.3794 31.1927 27.0961 32.9094C27.9287 33.742 29.0389 34.2046 30.2211 34.2046C31.4032 34.2046 32.5134 33.742 33.346 32.9094C35.0627 31.1927 35.0627 28.3864 33.346 26.6697C32.5134 25.8371 31.4032 25.3745 30.2211 25.3745C29.0389 25.3745 27.939 25.8371 27.0961 26.6697ZM31.5985 31.1721C31.2285 31.5422 30.7453 31.7375 30.2211 31.7375C29.6968 31.7375 29.2137 31.5319 28.8436 31.1721C28.0829 30.4115 28.0829 29.1779 28.8436 28.4172C29.2137 28.0472 29.6968 27.8519 30.2211 27.8519C30.7453 27.8519 31.2285 28.0575 31.5985 28.4172C32.3592 29.1779 32.3592 30.4115 31.5985 31.1721Z" fill="#F12626"/>
<path d="M18.832 15.3726C17.6499 15.3726 16.5397 15.8351 15.7071 16.6678C14.8744 17.5004 14.4119 18.6106 14.4119 19.7927C14.4119 20.9749 14.8744 22.0851 15.7071 22.9177C16.5397 23.7503 17.6499 24.2129 18.832 24.2129C20.0142 24.2129 21.1244 23.7503 21.957 22.9177C22.7896 22.0851 23.2522 20.9749 23.2522 19.7927C23.2522 18.6106 22.7896 17.5004 21.957 16.6678C21.1141 15.8351 20.0142 15.3726 18.832 15.3726ZM20.2095 21.1702C19.8394 21.5402 19.3563 21.7356 18.832 21.7356C18.3078 21.7356 17.8246 21.53 17.4546 21.1702C17.0845 20.8001 16.8892 20.317 16.8892 19.7927C16.8892 19.2685 17.0948 18.7853 17.4546 18.4153C17.8246 18.0452 18.3078 17.8499 18.832 17.8499C19.3563 17.8499 19.8394 18.0555 20.2095 18.4153C20.5795 18.7853 20.7749 19.2685 20.7749 19.7927C20.7749 20.3067 20.5795 20.8001 20.2095 21.1702Z" fill="#F12626"/>
</svg>
